<?xml version="1.0" encoding="UTF-8"?>
<svg width="63px" height="70px" viewBox="0 0 63 70" version="1.1" xmlns="http://www.w3.org/2000/svg" xmlns:xlink="http://www.w3.org/1999/xlink">
    <!-- Generator: Sketch 52.6 (67491) - http://www.bohemiancoding.com/sketch -->
    <title>Group 13</title>
    <desc>Created with Sketch.</desc>
    <g id="Page-1" stroke="none" stroke-width="1" fill="none" fill-rule="evenodd">
        <g id="Group-13">
            <g id="waiter" transform="translate(0.000000, 0.245184)">
                <path d="M24.9898774,55.4974956 L20.3350613,48.9814886 L18.1302452,50.5489492 C18.1302452,50.5489492 18.3359545,60.8385814 24.9994396,67.2570053 L26.9497548,69.2168827 L28.9097548,69.2168827 L30.4351664,69.2168827 L30.4351664,60.5121191 L30.4351664,57.7846935 L30.4351664,51.617951 L24.9898774,55.4974956 Z" id="Path" fill="#FCDC9C"></path>
                <polygon id="Path" fill="#FFFFFF" points="24.9898774 55.4974956 20.0901226 48.6378634 20.0901226 46.2530823 30.4351664 51.617951"></polygon>
                <path d="M9.31061296,54.4104729 L9.31061296,69.2168827 L0.490980736,69.2168827 C0.490980736,69.2168827 0.490980736,66.2771278 0.490980736,62.3572504 C0.490980736,58.437373 2.45085814,56.967373 6.37073555,55.4974956 C7.12528897,55.2238704 8.15408056,54.8410158 9.31061296,54.4104729 Z" id="Path" fill="#FCDC9C"></path>
                <path d="M24.9994396,67.2570053 L26.9497548,69.2168827 L9.31061296,69.2168827 L9.31061296,54.4104729 C12.2016988,53.3223468 15.9056918,51.8619089 18.1302452,50.5489492 C18.1302452,50.5489492 18.3359545,60.8385814 24.9994396,67.2570053 Z" id="Path" fill="#FF8F00"></path>
                <path d="M20.0901226,52.5089492 L21.9237303,51.2055517 L20.3350613,48.9814886 L18.1302452,50.5489492 C18.1302452,50.5489492 18.1541506,51.6677233 18.4216462,53.3921016 C19.0303152,53.0945709 19.600613,52.7978984 20.0901226,52.5089492 Z" id="Path" fill="#FFFFFF"></path>
                <path d="M11.2704904,56.3703503 C13.5252014,55.5215236 16.2654991,54.4468827 18.4216462,53.3922242 C18.1541506,51.6678459 18.1302452,50.5490718 18.1302452,50.5490718 C15.9056918,51.8620315 12.2016988,53.3224694 9.31061296,54.4105954 L9.31061296,57.0978109 C9.89488616,56.8822942 10.5527145,56.6373555 11.2704904,56.3703503 Z" id="Path" fill="#FCDC9C"></path>
                <path d="M24.9994396,67.2570053 C20.5278984,62.9496147 18.9660771,56.9043608 18.4211559,53.389282 C18.4211559,53.3902627 18.4216462,53.3912434 18.4216462,53.3921016 C17.8508581,53.6714886 17.2374081,53.9509982 16.6048336,54.2285464 C17.2603327,57.8095797 18.9050263,63.2749737 23.0395622,67.2568827 L24.9898774,69.2167601 L26.9497548,69.2167601 L24.9994396,67.2570053 Z" id="Path" fill="#FF8F00"></path>
                <path d="M8.33061296,57.4574956 C8.61674256,57.3531699 8.95313485,57.2298424 9.31049037,57.0976883 L9.31049037,54.4104729 C8.15395797,54.8410158 7.12528897,55.2238704 6.37073555,55.4974956 C2.45098074,56.9674956 0.490980736,58.4374956 0.490980736,62.357373 C0.490980736,66.2772504 0.490980736,69.2170053 0.490980736,69.2170053 L2.45085814,69.2170053 C2.45085814,67.9921891 2.45085814,66.2772504 2.45085814,64.3172504 C2.45098074,60.397373 4.41085814,58.9274956 8.33061296,57.4574956 Z" id="Path" fill="#FFFFFF"></path>
                <path d="M9.31061296,69.2170053 L11.2704904,69.2170053 L11.2704904,56.3703503 C10.5528371,56.6374781 9.89488616,56.8824168 9.31061296,57.0978109 L9.31061296,69.2170053 Z" id="Path" fill="#FCDC9C"></path>
                <path d="M35.8250438,55.4974956 L40.4798599,48.9814886 L42.684676,50.5489492 C42.684676,50.5489492 42.4789667,60.8385814 35.8154816,67.2570053 L33.8650438,69.2168827 L31.9051664,69.2168827 L30.3797548,69.2168827 L30.3797548,60.5121191 L30.3797548,57.7846935 L30.3797548,51.617951 L35.8250438,55.4974956 Z" id="Path" fill="#FCDC9C"></path>
                <polygon id="Path" fill="#FFFFFF" points="35.8250438 55.4974956 40.7247986 48.6378634 40.7247986 46.2530823 30.3797548 51.617951"></polygon>
                <path d="M35.8154816,67.2570053 L33.8650438,69.2168827 L51.5044308,69.2168827 L51.5044308,54.4104729 C48.613345,53.3223468 44.9087391,51.8619089 42.6847986,50.5489492 C42.684676,50.5489492 42.4789667,60.8385814 35.8154816,67.2570053 Z" id="Path" fill="#CCD1D9"></path>
                <g id="Group" opacity="0.7" transform="translate(42.294221, 50.507881)" fill="#FFFFFF">
                    <path d="M7.25021016,5.86246935 C4.99549912,5.01364273 2.25471103,3.93900175 0.0995446585,2.88434326 C0.366549912,1.15996497 0.390455342,0.0411908932 0.390455342,0.0411908932 C2.61451839,1.35415061 6.31900175,2.81458844 9.21008757,3.90271454 L9.21008757,6.58992995 C8.62642732,6.37441331 7.9678634,6.12947461 7.25021016,5.86246935 Z" id="Path"></path>
                </g>
                <g id="Group" transform="translate(15.691769, 30.525394)" fill="#FCDC9C">
                    <path d="M28.5639229,5.01627823 L28.5639229,6.4136026 C28.5639229,14.413584 19.7173,21.0858144 14.2817062,21.0858144 C8.84621452,21.0858144 0,14.413584 0,6.4136026 L0,5.01627823 L3.41153958,0 C3.41153958,0 9.02631196,2.00460589 14.167767,2.00460589 C19.3011565,2.00460589 24.9813725,0 24.9813725,0 L28.5639229,5.01627823 Z" id="Path"></path>
                </g>
                <path d="M15.2463923,31.0015412 L15.2463923,29.0416637 L18.9925569,22.6068126 C17.990613,22.2565674 17.3829247,22.0058669 17.3829247,22.0058669 L13.2865149,29.0416637 L13.2865149,31.0015412 C13.2865149,42.2222592 23.9086165,51.580683 30.435289,51.580683 C30.7530473,51.580683 31.0813485,51.5519965 31.415289,51.5089667 C24.8596848,50.6618564 15.2463923,41.6777058 15.2463923,31.0015412 Z" id="Path" fill="#FFFFFF"></path>
                <g id="Group" transform="translate(29.912434, 53.940455)" fill="#773C80">
                    <path d="M0.496497373,1.06716287 C0.226059545,1.06716287 0.00171628722,0.847968476 0.00171628722,0.577162872 C0.00171628722,0.306234676 0.216007005,0.0871628722 0.486935201,0.0871628722 L0.496497373,0.0871628722 C0.767302977,0.0871628722 0.986497373,0.306234676 0.986497373,0.577162872 C0.986374781,0.847968476 0.767302977,1.06716287 0.496497373,1.06716287 Z" id="Path"></path>
                    <path d="M0.496497373,4.00704028 C0.226059545,4.00704028 0.00171628722,3.78796848 0.00171628722,3.51704028 C0.00171628722,3.24623468 0.216007005,3.02704028 0.486935201,3.02704028 L0.496497373,3.02704028 C0.767302977,3.02704028 0.986497373,3.24623468 0.986497373,3.51704028 C0.986374781,3.78796848 0.767302977,4.00704028 0.496497373,4.00704028 Z" id="Path"></path>
                </g>
                <g id="Group" transform="translate(28.809107, 49.527145)" fill="#F8B631">
                    <path d="M15.780035,0.0907180385 C16.3188266,0.0907180385 16.7599124,0.531926445 16.7599124,1.07071804 C16.7599124,1.60950963 16.318704,2.05059545 15.780035,2.05059545 C15.2411208,2.05059545 14.800035,1.60938704 14.800035,1.07071804 C14.800035,0.531803853 15.2412434,0.0907180385 15.780035,0.0907180385 Z" id="Path"></path>
                    <path d="M15.780035,2.05059545 C24.442627,2.05059545 31.4592995,9.06726795 31.4592995,17.7298599 L31.4592995,19.6897373 L0.100647986,19.6897373 L0.100647986,17.7298599 C0.100647986,12.8596497 2.3252014,8.50837128 5.80436077,5.62770578 C8.51842382,3.39322242 11.9874081,2.05059545 15.780035,2.05059545 Z" id="Path"></path>
                </g>
                <path d="M37.5532224,55.1549737 C39.9073555,53.2170403 42.8310508,51.9529947 46.0398949,51.6515412 C45.5614186,51.6075306 45.0790193,51.5777408 44.5891419,51.5777408 C40.7963923,51.5777408 37.3275306,52.9203678 34.6134676,55.1549737 C31.1343082,58.0356392 28.9097548,62.3869177 28.9097548,67.2571278 L28.9097548,69.2170053 L31.8496322,69.2170053 L31.8496322,67.2570053 C31.8496322,62.3869177 34.0736953,58.0356392 37.5532224,55.1549737 Z" id="Path" fill="#FCDC9C"></path>
                <path d="M51.6249387,55.1549737 C49.270683,53.2170403 46.3471103,51.9529947 43.1382662,51.6515412 C43.6167426,51.6075306 44.0991419,51.5777408 44.5891419,51.5777408 C48.3816462,51.5777408 51.8506305,52.9203678 54.5646935,55.1549737 C58.0443433,58.0356392 60.2684063,62.3869177 60.2684063,67.2571278 L60.2684063,69.2170053 L57.3285289,69.2170053 L57.3285289,67.2570053 C57.3285289,62.3869177 55.1044658,58.0356392 51.6249387,55.1549737 Z" id="Path" fill="#FF8F00"></path>
                <g id="Group" transform="translate(0.000000, 30.402802)" fill="#773C80">
                    <path d="M30.3797548,21.6649387 C23.5750438,21.6649387 12.7404904,12.0233275 12.7404904,0.595796848 C12.7404904,0.324991243 12.9596848,0.105796848 13.2304904,0.105796848 C13.501296,0.105796848 13.7204904,0.324991243 13.7204904,0.595796848 C13.7204904,11.4911559 23.9531173,20.6850613 30.3798774,20.6850613 C36.8060245,20.6850613 47.0391419,11.4911559 47.0391419,0.595796848 C47.0391419,0.324991243 47.2583363,0.105796848 47.5291419,0.105796848 C47.7999475,0.105796848 48.0191419,0.324991243 48.0191419,0.595796848 C48.0190193,12.0233275 37.1838529,21.6649387 30.3797548,21.6649387 Z" id="Path"></path>
                    <path d="M62.2282837,39.3042032 L26.9497548,39.3042032 C26.6789492,39.3042032 26.4597548,39.0851313 26.4597548,38.8142032 C26.4597548,38.5433975 26.6789492,38.3242032 26.9497548,38.3242032 L62.2282837,38.3242032 C62.4992119,38.3242032 62.7182837,38.5433975 62.7182837,38.8142032 C62.7182837,39.0851313 62.4992119,39.3042032 62.2282837,39.3042032 Z" id="Path"></path>
                    <path d="M60.2684063,37.3442032 C59.9974781,37.3442032 59.7784063,37.1250088 59.7784063,36.8542032 C59.7784063,28.4787215 52.9646235,21.6649387 44.5891419,21.6649387 C41.0712434,21.6649387 37.6395271,22.8956392 34.9244834,25.1302452 C31.4136953,28.0376357 29.3997548,32.3114361 29.3997548,36.8543257 C29.3997548,37.1251313 29.1805604,37.3443257 28.9097548,37.3443257 C28.6389492,37.3443257 28.4197548,37.1251313 28.4197548,36.8543257 C28.4197548,32.0186865 30.5633975,27.470035 34.3004904,24.3742207 C37.1914536,21.9952014 40.8443257,20.6850613 44.5891419,20.6850613 C53.5043958,20.6850613 60.7584063,27.9390718 60.7584063,36.8543257 C60.7584063,37.1250088 60.5392119,37.3442032 60.2684063,37.3442032 Z" id="Path"></path>
                    <path d="M44.5891419,21.6649387 C43.7785639,21.6649387 43.1191419,21.0055166 43.1191419,20.1950613 C43.1191419,19.3844834 43.7785639,18.7250613 44.5891419,18.7250613 C45.3995972,18.7250613 46.0590193,19.3844834 46.0590193,20.1950613 C46.0590193,21.0055166 45.3995972,21.6649387 44.5891419,21.6649387 Z M44.5891419,19.7050613 C44.3191944,19.7050613 44.0991419,19.9251138 44.0991419,20.1950613 C44.0991419,20.4658669 44.3191944,20.6850613 44.5891419,20.6850613 C44.8589667,20.6850613 45.0790193,20.4658669 45.0790193,20.1950613 C45.0790193,19.9251138 44.8589667,19.7050613 44.5891419,19.7050613 Z" id="Shape" fill-rule="nonzero"></path>
                    <path d="M51.4487741,17.7450613 C51.3464098,17.7450613 51.2439229,17.7134326 51.1559019,17.6474781 C50.9396497,17.4857793 50.8946585,17.1785639 51.0563573,16.9621891 C51.1349387,16.8560245 52.9608231,14.355394 51.1234151,12.7217338 C49.1129072,10.9340981 50.2009107,8.30339755 51.0563573,7.16169877 C51.2191594,6.94630473 51.5263748,6.90241681 51.7416462,7.06313485 C51.958021,7.22483363 52.0028897,7.53204904 51.8411909,7.74928196 C51.7626095,7.85446585 49.936725,10.3552189 51.7741331,11.9897373 C53.784641,13.7763923 52.6966375,16.4081961 51.8411909,17.5489142 C51.7444658,17.677268 51.5980911,17.7450613 51.4487741,17.7450613 Z" id="Path"></path>
                    <path d="M58.3084063,21.6649387 C58.206042,21.6649387 58.1036778,21.63331 58.0155342,21.5673555 C57.799282,21.4056567 57.7542907,21.0984413 57.9159895,20.8820665 C57.9945709,20.7759019 59.8203327,18.2752715 57.9830473,16.6416112 C55.9724168,14.8539755 57.0605429,12.223275 57.9159895,11.0815762 C58.0796497,10.8652014 58.3849037,10.823275 58.6011559,10.9830123 C58.8175306,11.144711 58.8625219,11.4519264 58.7007005,11.6691594 C58.6221191,11.7743433 56.7962347,14.2750963 58.6336427,15.9096147 C60.6442732,17.6962697 59.5561471,20.3280736 58.7007005,21.4687916 C58.6040981,21.5970228 58.4578459,21.6649387 58.3084063,21.6649387 Z" id="Path"></path>
                    <path d="M24.9903678,25.5848161 C24.8387215,25.5848161 24.6894046,25.5150613 24.5937828,25.3829072 C24.4344133,25.1648161 24.4828371,24.8576007 24.7019089,24.6987215 L30.0916637,20.7788441 C30.3103678,20.619965 30.6166025,20.6678984 30.775972,20.8869702 C30.9353415,21.1061646 30.8869177,21.4123993 30.6678459,21.5712785 L25.2780911,25.4911559 C25.1909282,25.5541681 25.0904028,25.5848161 24.9903678,25.5848161 Z" id="Path"></path>
                    <path d="M33.0745709,23.6248161 C32.9740455,23.6248161 32.8735201,23.5941681 32.7864799,23.5309107 L30.0915412,21.5711559 C29.8723468,21.4122767 29.8240455,21.106042 29.9834151,20.8868476 C30.1418039,20.6667951 30.4480385,20.6188616 30.6677233,20.7787215 L33.3625394,22.7385989 C33.5816112,22.8974781 33.6295447,23.2046935 33.4706655,23.4227846 C33.3750438,23.5549387 33.2258494,23.6248161 33.0745709,23.6248161 Z" id="Path"></path>
                    <path d="M24.9898774,39.3042032 L0.490980736,39.3042032 C0.220175131,39.3042032 0.000980735552,39.0851313 0.000980735552,38.8142032 L0.000980735552,31.9545709 C0.000980735552,27.7561646 2.1790718,26.1437128 6.19849387,24.6364448 C6.95697023,24.3608581 7.98416813,23.9791068 9.13935201,23.5483187 C11.8199475,22.5396322 15.6444483,21.0448687 17.8815061,19.7243082 C18.1150438,19.5893345 18.4150263,19.6649737 18.5523292,19.8975306 C18.6896322,20.1309457 18.6126445,20.4305604 18.3791068,20.5683538 C16.0765849,21.9272855 12.1993695,23.4441156 9.4834676,24.4661646 C8.32411559,24.8987916 7.29397548,25.2815236 6.53844133,25.5552715 C2.77450088,26.9669177 0.981103327,28.2855166 0.981103327,31.9546935 L0.981103327,38.3243257 L24.99,38.3243257 C25.2608056,38.3243257 25.48,38.5435201 25.48,38.8143257 C25.4798774,39.0851313 25.260683,39.3042032 24.9898774,39.3042032 Z" id="Path"></path>
                    <path d="M24.9994396,37.3442032 C24.8769702,37.3442032 24.7545009,37.2992119 24.6597373,37.2073905 C17.9273555,30.7227671 17.6488266,20.5844133 17.6402452,20.1557093 C17.6349737,19.8858844 17.8498774,19.6619089 18.1201926,19.6561471 C18.4196848,19.6619089 18.6144834,19.8667601 18.6202452,20.1365849 C18.6222067,20.2369877 18.9045359,30.3037478 25.3392644,36.5011384 C25.5345534,36.6896848 25.5403152,36.9995972 25.3521366,37.1939054 C25.2563923,37.2945534 25.1277933,37.3442032 24.9994396,37.3442032 Z" id="Path"></path>
                    <path d="M9.31061296,39.3042032 C9.03980736,39.3042032 8.82061296,39.0851313 8.82061296,38.8142032 L8.82061296,24.0076708 C8.82061296,23.7367426 9.03980736,23.5176708 9.31061296,23.5176708 C9.58141856,23.5176708 9.80061296,23.7367426 9.80061296,24.0076708 L9.80061296,38.8140806 C9.80061296,39.0851313 9.58141856,39.3042032 9.31061296,39.3042032 Z" id="Path"></path>
                    <path d="M24.9903678,25.5848161 C24.8372504,25.5848161 24.6869527,25.5140806 24.591331,25.379965 L19.6915762,18.5203327 C19.5341681,18.3001576 19.585289,17.9939229 19.8054641,17.8370053 C20.0250263,17.6792294 20.3317513,17.7308406 20.488669,17.9510158 L25.3885464,24.810648 C25.5459545,25.0308231 25.494711,25.3370578 25.2746585,25.4939755 C25.1884764,25.5550263 25.0890543,25.5848161 24.9903678,25.5848161 Z" id="Path"></path>
                    <path d="M28.9097548,38.3242032 C28.6389492,38.3242032 28.4197548,38.1051313 28.4197548,37.8343257 L28.4197548,36.8543257 C28.4197548,36.5835201 28.6388266,36.3644483 28.9097548,36.3644483 C29.1805604,36.3644483 29.3997548,36.5835201 29.3997548,36.8543257 L29.3997548,37.8343257 C29.3997548,38.1050088 29.1805604,38.3242032 28.9097548,38.3242032 Z" id="Path"></path>
                    <path d="M60.2684063,38.3242032 C59.9974781,38.3242032 59.7784063,38.1051313 59.7784063,37.8343257 L59.7784063,36.8543257 C59.7784063,36.5835201 59.9974781,36.3644483 60.2684063,36.3644483 C60.5392119,36.3644483 60.7582837,36.5835201 60.7582837,36.8543257 L60.7582837,37.8343257 C60.7584063,38.1050088 60.5392119,38.3242032 60.2684063,38.3242032 Z" id="Path"></path>
                </g>
                <path d="M48.0718413,2.31888705 L39.6536897,2.31888705 C37.7983097,1.0869919 34.9307714,0 30.5684188,0 C26.2112417,0 23.3519313,1.08481618 21.4965513,2.31888705 L19.4299013,2.31888705 L13.6948248,2.31888705 L13.0649962,2.31888705 C8.95943207,2.31888705 5.63922942,5.94785027 5.63922942,10.4352093 C5.63922942,14.9225683 8.95956478,18.5515315 13.0649962,18.5515315 L13.0649962,30.1462569 C13.0649962,31.3057729 16.2474487,32.465289 30.5685515,32.465289 C44.8896542,32.465289 48.0721067,31.3057729 48.0721067,30.1462569 L48.0721067,18.5515315 C52.1776709,18.5515315 55.4977408,14.9225683 55.4977408,10.4352093 C55.4974754,5.95974423 52.1774054,2.31888705 48.0718413,2.31888705 Z" id="Path" fill="#FF8F00"></path>
            </g>
            <g id="Group-12" transform="translate(5.026270, 0.000000)" fill="#773C80">
                <path d="M7.96847633,30.2802102 C7.69746748,30.2802102 7.47810858,30.0285782 7.47810858,29.7173825 L7.47810858,18.4612515 C7.47810858,18.1501966 7.69746748,17.8984238 7.96847633,17.8984238 C8.23948518,17.8984238 8.45884408,18.1500558 8.45884408,18.4612515 L8.45884408,29.7173825 C8.45896677,30.0285782 8.23948518,30.2802102 7.96847633,30.2802102 Z" id="Path"></path>
                <path d="M43.765324,30.2802102 C43.4943151,30.2802102 43.2749562,30.0285782 43.2749562,29.7173825 L43.2749562,18.4612515 C43.2749562,18.1501966 43.4943151,17.8984238 43.765324,17.8984238 C44.0363329,17.8984238 44.2556918,18.1500558 44.2556918,18.4612515 L44.2556918,29.7173825 C44.2556918,30.0285782 44.0362102,30.2802102 43.765324,30.2802102 Z" id="Path"></path>
                <path d="M25.7444426,32.4868651 C9.69115064,32.4868651 7.47810858,31.1616581 7.47810858,29.729949 C7.47810858,29.4252038 7.71844624,29.1785381 8.01537347,29.1785381 C8.31176303,29.1785381 8.55210069,29.424652 8.55263836,29.7282935 C8.63073465,30.0082066 9.83269177,31.3840435 25.7443082,31.3840435 C41.6810607,31.3840435 42.8616455,30.0039299 42.9359781,29.7271898 C42.9359781,29.4224447 43.1773911,29.1768827 43.473243,29.1768827 C43.7701702,29.1768827 44.0105079,29.4250658 44.0105079,29.729811 C44.0107767,31.1616581 41.7977347,32.4868651 25.7444426,32.4868651 Z" id="Path"></path>
                <path d="M7.93014157,19.1243433 C3.55713516,19.1243433 0,15.3574401 0,10.7268651 C0,6.09629018 3.55726744,2.32924694 7.93014157,2.32924694 C8.22233671,2.32924694 8.45884413,2.57955207 8.45884413,2.88910682 C8.45884413,3.19866158 8.22233671,3.44896671 7.93014157,3.44896671 C4.14059951,3.44896671 1.05727284,6.71399899 1.05727284,10.7268651 C1.05727284,14.7397313 4.14059951,18.0047635 7.93014157,18.0047635 C8.22233671,18.0047635 8.45884413,18.2550687 8.45884413,18.5646234 C8.45884413,18.8741782 8.22233671,19.1243433 7.93014157,19.1243433 Z" id="Path"></path>
                <path d="M43.8036588,19.1243433 C43.5114636,19.1243433 43.2749562,18.8740402 43.2749562,18.564488 C43.2749562,18.2549359 43.5114636,18.0046328 43.8036588,18.0046328 C47.5932008,18.0046328 50.6765275,14.7396278 50.6765275,10.7267951 C50.6765275,6.71396242 47.5932008,3.44895738 43.8036588,3.44895738 C43.5114636,3.44895738 43.2749562,3.19865433 43.2749562,2.88910216 C43.2749562,2.57954998 43.5114636,2.32924694 43.8036588,2.32924694 C48.1766652,2.32924694 51.7338004,6.0961187 51.7338004,10.726655 C51.7338004,15.3571914 48.1765329,19.1243433 43.8036588,19.1243433 Z" id="Path"></path>
                <path d="M37.8347179,6.74255692 C37.6232338,6.74255692 37.4220824,6.61083231 37.3383476,6.39250966 C37.3362005,6.38927629 37.0951946,5.79489885 36.4353804,5.01312664 C35.1907646,3.56275009 32.1131079,1.12366577 25.4989977,1.12366577 C19.891047,1.12366577 16.8270778,2.86251499 15.2441679,4.32160757 C14.053094,5.40689466 13.6646128,6.38041967 13.6608555,6.39026036 C13.5492091,6.676062 13.2365454,6.81594032 12.9637364,6.70024197 C12.6898538,6.58510594 12.5562001,6.26120679 12.664626,5.97371817 C12.6830101,5.92437416 13.1360368,4.7527702 14.5380581,3.47544915 C16.2571712,1.89137986 19.5563761,0 25.4989977,0 C32.5278904,0 35.8694996,2.67216801 37.2355578,4.26565624 C38.0295623,5.20670699 38.3198161,5.93815112 38.3313565,5.96879783 C38.4434055,6.25628645 38.3114963,6.58398129 38.0369428,6.70080429 C37.9709211,6.72934228 37.9018131,6.74255692 37.8347179,6.74255692 Z" id="Path"></path>
                <path d="M14.5358825,3.30998249 L8.02103517,3.30998249 C7.72097892,3.30998249 7.47810858,3.06334173 7.47810858,2.75831874 C7.47810858,2.45329575 7.72097892,2.20665499 8.02103517,2.20665499 L14.5358825,2.20665499 C14.8359388,2.20665499 15.0788091,2.45329575 15.0788091,2.75831874 C15.0788091,3.06334173 14.8359388,3.30998249 14.5358825,3.30998249 Z" id="Path"></path>
                <path d="M43.7098884,3.30998249 L37.2388834,3.30998249 C36.9362206,3.30998249 36.6549912,3.06334173 36.6549912,2.75831874 C36.6549912,2.45329575 36.8607255,2.20665499 37.1622962,2.20665499 L43.710025,2.20665499 C44.0115956,2.20665499 44.2556918,2.45329575 44.2556918,2.75831874 C44.2556918,3.06334173 44.0113226,3.30998249 43.7098884,3.30998249 Z" id="Path"></path>
            </g>
        </g>
    </g>
</svg>