<?xml version="1.0" encoding="UTF-8"?>
<svg width="80px" height="70px" viewBox="0 0 80 70" version="1.1" xmlns="http://www.w3.org/2000/svg" xmlns:xlink="http://www.w3.org/1999/xlink">
    <!-- Generator: Sketch 52.6 (67491) - http://www.bohemiancoding.com/sketch -->
    <title>salad 2</title>
    <desc>Created with Sketch.</desc>
    <g id="Page-1" stroke="none" stroke-width="1" fill="none" fill-rule="evenodd">
        <g id="salad-2">
            <g id="salad">
                <path d="M74.0196875,21.3490625 L72.268125,19.5878125 C70.1067187,17.81375 67.3465625,16.7396875 64.3239063,16.7396875 C58.2532813,16.7396875 53.195,21.0610938 52.0717188,26.8067187 L52.0717188,28.0557812 L44.3398438,28.0557812 L44.3398438,26.8067187 C44.3398438,26.8067187 50.685,18.33875 49.2859375,10.906875 L50.5848438,10.5696875 C50.5848438,10.5696875 60.3146875,12.6804687 62.8626563,3.55 C63.849375,0.003125 73.379375,5.77359375 74.3159375,10.5696875 C74.5660938,11.8685937 74.9929688,17.3348438 74.0196875,21.3490625 Z" id="Path" fill="#FCDC9C"></path>
                <path d="M74.3159375,10.5696875 C73.4829688,6.30484375 65.8692188,1.286875 63.4957813,2.71703125 C66.6865625,3.69765625 71.1885938,7.3471875 71.818125,10.5696875 C72.0278125,11.6576563 72.3571875,15.668125 71.88875,19.3017188 C72.014375,19.3975 72.1460938,19.4871875 72.268125,19.5878125 L74.0196875,21.3490625 C74.9929688,17.3348438 74.5660938,11.8685938 74.3159375,10.5696875 Z" id="Path" fill="#F8B631"></path>
                <path d="M3.12265625,28.0559375 L3.12265625,26.8067188 C3.12265625,26.8067188 4.1215625,12.5682812 9.9921875,7.18484375 C15.875,1.814375 15.0760937,8.8834375 19.0596875,8.8834375 C23.0445312,8.8834375 25.068125,-2.0953125 38.1692187,1.314375 C45.5510937,3.23796875 48.536875,6.9228125 49.2859375,10.9070312 C50.685,18.33875 44.3398437,26.806875 44.3398437,26.806875 L44.3398437,28.0559375 L3.12265625,28.0559375 Z" id="Path" fill="#FCDC9C"></path>
                <path d="M49.2859375,10.906875 C48.536875,6.92265625 45.5510938,3.2378125 38.1692188,1.31421875 C35.890625,0.72140625 33.9526563,0.57078125 32.2754688,0.7146875 C33.3184375,0.8025 34.4454688,0.99515625 35.67125,1.31421875 C43.053125,3.2378125 46.0390625,6.92265625 46.7879688,10.906875 C48.186875,18.3385938 41.8420313,26.8067187 41.8420313,26.8067187 L44.3398438,26.8067187 C44.3398438,26.8067187 50.685,18.3385937 49.2859375,10.906875 Z" id="Path" fill="#F8B631"></path>
                <path d="M12.4901562,7.18484375 C13.3659375,6.3846875 14.0917187,5.86640625 14.7101562,5.55359375 C13.7478125,4.87109375 12.4573437,4.93453125 9.9921875,7.18484375 C4.1215625,12.5682813 3.12265625,26.8067187 3.12265625,26.8067187 L3.12265625,28.0557813 L5.620625,28.0557813 L5.620625,26.8067187 C5.620625,26.8067187 6.61953125,12.568125 12.4901562,7.18484375 Z" id="Path" fill="#FFFFFF"></path>
                <g id="Group" transform="translate(25.468750, 10.468750)">
                    <path d="M25.0660938,0.438125 C25.0465625,0.335625 25.0196875,0.23375 24.9965625,0.13203125 L23.8171875,0.438125 C25.21625,7.86984375 18.8710937,16.3379687 18.8710937,16.3379687 L20.1201563,16.3379687 C20.1201563,16.3379687 26.4651562,7.86984375 25.0660938,0.438125 Z" id="Path" fill="#94C1FF"></path>
                    <path d="M15.1240625,16.3379687 L15.1240625,17.5870312 L0.1359375,17.5870312 L0.1359375,16.3379687 C0.1359375,12.20375 3.49625,8.84390625 7.63,8.84390625 C10.4025,8.84390625 12.8260937,10.3551563 14.125,12.5909375 C14.761875,13.6898438 15.1240625,14.9639063 15.1240625,16.3379687 Z" id="Path" fill="#FF8F00"></path>
                </g>
                <path d="M33.6329688,19.3485937 C33.4548438,19.3364062 33.2792187,19.3126562 33.09875,19.3126562 C28.965,19.3126562 25.6046875,22.6725 25.6046875,26.8067187 L26.8535938,26.8067187 C26.8535938,22.9139063 29.8335938,19.7103125 33.6329688,19.3485937 Z" id="Path" fill="#D7E9FF"></path>
                <path d="M32.5645313,19.3485937 C32.7426563,19.3364062 32.9182813,19.3126562 33.09875,19.3126562 C37.2323438,19.3126562 40.5928125,22.6725 40.5928125,26.8067187 L39.34375,26.8067187 C39.34375,22.9139063 36.3640625,19.7103125 32.5645313,19.3485937 Z" id="Path" fill="#FF8F00"></path>
                <path d="M52.0717188,26.8067187 C53.195,21.06125 58.2532813,16.7396875 64.3239063,16.7396875 C67.3465625,16.7396875 70.1067187,17.8135937 72.268125,19.5878125 C74.4282813,21.3614063 75.9773438,23.859375 76.5640625,26.706875 L76.5640625,28.0559375 L52.0717188,28.0559375 L52.0717188,26.8067187 Z" id="Path" fill="#FF8F00"></path>
                <path d="M64.9484375,16.7670312 C64.7410938,16.7573437 64.535,16.7396875 64.3239062,16.7396875 C58.2532813,16.7396875 53.195,21.0610938 52.0717188,26.8067187 L53.3207813,26.8067187 C54.4051562,21.26 59.1595312,17.053125 64.9484375,16.7670312 Z" id="Path" fill="#FFFFFF"></path>
                <g id="Group" transform="translate(0.468750, 16.718750)">
                    <path d="M63.2185937,0.04828125 C63.4259375,0.03859375 63.6320312,0.0209375 63.8429687,0.0209375 C69.91375,0.0209375 74.9720313,4.34234375 76.0953125,10.0879687 L74.84625,10.0879687 C73.761875,4.54125 69.0075,0.334375 63.2185937,0.04828125 Z" id="Path" fill="#5C9EFF"></path>
                    <path d="M78.8432812,13.2104688 C78.8432812,34.943125 61.2328125,52.55375 39.4995312,52.55375 C17.76625,52.55375 0.15578125,34.943125 0.15578125,13.2104688 L0.15578125,11.3370312 L2.65375,11.3370312 L25.1359375,11.3370312 L40.1240625,11.3370312 L43.8709375,11.3370312 L51.6028125,11.3370312 L76.0951563,11.3370312 L78.8432813,11.3370312 L78.8432812,13.2104688 Z" id="Path" fill="#F8B631"></path>
                </g>
                <path d="M6.86703125,29.9292188 L6.86703125,28.0557813 L5.618125,28.0557813 L3.12015625,28.0557813 L0.6221875,28.0557813 L0.6221875,29.9292188 C0.6221875,51.661875 18.2326562,69.2725 39.9659375,69.2725 C41.0185937,69.2725 42.0565625,69.21875 43.0884375,69.1382813 C22.8175,67.5451563 6.86703125,50.6092188 6.86703125,29.9292188 Z" id="Path" fill="#FCDC9C"></path>
                <path d="M73.070625,29.9292188 L73.070625,28.0557813 L74.3195313,28.0557813 L76.8176562,28.0557813 L79.3154687,28.0557813 L79.3154687,29.9292188 C79.3154687,51.661875 61.705,69.2725 39.9717188,69.2725 C38.9190625,69.2725 37.8810937,69.21875 36.8492187,69.1382813 C57.1201563,67.5451563 73.070625,50.6092188 73.070625,29.9292188 Z" id="Path" fill="#FF8F00"></path>
                <g id="Group" transform="translate(7.343750, 20.468750)" fill="#FFFFFF">
                    <polygon id="Path" points="11.778125 0.0178125 6.55765625 3.9271875 0.0503125 4.314375 5.27078125 0.40515625"></polygon>
                    <polygon id="Path" points="6.51984375 0.40515625 11.6707812 0.0984375 11.778125 0.0178125 5.27078125 0.40515625 0.0503125 4.314375 1.40671875 4.23390625"></polygon>
                    <polygon id="Path" points="7.90546875 7.58703125 1.295625 7.58703125 0.0503125 4.314375 6.55765625 3.9271875"></polygon>
                    <polygon id="Path" points="14.5920313 7.58703125 7.90546875 7.58703125 6.55765625 3.9271875 11.778125 0.0178125"></polygon>
                </g>
                <path d="M68.6553125,26.8067187 C67.8039063,25.2778125 66.1903125,24.231875 64.3190625,24.231875 C62.4479688,24.231875 60.834375,25.2776563 59.9829688,26.8067187 L68.6553125,26.8067187 Z" id="Path" fill="#D7E9FF"></path>
                <polygon id="Path" fill="#F8B631" points="3.12265625 26.8067187 3.12265625 28.0557812 44.3398438 28.0557812 52.0717188 28.0557812 76.5640625 28.0557812 76.5640625 26.8067187"></polygon>
                <g id="Group" transform="translate(25.468750, 26.718750)" fill="#F8B631">
                    <rect id="Rectangle" x="26.6026563" y="0.08859375" width="24.4921875" height="1.2490625"></rect>
                    <rect id="Rectangle" x="0.13546875" y="0.08859375" width="14.9875" height="1.2490625"></rect>
                </g>
                <rect id="Rectangle" fill="#773C80" x="8.13078125" y="26.8073438" width="13.3140625" height="1.2490625"></rect>
                <g id="Group" fill="#773C80">
                    <path d="M39.9682812,69.896875 C17.9301562,69.896875 0,51.966875 0,29.9292187 C0,29.5840625 0.279375,29.3046875 0.62453125,29.3046875 C0.9696875,29.3046875 1.2490625,29.5840625 1.2490625,29.9292188 C1.2490625,51.2789063 18.618125,68.6479688 39.9682812,68.6479688 C61.3184375,68.6479688 78.6876563,51.2789063 78.6876563,29.9292188 C78.6876563,29.5840625 78.966875,29.3046875 79.3120312,29.3046875 C79.6573437,29.3046875 79.9365625,29.5840625 79.9365625,29.9292188 C79.9365625,51.966875 62.0064062,69.896875 39.9682812,69.896875 Z" id="Path"></path>
                    <path d="M79.3120312,28.6801562 L0.62453125,28.6801562 C0.279375,28.6801562 0,28.4007812 0,28.055625 C0,27.7104687 0.279375,27.4310937 0.62453125,27.4310937 L79.3120313,27.4310937 C79.6573438,27.4310937 79.9365625,27.7104687 79.9365625,28.055625 C79.9365625,28.4007812 79.6573438,28.6801562 79.3120312,28.6801562 Z" id="Path"></path>
                    <path d="M0.62453125,30.55375 C0.279375,30.55375 0,30.274375 0,29.9292188 L0,28.0557813 C0,27.710625 0.279375,27.43125 0.62453125,27.43125 C0.9696875,27.43125 1.2490625,27.710625 1.2490625,28.0557813 L1.2490625,29.9292188 C1.2490625,30.274375 0.9696875,30.55375 0.62453125,30.55375 Z" id="Path"></path>
                    <path d="M79.3120312,30.55375 C78.966875,30.55375 78.6876563,30.274375 78.6876563,29.9292188 L78.6876563,28.0557813 C78.6876563,27.710625 78.966875,27.43125 79.3120312,27.43125 C79.6573437,27.43125 79.9365625,27.710625 79.9365625,28.0557813 L79.9365625,29.9292188 C79.9365625,30.274375 79.6573437,30.55375 79.3120312,30.55375 Z" id="Path"></path>
                    <path d="M3.12375,27.43125 C3.1078125,27.43125 3.09328125,27.430625 3.07859375,27.429375 C2.7346875,27.405625 2.47484375,27.106875 2.49921875,26.7628125 C2.54078125,26.17125 3.5846875,12.213125 9.57,6.724375 C11.2946875,5.1490625 12.6364062,4.45375 13.7829687,4.555 C15.0015625,4.65625 15.7210937,5.5740625 16.4176563,6.46140625 C17.1421875,7.3853125 17.8264062,8.25875 19.0596875,8.25875 C20.105,8.25875 21.1125,7.1596875 22.3882812,5.768125 C25.1021875,2.8084375 29.1992188,-1.665 38.3265625,0.70984375 C45.0789062,2.469375 48.9723437,5.86140625 49.899375,10.7915625 C51.3325,18.4057812 45.105625,26.82625 44.8398438,27.18125 C44.6325,27.458125 44.2409375,27.51125 43.9651562,27.306875 C43.6895312,27.1001562 43.6334375,26.7085937 43.8395313,26.4321875 C43.9017188,26.35 50.0028125,18.0929687 48.6721875,11.0220312 C47.8426562,6.60828125 44.2554687,3.545625 38.0115625,1.91859375 C29.61125,-0.2678125 25.9692188,3.70859375 23.3089062,6.61203125 C21.8842188,8.1659375 20.6546875,9.50765625 19.059375,9.50765625 C17.21875,9.50765625 16.2295313,8.2459375 15.434375,7.23171875 C14.855,6.49375 14.3548438,5.85578125 13.6792188,5.7996875 C12.9071875,5.7253125 11.8228125,6.3584375 10.4128125,7.64578125 C4.7959375,12.7967187 3.75546875,26.7103125 3.74578125,26.8504687 C3.72265625,27.179375 3.448125,27.43125 3.12375,27.43125 Z" id="Path"></path>
                    <path d="M40.5928125,27.43125 C40.2476562,27.43125 39.9682812,27.151875 39.9682812,26.8067187 C39.9682812,25.593125 39.6525,24.4057813 39.0535937,23.3725 C37.8228125,21.25375 35.5407812,19.9371875 33.0989062,19.9371875 C29.3115625,19.9371875 26.229375,23.0189063 26.229375,26.8067188 C26.229375,27.151875 25.95,27.43125 25.6048437,27.43125 C25.2596875,27.43125 24.9803125,27.151875 24.9803125,26.8067187 C24.9803125,22.3303125 28.6225,18.6882812 33.0989062,18.6882812 C35.9835937,18.6882812 38.6792187,20.2428125 40.1342187,22.7464062 C40.8428125,23.9698438 41.2175,25.37375 41.2175,26.806875 C41.2173437,27.151875 40.9379687,27.43125 40.5928125,27.43125 Z" id="Path"></path>
                    <path d="M39.5939063,23.6842187 C39.375625,23.6842187 39.1620313,23.5682813 39.0475,23.3628125 C38.8804688,23.0615625 38.9889062,22.6817188 39.2903125,22.5139063 L41.5382813,21.2648438 C41.8371875,21.0971875 42.2189063,21.2039063 42.3882813,21.5076563 C42.5554688,21.8089063 42.446875,22.18875 42.145625,22.3565625 L39.8976563,23.605625 C39.80125,23.6592188 39.6975,23.6842187 39.5939063,23.6842187 Z" id="Path"></path>
                    <path d="M7.3940625,25.4076562 C7.133125,25.4076562 6.89765625,25.2448437 6.80734375,24.9978125 C6.7121875,24.7392187 6.79875,24.4482813 7.01953125,24.2829688 L12.24,20.37375 C12.3376563,20.3004688 12.4559375,20.2578125 12.5779688,20.2504687 L19.0853125,19.863125 C19.3657812,19.8545312 19.6146875,20.01375 19.7085937,20.2717187 C19.80375,20.5303125 19.7171875,20.82125 19.4964062,20.9865625 L14.2759375,24.8957812 C14.1782812,24.9690625 14.06125,25.0117188 13.9379687,25.0190625 L7.430625,25.40625 C7.4184375,25.4070312 7.40625,25.4076562 7.3940625,25.4076562 Z M12.8389062,21.48625 L9.4334375,24.0360937 L13.676875,23.7835937 L17.0823437,21.23375 L12.8389062,21.48625 Z" id="Shape" fill-rule="nonzero"></path>
                    <path d="M8.13078125,27.43125 C7.87578125,27.43125 7.63671875,27.2739062 7.5440625,27.0201562 L6.80734375,24.9967187 C6.6890625,24.6728125 6.85609375,24.3142188 7.180625,24.1965625 C7.5075,24.0782812 7.86234375,24.2459375 7.98078125,24.5698438 L8.7175,26.5934375 C8.83578125,26.9173438 8.66875,27.2759375 8.34421875,27.3935938 C8.2734375,27.4190625 8.20140625,27.43125 8.13078125,27.43125 Z" id="Path"></path>
                    <path d="M14.788125,27.43125 C14.534375,27.43125 14.2954687,27.2751562 14.2014063,27.0220312 L13.3146875,24.61125 C13.19625,24.2879688 13.3621875,23.92875 13.6854688,23.8098438 C14.0098438,23.6909375 14.3671875,23.85625 14.488125,24.18 L15.3748438,26.5914062 C15.493125,26.9146875 15.3271875,27.2739062 15.0040625,27.3926562 C14.9320312,27.4190625 14.8601563,27.43125 14.788125,27.43125 Z" id="Path"></path>
                    <path d="M21.4454687,27.43125 C21.1917187,27.43125 20.9526563,27.2751562 20.85875,27.0220312 L18.5351563,20.7020313 C18.416875,20.3789062 18.5826563,20.0196875 18.9060938,19.900625 C19.2317188,19.7829688 19.5878125,19.9464063 19.7085937,20.2714062 L22.0321875,26.5915625 C22.1504688,26.9148437 21.9846875,27.2740625 21.66125,27.3928125 C21.589375,27.4190625 21.5173438,27.43125 21.4454687,27.43125 Z" id="Path"></path>
                    <path d="M74.3159375,19.9371875 C74.25625,19.9371875 74.1940625,19.9285937 74.134375,19.9096875 C73.80375,19.8090625 73.6182813,19.4603125 73.7184375,19.1303125 C74.0184375,18.1465625 73.9585938,12.0185937 73.7025,10.6879688 C73.0546875,7.3703125 67.581875,3.19453125 64.63375,3.07875 C63.6542188,3.049375 63.5214063,3.5153125 63.4640625,3.7171875 C60.7879688,13.3054688 50.554375,11.2003125 50.4520313,11.1801563 C50.1153125,11.1070313 49.901875,10.7753125 49.975,10.4379688 C50.0482813,10.100625 50.3884375,9.8865625 50.7165625,9.95921875 C51.0885938,10.0390625 59.90375,11.8265625 62.2614063,3.38234375 C62.548125,2.34734375 63.4226563,1.76078125 64.6826563,1.83078125 C68.1685938,1.9675 74.1635938,6.53109375 74.9295313,10.4501563 C75.1771875,11.7382813 75.3357813,18.11 74.91375,19.495 C74.8307813,19.7639062 74.583125,19.9371875 74.3159375,19.9371875 Z" id="Path"></path>
                    <path d="M52.0729688,27.43125 C52.0326563,27.43125 51.9923437,27.4276562 51.9523437,27.4196875 C51.613125,27.3532812 51.3925,27.0257812 51.4596875,26.6871875 C52.6560937,20.5610937 58.066875,16.1151562 64.3240625,16.1151562 C67.3540625,16.1151562 70.3154687,17.176875 72.6646875,19.1046875 C74.97,20.9982812 76.5728125,23.653125 77.1753125,26.5804688 C77.2459375,26.9184375 77.0276562,27.2489062 76.6898437,27.3184375 C76.359375,27.3867188 76.0215625,27.1720312 75.953125,26.8329687 C75.4067187,24.184375 73.9576562,21.7826563 71.871875,20.0701563 C69.7153125,18.2996875 67.1051562,17.3642187 64.3240625,17.3642187 C58.6632812,17.3642187 53.7685937,21.385625 52.6842187,26.9264062 C52.6267187,27.224375 52.3645312,27.43125 52.0729688,27.43125 Z" id="Path"></path>
                    <path d="M64.3239062,24.933125 C63.97875,24.933125 63.6995313,24.65375 63.6995313,24.3085938 L63.6995313,19.3125 C63.6995313,18.9673438 63.97875,18.6879688 64.3239062,18.6879688 C64.6692187,18.6879688 64.9484375,18.9673438 64.9484375,19.3125 L64.9484375,24.3085938 C64.9484375,24.6539062 64.6692187,24.933125 64.3239062,24.933125 Z" id="Path"></path>
                    <path d="M61.8260937,25.6076563 C61.61,25.6076563 61.4003125,25.4954688 61.284375,25.2948437 L58.7864062,20.960625 C58.614375,20.6617187 58.7170312,20.28 59.0157813,20.1079688 C59.3145313,19.9348437 59.69625,20.0378125 59.8696875,20.3373437 L62.3676563,24.6717188 C62.5396875,24.970625 62.4370313,25.3523437 62.1382812,25.524375 C62.039375,25.5809375 61.9320313,25.6076563 61.8260937,25.6076563 Z" id="Path"></path>
                    <path d="M60.0025,27.43125 C59.8964063,27.43125 59.7890625,27.404375 59.6901563,27.3476562 L55.3565625,24.8496875 C55.0578125,24.6776563 54.9553125,24.2959375 55.1271875,23.9970313 C55.3004687,23.6975 55.6798437,23.5951563 55.9810937,23.7676563 L60.3146875,26.265625 C60.6135937,26.4376563 60.7159375,26.819375 60.5440625,27.1182813 C60.428125,27.3190625 60.2184375,27.43125 60.0025,27.43125 Z" id="Path"></path>
                    <path d="M68.6454688,27.43125 C68.4295313,27.43125 68.2196875,27.3190625 68.1039063,27.1184375 C67.931875,26.8195312 68.034375,26.4378125 68.3332813,26.2657812 L72.666875,23.7678125 C72.9657813,23.5953125 73.3475,23.6976563 73.5207812,23.9971875 C73.6928125,24.2960938 73.5901563,24.6778125 73.2914062,24.8498437 L68.9576562,27.3478125 C68.8589063,27.404375 68.7517188,27.43125 68.6454688,27.43125 Z" id="Path"></path>
                    <path d="M66.8220312,25.6076563 C66.7157812,25.6076563 66.6084375,25.5809375 66.5096875,25.5240625 C66.2109375,25.3520313 66.1084375,24.9703125 66.2803125,24.6714063 L68.7782812,20.3370313 C68.9503125,20.0375 69.3320312,19.9345313 69.6321875,20.1076563 C69.9309375,20.2796875 70.0334375,20.6614063 69.8615625,20.9603125 L67.3635937,25.2948437 C67.2476562,25.4954688 67.0378125,25.6076563 66.8220312,25.6076563 Z" id="Path"></path>
                </g>
            </g>
        </g>
    </g>
</svg>