<?xml version="1.0" encoding="UTF-8"?>
<svg width="88px" height="70px" viewBox="0 0 88 70" version="1.1" xmlns="http://www.w3.org/2000/svg" xmlns:xlink="http://www.w3.org/1999/xlink">
    <!-- Generator: Sketch 52.6 (67491) - http://www.bohemiancoding.com/sketch -->
    <title>map</title>
    <desc>Created with Sketch.</desc>
    <g id="Page-1" stroke="none" stroke-width="1" fill="none" fill-rule="evenodd">
        <g id="map">
            <g id="Group" transform="translate(0.629517, 9.352818)" fill="#E6E9ED">
                <rect id="SVGCleanerId_0" x="0.0225066596" y="0.0255845629" width="86.533372" height="59.8828786"></rect>
                <rect id="SVGCleanerId_0_1_" x="0.0225066596" y="0.0255845629" width="86.533372" height="59.8828786"></rect>
            </g>
            <g id="Group" transform="translate(0.629517, 24.843424)" fill="#FFCE54">
                <polygon id="Path" points="16.5197854 38.5579867 11.0083365 44.2716893 0.00266195989 44.2716893 0.00266195989 21.5061554 0.0715550711 21.5061554"></polygon>
                <polygon id="Path" points="55.0654811 38.5579867 49.5712555 44.2716893 44.0598066 44.2716893 27.7493625 27.3627006 22.2551369 33.0764032 4.11902535 14.2926059 17.8976476 0.026204671"></polygon>
            </g>
            <polygon id="Rectangle" fill="#FFFFFF" transform="translate(12.404459, 32.787857) rotate(135.000000) translate(-12.404459, -32.787857) " points="2.51194187 31.9891267 22.3352563 31.6059906 22.2969762 33.5865868 2.4736618 33.9697229"></polygon>
            <polygon id="Path" fill="#FC6E51" points="33.6791392 67.7202505 32.3132895 69.1231733 21.4035651 69.1231733 28.2157405 62.1085595"></polygon>
            <polygon id="Path" fill="#FFFFFF" points="29.5872812 63.5114823 28.220481 62.1085595 21.4035651 69.1231733 24.1371655 69.1231733"></polygon>
            <polygon id="Path" fill="#5D9CEC" points="87.188052 60.5010438 87.188052 69.1231733 79.004336 69.1231733"></polygon>
            <polygon id="Path" fill="#3A3847" points="87.188052 63.375087 87.188052 60.5010438 79.004336 69.1231733 81.7208513 69.1231733"></polygon>
            <polygon id="Path" fill="#A0D468" points="87.188052 50.5636743 87.188052 60.5490063 78.9893403 69.1231733 69.4042075 69.1231733"></polygon>
            <g id="Group" transform="translate(26.911836, 22.066806)" fill="#FFFFFF">
                <polygon id="Path" points="60.4309474 28.6168275 42.5833765 47.1944632 45.3317994 47.1944632 60.4309474 31.4776761"></polygon>
                <polygon id="Path" points="42.5833765 47.1944632 35.7123194 47.1944632 39.8349537 42.9031903 0.0171776428 1.45664603 0.0171776428 0.0262217241 6.87105712 0.0262217241 6.87105712 1.45664603 43.2704822 39.3271295 60.4309474 21.464706 60.4309474 28.6168275"></polygon>
            </g>
            <polygon id="Path" fill="#FC6E51" points="87.188052 20.605428 87.188052 32.0590456 84.4544517 34.9269311 79.004336 29.1911601"></polygon>
            <polygon id="Path" fill="#FFFFFF" points="87.188052 20.605428 79.004336 29.1206337 80.3540511 30.5427975 87.188052 23.4497556"></polygon>
            <polygon id="Rectangle" fill="#FFCE54" transform="translate(64.598635, 35.643899) rotate(135.000000) translate(-64.598635, -35.643899) " points="57.9347622 21.9051152 71.7987605 21.637158 71.2625075 49.3826821 57.3985091 49.6506393"></polygon>
            <polygon id="Rectangle" fill="#FFFFFF" transform="translate(55.683719, 26.353167) rotate(135.000000) translate(-55.683719, -26.353167) " points="48.7708603 25.4968474 62.6348586 25.2288902 62.5965785 27.2094864 48.7325802 27.4774436"></polygon>
            <polygon id="Path" fill="#FC6E51" points="0.855590792 13.4446764 0.786895776 33.4655532 10.3870242 23.4461529"></polygon>
            <rect id="SVGCleanerId_0_2_" fill="#FCDC9C" x="0.786895776" y="9.35281837" width="86.4011563" height="59.9164927"></rect>
            <polygon id="Path" fill="#FF8F00" points="45.6170862 21.0438413 45.6170862 14.5231644 43.9087843 9.35281837 56.9712542 9.35281837"></polygon>
            <g id="Group" transform="translate(0.629517, 24.843424)" fill="#FFCE54">
                <polygon id="Path" points="16.5197854 38.5579867 11.0083365 44.2716893 0.00266195989 44.2716893 0.00266195989 21.5061554 0.0715550711 21.5061554"></polygon>
                <polygon id="Path" points="55.0654811 38.5579867 49.5712555 44.2716893 44.0598066 44.2716893 27.7493625 27.3627006 22.2551369 33.0764032 4.11902535 14.2926059 17.8976476 0.026204671"></polygon>
            </g>
            <polygon id="Rectangle" fill="#FFFFFF" transform="translate(12.404459, 32.787857) rotate(135.000000) translate(-12.404459, -32.787857) " points="2.51194187 31.9891267 22.3352563 31.6059906 22.2969762 33.5865868 2.4736618 33.9697229"></polygon>
            <polygon id="Path" fill="#FC6E51" points="33.6791392 67.7202505 32.3132895 69.1231733 21.4035651 69.1231733 28.2157405 62.1085595"></polygon>
            <polygon id="Path" fill="#FFFFFF" points="29.5872812 63.5114823 28.220481 62.1085595 21.4035651 69.1231733 24.1371655 69.1231733"></polygon>
            <polygon id="Path" fill="#FF8F00" points="87.188052 60.5010438 87.188052 69.1231733 79.004336 69.1231733"></polygon>
            <polygon id="Path" fill="#3A3847" points="87.188052 63.375087 87.188052 60.5010438 79.004336 69.1231733 81.7208513 69.1231733"></polygon>
            <g id="Group" transform="translate(26.911836, 22.066806)" fill="#FFFFFF">
                <polygon id="Path" points="60.4309474 28.6168275 42.5833765 47.1944632 45.3317994 47.1944632 60.4309474 31.4776761"></polygon>
                <polygon id="Path" points="42.5833765 47.1944632 35.7123194 47.1944632 39.8349537 42.9031903 0.0171776428 1.45664603 0.0171776428 0.0262217241 6.87105712 0.0262217241 6.87105712 1.45664603 43.2704822 39.3271295 60.4309474 21.464706 60.4309474 28.6168275"></polygon>
            </g>
            <polygon id="Path" fill="#FC6E51" points="87.188052 20.605428 87.188052 32.0590456 84.4544517 34.9269311 79.004336 29.1911601"></polygon>
            <polygon id="Path" fill="#FFFFFF" points="87.188052 20.605428 79.004336 29.1206337 80.3540511 30.5427975 87.188052 23.4497556"></polygon>
            <polygon id="Path" fill="#FC6E51" points="0.855590792 13.4446764 0.786895776 33.4655532 10.3870242 23.4461529"></polygon>
            <g id="Group" transform="translate(0.786896, 46.471816)" fill="#FF8F00">
                <polygon id="Path" points="16.4474408 17.0716682 10.960124 22.7893984 0.0026381331 22.7893984 0.0026381331 0.00781720923 0.0712295936 0.00781720923"></polygon>
                <polygon id="Path" points="32.8922435 21.3599658 31.5204142 22.7893984 20.5629284 22.7893984 27.4049266 15.6422357"></polygon>
            </g>
            <polygon id="Path" fill="#FFFFFF" points="29.5872812 63.5114823 28.220481 62.1085595 21.4035651 69.1231733 24.1371655 69.1231733"></polygon>
            <polygon id="Path" fill="#FFFFFF" points="87.188052 60.5010438 87.188052 69.1231733 79.004336 69.1231733"></polygon>
            <polygon id="Path" fill="#FFFFFF" points="87.188052 50.5636743 87.188052 60.5490063 78.9893403 69.1231733 69.4042075 69.1231733"></polygon>
            <polygon id="Path" fill="#FF8F00" points="87.188052 20.605428 87.188052 32.0590456 84.4544517 34.9269311 79.004336 29.1911601"></polygon>
            <polygon id="Path" fill="#FFFFFF" points="87.188052 20.605428 79.004336 29.1206337 80.3540511 30.5427975 87.188052 23.4497556"></polygon>
            <polygon id="Path" fill="#FF8F00" points="0.855590792 13.4446764 0.786895776 33.4655532 10.3870242 23.4461529"></polygon>
            <path d="M29.5085916,0.730688935 C38.5976891,0.730688935 45.9547133,8.40189442 45.9547133,17.8791413 C45.9547133,27.3385066 33.0756337,46.4718163 29.5085916,46.4718163 C27.0562502,46.4718163 20.196554,37.4416094 16.1493332,28.697508 C15.2232742,26.7126506 14.4515584,24.7456749 13.9199319,22.9038703 C13.3711562,21.0620657 13.0624699,19.3454323 13.0624699,17.8791413 C13.0624699,8.41977602 20.4194941,0.730688935 29.5085916,0.730688935 Z" id="Path" fill="#F8B631"></path>
            <path d="M40.5588566,5.11482255 C43.1549514,8.13266881 44.736678,12.1147973 44.736678,16.4897815 C44.736678,25.936176 31.8249747,45.04325 28.2488971,45.04325 C27.6299606,45.04325 26.7187485,44.4718235 25.6528023,43.45397 C27.3204924,45.3111062 28.7474849,46.4718163 29.6243116,46.4718163 C33.2175819,46.4718163 46.1120925,27.3647423 46.1120925,17.9183478 C46.1120925,12.8112234 43.9630074,8.25766836 40.5588566,5.11482255 Z" id="Path" fill="#FF8F00"></path>
            <path d="M70.1370776,61.3882842 L41.4564882,31.565762 C40.646886,33.1061445 39.7683815,34.6107042 38.8726514,36.0436182 L66.6919617,64.9705691 L62.5578227,69.2693111 L69.4480544,69.2693111 L87.3454312,50.6414293 L87.3454312,43.4768595 L70.1370776,61.3882842 Z" id="Path" fill="#FFFFFF"></path>
            <path d="M34.8909428,41.9419233 C32.6748166,44.7085759 30.6992003,46.5113624 29.5997269,46.5113624 C27.1430909,46.5113624 20.2713819,37.4974298 16.2170736,28.7690872 C16.0796394,28.4834972 15.9593845,28.1979073 15.8391296,27.9123173 L4.87875381,39.3002163 L22.9513484,58.0777551 L28.4487156,52.3659563 L44.7174866,69.2693111 L50.2148538,69.2693111 L55.712221,63.5575122 L34.8909428,41.9419233 Z" id="Path" fill="#FF8F00"></path>
            <polygon id="Path" fill="#FF8F00" points="76.2507309 23.6743215 69.4042075 16.5135699 76.2507309 9.35281837 87.188052 9.35281837 87.188052 12.217119"></polygon>
            <g id="Group" transform="translate(21.246186, 9.352818)">
                <polygon id="Path" fill="#FFFFFF" points="54.9927265 0.0256246559 48.1221091 7.15061237 49.4962326 8.57560992 57.7409734 0.0256246559"></polygon>
                <polygon id="Path" fill="#FCDC9C" points="16.5000925 7.50686176 8.27252813 0.0256246559 0.0277872451 7.50686176 0.0277872451 18.5327803 16.5000925 18.5327803"></polygon>
            </g>
            <polygon id="Path" fill="#FFFFFF" points="21.246186 16.7526081 21.246186 27.9123173 22.6625984 27.9123173 22.6625984 15.4906054"></polygon>
            <g id="Group" transform="translate(24.079011, 15.490605)">
                <polygon id="Path" fill="#FFFFFF" points="13.6919865 1.28234387 13.6919865 12.3947835 12.3227879 12.3947835 12.3227879 0.0256867137"></polygon>
                <rect id="Rectangle" fill="#FF8F00" x="0.0171149831" y="3.79565817" width="5.44256464" height="4.3085388"></rect>
                <rect id="Rectangle" fill="#FF8F00" x="8.19807692" y="6.65006513" width="2.72128232" height="5.69086167"></rect>
            </g>
            <g id="Group" transform="translate(41.233339, 34.196242)" fill="#773C80">
                <path d="M21.296052,35.7951026 C21.1242565,35.7951026 20.952461,35.7235643 20.8150246,35.5804877 C20.5401519,35.2943346 20.5401519,34.8472204 20.8150246,34.5610673 L24.9381159,30.2687709 C25.2129886,29.9826178 25.6424773,29.9826178 25.91735,30.2687709 C26.1922228,30.554924 26.1922228,31.0020382 25.91735,31.2881913 L21.7942588,35.5804877 C21.6568224,35.7235643 21.485027,35.7951026 21.296052,35.7951026 Z" id="Path"></path>
                <path d="M28.8550525,27.9258925 C28.6832571,27.9258925 28.5114616,27.8543542 28.3740252,27.7112777 C28.0991525,27.4251246 28.0991525,26.9780104 28.3740252,26.6918573 L45.5363925,8.82517345 C45.8112652,8.53902036 46.2407539,8.53902036 46.5156266,8.82517345 C46.7904994,9.11132654 46.7904994,9.55844075 46.5156266,9.84459385 L29.3532594,27.7112777 C29.1986435,27.8543542 29.026848,27.9258925 28.8550525,27.9258925 Z" id="Path"></path>
                <path d="M28.1678707,35.7951026 C27.9960752,35.7951026 27.8242797,35.7235643 27.6868434,35.5804877 C27.4119706,35.2943346 27.4119706,34.8472204 27.6868434,34.5610673 L45.5363925,15.9790008 C45.8112652,15.6928477 46.2407539,15.6928477 46.5156266,15.9790008 C46.7904994,16.2651539 46.7904994,16.7122681 46.5156266,16.9984212 L28.648898,35.5804877 C28.5114616,35.7235643 28.3396661,35.7951026 28.1678707,35.7951026 Z" id="Path"></path>
                <path d="M28.8550525,27.9258925 C28.6832571,27.9258925 28.5114616,27.8543542 28.3740252,27.7112777 L2.96547552,1.26000103 C2.69060277,0.973847934 2.69060277,0.526733725 2.96547552,0.240580631 C3.24034827,-0.0455724633 3.66983694,-0.0455724633 3.94470969,0.240580631 L29.3532594,26.6918573 C29.6281321,26.9780104 29.6281321,27.4251246 29.3532594,27.7112777 C29.1986435,27.8543542 29.026848,27.9258925 28.8550525,27.9258925 Z" id="Path"></path>
                <path d="M25.4191432,31.5028061 C25.2473477,31.5028061 25.0755522,31.4312679 24.9381159,31.2881913 L0.216748035,5.55229744 C-0.0581247141,5.26614434 -0.0581247141,4.81903013 0.216748035,4.53287704 C0.491620783,4.24672395 0.921109453,4.24672395 1.1959822,4.53287704 L25.91735,30.2687709 C26.1922228,30.554924 26.1922228,31.0020382 25.91735,31.2881913 C25.7799137,31.4312679 25.5909386,31.5028061 25.4191432,31.5028061 Z" id="Path"></path>
            </g>
            <polygon id="Rectangle" fill="#FF8F00" transform="translate(64.598635, 35.643899) rotate(135.000000) translate(-64.598635, -35.643899) " points="57.9347622 21.9051152 71.7987605 21.637158 71.2625075 49.3826821 57.3985091 49.6506393"></polygon>
            <polygon id="Rectangle" fill="#FFFFFF" transform="translate(55.683719, 26.353167) rotate(135.000000) translate(-55.683719, -26.353167) " points="48.7708603 25.4968474 62.6348586 25.2288902 62.5965785 27.2094864 48.7325802 27.4774436"></polygon>
            <g id="Group" fill="#773C80">
                <path d="M79.4982157,40.2081832 L60.2639447,20.1978899 C60.057679,19.9834939 59.7654694,19.9298949 59.5248261,20.0370929 C59.4388821,20.0728255 59.3701269,20.1264245 59.3013717,20.1978899 L49.6756418,30.2030365 C49.4006209,30.4888979 49.4006209,30.9355562 49.6756418,31.2214175 L68.9099128,51.2138446 C69.0474232,51.3567752 69.2193113,51.4282406 69.3911993,51.4282406 C69.4427657,51.4282406 69.4771433,51.4282406 69.5287097,51.4103742 C69.6662201,51.3925079 69.7865418,51.3210426 69.8896746,51.2138446 L79.5154045,41.2086979 C79.6529149,41.0657672 79.7216701,40.8871039 79.7216701,40.7084406 C79.7216701,40.5297772 79.6357261,40.3332476 79.4982157,40.2081832 Z M69.3911993,49.6952062 L51.1195013,30.7032939 L59.7654694,21.7165282 L78.0371674,40.7084406 L69.3911993,49.6952062 Z" id="Shape" fill-rule="nonzero"></path>
                <path d="M84.5001575,35.7058672 C84.3282694,35.7058672 84.1563814,35.6344019 84.018871,35.4914712 C83.7438501,35.2056099 83.7438501,34.7589515 84.018871,34.4730902 L86.7690795,31.6144769 C87.0441004,31.3286155 87.4738205,31.3286155 87.7488413,31.6144769 C88.0238622,31.9003382 88.0238622,32.3469965 87.7488413,32.6328579 L84.9986328,35.4914712 C84.8611223,35.6344019 84.6892343,35.7058672 84.5001575,35.7058672 Z" id="Path"></path>
                <path d="M84.5001575,35.7058672 C84.3282694,35.7058672 84.1563814,35.6344019 84.018871,35.4914712 L78.5184539,29.7742445 C78.243433,29.4883832 78.243433,29.0417249 78.5184539,28.7558635 C78.7934747,28.4700022 79.2231948,28.4700022 79.4982157,28.7558635 L84.9986328,34.4730902 C85.2736536,34.7589515 85.2736536,35.2056099 84.9986328,35.4914712 C84.8611223,35.6344019 84.6892343,35.7058672 84.5001575,35.7058672 Z" id="Path"></path>
                <path d="M79.0169292,29.9886405 C78.8450412,29.9886405 78.6731531,29.9171752 78.5356427,29.7742445 C78.2606218,29.4883832 78.2606218,29.0417249 78.5356427,28.7558635 L86.7862683,20.1800235 C87.0612892,19.8941622 87.4910093,19.8941622 87.7660301,20.1800235 C88.041051,20.4658849 88.041051,20.9125432 87.7660301,21.1984045 L79.5154045,29.7742445 C79.3607053,29.9171752 79.1888172,29.9886405 79.0169292,29.9886405 Z" id="Path"></path>
                <path d="M55.6573454,64.2741343 C55.4854573,64.2741343 55.3135693,64.2026689 55.1760589,64.0597383 L37.2997034,45.4966179 C37.0246825,45.2107566 37.0246825,44.7640982 37.2997034,44.4782369 C37.5747242,44.1923756 38.0044443,44.1923756 38.2794651,44.4782369 L56.1386319,63.0413573 C56.4136527,63.3272186 56.4136527,63.7738769 56.1386319,64.0597383 C56.0011214,64.2026689 55.8292334,64.2741343 55.6573454,64.2741343 Z" id="Path"></path>
                <path d="M50.1569283,69.9913609 C49.9850403,69.9913609 49.8131522,69.9198956 49.6756418,69.7769649 C49.4006209,69.4911036 49.4006209,69.0444453 49.6756418,68.7585839 L55.1760589,63.0413573 C55.4510797,62.7554959 55.8807998,62.7554959 56.1558207,63.0413573 C56.4308415,63.3272186 56.4308415,63.7738769 56.1558207,64.0597383 L50.6554036,69.7769649 C50.5007044,69.9198956 50.3288163,69.9913609 50.1569283,69.9913609 Z" id="Path"></path>
                <path d="M4.81286495,39.9937872 C4.64097692,39.9937872 4.46908888,39.9223219 4.33157845,39.7793912 C4.0565576,39.4935299 4.0565576,39.0468716 4.33157845,38.7610102 L12.5822041,30.1851702 C12.8572249,29.8993089 13.286945,29.8993089 13.5619659,30.1851702 C13.8369867,30.4710315 13.8369867,30.9176899 13.5619659,31.2035512 L5.31134025,39.7793912 C5.15664102,39.9223219 4.98475298,39.9937872 4.81286495,39.9937872 Z" id="Path"></path>
                <path d="M22.8782973,58.7891699 C22.7064093,58.7891699 22.5345212,58.7177046 22.3970108,58.5747739 L4.31438965,39.7793912 C4.0393688,39.4935299 4.0393688,39.0468716 4.31438965,38.7610102 C4.58941051,38.4751489 5.01913059,38.4751489 5.29415144,38.7610102 L23.3767726,57.5563929 C23.6517935,57.8422542 23.6517935,58.2889126 23.3767726,58.5747739 C23.2392622,58.7177046 23.0673741,58.7891699 22.8782973,58.7891699 Z" id="Path"></path>
                <path d="M22.8782973,58.7891699 C22.7064093,58.7891699 22.5345212,58.7177046 22.3970108,58.5747739 C22.12199,58.2889126 22.12199,57.8422542 22.3970108,57.5563929 L27.8974279,51.8391662 C28.1724488,51.5533049 28.6021688,51.5533049 28.8771897,51.8391662 C29.1522105,52.1250276 29.1522105,52.5716859 28.8771897,52.8575472 L23.3767726,58.5747739 C23.2392622,58.7177046 23.0673741,58.7891699 22.8782973,58.7891699 Z" id="Path"></path>
                <path d="M44.6565112,69.9913609 C44.4846232,69.9913609 44.3127351,69.9198956 44.1752247,69.7769649 L27.8974279,52.8575472 C27.622407,52.5716859 27.622407,52.1250276 27.8974279,51.8391662 C28.1724488,51.5533049 28.6021688,51.5533049 28.8771897,51.8391662 L45.1549865,68.7585839 C45.4300074,69.0444453 45.4300074,69.4911036 45.1549865,69.7769649 C45.0002873,69.9198956 44.8283992,69.9913609 44.6565112,69.9913609 Z" id="Path"></path>
                <path d="M32.2805728,69.9913609 C32.1086847,69.9913609 31.9367967,69.9198956 31.7992863,69.7769649 C31.5242654,69.4911036 31.5242654,69.0444453 31.7992863,68.7585839 L33.1743905,67.3292773 C33.4494114,67.0434159 33.8791315,67.0434159 34.1541523,67.3292773 C34.4291732,67.6151386 34.4291732,68.0617969 34.1541523,68.3476583 L32.7790481,69.7769649 C32.6415376,69.9198956 32.4696496,69.9913609 32.2805728,69.9913609 Z" id="Path"></path>
                <path d="M33.655677,68.5620543 C33.483789,68.5620543 33.311901,68.4905889 33.1743905,68.3476583 L27.6739735,62.6304316 C27.3989526,62.3445703 27.3989526,61.8979119 27.6739735,61.6120506 C27.9489943,61.3261893 28.3787144,61.3261893 28.6537353,61.6120506 L34.1541523,67.3292773 C34.4291732,67.6151386 34.4291732,68.0617969 34.1541523,68.3476583 C34.0166419,68.4905889 33.8447539,68.5620543 33.655677,68.5620543 Z" id="Path"></path>
                <path d="M21.2969274,69.9913609 C21.1250394,69.9913609 20.9531513,69.9198956 20.8156409,69.7769649 C20.5406201,69.4911036 20.5406201,69.0444453 20.8156409,68.7585839 L27.6911623,61.6120506 C27.9661831,61.3261893 28.3959032,61.3261893 28.6709241,61.6120506 C28.9459449,61.8979119 28.9459449,62.3445703 28.6709241,62.6304316 L21.7954027,69.7769649 C21.6407035,69.9198956 21.4688154,69.9913609 21.2969274,69.9913609 Z" id="Path"></path>
                <path d="M17.1716146,64.2741343 C16.9997266,64.2741343 16.8278385,64.2026689 16.6903281,64.0597383 L0.257832051,46.9973899 C-0.0171888034,46.7115286 -0.0171888034,46.2648702 0.257832051,45.9790089 C0.532852905,45.6931476 0.96257299,45.6931476 1.23759384,45.9790089 L17.6700899,63.0592236 C17.9451107,63.3450849 17.9451107,63.7917433 17.6700899,64.0776046 C17.5325795,64.2026689 17.3435026,64.2741343 17.1716146,64.2741343 Z" id="Path"></path>
                <path d="M11.6711975,69.9913609 C11.4993095,69.9913609 11.3274214,69.9198956 11.189911,69.7769649 C10.9148902,69.4911036 10.9148902,69.0444453 11.189911,68.7585839 L16.6903281,63.0413573 C16.9653489,62.7554959 17.395069,62.7554959 17.6700899,63.0413573 C17.9451107,63.3272186 17.9451107,63.7738769 17.6700899,64.0597383 L12.1696728,69.7769649 C12.0321624,69.9198956 11.8430855,69.9913609 11.6711975,69.9913609 Z" id="Path"></path>
                <path d="M10.313282,24.2714139 C10.141394,24.2714139 9.96950597,24.1999485 9.83199554,24.0570179 L0.257832051,14.1233365 C-0.0171888034,13.8374752 -0.0171888034,13.3908169 0.257832051,13.1049555 C0.532852905,12.8190942 0.96257299,12.8190942 1.23759384,13.1049555 L10.7945685,23.0565032 C11.0695894,23.3423645 11.0695894,23.7890229 10.7945685,24.0748842 C10.6570581,24.1999485 10.4851701,24.2714139 10.313282,24.2714139 Z" id="Path"></path>
                <path d="M0.687552136,34.2765605 C0.515664102,34.2765605 0.343776068,34.2050952 0.206265641,34.0621645 C-0.0687552136,33.7763032 -0.0687552136,33.3296449 0.206265641,33.0437835 L9.83199554,23.0386369 C10.1070164,22.7527755 10.5367365,22.7527755 10.8117573,23.0386369 C11.0867782,23.3244982 11.0867782,23.7711565 10.8117573,24.0570179 L1.18602743,34.0621645 C1.0313282,34.2050952 0.85944017,34.2765605 0.687552136,34.2765605 Z" id="Path"></path>
                <path d="M69.3911993,17.1427469 C69.2193113,17.1427469 69.0474232,17.0712815 68.9099128,16.9283509 C68.6348919,16.6424895 68.6348919,16.1958312 68.9099128,15.9099699 L75.7854341,8.76343651 C76.060455,8.47757518 76.4901751,8.47757518 76.7651959,8.76343651 C77.0402168,9.04929785 77.0402168,9.49595618 76.7651959,9.78181751 L69.8896746,16.9283509 C69.7349754,17.0712815 69.5630873,17.1427469 69.3911993,17.1427469 Z" id="Path"></path>
                <path d="M50.1569283,17.1427469 C49.9850403,17.1427469 49.8131522,17.0712815 49.6756418,16.9283509 C49.4006209,16.6424895 49.4006209,16.1958312 49.6756418,15.9099699 L56.5511632,8.76343651 C56.826184,8.47757518 57.2559041,8.47757518 57.5309249,8.76343651 C57.8059458,9.04929785 57.8059458,9.49595618 57.5309249,9.78181751 L50.6554036,16.9283509 C50.5007044,17.0712815 50.3288163,17.1427469 50.1569283,17.1427469 Z" id="Path"></path>
                <path d="M79.0169292,69.9913609 C78.8450412,69.9913609 78.6731531,69.9198956 78.5356427,69.7769649 C78.2606218,69.4911036 78.2606218,69.0444453 78.5356427,68.7585839 L86.7862683,60.1827439 C87.0612892,59.8968826 87.4910093,59.8968826 87.7660301,60.1827439 C88.041051,60.4686052 88.041051,60.9152636 87.7660301,61.2011249 L79.5154045,69.7769649 C79.3607053,69.9198956 79.1888172,69.9913609 79.0169292,69.9913609 Z" id="Path"></path>
                <path d="M76.2667206,24.2714139 C76.0948326,24.2714139 75.9229446,24.1999485 75.7854341,24.0570179 L68.9099128,16.9104845 C68.6348919,16.6246232 68.6348919,16.1779649 68.9099128,15.8921035 C69.1849336,15.6062422 69.6146537,15.6062422 69.8896746,15.8921035 L76.7651959,23.0386369 C77.0402168,23.3244982 77.0402168,23.7711565 76.7651959,24.0570179 C76.6104967,24.1999485 76.4386087,24.2714139 76.2667206,24.2714139 Z" id="Path"></path>
                <path d="M76.2667206,24.2714139 C76.0948326,24.2714139 75.9229446,24.1999485 75.7854341,24.0570179 C75.5104133,23.7711565 75.5104133,23.3244982 75.7854341,23.0386369 L86.7862683,11.6041835 C87.0612892,11.3183222 87.4910093,11.3183222 87.7660301,11.6041835 C88.041051,11.8900448 88.041051,12.3367032 87.7660301,12.6225645 L76.7651959,24.0570179 C76.6104967,24.1999485 76.4386087,24.2714139 76.2667206,24.2714139 Z" id="Path"></path>
                <path d="M87.250366,69.9913609 L0.739118546,69.9913609 C0.360964871,69.9913609 0.0515664102,69.6697669 0.0515664102,69.2767076 L0.0515664102,9.28156018 C0.0515664102,8.88850085 0.360964871,8.56690685 0.739118546,8.56690685 C1.11727222,8.56690685 1.42667068,8.88850085 1.42667068,9.28156018 L1.42667068,68.5620543 L86.5628139,68.5620543 L86.5628139,9.28156018 C86.5628139,8.88850085 86.8722123,8.56690685 87.250366,8.56690685 C87.6285197,8.56690685 87.9379181,8.88850085 87.9379181,9.28156018 L87.9379181,69.2767076 C87.9379181,69.6697669 87.6285197,69.9913609 87.250366,69.9913609 Z" id="Path"></path>
                <path d="M29.547553,47.1403206 C25.4909954,47.1403206 12.3759384,27.7732152 12.3759384,17.8574002 C12.3759384,8.01305051 20.0765224,0.00893316668 29.547553,0.00893316668 C39.0185837,0.00893316668 46.7191676,8.01305051 46.7191676,17.8574002 C46.7191676,27.7732152 33.6041106,47.1403206 29.547553,47.1403206 Z M29.547553,1.4203735 C20.8328297,1.4203735 13.7510427,8.78130285 13.7510427,17.8395339 C13.7510427,27.4158885 26.5910788,45.6931476 29.547553,45.6931476 C32.5040272,45.6931476 45.3440633,27.4158885 45.3440633,17.8574002 C45.3440633,8.79916918 38.2622763,1.4203735 29.547553,1.4203735 Z" id="Shape" fill-rule="nonzero"></path>
                <path d="M10.2960932,9.99621351 L0.739118546,9.99621351 C0.360964871,9.99621351 0.0515664102,9.67461951 0.0515664102,9.28156018 C0.0515664102,8.88850085 0.360964871,8.56690685 0.739118546,8.56690685 L10.2960932,8.56690685 C10.6742469,8.56690685 10.9836454,8.88850085 10.9836454,9.28156018 C10.9836454,9.67461951 10.6742469,9.99621351 10.2960932,9.99621351 Z" id="Path"></path>
                <path d="M87.250366,9.99621351 L48.781824,9.99621351 C48.4036703,9.99621351 48.0942719,9.67461951 48.0942719,9.28156018 C48.0942719,8.88850085 48.4036703,8.56690685 48.781824,8.56690685 L87.2675548,8.56690685 C87.6457085,8.56690685 87.9551069,8.88850085 87.9551069,9.28156018 C87.9551069,9.67461951 87.6285197,9.99621351 87.250366,9.99621351 Z" id="Path"></path>
                <path d="M18.5467189,20.0013602 C18.357642,20.0013602 18.1685652,19.9120285 18.0310548,19.7512315 C17.7732227,19.4475039 17.8076003,19.0008455 18.09981,18.7507169 L29.1006441,8.74557018 C29.3928538,8.47757518 29.8225739,8.51330785 30.0632171,8.81703551 C30.3210492,9.12076318 30.2866716,9.56742151 29.9944619,9.81755018 L18.9936277,19.8226969 C18.8733061,19.9298949 18.7014181,20.0013602 18.5467189,20.0013602 Z" id="Path"></path>
                <path d="M40.5311984,20.0013602 C40.3764992,20.0013602 40.2046111,19.9477612 40.0842895,19.8226969 L29.0834553,9.81755018 C28.7912457,9.54955518 28.7740569,9.10289685 29.0147001,8.81703551 C29.2725322,8.51330785 29.7022523,8.49544151 29.9772731,8.74557018 L40.9781073,18.7507169 C41.2703169,19.0187119 41.2875057,19.4653702 41.0468625,19.7512315 C40.9093521,19.9120285 40.7202752,20.0013602 40.5311984,20.0013602 Z" id="Path"></path>
                <path d="M21.2969274,28.5593339 C20.9187737,28.5593339 20.6093753,28.2377399 20.6093753,27.8446805 L20.6093753,19.2688405 C20.6093753,18.8757812 20.9187737,18.5541872 21.2969274,18.5541872 C21.6750811,18.5541872 21.9844795,18.8757812 21.9844795,19.2688405 L21.9844795,27.8446805 C21.9844795,28.2377399 21.6750811,28.5593339 21.2969274,28.5593339 Z" id="Path"></path>
                <path d="M37.7809899,28.5593339 L21.2969274,28.5593339 C20.9187737,28.5593339 20.6093753,28.2377399 20.6093753,27.8446805 C20.6093753,27.4516212 20.9187737,27.1300272 21.2969274,27.1300272 L37.7809899,27.1300272 C38.1591435,27.1300272 38.468542,27.4516212 38.468542,27.8446805 C38.468542,28.2377399 38.1591435,28.5593339 37.7809899,28.5593339 Z" id="Path"></path>
                <path d="M37.7809899,28.5593339 C37.4028362,28.5593339 37.0934377,28.2377399 37.0934377,27.8446805 L37.0934377,19.2688405 C37.0934377,18.8757812 37.4028362,18.5541872 37.7809899,18.5541872 C38.1591435,18.5541872 38.468542,18.8757812 38.468542,19.2688405 L38.468542,27.8446805 C38.468542,28.2377399 38.1591435,28.5593339 37.7809899,28.5593339 Z" id="Path"></path>
                <path d="M32.2805728,28.5593339 C31.9024191,28.5593339 31.5930206,28.2377399 31.5930206,27.8446805 L31.5930206,22.1274539 C31.5930206,21.7343945 31.9024191,21.4128005 32.2805728,21.4128005 C32.6587264,21.4128005 32.9681249,21.7343945 32.9681249,22.1274539 L32.9681249,27.8446805 C32.9681249,28.2377399 32.6759152,28.5593339 32.2805728,28.5593339 Z" id="Path"></path>
                <path d="M35.0307813,28.5593339 C34.6526276,28.5593339 34.3432292,28.2377399 34.3432292,27.8446805 L34.3432292,22.1274539 C34.3432292,21.7343945 34.6526276,21.4128005 35.0307813,21.4128005 C35.408935,21.4128005 35.7183334,21.7343945 35.7183334,22.1274539 L35.7183334,27.8446805 C35.7183334,28.2377399 35.408935,28.5593339 35.0307813,28.5593339 Z" id="Path"></path>
                <path d="M29.547553,24.2714139 L24.0471359,24.2714139 C23.6689823,24.2714139 23.3595838,23.9498199 23.3595838,23.5567605 L23.3595838,19.2688405 C23.3595838,18.8757812 23.6689823,18.5541872 24.0471359,18.5541872 L29.547553,18.5541872 C29.9257067,18.5541872 30.2351052,18.8757812 30.2351052,19.2688405 L30.2351052,23.5567605 C30.2351052,23.9676862 29.9257067,24.2714139 29.547553,24.2714139 Z M24.7346881,22.8421072 L28.8600009,22.8421072 L28.8600009,19.9834939 L24.7346881,19.9834939 L24.7346881,22.8421072 Z" id="Shape" fill-rule="nonzero"></path>
                <path d="M35.0307813,22.8421072 L32.2805728,22.8421072 C31.9024191,22.8421072 31.5930206,22.5205132 31.5930206,22.1274539 C31.5930206,21.7343945 31.9024191,21.4128005 32.2805728,21.4128005 L35.0307813,21.4128005 C35.408935,21.4128005 35.7183334,21.7343945 35.7183334,22.1274539 C35.7183334,22.5205132 35.408935,22.8421072 35.0307813,22.8421072 Z" id="Path"></path>
            </g>
        </g>
    </g>
</svg>