<?xml version="1.0" encoding="UTF-8"?>
<svg width="70px" height="70px" viewBox="0 0 70 70" version="1.1" xmlns="http://www.w3.org/2000/svg" xmlns:xlink="http://www.w3.org/1999/xlink">
    <!-- Generator: Sketch 52.6 (67491) - http://www.bohemiancoding.com/sketch -->
    <title>like</title>
    <desc>Created with Sketch.</desc>
    <g id="Page-1" stroke="none" stroke-width="1" fill="none" fill-rule="evenodd">
        <g id="like">
            <g id="Group" transform="translate(0.410156, 0.410156)" fill="#F8B631">
                <path d="M69.0126172,9.42662109 C69.0126172,14.5574023 64.8521289,18.7169336 59.7224414,18.7169336 C54.5907031,18.7169336 50.4322656,14.5574023 50.4322656,9.42662109 C50.4322656,4.29583984 54.5907031,0.136308594 59.7224414,0.136308594 C64.8521289,0.136308594 69.0126172,4.29583984 69.0126172,9.42662109 Z" id="Path"></path>
                <circle id="Oval" cx="9.42648437" cy="9.42648437" r="9.29017578"></circle>
            </g>
            <path d="M2.73246094,9.83677734 C2.73246094,5.07636719 6.31503906,1.15814453 10.929707,0.615917969 C10.5705469,0.57421875 10.2071484,0.546464844 9.83677734,0.546464844 C4.70599609,0.546464844 0.546601563,4.70599609 0.546601563,9.83677734 C0.546601563,14.9675586 4.70599609,19.1270898 9.83677734,19.1270898 C10.2071484,19.1270898 10.5705469,19.0993359 10.929707,19.0576367 C6.31503906,18.5154102 2.73246094,14.5971875 2.73246094,9.83677734 Z" id="Path" fill="#FFFFFF"></path>
            <path d="M16.940957,9.83677734 C16.940957,14.5971875 13.3583789,18.5154102 8.74371094,19.0576367 C9.10287109,19.0993359 9.46626953,19.1270898 9.83664063,19.1270898 C14.9674219,19.1270898 19.1269531,14.9675586 19.1269531,9.83677734 C19.1269531,4.70599609 14.9675586,0.546464844 9.83677734,0.546464844 C9.46640625,0.546464844 9.10300781,0.57421875 8.74384766,0.615917969 C13.3583789,1.15814453 16.940957,5.07636719 16.940957,9.83677734 Z" id="Path" fill="#FF8F00"></path>
            <path d="M53.0282812,9.83677734 C53.0282812,5.07636719 56.6103125,1.15814453 61.2255273,0.615917969 C60.8658203,0.57421875 60.501875,0.546464844 60.1325977,0.546464844 C55.0008594,0.546464844 50.8424219,4.70599609 50.8424219,9.83677734 C50.8424219,14.9675586 55.0008594,19.1270898 60.1325977,19.1270898 C60.501875,19.1270898 60.8658203,19.0993359 61.2255273,19.0576367 C56.6103125,18.5154102 53.0282812,14.5971875 53.0282812,9.83677734 Z" id="Path" fill="#FFFFFF"></path>
            <path d="M67.2367773,9.83677734 C67.2367773,14.5971875 63.6537891,18.5154102 59.0395312,19.0576367 C59.3981445,19.0993359 59.7609961,19.1270898 60.1324609,19.1270898 C65.2622852,19.1270898 69.4226367,14.9675586 69.4226367,9.83677734 C69.4226367,4.70599609 65.2622852,0.546464844 60.1324609,0.546464844 C59.7609961,0.546464844 59.3981445,0.57421875 59.0395312,0.615917969 C63.6537891,1.15814453 67.2367773,5.07636719 67.2367773,9.83677734 Z" id="Path" fill="#FF8F00"></path>
            <g id="Group" transform="translate(0.410156, 50.722656)" fill="#F8B631">
                <path d="M68.9934766,9.39080078 C68.9934766,14.5214453 64.8328516,18.6809766 59.7031641,18.6809766 C54.5714258,18.6809766 50.4129883,14.5214453 50.4129883,9.39080078 C50.4129883,4.26001953 54.5714258,0.100488281 59.7031641,0.100488281 C64.8328516,0.100488281 68.9934766,4.26001953 68.9934766,9.39080078 Z" id="Path"></path>
                <path d="M18.7167969,9.39080078 C18.7167969,14.5214453 14.5563086,18.6809766 9.42648438,18.6809766 C4.29460938,18.6809766 0.136308594,14.5214453 0.136308594,9.39080078 C0.136308594,4.26001953 4.29474609,0.100488281 9.42648438,0.100488281 C14.5563086,0.100488281 18.7167969,4.26001953 18.7167969,9.39080078 Z" id="Path"></path>
            </g>
            <path d="M2.73246094,60.113457 C2.73246094,55.3530469 6.31449219,51.4346875 10.929707,50.8925977 C10.57,50.8508984 10.2060547,50.8231445 9.83677734,50.8231445 C4.70490234,50.8231445 0.546601563,54.9826758 0.546601563,60.113457 C0.546601563,65.2441016 4.70503906,69.4036328 9.83677734,69.4036328 C10.2060547,69.4036328 10.57,69.3758789 10.929707,69.3341797 C6.31449219,68.7919531 2.73246094,64.8737305 2.73246094,60.113457 Z" id="Path" fill="#FFFFFF"></path>
            <path d="M16.940957,60.113457 C16.940957,64.8737305 13.357832,68.7920898 8.74371094,69.3341797 C9.10232422,69.3758789 9.46517578,69.4036328 9.83664063,69.4036328 C14.9664648,69.4036328 19.1269531,65.2441016 19.1269531,60.113457 C19.1269531,54.9826758 14.9664648,50.8231445 9.83664063,50.8231445 C9.46517578,50.8231445 9.10232422,50.8508984 8.74371094,50.8925977 C13.357832,51.4346875 16.940957,55.3529102 16.940957,60.113457 Z" id="Path" fill="#FF8F00"></path>
            <path d="M53.0090039,60.113457 C53.0090039,55.3530469 56.5910352,51.4346875 61.20625,50.8925977 C60.846543,50.8508984 60.4825977,50.8231445 60.1133203,50.8231445 C54.981582,50.8231445 50.8231445,54.9826758 50.8231445,60.113457 C50.8231445,65.2441016 54.981582,69.4036328 60.1133203,69.4036328 C60.4825977,69.4036328 60.846543,69.3758789 61.20625,69.3341797 C56.5910352,68.7919531 53.0090039,64.8737305 53.0090039,60.113457 Z" id="Path" fill="#FFFFFF"></path>
            <path d="M67.2176367,60.113457 C67.2176367,64.8737305 63.6346484,68.7920898 59.0203906,69.3341797 C59.3790039,69.3758789 59.7418555,69.4036328 60.1133203,69.4036328 C65.2431445,69.4036328 69.4036328,65.2441016 69.4036328,60.113457 C69.4036328,54.9826758 65.2430078,50.8231445 60.1133203,50.8231445 C59.7418555,50.8231445 59.3790039,50.8508984 59.0203906,50.8925977 C63.6346484,51.4346875 67.2176367,55.3529102 67.2176367,60.113457 Z" id="Path" fill="#FF8F00"></path>
            <path d="M13.662168,10.929707 C13.662168,13.0420117 11.9496289,14.7550977 9.83677734,14.7550977 C7.72392578,14.7550977 6.01138672,13.0420117 6.01138672,10.929707 C6.01138672,8.81740234 7.72392578,7.10431641 9.83677734,7.10431641 C11.9496289,7.10431641 13.662168,8.81740234 13.662168,10.929707 Z" id="Path" fill="#FFFFFF"></path>
            <path d="M13.662168,8.74371094 C13.662168,10.8560156 11.9496289,12.5691016 9.83677734,12.5691016 C7.72392578,12.5691016 6.01138672,10.8560156 6.01138672,8.74371094 C6.01138672,6.63140625 7.72392578,4.91845703 9.83677734,4.91845703 C11.9496289,4.91845703 13.662168,6.63154297 13.662168,8.74371094 Z" id="Path" fill="#FFFFFF"></path>
            <path d="M31.1495898,56.2879297 C31.1495898,56.2879297 32.2425195,58.4737891 34.9749805,58.4737891 C37.7073047,58.4737891 38.8002344,56.2879297 38.8002344,56.2879297 L31.1495898,56.2879297 Z" id="Path" fill="#FFFFFF"></path>
            <path d="M33.3355859,56.2879297 L31.1495898,56.2879297 C31.1495898,56.2879297 32.2425195,58.4737891 34.9749805,58.4737891 C35.3783008,58.4737891 35.735,58.4162305 36.0679102,58.3350195 C34.1403125,57.8666211 33.3355859,56.2879297 33.3355859,56.2879297 Z" id="Path" fill="#FFFFFF"></path>
            <path d="M36.6145117,56.2879297 L38.8003711,56.2879297 C38.8003711,56.2879297 37.7074414,58.4737891 34.9751172,58.4737891 C34.5716602,58.4737891 34.2150977,58.4162305 33.8820508,58.3350195 C35.8096484,57.8666211 36.6145117,56.2879297 36.6145117,56.2879297 Z" id="Path" fill="#FF8F00"></path>
            <polygon id="Path" fill="#FF8F00" points="43.1723633 54.1020703 40.9862305 56.2879297 28.9637305 56.2879297 26.7777344 54.1020703 26.7777344 47.5442188 43.1723633 47.5442188"></polygon>
            <polygon id="Path" fill="#FCFCFC" points="28.9637305 47.5442188 26.7777344 47.5442188 26.7777344 54.1020703 28.9637305 56.2879297 31.1495898 56.2879297 28.9637305 54.1020703"></polygon>
            <polygon id="Path" fill="#FF8F00" points="40.9862305 47.5442188 43.1723633 47.5442188 43.1723633 54.1020703 40.9862305 56.2879297 38.8003711 56.2879297 40.9862305 54.1020703"></polygon>
            <path d="M51.9160742,30.603125 C51.9160742,21.2467773 44.3314648,13.662168 34.9751172,13.662168 C25.6187695,13.662168 18.0340234,21.2467773 18.0340234,30.603125 C18.0340234,36.9837891 21.5658789,42.5362109 26.7778711,45.4243945 L26.7778711,47.5442187 L43.1745508,47.5442187 L43.1745508,45.4233008 C48.3853125,42.5341602 51.9160742,36.9837891 51.9160742,30.603125 Z" id="Path" fill="#F8B631"></path>
            <path d="M49.7302148,30.603125 C49.7302148,21.6149609 42.72625,14.2832813 33.8821875,13.716582 C34.2451758,13.6941602 34.6058398,13.662168 34.9752539,13.662168 C44.3317383,13.662168 51.9162109,21.2467773 51.9162109,30.603125 C51.9162109,36.9837891 48.3832617,42.5362109 43.1725,45.4243945 C43.1723633,45.4243945 49.7302148,39.8934375 49.7302148,30.603125 Z" id="Path" fill="#FF8F00"></path>
            <g id="Group" transform="translate(17.910156, 13.535156)" fill="#FFFFFF">
                <path d="M2.30986328,17.0679688 C2.30986328,8.07980469 9.31382813,0.748125 18.1578906,0.181425781 C17.7950391,0.159003906 17.4342383,0.127011719 17.0649609,0.127011719 C7.70847656,0.127011719 0.123867188,7.71162109 0.123867188,17.0679688 C0.123867188,23.4486328 3.65681641,29.0010547 8.86771484,31.8892383 C8.86757813,31.8892383 2.30986328,26.3582812 2.30986328,17.0679688 Z" id="Path"></path>
                <polygon id="Path" points="19.7972852 27.4512109 17.0649609 25.2653516 14.3323633 27.4512109 14.3323633 32.9161328 19.7972852 32.9161328"></polygon>
                <path d="M14.3323633,17.6145703 C14.3323633,18.8207031 13.3535937,19.8005664 12.1465039,19.8005664 C10.9394141,19.8005664 9.96064453,18.8207031 9.96064453,17.6145703 C9.96064453,16.4063867 10.9394141,15.4285742 12.1465039,15.4285742 C13.3535937,15.4285742 14.3323633,16.40625 14.3323633,17.6145703 Z" id="Path"></path>
                <path d="M24.1692773,17.6145703 C24.1692773,18.8207031 23.1894141,19.8005664 21.9832813,19.8005664 C20.7750977,19.8005664 19.7974219,18.8207031 19.7974219,17.6145703 C19.7974219,16.4063867 20.7750977,15.4285742 21.9832813,15.4285742 C23.1894141,15.4285742 24.1692773,16.40625 24.1692773,17.6145703 Z" id="Path"></path>
            </g>
            <rect id="Rectangle" fill="#FFFFFF" x="26.7774609" y="46.4512891" width="16.3953125" height="1.09292969"></rect>
            <path d="M62.2993164,6.01138672 C61.4017578,6.01138672 60.6117969,6.44998047 60.1133203,7.11935547 C59.6148437,6.45011719 58.8250195,6.01138672 57.9274609,6.01138672 C56.4182227,6.01138672 55.1951367,7.23447266 55.1951367,8.74371094 C55.1951367,12.5691016 60.113457,14.7550977 60.113457,14.7550977 C60.113457,14.7550977 65.0319141,12.5692383 65.0319141,8.74371094 C65.0316406,7.23447266 63.808418,6.01138672 62.2993164,6.01138672 Z" id="Path" fill="#FFFFFF"></path>
            <path d="M56.2879297,8.74371094 C56.2879297,7.43189453 57.2133789,6.33896484 58.4460352,6.07427734 C58.2763672,6.04119141 58.1066992,6.01138672 57.9273242,6.01138672 C56.4180859,6.01138672 55.195,7.23447266 55.195,8.74371094 C55.195,12.5691016 60.1133203,14.7550977 60.1133203,14.7550977 C60.1133203,14.7550977 60.3289258,14.6569336 60.6599219,14.4764648 C59.3821484,13.7805664 56.2879297,11.7814648 56.2879297,8.74371094 Z" id="Path" fill="#FFFFFF"></path>
            <path d="M63.9387109,8.74371094 C63.9387109,7.43189453 63.0132617,6.33896484 61.7806055,6.07427734 C61.9501367,6.04119141 62.1199414,6.01138672 62.2993164,6.01138672 C63.808418,6.01138672 65.0316406,7.23447266 65.0316406,8.74371094 C65.0316406,12.5691016 60.1131836,14.7550977 60.1131836,14.7550977 C60.1131836,14.7550977 59.8977148,14.6569336 59.5667187,14.4764648 C60.8444922,13.7805664 63.9387109,11.7814648 63.9387109,8.74371094 Z" id="Path" fill="#FF8F00"></path>
            <rect id="Rectangle" fill="#FCDC9C" x="3.82511719" y="58.4743359" width="3.27892578" height="5.64785156"></rect>
            <path d="M12.5691016,58.4739258 L12.5691016,55.1951367 L11.4761719,55.1951367 C11.4761719,55.1951367 10.5891406,57.3809961 9.29017578,58.4739258 C7.99121094,59.5668555 7.10431641,59.5668555 7.10431641,59.5668555 L7.10431641,62.8457812 L8.19724609,62.8457812 L9.29017578,63.9387109 L13.662168,63.9387109 C14.7550977,62.8457812 14.7550977,59.5667187 13.662168,58.4737891 L12.5691016,58.4737891 L12.5691016,58.4739258 Z" id="Path" fill="#FFFFFF"></path>
            <g id="Group" transform="translate(6.972656, 55.097656)" fill="#D7E9FF">
                <path d="M6.68951172,3.37626953 L5.59644531,3.37626953 C6.68951172,4.46919922 6.68951172,7.74826172 5.59644531,8.84119141 L6.68951172,8.84119141 C7.78244141,7.748125 7.78244141,4.46919922 6.68951172,3.37626953 Z" id="Path"></path>
                <rect id="Rectangle" x="4.50324219" y="0.096796875" width="1.09292969" height="3.27878906"></rect>
                <path d="M0.131660156,4.46919922 L0.131660156,7.748125 L1.22458984,7.748125 L1.22458984,4.11373047 C0.550566406,4.46058594 0.131660156,4.46919922 0.131660156,4.46919922 Z" id="Path"></path>
            </g>
            <g id="Group" fill="#773C80">
                <path d="M20.2205664,4.39113281 C20.015625,4.39113281 19.8191602,4.27587891 19.7257813,4.07832031 C19.5972656,3.80515625 19.7134766,3.47962891 19.9862305,3.35042969 C24.6830664,1.12710938 29.7258008,0 34.9751172,0 C40.20625,0 45.2333984,1.11958984 49.9180664,3.32910156 C50.1913672,3.45720703 50.3086719,3.78382813 50.1796094,4.05589844 C50.0513672,4.33029297 49.7206445,4.44445313 49.4526758,4.31744141 C44.9142969,2.17738281 40.0439648,1.09292969 34.9751172,1.09292969 C29.8891797,1.09292969 25.0032617,2.18476563 20.4538086,4.33876953 C20.3784766,4.37404297 20.2983594,4.39113281 20.2205664,4.39113281 Z" id="Path"></path>
                <path d="M66.1460352,50.2542578 C66.0670117,50.2542578 65.988125,50.237168 65.9133398,50.2018945 C65.6401758,50.072832 65.5228711,49.7473047 65.6519336,49.4750977 C67.7918555,44.9389063 68.8764453,40.0685742 68.8764453,34.9975391 C68.8764453,29.9116016 67.7844727,25.0252734 65.6306055,20.4762305 C65.501543,20.2029297 65.6177539,19.8775391 65.8910547,19.7483398 C66.1620312,19.6224219 66.4886523,19.7343945 66.6189453,20.0087891 C68.8422656,24.7052148 69.969375,29.7483594 69.969375,34.9976758 C69.969375,40.2308594 68.8497852,45.2581445 66.6402734,49.940625 C66.5473047,50.1390039 66.3509766,50.2542578 66.1460352,50.2542578 Z" id="Path"></path>
                <path d="M3.84507812,50.2542578 C3.64013672,50.2542578 3.44367187,50.1390039 3.35042969,49.941582 C1.12710938,45.2451562 0,40.201875 0,34.9526953 C0,29.7195117 1.12013672,24.6922266 3.32910156,20.0097461 C3.45761719,19.7354883 3.78273438,19.6211914 4.05644531,19.7482031 C4.32919922,19.8774023 4.44609375,20.2029297 4.31744141,20.475 C2.17792969,25.0113281 1.09292969,29.8816602 1.09292969,34.9526953 C1.09292969,40.0386328 2.18476563,44.9249609 4.33876953,49.4740039 C4.46796875,49.7473047 4.35107422,50.072832 4.07832031,50.2018945 C4.003125,50.237168 3.92369141,50.2542578 3.84507812,50.2542578 Z" id="Path"></path>
                <path d="M34.9291797,69.969375 C29.6959961,69.969375 24.6681641,68.8497852 19.9856836,66.6402734 C19.7129297,66.5112109 19.5960352,66.1855469 19.7246875,65.9133398 C19.8533398,65.639082 20.1783203,65.5238281 20.452168,65.6519336 C24.9878125,67.7918555 29.8586914,68.8764453 34.9291797,68.8764453 C40.0151172,68.8764453 44.9014453,67.7844727 49.4504883,65.6306055 C49.7206445,65.5025 50.0471289,65.6166602 50.1785156,65.8910547 C50.3075781,66.1642187 50.1913672,66.4898828 49.9180664,66.6189453 C45.2216406,68.8422656 40.1783594,69.969375 34.9291797,69.969375 Z" id="Path"></path>
                <path d="M57.414082,57.9274609 C57.1119336,57.9274609 56.8622852,57.6830078 56.8622852,57.3809961 C56.8622852,57.0789844 57.1012695,56.8345312 57.4023242,56.8345312 L57.414082,56.8345312 C57.715,56.8345312 57.9605469,57.0789844 57.9605469,57.3809961 C57.9605469,57.6830078 57.715,57.9274609 57.414082,57.9274609 Z" id="Path"></path>
                <path d="M62.8788672,57.9274609 C62.5767187,57.9274609 62.3269336,57.6830078 62.3269336,57.3809961 C62.3269336,57.0789844 62.5660547,56.8345312 62.8671094,56.8345312 L62.8788672,56.8345312 C63.1797852,56.8345312 63.425332,57.0789844 63.425332,57.3809961 C63.425332,57.6830078 63.1799219,57.9274609 62.8788672,57.9274609 Z" id="Path"></path>
                <path d="M26.7760938,45.9858984 C26.6869531,45.9858984 26.5963086,45.9645703 26.5125,45.9176758 C20.9462695,42.8446484 17.4885156,36.9764062 17.4885156,30.603125 C17.4885156,20.9607617 25.3335742,13.1157031 34.9760742,13.1157031 C35.2780859,13.1157031 35.5225391,13.3601562 35.5225391,13.662168 C35.5225391,13.9641797 35.2780859,14.2086328 34.9760742,14.2086328 C25.9360938,14.2086328 18.5814453,21.5627344 18.5814453,30.603125 C18.5814453,36.5782812 21.8229102,42.0803906 27.0407812,44.9611914 C27.3050586,45.1063867 27.4010352,45.4394336 27.2547461,45.7031641 C27.155625,45.8845898 26.9688672,45.9858984 26.7760938,45.9858984 Z" id="Path"></path>
                <path d="M43.1744141,45.9858984 C42.9823242,45.9858984 42.7955664,45.8845898 42.6963086,45.7031641 C42.5500195,45.4394336 42.6461328,45.1065234 42.9106836,44.9611914 C48.1278711,42.0805273 51.3694727,36.578418 51.3694727,30.603125 C51.3694727,21.5627344 44.0153711,14.2086328 34.9760742,14.2086328 C34.6739258,14.2086328 34.4296094,13.9641797 34.4296094,13.662168 C34.4296094,13.3601562 34.6739258,13.1157031 34.9760742,13.1157031 C44.6184375,13.1157031 52.4624023,20.9607617 52.4624023,30.603125 C52.4624023,36.9762695 49.0042383,42.8446484 43.4380078,45.9176758 C43.3548828,45.9645703 43.2641016,45.9858984 43.1744141,45.9858984 Z" id="Path"></path>
                <path d="M26.7788281,54.6485352 C26.4768164,54.6485352 26.2323633,54.404082 26.2323633,54.1020703 L26.2323633,45.4394336 C26.2323633,45.1374219 26.4768164,44.8929687 26.7788281,44.8929687 C27.0808398,44.8929687 27.3254297,45.1374219 27.3254297,45.4394336 L27.3254297,54.1020703 C27.3254297,54.404082 27.0808398,54.6485352 26.7788281,54.6485352 Z" id="Path"></path>
                <path d="M43.1723633,54.6485352 C42.8702148,54.6485352 42.6258984,54.404082 42.6258984,54.1020703 L42.6258984,45.4521484 C42.6258984,45.1501367 42.8702148,44.9056836 43.1723633,44.9056836 C43.474375,44.9056836 43.7188281,45.1501367 43.7188281,45.4521484 L43.7188281,54.1020703 C43.7188281,54.404082 43.474375,54.6485352 43.1723633,54.6485352 Z" id="Path"></path>
                <path d="M43.1723633,48.0906836 L26.7788281,48.0906836 C26.4768164,48.0906836 26.2323633,47.8462305 26.2323633,47.5442187 C26.2323633,47.2420703 26.4768164,46.9977539 26.7788281,46.9977539 L43.1723633,46.9977539 C43.474375,46.9977539 43.7188281,47.2420703 43.7188281,47.5442187 C43.7188281,47.8462305 43.474375,48.0906836 43.1723633,48.0906836 Z" id="Path"></path>
                <path d="M40.9862305,56.8343945 L28.9646875,56.8343945 C28.8194922,56.8343945 28.6807227,56.7768359 28.5783203,56.6742969 L26.3924609,54.4884375 C26.1789063,54.2748828 26.1789063,53.9291211 26.3924609,53.7157031 C26.6058789,53.5021484 26.9517773,53.5021484 27.1651953,53.7157031 L29.1910938,55.7414648 L40.7600977,55.7414648 L42.7858594,53.7157031 C42.9994141,53.5021484 43.3451758,53.5021484 43.5585938,53.7157031 C43.7720117,53.9292578 43.7721484,54.2750195 43.5585938,54.4884375 L41.3725977,56.6742969 C41.270332,56.7769727 41.1315625,56.8343945 40.9862305,56.8343945 Z" id="Path"></path>
                <path d="M25.6853516,51.3696094 C25.3982422,51.3696094 25.1574805,51.1455273 25.1403906,50.8551367 C25.1228906,50.5542188 25.3523047,50.2947266 25.6537695,50.2776367 L44.2331641,49.184707 C44.5257422,49.1611914 44.7924805,49.397168 44.8106641,49.6980859 C44.8288477,49.9991406 44.5982031,50.2584961 44.2972852,50.2755859 L25.7177539,51.3685156 C25.7072266,51.3696094 25.6960156,51.3696094 25.6853516,51.3696094 Z" id="Path"></path>
                <path d="M25.6853516,53.5556055 C25.3982422,53.5556055 25.1574805,53.3313867 25.1403906,53.0411328 C25.1228906,52.7400781 25.3523047,52.4805859 25.6537695,52.4634961 L44.2331641,51.3705664 C44.5257422,51.335293 44.7924805,51.5830273 44.8106641,51.884082 C44.8288477,52.185 44.5982031,52.4443555 44.2972852,52.4614453 L25.7177539,53.5545117 C25.7072266,53.5556055 25.6960156,53.5556055 25.6853516,53.5556055 Z" id="Path"></path>
                <path d="M34.9762109,59.0205273 C31.9411914,59.0205273 30.7126367,56.6338281 30.6619141,56.5325195 C30.5268359,56.2623633 30.6362109,55.9347852 30.9063672,55.7992969 C31.1765234,55.6638086 31.5035547,55.7735938 31.6384961,56.0414258 C31.6811523,56.1246875 32.6358594,57.9274609 34.9762109,57.9274609 C37.3190234,57.9274609 38.2731836,56.1183984 38.3126953,56.0414258 C38.4503711,55.7746875 38.7769922,55.6668164 39.0470117,55.8013477 C39.3149805,55.9379297 39.4238086,56.263457 39.2892773,56.5325195 C39.2380078,56.6338281 38.0105469,59.0205273 34.9762109,59.0205273 Z" id="Path"></path>
                <path d="M32.2436133,45.9048242 C31.9416016,45.9048242 31.6971484,45.6603711 31.6971484,45.3582227 L31.6971484,40.9863672 C31.6971484,40.6843555 31.9416016,40.4399023 32.2436133,40.4399023 C32.5457617,40.4399023 32.7902148,40.6843555 32.7902148,40.9863672 L32.7902148,45.3582227 C32.7902148,45.6603711 32.5457617,45.9048242 32.2436133,45.9048242 Z" id="Path"></path>
                <path d="M37.7074414,45.9048242 C37.4054297,45.9048242 37.1609766,45.6603711 37.1609766,45.3582227 L37.1609766,40.9863672 C37.1609766,40.6843555 37.4054297,40.4399023 37.7074414,40.4399023 C38.0094531,40.4399023 38.2539062,40.6843555 38.2539062,40.9863672 L38.2539062,45.3582227 C38.2539062,45.6603711 38.0094531,45.9048242 37.7074414,45.9048242 Z" id="Path"></path>
                <path d="M32.2441602,41.5329688 C32.0835156,41.5329688 31.9250586,41.4624219 31.8167773,41.3280273 C31.6283789,41.0920508 31.6667969,40.7484766 31.9020898,40.5595312 L34.6345508,38.3736719 C34.8709375,38.1858203 35.2147852,38.2251953 35.4030469,38.4589844 C35.591582,38.6949609 35.5531641,39.0385352 35.3177344,39.2274805 L32.5852734,41.4134766 C32.484375,41.4933203 32.3637891,41.5329688 32.2441602,41.5329688 Z" id="Path"></path>
                <path d="M37.7074414,41.5329688 C37.5868555,41.5329688 37.4673633,41.493457 37.365918,41.4134766 L34.6345508,39.2274805 C34.3992578,39.0385352 34.3608398,38.6948242 34.5496484,38.4589844 C34.7380469,38.2251953 35.0817578,38.1858203 35.3175977,38.3736719 L38.0489648,40.5595312 C38.2849414,40.7484766 38.3222656,41.0921875 38.1344141,41.3280273 C38.026543,41.4624219 37.8675391,41.5329688 37.7074414,41.5329688 Z" id="Path"></path>
                <path d="M32.2436133,39.3468359 C31.9416016,39.3468359 31.6971484,39.1025195 31.6971484,38.8005078 L31.6971484,31.1497266 C31.6971484,30.8477148 31.9416016,30.603125 32.2436133,30.603125 C32.5457617,30.603125 32.7902148,30.8475781 32.7902148,31.1497266 L32.7902148,38.8005078 C32.7902148,39.1025195 32.5457617,39.3468359 32.2436133,39.3468359 Z" id="Path"></path>
                <path d="M32.2436133,31.6961914 C31.9416016,31.6961914 31.6971484,31.4517383 31.6971484,31.1497266 C31.6971484,30.2456055 30.9617383,29.5101953 30.0577539,29.5101953 C29.1537695,29.5101953 28.4183594,30.2456055 28.4183594,31.1497266 C28.4183594,31.4517383 28.1739063,31.6961914 27.8718945,31.6961914 C27.5697461,31.6961914 27.3254297,31.4517383 27.3254297,31.1497266 C27.3254297,29.6426758 28.55125,28.4172656 30.0577539,28.4172656 C31.5642578,28.4172656 32.7902148,29.6425391 32.7902148,31.1497266 C32.7902148,31.4517383 32.5457617,31.6961914 32.2436133,31.6961914 Z" id="Path"></path>
                <path d="M30.0577539,33.8821875 C28.5511133,33.8821875 27.3254297,32.6569141 27.3254297,31.1497266 C27.3254297,30.8477148 27.5697461,30.603125 27.8718945,30.603125 C28.1739063,30.603125 28.4183594,30.8475781 28.4183594,31.1497266 C28.4183594,32.0537109 29.1537695,32.7892578 30.0577539,32.7892578 C30.3597656,32.7892578 30.6042188,33.0337109 30.6042188,33.3357227 C30.6042188,33.6375977 30.3597656,33.8821875 30.0577539,33.8821875 Z" id="Path"></path>
                <path d="M37.7074414,39.3468359 C37.4054297,39.3468359 37.1609766,39.1025195 37.1609766,38.8005078 L37.1609766,31.1497266 C37.1609766,30.8477148 37.4054297,30.603125 37.7074414,30.603125 C38.0094531,30.603125 38.2539062,30.8475781 38.2539062,31.1497266 L38.2539062,38.8005078 C38.2539062,39.1025195 38.0094531,39.3468359 37.7074414,39.3468359 Z" id="Path"></path>
                <path d="M42.0794336,31.6961914 C41.7772852,31.6961914 41.5329688,31.4517383 41.5329688,31.1497266 C41.5329688,30.2456055 40.7975586,29.5101953 39.8934375,29.5101953 C38.9894531,29.5101953 38.254043,30.2456055 38.254043,31.1497266 C38.254043,31.4517383 38.0095898,31.6961914 37.7075781,31.6961914 C37.4055664,31.6961914 37.1611133,31.4517383 37.1611133,31.1497266 C37.1611133,29.6426758 38.3863867,28.4172656 39.8934375,28.4172656 C41.4004883,28.4172656 42.6258984,29.6425391 42.6258984,31.1497266 C42.6258984,31.4517383 42.3814453,31.6961914 42.0794336,31.6961914 Z" id="Path"></path>
                <path d="M39.8933008,33.8821875 C39.5912891,33.8821875 39.3468359,33.6377344 39.3468359,33.3357227 C39.3468359,33.0337109 39.5912891,32.7892578 39.8933008,32.7892578 C40.7974219,32.7892578 41.532832,32.0538477 41.532832,31.1497266 C41.532832,30.8477148 41.7771484,30.603125 42.0792969,30.603125 C42.3813086,30.603125 42.6257617,30.8475781 42.6257617,31.1497266 C42.6258984,32.6567773 41.4004883,33.8821875 39.8933008,33.8821875 Z" id="Path"></path>
                <path d="M35.5226758,33.8821875 L34.4297461,33.8821875 C34.1275977,33.8821875 33.8831445,33.6377344 33.8831445,33.3357227 C33.8831445,33.0337109 34.1275977,32.7892578 34.4297461,32.7892578 L35.5226758,32.7892578 C35.8246875,32.7892578 36.0691406,33.0337109 36.0691406,33.3357227 C36.0691406,33.6375977 35.8246875,33.8821875 35.5226758,33.8821875 Z" id="Path"></path>
                <path d="M60.1133203,19.6735547 C54.6890039,19.6735547 50.2766797,15.2610938 50.2766797,9.83677734 C50.2766797,4.41246094 54.6890039,0 60.1133203,0 C65.5376367,0 69.9500977,4.41246094 69.9500977,9.83677734 C69.9500977,15.2610938 65.5376367,19.6735547 60.1133203,19.6735547 Z M60.1133203,1.09292969 C55.2920703,1.09292969 51.3696094,5.01539062 51.3696094,9.83677734 C51.3696094,14.6580273 55.2920703,18.580625 60.1133203,18.580625 C64.9345703,18.580625 68.857168,14.6580273 68.857168,9.83677734 C68.857168,5.01552734 64.9345703,1.09292969 60.1133203,1.09292969 Z" id="Shape" fill-rule="nonzero"></path>
                <path d="M60.1133203,69.9500977 C54.6890039,69.9500977 50.2766797,65.5376367 50.2766797,60.113457 C50.2766797,54.6890039 54.6890039,50.2766797 60.1133203,50.2766797 C65.5376367,50.2766797 69.9500977,54.6890039 69.9500977,60.113457 C69.9500977,65.5376367 65.5376367,69.9500977 60.1133203,69.9500977 Z M60.1133203,51.3696094 C55.2920703,51.3696094 51.3696094,55.292207 51.3696094,60.113457 C51.3696094,64.934707 55.2920703,68.857168 60.1133203,68.857168 C64.9345703,68.857168 68.857168,64.934707 68.857168,60.113457 C68.857168,55.292207 64.9345703,51.3696094 60.1133203,51.3696094 Z" id="Shape" fill-rule="nonzero"></path>
                <path d="M9.83677734,19.6735547 C4.41300781,19.6735547 0.00013671875,15.2610938 0.00013671875,9.83677734 C0.00013671875,4.41246094 4.41300781,0 9.83677734,0 C15.2605469,0 19.6735547,4.41246094 19.6735547,9.83677734 C19.6735547,15.2610938 15.2604102,19.6735547 9.83677734,19.6735547 Z M9.83677734,1.09292969 C5.01552734,1.09292969 1.09306641,5.01539062 1.09306641,9.83677734 C1.09306641,14.6580273 5.01552734,18.580625 9.83677734,18.580625 C14.6580273,18.580625 18.580625,14.6580273 18.580625,9.83677734 C18.5804883,5.01552734 14.6578906,1.09292969 9.83677734,1.09292969 Z" id="Shape" fill-rule="nonzero"></path>
                <path d="M9.83677734,69.9500977 C4.41300781,69.9500977 0.00013671875,65.5376367 0.00013671875,60.113457 C0.00013671875,54.6890039 4.41300781,50.2766797 9.83677734,50.2766797 C15.2605469,50.2766797 19.6735547,54.6890039 19.6735547,60.113457 C19.673418,65.5376367 15.2604102,69.9500977 9.83677734,69.9500977 Z M9.83677734,51.3696094 C5.01552734,51.3696094 1.09306641,55.292207 1.09306641,60.113457 C1.09306641,64.934707 5.01552734,68.857168 9.83677734,68.857168 C14.6580273,68.857168 18.580625,64.934707 18.580625,60.113457 C18.580625,55.292207 14.6578906,51.3696094 9.83677734,51.3696094 Z" id="Shape" fill-rule="nonzero"></path>
                <path d="M60.1133203,15.3015625 C60.0375781,15.3015625 59.9618359,15.2855664 59.8914258,15.254668 C59.6769141,15.1596484 54.6485352,12.876582 54.6485352,8.74371094 C54.6485352,6.93560547 56.1193555,5.46492187 57.9273242,5.46492187 C58.7481836,5.46492187 59.5166797,5.76693359 60.1131836,6.30916016 C60.7098242,5.76693359 61.4783203,5.46492187 62.2991797,5.46492187 C64.1072852,5.46492187 65.5779687,6.93574219 65.5779687,8.74371094 C65.5779687,12.876582 60.5497266,15.1596484 60.3350781,15.254668 C60.2649414,15.2855664 60.1891992,15.3015625 60.1133203,15.3015625 Z M57.9274609,6.55785156 C56.7224219,6.55785156 55.7416016,7.53880859 55.7416016,8.74371094 C55.7416016,11.7322461 59.1933398,13.6813086 60.113457,14.1476563 C61.0315234,13.6802148 64.4854492,11.7247266 64.4854492,8.74371094 C64.4854492,7.53880859 63.5044922,6.55785156 62.2995898,6.55785156 C61.6088867,6.55785156 60.9717773,6.88119141 60.5523242,7.44583984 C60.3451953,7.72337891 59.8821289,7.72337891 59.675,7.44583984 C59.2551367,6.88119141 58.6178906,6.55785156 57.9274609,6.55785156 Z" id="Shape" fill-rule="nonzero"></path>
                <path d="M13.662168,64.4851758 L9.29017578,64.4851758 C9.14498047,64.4851758 9.00621094,64.4274805 8.90380859,64.3250781 L7.97097656,63.3922461 L7.10431641,63.3922461 C6.80216797,63.3922461 6.55785156,63.1479297 6.55785156,62.8457813 L6.55785156,59.5668555 C6.55785156,59.2648438 6.80216797,59.0205273 7.10431641,59.0205273 C7.100625,59.0205273 7.84082031,58.9788281 8.93853516,58.0554297 C10.1158203,57.0650391 10.9616992,55.0104297 10.9696289,54.9889648 C11.0534375,54.7829297 11.2541406,54.6485352 11.4761719,54.6485352 L12.5691016,54.6485352 C12.8711133,54.6485352 13.1155664,54.8929883 13.1155664,55.195 L13.1155664,57.9273242 L13.662168,57.9273242 C13.8073633,57.9273242 13.9459961,57.9850195 14.0485352,58.0874219 C15.3603516,59.399375 15.3603516,63.0132617 14.0485352,64.3250781 C13.9459961,64.4276172 13.8073633,64.4851758 13.662168,64.4851758 Z M9.51658203,63.3922461 L13.4107422,63.3922461 C14.1077344,62.4219531 14.1077344,59.9905469 13.4107422,59.0203906 L12.5691016,59.0203906 C12.2670898,59.0203906 12.0226367,58.7759375 12.0226367,58.4737891 L12.0226367,55.7414648 L11.8331445,55.7414648 C11.5166406,56.42875 10.7220313,57.9829687 9.64181641,58.8922852 C8.80236328,59.5977539 8.10332031,59.8967578 7.65078125,60.0226758 L7.65078125,62.2993164 L8.19724609,62.2993164 C8.34244141,62.2993164 8.48121094,62.3570117 8.58361328,62.4594141 L9.51658203,63.3922461 Z" id="Shape" fill-rule="nonzero"></path>
                <path d="M7.10431641,64.4851758 L3.82539062,64.4851758 C3.52337891,64.4851758 3.27892578,64.2408594 3.27892578,63.9387109 L3.27892578,58.4737891 C3.27892578,58.1717773 3.52337891,57.9273242 3.82539062,57.9273242 L7.10431641,57.9273242 C7.40632813,57.9273242 7.65078125,58.1717773 7.65078125,58.4737891 L7.65078125,63.9387109 C7.65078125,64.2408594 7.40632812,64.4851758 7.10431641,64.4851758 Z M4.37185547,63.3922461 L6.55785156,63.3922461 L6.55785156,59.0203906 L4.37185547,59.0203906 L4.37185547,63.3922461 Z" id="Shape" fill-rule="nonzero"></path>
                <path d="M60.1133203,65.5782422 C57.0777539,65.5782422 55.850293,63.1916797 55.7991602,63.0903711 C55.6646289,62.8202148 55.773457,62.4926367 56.0434766,62.3571484 C56.3145898,62.2215234 56.6401172,62.3314453 56.7756055,62.5992773 C56.8182617,62.6825391 57.7725586,64.4853125 60.1131836,64.4853125 C62.4806055,64.4853125 63.4400977,62.6206055 63.449668,62.6014648 C63.585293,62.3325391 63.9139648,62.2226172 64.1828906,62.3571484 C64.4530469,62.4926367 64.5617383,62.8203516 64.4273438,63.0903711 C64.3763477,63.191543 63.1488867,65.5782422 60.1133203,65.5782422 Z" id="Path"></path>
                <path d="M9.83677734,13.1157031 C7.42615234,13.1157031 5.46492187,11.1548828 5.46492187,8.74371094 C5.46492187,6.33253906 7.42615234,4.37185547 9.83677734,4.37185547 C12.2474023,4.37185547 14.2087695,6.33253906 14.2087695,8.74371094 C14.2087695,11.1548828 12.2472656,13.1157031 9.83677734,13.1157031 Z M9.83677734,5.46492187 C8.02867188,5.46492187 6.55798828,6.93574219 6.55798828,8.74371094 C6.55798828,10.5518164 8.02880859,12.0226367 9.83677734,12.0226367 C11.6448828,12.0226367 13.1157031,10.5518164 13.1157031,8.74371094 C13.1155664,6.93574219 11.6448828,5.46492187 9.83677734,5.46492187 Z" id="Shape" fill-rule="nonzero"></path>
                <path d="M9.83677734,15.3015625 C7.42615234,15.3015625 5.46492187,13.3408789 5.46492187,10.929707 C5.46492187,10.6276953 5.709375,10.3832422 6.01138672,10.3832422 C6.31339844,10.3832422 6.55798828,10.6276953 6.55798828,10.929707 C6.55798828,12.7378125 8.02880859,14.2086328 9.83677734,14.2086328 C11.6448828,14.2086328 13.1157031,12.7378125 13.1157031,10.929707 C13.1157031,10.6276953 13.3601562,10.3832422 13.6623047,10.3832422 C13.9643164,10.3832422 14.2087695,10.6276953 14.2087695,10.929707 C14.2086328,13.3408789 12.2472656,15.3015625 9.83677734,15.3015625 Z" id="Path"></path>
                <path d="M9.83677734,10.929707 C9.53476562,10.929707 9.2903125,10.6852539 9.2903125,10.3832422 L9.2903125,7.10431641 C9.2903125,6.80230469 9.53476562,6.55785156 9.83677734,6.55785156 C10.1387891,6.55785156 10.3832422,6.80230469 10.3832422,7.10431641 L10.3832422,10.3832422 C10.3832422,10.6853906 10.1387891,10.929707 9.83677734,10.929707 Z" id="Path"></path>
                <path d="M11.4761719,9.29017578 L8.19724609,9.28908203 C7.89523437,9.28908203 7.65078125,9.04476563 7.65078125,8.74261719 C7.65078125,8.44060547 7.89578125,8.19615234 8.19724609,8.19615234 L11.4761719,8.19724609 C11.7781836,8.19724609 12.0226367,8.44169922 12.0226367,8.74371094 C12.0226367,9.04585938 11.7777734,9.29017578 11.4761719,9.29017578 Z" id="Path"></path>
                <path d="M6.01138672,11.4763086 C5.709375,11.4763086 5.46492187,11.2318555 5.46492187,10.929707 L5.46492187,8.74371094 C5.46492187,8.44169922 5.709375,8.19724609 6.01138672,8.19724609 C6.31339844,8.19724609 6.55798828,8.44169922 6.55798828,8.74371094 L6.55798828,10.929707 C6.55785156,11.2318555 6.31339844,11.4763086 6.01138672,11.4763086 Z" id="Path"></path>
                <path d="M13.662168,11.4763086 C13.3600195,11.4763086 13.1155664,11.2318555 13.1155664,10.929707 L13.1155664,8.74371094 C13.1155664,8.44169922 13.3600195,8.19724609 13.662168,8.19724609 C13.9641797,8.19724609 14.2086328,8.44169922 14.2086328,8.74371094 L14.2086328,10.929707 C14.2086328,11.2318555 13.9641797,11.4763086 13.662168,11.4763086 Z" id="Path"></path>
            </g>
        </g>
    </g>
</svg>