<?xml version="1.0" encoding="UTF-8"?>
<svg width="398px" height="378px" viewBox="0 0 398 378" version="1.1" xmlns="http://www.w3.org/2000/svg" xmlns:xlink="http://www.w3.org/1999/xlink">
    <!-- Generator: Sketch 52.6 (67491) - http://www.bohemiancoding.com/sketch -->
    <title>cart (1)</title>
    <desc>Created with Sketch.</desc>
    <g id="Page-1" stroke="none" stroke-width="1" fill="none" fill-rule="evenodd">
        <g id="cart-(1)" fill="#773C80" fill-rule="nonzero">
            <path d="M130.501706,282 C104.266112,282 83,303.489965 83,330.001724 C83,356.510035 104.266112,378 130.501706,378 C156.733889,378 178,356.510035 178,330.001724 C177.972714,303.503752 156.723657,282.027573 130.501706,282 Z M130.501706,360.353068 C113.911751,360.353068 100.46311,346.762863 100.46311,330.001724 C100.46311,313.237138 113.911751,299.646932 130.501706,299.646932 C147.088249,299.646932 160.53689,313.237138 160.53689,330.001724 C160.53689,346.762863 147.088249,360.353068 130.501706,360.353068 Z" id="Shape"></path>
            <path d="M389.369523,82.0676912 L81.6950615,82.0676912 L75.4220349,46.7536299 C71.5554266,25.0147904 54.6117854,8.00982217 32.9880512,4.16590501 L10.2444975,0.137151672 C5.50313745,-0.711727581 0.979614439,2.4681465 0.135495733,7.2328236 C-0.705219486,12.0009243 2.45341825,16.5499584 7.19477834,17.3988377 L30.0234244,21.427591 C44.4279016,23.9947666 55.7043743,35.3348348 58.2571531,49.8205485 L89.1015224,224.809476 C92.7434866,245.747357 110.834175,261.020337 131.97118,260.9998 L314.954332,260.9998 C334.178455,261.057989 351.156133,248.403527 356.69396,229.892483 L397.647332,93.3701082 C398.406358,90.7070914 397.926435,87.8387014 396.34031,85.572741 C394.682705,83.3786622 392.106101,82.0848064 389.369523,82.0676912 Z M340.049845,224.720481 C336.761867,235.83806 326.574579,243.443745 315.042829,243.385555 L132.059677,243.385555 C119.367262,243.419785 108.502638,234.236143 106.354901,221.653562 L84.8332775,99.5039453 L377.691413,99.5039453 L340.049845,224.720481 Z" id="Shape"></path>
            <path d="M314.501706,282 C288.266112,282 267,303.489965 267,330.001724 C267,356.510035 288.266112,378 314.501706,378 C340.733889,378 362,356.510035 362,330.001724 C361.972714,303.503752 340.723657,282.027573 314.501706,282 Z M315.001704,360 C298.432124,360 285,346.344008 285,329.501732 C285,312.655993 298.432124,299 315.001704,299 C331.567876,299 345,312.655993 345,329.501732 C345,346.344008 331.567876,360 315.001704,360 Z" id="Shape"></path>
        </g>
    </g>
</svg>