<?xml version="1.0" encoding="UTF-8"?>
<svg width="295px" height="378px" viewBox="0 0 295 378" version="1.1" xmlns="http://www.w3.org/2000/svg" xmlns:xlink="http://www.w3.org/1999/xlink">
    <!-- Generator: Sketch 52.6 (67491) - http://www.bohemiancoding.com/sketch -->
    <title>human</title>
    <desc>Created with Sketch.</desc>
    <g id="Page-1" stroke="none" stroke-width="1" fill="none" fill-rule="evenodd">
        <g id="human" transform="translate(-1.000000, 0.000000)" fill="#773C80" fill-rule="nonzero">
            <path d="M189.9,184.1 L106.6,184.1 C50.3,184.1 5.6,228.9 4.5,284.2 C1.4,300.9 -2.8,330.1 7.6,340.5 C35.7,367.6 99.3,378 148.2,378 C198.2,378 260.7,367.6 288.8,340.5 C299.2,330.1 295.1,300.9 291.9,284.2 C291,228.9 245.2,184.1 189.9,184.1 Z M275.4,324.8 C255.6,344.6 206.6,357.1 149.4,357.1 C92.1,357.1 42.1,344.6 23.4,325.8 C21.3,321.6 11.3,208.5 106.7,203.8 C128.4,202.7 191.1,203.8 191.1,203.8 C284.6,203.9 277.5,321.7 275.4,324.8 Z" id="Shape"></path>
            <path d="M147.2,165.3 C193,165.3 230.5,127.8 229.5,82.9 C229.5,37 193,0.5 147.2,0.5 C102.4,0.5 64.9,38 64.9,82.9 C64.9,128.8 101.4,165.3 147.2,165.3 Z M147.2,21.4 C181.6,21.4 209.7,49.5 209.7,82.9 C209.7,116.3 181.6,144.4 147.2,144.4 C112.8,144.4 84.7,116.3 84.7,82.9 C84.7,49.5 112.9,21.4 147.2,21.4 Z" id="Shape"></path>
        </g>
    </g>
</svg>