<?xml version="1.0"?>
<svg xmlns="http://www.w3.org/2000/svg" height="512px" viewBox="0 -66 512 512" width="512px" class=""><g><path d="m75 217.058594c8.285156 0 15-6.714844 15-15v-31.527344h.289062c8.28125 0 15-6.71875 15-15 0-8.285156-6.71875-15-15-15h-.289062v-16.53125h.285156c8.285156 0 15-6.714844 15-15s-6.714844-15-15-15h-15.285156c-8.285156 0-15 6.714844-15 15v93.058594c0 8.285156 6.714844 15 15 15zm0 0" data-original="#000000" class="active-path" data-old_color="#000000" fill="#f8b631"/><path d="m258 217.058594h15.5c8.285156 0 15-6.714844 15-15s-6.714844-15-15-15h-.5v-16.527344h.285156c8.285156 0 15-6.71875 15-15 0-8.285156-6.714844-15-15-15h-.285156v-16.53125h.285156c8.285156 0 15-6.714844 15-15s-6.714844-15-15-15h-15.285156c-8.285156 0-15 6.714844-15 15v93.058594c0 8.285156 6.714844 15 15 15zm0 0" data-original="#000000" class="active-path" data-old_color="#000000" fill="#f8b631"/><path d="m205 217.058594h15.5c8.285156 0 15-6.714844 15-15s-6.714844-15-15-15h-.5v-16.527344h.285156c8.285156 0 15-6.71875 15-15 0-8.285156-6.714844-15-15-15h-.285156v-16.53125h.285156c8.28125 0 15-6.714844 15-15s-6.71875-15-15-15h-15.285156c-8.285156 0-15 6.714844-15 15v93.058594c0 8.285156 6.714844 15 15 15zm0 0" data-original="#000000" class="active-path" data-old_color="#000000" fill="#f8b631"/><path d="m125 217.058594c8.285156 0 15-6.714844 15-15v-5.785156l16.390625 16.390624c2.925781 2.933594 6.765625 4.394532 10.605469 4.394532s7.675781-1.460938 10.605468-4.390625c5.859376-5.859375 5.859376-15.355469 0-21.214844l-22.15625-22.160156c15.378907-4.867188 26.554688-19.269531 26.554688-36.234375 0 0-.125-39-38-39 0 0-18.613281-.058594-19-.058594-8.285156 0-15 6.71875-15 15v93.058594c0 8.285156 6.714844 15 15 15zm15-93h4c8.875 0 8 9 8 9 0 4.410156-3.589844 8-8 8h-4zm0 0" data-original="#000000" class="active-path" data-old_color="#000000" fill="#f8b631"/><path d="m465.59375 181.003906-29.410156-49.359375c-19.214844-32.246093-50.589844-51.941406-87.183594-55.167969v-61.476562c0-8.285156-6.714844-15-15-15h-319c-8.285156 0-15 6.714844-15 15v303.195312c0 8.285157 6.714844 15 15 15h34.199219c5.417969 26.117188 28.601562 45.804688 56.300781 45.804688s50.882812-19.6875 56.300781-45.804688h172.199219c.785156 0 1.554688-.078124 2.308594-.195312h21.847656c5.34375 26.214844 28.574219 46 56.34375 46s51-19.785156 56.34375-46h26.15625c8.285156 0 15-6.714844 15-15v-90c0-25.71875-20.761719-46.679688-46.40625-46.996094zm-360.09375 167.996094c-15.164062 0-27.5-12.335938-27.5-27.5s12.335938-27.5 27.5-27.5 27.5 12.335938 27.5 27.5-12.335938 27.5-27.5 27.5zm213.5-45.804688h-159.003906c-7.664063-22.753906-29.1875-39.195312-54.496094-39.195312s-46.832031 16.441406-54.496094 39.195312h-21.003906v-273.195312h289zm95.5 45.804688c-15.164062 0-27.5-12.335938-27.5-27.5s12.335938-27.5 27.5-27.5 27.5 12.335938 27.5 27.5-12.335938 27.5-27.5 27.5zm67.5-46h-13.070312c-7.71875-22.652344-29.195313-39-54.429688-39s-46.707031 16.347656-54.429688 39h-11.066406v-196.386719c25.976563 3.019531 47.523438 17.089844 61.40625 40.386719l20.261719 34h-40.671875c-8.285156 0-15 6.714844-15 15s6.714844 15 15 15h75c9.375 0 17 7.625 17 17zm0 0" data-original="#000000" class="active-path" data-old_color="#000000" fill="#f8b631"/></g> </svg>
