<?xml version="1.0" encoding="UTF-8"?>
<svg width="299px" height="299px" viewBox="0 0 299 299" version="1.1" xmlns="http://www.w3.org/2000/svg" xmlns:xlink="http://www.w3.org/1999/xlink">
    <!-- Generator: Sketch 52.6 (67491) - http://www.bohemiancoding.com/sketch -->
    <title>cocktail</title>
    <desc>Created with Sketch.</desc>
    <g id="Page-1" stroke="none" stroke-width="1" fill="none" fill-rule="evenodd">
        <g id="cocktail" transform="translate(1.000000, 1.000000)">
            <circle id="Oval" stroke="#000000" fill="#773C80" cx="148.5" cy="148.5" r="148.5"></circle>
            <path d="M189.513,258.5 L154,258.5 L154,173.8 L227.495,70.907 C228.962,68.853 227.494,66 224.97,66 L72.03,66 C69.506,66 68.038,68.853 69.505,70.907 L143,173.8 L143,258.5 L107.487,258.5 C104.615,258.5 102.049,260.599 101.776,263.459 C101.463,266.739 104.034,269.5 107.25,269.5 L189.75,269.5 C192.966,269.5 195.538,266.739 195.224,263.459 C194.951,260.599 192.385,258.5 189.513,258.5 Z" id="Path" stroke="#000000" fill="#ECF0F1"></path>
            <g id="Group" transform="translate(92.000000, 41.000000)">
                <path d="M10,42.777 C-0.259,35.13 -2.376,20.615 5.271,10.356 C12.918,0.097 27.433,-2.02 37.692,5.627 L10,42.777 Z" id="Path" fill="#BFF796"></path>
                <path d="M10.103,43.478 L9.702,43.178 C-0.762,35.378 -2.929,20.52 4.872,10.057 C12.672,-0.405 27.528,-2.571 37.992,5.226 L38.393,5.525 L10.103,43.478 Z M23.875,1.543 C16.954,1.543 10.117,4.692 5.672,10.654 C-1.698,20.542 0.224,34.526 9.901,42.073 L36.989,5.733 C33.022,2.908 28.43,1.543 23.875,1.543 Z" id="Shape" fill="#2ECC71" fill-rule="nonzero"></path>
            </g>
            <g id="Group" transform="translate(114.000000, 64.000000)">
                <polygon id="Path" fill="#BFF796" points="1.576 1.565 1.586 1.552 1.564 1.555"></polygon>
                <polygon id="Path" fill="#2ECC71" points="1.681 2.248 0.349 1.269 2.752 0.831"></polygon>
            </g>
            <path d="M115.564,67.556 C115.124,67.556 114.692,67.41 114.338,67.137 L96.038,52.948 C95.201,52.299 95.018,51.114 95.607,50.246 C95.628,50.215 95.65,50.183 95.671,50.155 C99.629,44.845 105.421,41.357 111.976,40.338 C112.502,40.256 113.041,40.388 113.471,40.705 C113.901,41.022 114.186,41.498 114.263,42.026 L117.637,65.167 C117.713,65.692 117.577,66.227 117.259,66.652 L117.187,66.749 C116.885,67.154 116.44,67.429 115.943,67.52 L115.922,67.524 C115.804,67.545 115.684,67.556 115.564,67.556 Z M100.109,51.043 L112.992,61.03 L110.61,44.694 C106.543,45.726 102.911,47.92 100.109,51.043 Z" id="Shape" fill="#2ECC71" fill-rule="nonzero"></path>
            <path d="M112.284,42.314 C106.498,43.214 101.047,46.29 97.271,51.356 C97.268,51.36 97.266,51.364 97.263,51.367 C93.231,56.783 91.921,63.383 93.089,69.533 C94.134,75.031 97.159,80.169 102,83.777 L115.576,65.564 L115.564,65.555 L115.585,65.551 L115.657,65.454 L129.691,46.627 C124.499,42.756 118.216,41.391 112.284,42.314 Z" id="Path" fill="#BFF796"></path>
            <path d="M133.604,44.727 C133.921,44.302 134.056,43.768 133.98,43.243 C133.903,42.719 133.621,42.246 133.196,41.929 C120.363,32.363 102.139,35.021 92.573,47.854 C83.007,60.687 85.665,78.911 98.498,88.478 C98.856,88.746 99.276,88.874 99.691,88.874 C100.301,88.874 100.904,88.596 101.296,88.069 L133.604,44.727 Z M96.703,66.862 C96.351,62.852 97.234,58.897 99.269,55.453 L110.774,64.372 L96.703,66.862 Z M101.64,52.229 C104.129,49.494 107.323,47.57 110.892,46.625 L112.992,61.03 L101.64,52.229 Z M102.809,79.345 C100.272,77.015 98.449,74.073 97.459,70.792 L110.968,68.401 L102.809,79.345 Z M116.94,60.388 L114.842,45.996 C118.654,45.792 122.399,46.714 125.675,48.669 L116.94,60.388 Z" id="Shape" fill="#2ECC71" fill-rule="nonzero"></path>
            <polygon id="Path" fill="#BFF796" points="148.5 167.85 190.893 108.5 106.107 108.5"></polygon>
            <polygon id="Path" fill="#A3DD76" points="148.667 108.5 148.667 167.616 190.893 108.5"></polygon>
        </g>
    </g>
</svg>