<?xml version="1.0" encoding="UTF-8"?>
<svg width="299px" height="299px" viewBox="0 0 299 299" version="1.1" xmlns="http://www.w3.org/2000/svg" xmlns:xlink="http://www.w3.org/1999/xlink">
    <!-- Generator: Sketch 52.6 (67491) - http://www.bohemiancoding.com/sketch -->
    <title>burger</title>
    <desc>Created with Sketch.</desc>
    <g id="Page-1" stroke="none" stroke-width="1" fill="none" fill-rule="evenodd">
        <g id="burger" transform="translate(1.000000, 1.000000)">
            <circle id="Oval" stroke="#000000" fill="#FFC757" cx="148.5" cy="148.5" r="148.5"></circle>
            <path d="M68.791,170.436 L228.209,170.436 C233.029,170.436 236.936,166.529 236.936,161.709 C236.936,156.889 233.029,152.982 228.209,152.982 L68.791,152.982 C63.971,152.982 60.064,156.889 60.064,161.709 C60.064,166.529 63.971,170.436 68.791,170.436 Z" id="Path" fill="#C63C22"></path>
            <path d="M68.791,187.636 L228.209,187.636 C233.029,187.636 236.936,183.729 236.936,178.909 C236.936,174.089 233.029,170.182 228.209,170.182 L68.791,170.182 C63.971,170.182 60.064,174.089 60.064,178.909 C60.064,183.729 63.971,187.636 68.791,187.636 Z" id="Path" fill="#D35400"></path>
            <path d="M228.209,152.982 L148.667,152.982 L148.667,170.436 L228.209,170.436 C233.029,170.436 236.936,166.529 236.936,161.709 C236.936,156.889 233.029,152.982 228.209,152.982 Z" id="Path" fill="#B2301F"></path>
            <path d="M228.209,170.182 L148.667,170.182 L148.667,187.636 L228.209,187.636 C233.029,187.636 236.936,183.729 236.936,178.909 C236.936,174.089 233.029,170.182 228.209,170.182 Z" id="Path" fill="#BA4504"></path>
            <path d="M68.791,212.655 L228.209,212.655 C236.242,212.655 242.754,206.143 242.754,198.11 C242.754,190.077 236.242,183.565 228.209,183.565 L68.791,183.565 C60.758,183.565 54.246,190.077 54.246,198.11 C54.245,206.142 60.758,212.655 68.791,212.655 Z" id="Path" stroke="#000000" fill="#E59A51"></path>
            <path d="M203.65,156.718 L180.619,202.781 C179.371,205.276 175.811,205.276 174.563,202.781 L151.532,156.718 C150.407,154.467 152.043,151.819 154.56,151.819 L200.623,151.819 C203.139,151.818 204.776,154.467 203.65,156.718 Z" id="Path" fill="#FFCF6D"></path>
            <path d="M244.5,134.946 C244.767,103.274 201.665,77.422 148.5,77.346 C95.481,77.27 52.5,103.134 52.5,134.946 C52.5,135.031 52.5,135.115 52.501,135.199 C52.582,146.383 61.899,155.309 73.084,155.309 L223.917,155.309 C235.102,155.309 244.418,146.383 244.5,135.199 C244.5,135.114 244.499,135.03 244.5,134.946 Z" id="Path" stroke="#000000" fill="#E59A51"></path>
        </g>
    </g>
</svg>