<?xml version="1.0" encoding="UTF-8"?>
<svg width="299px" height="299px" viewBox="0 0 299 299" version="1.1" xmlns="http://www.w3.org/2000/svg" xmlns:xlink="http://www.w3.org/1999/xlink">
    <!-- Generator: Sketch 52.6 (67491) - http://www.bohemiancoding.com/sketch -->
    <title>fish</title>
    <desc>Created with Sketch.</desc>
    <g id="Page-1" stroke="none" stroke-width="1" fill="none" fill-rule="evenodd">
        <g id="fish" transform="translate(1.000000, 1.000000)">
            <circle id="Oval" stroke="#000000" fill="#773C80" cx="148.5" cy="148.5" r="148.5"></circle>
            <path d="M184.55,113.5 C145.463,113.5 100.584,137.806 88.615,155.5 C84.003,145.267 71.858,126.833 57.6,126.833 C39.375,126.833 57.6,138.772 57.6,153.5 C57.6,168.228 39.375,180.167 57.6,180.167 C71.858,180.167 77.258,179.604 81.871,169.371 C93.84,187.065 145.463,193.5 184.55,193.5 C216.739,193.5 236.387,173.536 245.149,161.816 C248.844,156.873 248.844,150.127 245.149,145.184 C236.387,133.464 216.739,113.5 184.55,113.5 Z" id="Path" stroke="#000000" fill="#F9B65F"></path>
            <path d="M245.149,145.184 C236.388,133.464 216.739,113.5 184.55,113.5 C172.594,113.5 160.099,115.781 148.167,119.445 L148.167,191.71 C160.494,192.944 173.063,193.501 184.55,193.501 C216.739,193.501 236.387,173.537 245.149,161.817 C248.844,156.873 248.844,150.127 245.149,145.184 Z" id="Path" fill="#E09A46"></path>
            <path d="M197.181,114.582 C193.205,113.893 189.002,113.5 184.55,113.5 C152.396,113.5 116.339,129.948 97.891,145.632 C105.845,149.706 117.063,152.216 132,148.5 C166.833,139.833 164.5,151.833 181.5,148.5 C191.922,146.457 195.766,128.316 197.181,114.582 Z" id="Path" fill="#E67E22"></path>
            <path d="M66,196 L231,196 C249.225,196 264,181.225 264,163 L33,163 C33,181.225 47.775,196 66,196 Z" id="Path" stroke="#000000" fill="#FFFFFF"></path>
            <circle id="Oval" stroke="#030202" fill="#C15C10" cx="205.5" cy="144.5" r="4.5"></circle>
            <path d="M69.884,164.875 C69.884,154.216 80.095,148.5 92.692,148.5 C105.289,148.5 115.5,154.216 115.5,164.875 C115.5,175.534 105.289,184.174 92.692,184.174 C80.095,184.174 69.884,175.533 69.884,164.875 Z" id="Path" stroke="#020101" fill="#C0392B"></path>
            <path d="M179.123,159.694 C179.123,153.82 184.751,150.67 191.693,150.67 C198.635,150.67 204.263,153.82 204.263,159.694 C204.263,165.568 198.635,170.33 191.693,170.33 C184.751,170.33 179.123,165.568 179.123,159.694 Z" id="Path" stroke="#000000" fill="#C0392B"></path>
            <circle id="Oval" stroke="#000000" fill="#59913C" cx="143.237" cy="159.737" r="5.263"></circle>
            <circle id="Oval" stroke="#000000" fill="#59913C" cx="168.5" cy="159.737" r="5.263"></circle>
            <circle id="Oval" stroke="#000000" fill="#2ECC71" cx="159.737" cy="159.737" r="5.263"></circle>
        </g>
    </g>
</svg>