<?xml version="1.0" encoding="UTF-8"?>
<svg width="299px" height="299px" viewBox="0 0 299 299" version="1.1" xmlns="http://www.w3.org/2000/svg" xmlns:xlink="http://www.w3.org/1999/xlink">
    <!-- Generator: Sketch 52.6 (67491) - http://www.bohemiancoding.com/sketch -->
    <title>Cheatmeals</title>
    <desc>Created with Sketch.</desc>
    <g id="Page-1" stroke="none" stroke-width="1" fill="none" fill-rule="evenodd">
        <g id="Cheatmeals" transform="translate(1.000000, 1.000000)">
            <circle id="Oval" stroke="#000000" fill="#FFC757" cx="148.5" cy="148.5" r="148.5"></circle>
            <g id="Group" transform="translate(105.000000, 97.000000)">
                <circle id="Oval" fill="#E67E22" cx="40.406" cy="40.24" r="36.094"></circle>
                <path d="M40.406,80.333 C18.299,80.333 0.312,62.347 0.312,40.239 C0.312,18.131 18.298,0.145 40.406,0.145 C62.514,0.145 80.5,18.131 80.5,40.239 C80.5,62.347 62.514,80.333 40.406,80.333 Z M40.406,8.146 C22.71,8.146 8.312,22.543 8.312,40.24 C8.312,57.937 22.709,72.334 40.406,72.334 C58.103,72.334 72.5,57.937 72.5,40.24 C72.5,22.543 58.103,8.146 40.406,8.146 Z" id="Shape" stroke="#000000" fill="#F4AF30" fill-rule="nonzero"></path>
            </g>
            <g id="Group" transform="translate(123.000000, 115.000000)">
                <circle id="Oval" fill="#E67E22" cx="22.406" cy="22.24" r="18.047"></circle>
                <path d="M22.406,44.286 C10.25,44.286 0.359,34.395 0.359,22.239 C0.359,10.083 10.25,0.192 22.406,0.192 C34.562,0.192 44.453,10.083 44.453,22.239 C44.453,34.395 34.563,44.286 22.406,44.286 Z M22.406,8.192 C14.661,8.192 8.359,14.494 8.359,22.239 C8.359,29.984 14.661,36.286 22.406,36.286 C30.151,36.286 36.453,29.984 36.453,22.239 C36.453,14.494 30.151,8.192 22.406,8.192 Z" id="Shape" fill="#F4AF30" fill-rule="nonzero"></path>
            </g>
            <g id="Group" transform="translate(145.000000, 115.000000)">
                <path d="M0.406,4.193 C0.325,4.193 0.247,4.204 0.167,4.205 L0.167,40.275 C0.248,40.276 0.325,40.287 0.406,40.287 C10.373,40.287 18.453,32.207 18.453,22.24 C18.453,12.273 10.373,4.193 0.406,4.193 Z" id="Path" fill="#C46116"></path>
                <path d="M0.406,0.192 C0.326,0.192 0.247,0.197 0.167,0.198 L0.167,8.204 C0.247,8.203 0.325,8.192 0.406,8.192 C8.151,8.192 14.453,14.494 14.453,22.239 C14.453,29.984 8.151,36.286 0.406,36.286 C0.325,36.286 0.247,36.275 0.167,36.274 L0.167,44.28 C0.247,44.281 0.326,44.286 0.406,44.286 C12.562,44.286 22.453,34.395 22.453,22.239 C22.453,10.083 12.563,0.192 0.406,0.192 Z" id="Path" fill="#D89221"></path>
            </g>
            <g id="Group" transform="translate(62.000000, 111.000000)">
                <circle id="Oval" fill="#E67E22" cx="37" cy="37.5" r="33"></circle>
                <path d="M37,74.5 C16.598,74.5 0,57.902 0,37.5 C0,17.098 16.598,0.5 37,0.5 C57.402,0.5 74,17.098 74,37.5 C74,57.902 57.402,74.5 37,74.5 Z M37,8.5 C21.01,8.5 8,21.51 8,37.5 C8,53.49 21.01,66.5 37,66.5 C52.99,66.5 66,53.49 66,37.5 C66,21.51 52.99,8.5 37,8.5 Z" id="Shape" stroke="#000000" fill="#F4AF30" fill-rule="nonzero"></path>
            </g>
            <g id="Group" transform="translate(78.000000, 128.000000)">
                <circle id="Oval" fill="#E67E22" cx="21" cy="20.5" r="16.5"></circle>
                <path d="M21,41 C9.696,41 0.5,31.804 0.5,20.5 C0.5,9.196 9.696,0 21,0 C32.304,0 41.5,9.196 41.5,20.5 C41.5,31.804 32.304,41 21,41 Z M21,8 C14.107,8 8.5,13.607 8.5,20.5 C8.5,27.393 14.107,33 21,33 C27.893,33 33.5,27.393 33.5,20.5 C33.5,13.607 27.893,8 21,8 Z" id="Shape" fill="#F4AF30" fill-rule="nonzero"></path>
            </g>
            <g id="Group" transform="translate(144.000000, 111.000000)">
                <circle id="Oval" fill="#E67E22" cx="45.75" cy="45.75" r="41.25"></circle>
                <path d="M45.75,91 C20.799,91 0.5,70.701 0.5,45.75 C0.5,20.799 20.799,0.5 45.75,0.5 C70.701,0.5 91,20.799 91,45.75 C91,70.701 70.701,91 45.75,91 Z M45.75,8.5 C25.21,8.5 8.5,25.21 8.5,45.75 C8.5,66.29 25.21,83 45.75,83 C66.29,83 83,66.29 83,45.75 C83,25.21 66.29,8.5 45.75,8.5 Z" id="Shape" stroke="#000000" fill="#F4AF30" fill-rule="nonzero"></path>
            </g>
            <g id="Group" transform="translate(160.000000, 127.000000)">
                <circle id="Oval" fill="#E67E22" cx="29.75" cy="29.75" r="25"></circle>
                <path d="M29.75,58.75 C13.76,58.75 0.75,45.74 0.75,29.75 C0.75,13.76 13.76,0.75 29.75,0.75 C45.74,0.75 58.75,13.76 58.75,29.75 C58.75,45.74 45.74,58.75 29.75,58.75 Z M29.75,8.75 C18.171,8.75 8.75,18.171 8.75,29.75 C8.75,41.329 18.171,50.75 29.75,50.75 C41.329,50.75 50.75,41.329 50.75,29.75 C50.75,18.171 41.329,8.75 29.75,8.75 Z" id="Shape" fill="#F4AF30" fill-rule="nonzero"></path>
            </g>
            <g id="Group" transform="translate(177.000000, 144.000000)">
                <circle id="Oval" fill="#E67E22" cx="12.75" cy="12.75" r="8.25"></circle>
                <path d="M12.75,25 C5.995,25 0.5,19.505 0.5,12.75 C0.5,5.995 5.995,0.5 12.75,0.5 C19.505,0.5 25,5.995 25,12.75 C25,19.505 19.505,25 12.75,25 Z M12.75,8.5 C10.406,8.5 8.5,10.406 8.5,12.75 C8.5,15.094 10.406,17 12.75,17 C15.094,17 17,15.094 17,12.75 C17,10.406 15.094,8.5 12.75,8.5 Z" id="Shape" fill="#F4AF30" fill-rule="nonzero"></path>
            </g>
            <path d="M247.5,148.5 C247.5,203.176 203.176,247.5 148.5,247.5 C93.824,247.5 49.5,203.176 49.5,148.5 L247.5,148.5 Z" id="Path" stroke="#000000" fill="#F0DEB4"></path>
            <path d="M198,119.5 C195.791,119.5 194,117.709 194,115.5 L194,49.5 C194,47.291 195.791,45.5 198,45.5 C200.209,45.5 202,47.291 202,49.5 L202,115.5 C202,117.709 200.209,119.5 198,119.5 Z" id="Path" fill="#F4AF30"></path>
            <path d="M181.5,136 C179.291,136 177.5,134.209 177.5,132 L177.5,66 C177.5,63.791 179.291,62 181.5,62 C183.709,62 185.5,63.791 185.5,66 L185.5,132 C185.5,134.209 183.709,136 181.5,136 Z" id="Path" fill="#F4AF30"></path>
            <path d="M198,71 L66,71 C63.238,71 61,68.762 61,66 C61,63.238 63.238,61 66,61 L198,61 C200.762,61 203,63.238 203,66 C203,68.762 200.762,71 198,71 Z" id="Path" stroke="#000000" fill="#D5C295"></path>
            <path d="M202,51 L70,51 C67.238,51 65,48.762 65,46 C65,43.238 67.238,41 70,41 L202,41 C204.762,41 207,43.238 207,46 C207,48.762 204.762,51 202,51 Z" id="Path" stroke="#090404" fill="#D5C295"></path>
        </g>
    </g>
</svg>