<?xml version="1.0" encoding="UTF-8"?>
<svg width="299px" height="299px" viewBox="0 0 299 299" version="1.1" xmlns="http://www.w3.org/2000/svg" xmlns:xlink="http://www.w3.org/1999/xlink">
    <!-- Generator: Sketch 52.6 (67491) - http://www.bohemiancoding.com/sketch -->
    <title>snacks</title>
    <desc>Created with Sketch.</desc>
    <g id="Page-1" stroke="none" stroke-width="1" fill="none" fill-rule="evenodd">
        <g id="snacks" transform="translate(1.000000, 1.000000)">
            <circle id="Oval" stroke="#000000" fill="#773C80" cx="148.5" cy="148.5" r="148.5"></circle>
            <path d="M249.132,90.49 C261.557,111.95 220.639,141.575 166.989,172.638 C113.339,203.701 67.274,224.437 54.85,202.977 C42.426,181.517 68.345,125.987 121.995,94.925 C175.645,63.863 236.707,69.03 249.132,90.49 Z" id="Path" stroke="#000000" fill="#E59A51"></path>
            <path d="M127.721,132.955 C131.149,132.448 132.514,128.217 129.992,125.84 C124.24,120.418 114.68,112.242 104.28,106.777 C97.586,111.904 91.479,117.387 85.992,123.06 C94.119,130.824 107.93,135.883 127.721,132.955 Z" id="Path" fill="#C67030"></path>
            <path d="M93.26,161.17 C95.828,160.79 96.849,157.622 94.961,155.841 C89.963,151.13 81.127,143.64 71.92,139.771 C68.378,144.645 65.277,149.536 62.644,154.348 C68.804,159.826 78.944,163.288 93.26,161.17 Z" id="Path" fill="#C67030"></path>
            <path d="M163.882,111.057 C167.344,111.213 169.491,107.321 167.468,104.506 C163.231,98.608 156.282,89.816 148.073,82.725 C140.287,85.575 132.47,89.096 124.784,93.349 C131.274,102.536 143.873,110.154 163.882,111.057 Z" id="Path" fill="#C67030"></path>
            <path d="M167.468,104.506 C163.422,98.873 156.897,90.602 149.167,83.693 L149.167,108.913 C153.546,110.052 158.429,110.811 163.882,111.057 C167.344,111.213 169.49,107.321 167.468,104.506 Z" id="Path" fill="#B25D24"></path>
            <path d="M204.528,93.058 C207.095,93.445 208.998,90.714 207.712,88.459 C205.366,84.344 201.659,78.432 197.07,73.06 C190.359,73.239 183.278,73.94 175.978,75.215 C179.677,83.181 188.631,90.658 204.528,93.058 Z" id="Path" fill="#B25D24"></path>
        </g>
    </g>
</svg>