<?xml version="1.0" encoding="UTF-8"?>
<svg width="299px" height="299px" viewBox="0 0 299 299" version="1.1" xmlns="http://www.w3.org/2000/svg" xmlns:xlink="http://www.w3.org/1999/xlink">
    <!-- Generator: Sketch 52.6 (67491) - http://www.bohemiancoding.com/sketch -->
    <title>snacks</title>
    <desc>Created with Sketch.</desc>
    <g id="Page-1" stroke="none" stroke-width="1" fill="none" fill-rule="evenodd">
        <g id="snacks" transform="translate(1.000000, 1.000000)">
            <circle id="Oval" stroke="#000000" fill="#FFC757" cx="148.5" cy="148.5" r="148.5"></circle>
            <path d="M97.773,116.616 L87.461,119.201 C84.148,120.032 80.788,118.019 79.958,114.706 L66.187,59.776 C65.356,56.463 67.369,53.103 70.682,52.273 L80.994,49.688 C84.307,48.857 87.667,50.87 88.497,54.183 L102.268,109.113 C103.099,112.426 101.087,115.785 97.773,116.616 Z" id="Path" stroke="#000000" fill="#F28F00"></path>
            <path d="M209.913,132.926 L199.491,130.831 C196.142,130.158 193.973,126.898 194.646,123.549 L205.805,68.03 C206.478,64.681 209.739,62.512 213.087,63.185 L223.509,65.28 C226.858,65.953 229.027,69.213 228.354,72.562 L217.195,128.081 C216.522,131.43 213.262,133.6 209.913,132.926 Z" id="Path" stroke="#000000" fill="#F28F00"></path>
            <path d="M181.782,94.029 L171.151,93.97 C167.735,93.951 164.982,91.167 165,87.751 L165.313,31.122 C165.332,27.706 168.116,24.952 171.532,24.971 L182.163,25.03 C185.579,25.049 188.332,27.833 188.313,31.249 L188,87.878 C187.982,91.294 185.198,94.048 181.782,94.029 Z" id="Path" stroke="#000000" fill="#F28F00"></path>
            <path d="M111.352,115.5 L96.722,115.5 C93.306,115.5 90.537,112.731 90.537,109.315 L90.537,40.685 C90.537,37.269 93.306,34.5 96.722,34.5 L111.352,34.5 C114.768,34.5 117.537,37.269 117.537,40.685 L117.537,109.315 C117.537,112.731 114.768,115.5 111.352,115.5 Z" id="Path" stroke="#000000" fill="#F4B145"></path>
            <path d="M142.339,113.405 L131.749,114.331 C128.346,114.629 125.346,112.111 125.049,108.709 L120.113,52.294 C119.815,48.891 122.333,45.891 125.735,45.594 L136.325,44.668 C139.728,44.37 142.728,46.888 143.025,50.29 L147.961,106.705 C148.259,110.108 145.741,113.108 142.339,113.405 Z" id="Path" stroke="#000000" fill="#FFA800"></path>
            <path d="M175.854,118.261 L165.264,119.187 C161.861,119.485 158.861,116.968 158.564,113.565 L153.628,57.15 C153.33,53.747 155.847,50.747 159.25,50.45 L169.84,49.524 C173.243,49.226 176.243,51.744 176.54,55.146 L181.476,111.561 C181.774,114.964 179.257,117.964 175.854,118.261 Z" id="Path" stroke="#000000" fill="#FFA800"></path>
            <path d="M191.077,115.15 L180.735,112.691 C177.412,111.901 175.358,108.566 176.148,105.243 L189.246,50.148 C190.036,46.825 193.371,44.771 196.694,45.561 L207.036,48.02 C210.359,48.81 212.413,52.145 211.623,55.468 L198.525,110.563 C197.735,113.887 194.4,115.94 191.077,115.15 Z" id="Path" stroke="#000000" fill="#F7B759"></path>
            <path d="M81.472,118.709 L71.16,121.294 C67.847,122.125 64.487,120.112 63.657,116.799 L49.886,61.869 C49.055,58.556 51.068,55.196 54.381,54.366 L64.693,51.781 C68.006,50.95 71.366,52.963 72.196,56.276 L85.967,111.206 C86.798,114.518 84.785,117.878 81.472,118.709 Z" id="Path" stroke="#000000" fill="#F4B145"></path>
            <path d="M82.5,264 L98.12,107.795 C98.591,103.086 94.893,99 90.16,99 L59.258,99 C54.21,99 50.424,103.618 51.414,108.568 L82.5,264 Z" id="Path" fill="#79302A"></path>
            <path d="M214.5,264 L198.88,107.795 C198.409,103.086 202.107,99 206.84,99 L237.743,99 C242.791,99 246.577,103.618 245.587,108.568 L214.5,264 Z" id="Path" fill="#6D2623"></path>
            <path d="M155.353,102.473 L144.722,102.414 C141.306,102.395 138.553,99.611 138.571,96.195 L138.884,39.566 C138.903,36.15 141.687,33.396 145.103,33.415 L155.734,33.474 C159.15,33.493 161.903,36.277 161.884,39.693 L161.571,96.322 C161.553,99.738 158.769,102.492 155.353,102.473 Z" id="Path" stroke="#000000" fill="#F28F00"></path>
            <path d="M155.735,33.474 L148.667,33.435 L148.667,102.436 L155.353,102.473 C158.769,102.492 161.553,99.738 161.572,96.322 L161.885,39.693 C161.904,36.278 159.151,33.493 155.735,33.474 Z" id="Path" stroke="#000000" fill="#E28305"></path>
            <path d="M152.434,131.893 L141.846,130.941 C138.444,130.635 135.934,127.629 136.24,124.227 L141.309,67.825 C141.615,64.423 144.621,61.913 148.023,62.218 L158.611,63.17 C162.013,63.476 164.523,66.482 164.217,69.884 L159.148,126.286 C158.842,129.689 155.836,132.199 152.434,131.893 Z" id="Path" stroke="#000000" fill="#F4B65B"></path>
            <path d="M158.61,63.17 L148.667,62.276 L148.667,131.554 L152.434,131.892 C155.836,132.198 158.842,129.688 159.148,126.286 L164.217,69.884 C164.522,66.482 162.012,63.476 158.61,63.17 Z" id="Path" fill="#EFAC54"></path>
            <rect id="Rectangle" stroke="#000000" fill="#C63C22" x="82.5" y="99" width="132" height="165"></rect>
            <rect id="Rectangle" fill="#AF2D1C" x="148.667" y="99" width="65.833" height="165"></rect>
            <circle id="Oval" fill="#F86E51" cx="148.5" cy="181.5" r="22"></circle>
            <path d="M170.5,181.5 C170.5,169.406 160.74,159.594 148.667,159.504 L148.667,203.496 C160.74,203.406 170.5,193.594 170.5,181.5 Z" id="Path" fill="#E55A42"></path>
        </g>
    </g>
</svg>