<?xml version="1.0" encoding="UTF-8"?>
<svg width="289px" height="384px" viewBox="0 0 289 384" version="1.1" xmlns="http://www.w3.org/2000/svg" xmlns:xlink="http://www.w3.org/1999/xlink">
    <!-- Generator: Sketch 52.6 (67491) - http://www.bohemiancoding.com/sketch -->
    <title>CALORIES 2</title>
    <desc>Created with Sketch.</desc>
    <g id="Page-1" stroke="none" stroke-width="1" fill="none" fill-rule="evenodd">
        <g id="CALORIES-2">
            <g id="CALORIES">
                <path d="M189.044,194.108 C189.044,194.108 222.939,219.845 222.939,274.837 C222.939,317.764 188.005,352.619 144.836,352.619 C101.671,352.619 66.742,317.842 66.742,274.837 C66.742,189.47 133.408,142.867 133.408,142.867 C133.408,142.867 142.76,202.422 154.353,213.928 C165.859,225.442 189.044,194.108 189.044,194.108 Z" id="Path" fill="#FFFFFF"></path>
                <path d="M284.726,240.313 C284.726,269.161 275.936,295.945 260.823,318.247 C235.726,355.257 193.119,379.637 144.837,379.637 C120.7,379.637 97.995,373.564 78.171,362.853 C56.348,351.019 38.043,333.673 25.174,312.651 C12.383,291.55 4.948,266.765 4.948,240.314 C4.948,89.871 148.517,6.578 152.995,4.017 C152.675,5.618 141.48,53.579 161.863,73.883 C182.573,94.508 209.668,67.092 209.668,67.092 C209.668,67.092 284.726,141.829 284.726,240.313 Z M222.939,274.837 C222.939,219.845 189.044,194.108 189.044,194.108 C189.044,194.108 165.858,225.442 154.353,213.928 C142.76,202.422 133.408,142.867 133.408,142.867 C133.408,142.867 66.742,189.471 66.742,274.837 C66.742,317.842 101.671,352.619 144.836,352.619 C188.005,352.619 222.939,317.764 222.939,274.837 Z" id="Shape" fill="#F8B631" fill-rule="nonzero"></path>
                <path d="M209.667,67.091 C209.667,67.091 206.015,70.76 200.401,74.405 C218.793,95.443 268.737,159.954 268.737,240.312 C268.737,269.16 259.948,295.944 244.835,318.246 C221.135,353.203 181.799,376.864 136.831,379.386 C139.481,379.534 142.147,379.636 144.836,379.636 C193.118,379.636 235.726,355.256 260.822,318.246 C275.935,295.944 284.725,269.16 284.725,240.312 C284.726,141.829 209.667,67.091 209.667,67.091 Z" id="Path" fill="#FF8F00"></path>
                <path d="M94.158,362.853 C72.335,351.019 54.03,333.673 41.161,312.651 C28.37,291.55 20.935,266.765 20.935,240.314 C20.935,120.831 111.437,43.759 150.953,15.797 C151.851,9.099 152.901,4.493 152.995,4.017 C148.517,6.578 4.948,89.871 4.948,240.314 C4.948,266.766 12.384,291.551 25.174,312.651 C38.043,333.673 56.348,351.019 78.171,362.853 C97.995,373.564 120.7,379.637 144.837,379.637 C147.519,379.637 150.173,379.535 152.816,379.387 C131.667,378.2 111.773,372.368 94.158,362.853 Z" id="Path" fill="#FFFFFF"></path>
                <g id="Group" fill="#773C80">
                    <path d="M284.726,244.31 C282.517,244.31 280.729,242.522 280.729,240.313 C280.729,155.06 222.58,86.966 209.45,72.68 C204.126,77.177 192.533,85.514 179.708,85.561 C179.669,85.569 179.63,85.569 179.591,85.569 C171.855,85.569 164.939,82.587 159.045,76.716 C139.291,57.036 146.383,15.671 149.025,3.462 C149.189,2.712 149.627,1.729 150.169,1.19 C151.738,-0.371 154.299,-0.41 155.859,1.151 C157.023,2.314 157.342,3.993 156.781,5.422 C154.766,14.977 147.768,54.203 164.68,71.049 C169.091,75.436 173.962,77.575 179.59,77.575 C179.621,77.575 179.645,77.575 179.676,77.567 C193.587,77.512 206.694,64.414 206.826,64.281 C207.583,63.524 208.427,62.876 209.667,63.094 C210.722,63.094 211.736,63.515 212.485,64.257 C213.251,65.014 288.721,141.313 288.721,240.313 C288.722,242.522 286.935,244.31 284.726,244.31 Z" id="Path"></path>
                    <path d="M4.947,244.31 C2.738,244.31 0.95,242.522 0.95,240.313 C0.95,88.121 144.883,4.047 151.011,0.55 C152.916,-0.543 155.367,0.12 156.46,2.033 C157.561,3.946 156.898,6.389 154.977,7.482 C149.017,10.893 8.945,92.704 8.945,240.313 C8.945,242.522 7.156,244.31 4.947,244.31 Z" id="Path"></path>
                    <path d="M144.836,383.634 C120.887,383.634 97.175,377.661 76.27,366.366 C53.842,354.203 34.998,336.35 21.766,314.735 C8.144,292.268 0.951,266.538 0.951,240.313 C0.951,238.104 2.739,236.316 4.948,236.316 C7.157,236.316 8.945,238.104 8.945,240.313 C8.945,265.079 15.74,289.372 28.593,310.582 C41.083,330.979 58.889,347.849 80.075,359.34 C99.813,370.003 122.206,375.64 144.836,375.64 C147.046,375.64 148.833,377.427 148.833,379.637 C148.833,381.846 147.046,383.634 144.836,383.634 Z" id="Path"></path>
                    <path d="M144.836,383.634 C142.627,383.634 140.839,381.846 140.839,379.637 C140.839,377.427 142.627,375.64 144.836,375.64 C190.065,375.64 232.189,353.345 257.513,316.007 C272.704,293.595 280.729,267.421 280.729,240.313 C280.729,238.104 282.517,236.316 284.726,236.316 C286.935,236.316 288.722,238.104 288.722,240.313 C288.722,269.021 280.221,296.749 264.132,320.488 C237.318,360.028 192.72,383.634 144.836,383.634 Z" id="Path"></path>
                    <path d="M222.939,278.833 C220.73,278.833 218.942,277.046 218.942,274.837 C218.942,231.992 197.56,207.534 189.575,199.9 C184.212,206.457 172.159,219.634 161.48,220.43 C157.631,220.672 154.205,219.439 151.527,216.753 C141.382,206.683 133.49,166.77 130.583,150.196 C115.243,163.108 70.74,206.472 70.74,274.836 C70.74,277.045 68.952,278.832 66.743,278.832 C64.534,278.832 62.746,277.045 62.746,274.836 C62.746,188.384 130.434,140.071 131.118,139.587 C132.258,138.806 133.709,138.642 134.974,139.189 C136.243,139.728 137.144,140.883 137.359,142.249 C141.036,165.668 149.35,203.326 157.171,211.093 C158.225,212.155 159.35,212.568 160.887,212.451 C168.272,211.912 180.107,199.453 185.836,191.725 C186.469,190.866 187.421,190.304 188.482,190.148 C189.52,190.007 190.605,190.273 191.464,190.92 C192.907,192.021 226.935,218.508 226.935,274.835 C226.935,277.046 225.148,278.833 222.939,278.833 Z" id="Path"></path>
                    <path d="M144.836,356.616 C99.571,356.616 62.745,319.926 62.745,274.837 C62.745,272.628 64.533,270.84 66.742,270.84 C68.951,270.84 70.739,272.628 70.739,274.837 C70.739,315.524 103.978,348.622 144.836,348.622 C147.046,348.622 148.833,350.409 148.833,352.619 C148.833,354.828 147.046,356.616 144.836,356.616 Z" id="Path"></path>
                    <path d="M144.836,356.616 C142.627,356.616 140.839,354.828 140.839,352.619 C140.839,350.409 142.627,348.622 144.836,348.622 C185.694,348.622 218.941,315.523 218.941,274.837 C218.941,272.628 220.729,270.84 222.938,270.84 C225.147,270.84 226.934,272.628 226.934,274.837 C226.935,319.926 190.105,356.616 144.836,356.616 Z" id="Path"></path>
                </g>
            </g>
        </g>
    </g>
</svg>