<?xml version="1.0" encoding="UTF-8"?>
<svg width="472px" height="512px" viewBox="0 0 472 512" version="1.1" xmlns="http://www.w3.org/2000/svg" xmlns:xlink="http://www.w3.org/1999/xlink">
    <!-- Generator: Sketch 52.6 (67491) - http://www.bohemiancoding.com/sketch -->
    <title>GOAL CALORIES</title>
    <desc>Created with Sketch.</desc>
    <g id="Page-1" stroke="none" stroke-width="1" fill="none" fill-rule="evenodd">
        <g id="GOAL-CALORIES" transform="translate(-1.000000, 0.000000)">
            <g id="Group" transform="translate(1.000000, 7.000000)">
                <path d="M108.194,182.497 C103.958,178.018 94.395,167.811 89.756,163.013 C57.37,129.507 16.984,87.765 16.984,40.983 C16.984,27.707 27.702,16.993 40.974,16.993 C53.45,16.993 63.606,26.431 64.808,38.504 C64.886,39.305 64.964,40.183 64.964,40.983 L80.958,40.983 C80.958,39.785 80.88,38.664 80.72,37.544 C79.042,17.07 61.849,0.998 40.974,0.998 C18.827,0.998 0.99,18.913 0.99,40.982 C0.99,120.404 96.078,179.74 116.964,220.42 L126.492,220.42 L108.194,182.497 Z" id="Path" fill="#F8B631"></path>
                <path d="M116.964,220.42 L120.943,232.907 C120.627,228.959 119.213,224.793 116.964,220.42 Z" id="Path" fill="#D7E9FF"></path>
                <path d="M357.6,182.497 C361.84,178.018 371.407,167.811 376.045,163.013 C408.423,129.507 448.814,87.765 448.814,40.983 C448.814,27.707 438.099,16.993 424.824,16.993 C412.345,16.993 402.192,26.431 400.989,38.504 C400.911,39.305 400.833,40.183 400.833,40.983 L384.839,40.983 C384.839,39.785 384.917,38.664 385.073,37.544 C386.76,17.071 403.948,0.999 424.823,0.999 C446.97,0.999 464.807,18.914 464.807,40.983 C464.807,120.405 369.719,179.741 348.836,220.421 L339.309,220.421 L357.6,182.497 Z" id="Path" fill="#F8B631"></path>
                <path d="M348.837,220.42 L344.855,232.907 C345.168,228.959 346.588,224.793 348.837,220.42 Z" id="Path" fill="#D7E9FF"></path>
            </g>
            <path d="M321.865,479.812 L145.933,479.812 L145.933,471.815 L145.933,375.853 L185.917,375.853 L281.88,375.853 L321.865,375.853 L321.864,471.815 L321.865,479.812 Z M185.918,455.822 L281.881,455.822 C281.881,451.426 285.481,447.825 289.877,447.825 L289.877,415.838 C285.481,415.838 281.881,412.237 281.881,407.841 L185.918,407.841 C185.918,412.237 182.322,415.838 177.921,415.838 L177.921,447.825 C182.322,447.825 185.918,451.425 185.918,455.822 Z" id="Shape" fill="#656D78" fill-rule="nonzero"></path>
            <polygon id="Path" fill="#F8B631" points="145.933 479.812 321.865 479.812 337.858 479.812 337.858 511.799 129.94 511.799 129.94 479.812"></polygon>
            <polygon id="Path" fill="#FF8F00" points="159.467 375.853 308.331 375.853 321.865 375.853 321.865 479.812 145.933 479.812 145.933 375.853"></polygon>
            <g id="Group" transform="translate(177.000000, 299.000000)" fill="#F8B631">
                <path d="M8.918,108.84 L104.881,108.84 C104.881,113.236 108.481,116.837 112.877,116.837 L112.877,148.824 C108.481,148.824 104.881,152.425 104.881,156.821 L8.918,156.821 C8.918,152.425 5.322,148.824 0.921,148.824 L0.921,116.837 C5.322,116.837 8.918,113.237 8.918,108.84 Z" id="Path"></path>
                <path d="M56.899,4.881 L56.981,4.881 C61.62,3.679 66.176,2.398 70.496,0.961 L72.892,8.161 C72.892,8.161 72.892,44.865 104.88,68.855 L104.88,76.852 L8.917,76.852 L8.917,68.855 C40.904,44.865 40.904,8.161 40.904,8.161 L43.306,0.961 C47.703,2.398 52.182,3.679 56.899,4.881 Z" id="Path"></path>
            </g>
            <polygon id="Path" fill="#FF8F00" points="291.877 130.989 262.934 159.138 269.806 198.962 234.059 180.169 198.315 198.962 205.113 159.138 176.164 130.989 216.148 125.151 234.059 88.927 251.892 125.151"></polygon>
            <path d="M90.198,23.992 L377.843,23.992 C377.843,29.99 378.085,38.224 378.249,48.142 C378.725,90.684 376.968,164.097 343.294,222.472 C323.864,256.221 293.798,284.928 247.496,299.961 C243.177,301.398 238.62,302.679 233.981,303.881 L233.899,303.881 C229.182,302.679 224.703,301.398 220.307,299.961 C156.492,279.172 123.544,232.468 106.75,182.569 C90.198,133.467 89.237,81.41 89.64,48.141 C89.8,38.223 90.038,29.988 90.038,23.991 L90.198,23.992 Z M262.934,159.138 L291.876,130.989 L251.892,125.151 L234.059,88.927 L216.148,125.151 L176.164,130.989 L205.114,159.138 L198.316,198.962 L234.06,180.169 L269.807,198.962 L262.934,159.138 Z" id="Shape" fill="#F8B631" fill-rule="nonzero"></path>
            <path d="M244.301,299.962 C180.482,279.173 147.534,232.469 130.74,182.57 C114.188,133.468 113.227,81.411 113.629,48.142 C113.789,38.224 114.027,29.989 114.027,23.992 L90.197,23.992 L90.037,23.992 C90.037,29.99 89.799,38.224 89.639,48.142 C89.237,81.411 90.198,133.468 106.749,182.57 C123.543,232.468 156.491,279.173 220.306,299.962 C224.702,301.399 229.181,302.68 233.898,303.882 L233.98,303.882 C238.072,302.82 242.043,301.664 245.901,300.423 C245.378,300.258 244.816,300.133 244.301,299.962 Z" id="Path" fill="#FFFFFF"></path>
            <g id="Group" transform="translate(217.000000, 23.000000)" fill="#FF8F00">
                <path d="M16.938,273.259 C74.001,250.963 104.271,206.692 120.139,159.57 C136.688,110.468 137.648,58.411 137.242,25.142 C137.086,15.224 136.851,6.989 136.851,0.992 L160.678,0.992 L160.842,0.992 C160.842,6.99 161.076,15.224 161.233,25.142 C161.639,58.411 160.678,110.468 144.13,159.57 C127.331,209.468 94.384,256.173 30.566,276.962 C30.019,277.142 29.472,277.321 28.925,277.493 L16.938,273.259 Z" id="Path"></path>
                <path d="M16.981,280.881 L16.899,280.881 C12.182,279.679 7.703,278.398 3.307,276.961 L0.929,284.099 C1.734,284.372 2.492,284.693 3.307,284.957 C7.703,286.395 12.182,287.676 16.899,288.878 L16.981,288.878 C21.62,287.676 26.176,286.395 30.496,284.957 C31.315,284.692 32.05,284.341 32.861,284.067 L30.496,276.961 C26.176,278.398 21.62,279.679 16.981,280.881 Z" id="Path"></path>
            </g>
            <path d="M220.307,307.958 C219.491,307.693 218.733,307.373 217.929,307.1 L217.906,307.163 C217.906,307.163 217.906,343.867 185.919,367.857 L193.916,367.857 C221.124,347.452 225.177,317.931 225.782,309.537 C223.973,309.004 222.076,308.536 220.307,307.958 Z" id="Path" fill="#FFFFFF"></path>
            <g id="Group" transform="translate(129.000000, 306.000000)" fill="#FF8F00">
                <path d="M118.488,0.989 C119.307,0.724 120.065,0.404 120.869,0.131 L120.892,0.194 C120.892,0.194 120.892,36.898 152.88,60.888 L144.883,60.888 C117.675,40.483 113.622,10.962 113.021,2.568 C114.825,2.036 116.722,1.567 118.488,0.989 Z" id="Path"></path>
                <rect id="Rectangle" x="0.939" y="172.809" width="7.997" height="31.987"></rect>
            </g>
            <rect id="Rectangle" fill="#FF8F00" x="329.859" y="479.809" width="7.997" height="31.987"></rect>
            <rect id="Rectangle" fill="#F8B631" x="145.929" y="375.849" width="7.919" height="103.96"></rect>
            <rect id="Rectangle" fill="#FF8F00" x="313.949" y="375.849" width="7.919" height="103.96"></rect>
            <g id="Group" fill="#773C80">
                <path d="M236.977,303.879 C235.2,303.879 233.576,302.685 233.111,300.881 C232.557,298.741 233.841,296.563 235.981,296.008 C240.527,294.836 244.998,293.579 249.23,292.165 C290.066,278.913 321.538,253.446 342.834,216.477 C374.799,161.053 377.781,91.604 377.25,44.189 L377.047,33.865 C376.938,28.449 376.844,23.776 376.844,19.992 C376.844,17.782 378.633,15.993 380.843,15.993 C383.053,15.993 384.841,17.782 384.841,19.992 C384.841,23.733 384.935,28.348 385.044,33.701 L385.247,44.076 C385.794,92.456 382.701,163.349 349.762,220.472 C327.457,259.206 294.471,285.888 251.73,299.765 C247.357,301.226 242.713,302.53 237.981,303.756 C237.645,303.84 237.309,303.879 236.977,303.879 Z" id="Path"></path>
                <path d="M236.981,303.879 C236.649,303.879 236.235,303.832 235.915,303.755 C231.108,302.536 226.544,301.225 222.061,299.756 C165.614,281.373 126.551,241.026 105.962,179.846 C89.554,131.174 88.219,79.061 88.64,44.095 L88.835,33.822 C88.944,28.414 89.038,23.76 89.038,19.992 C89.038,17.782 90.827,15.993 93.037,15.993 C95.247,15.993 97.035,17.782 97.035,19.992 C97.035,23.803 96.941,28.516 96.828,33.982 L96.637,44.209 C96.219,78.574 97.519,129.777 113.536,177.293 C133.279,235.95 170.627,274.594 224.543,292.158 C228.83,293.564 233.192,294.813 237.784,295.977 C239.576,296.383 240.939,297.976 240.939,299.881 C240.94,302.091 239.191,303.879 236.981,303.879 Z" id="Path"></path>
                <path d="M380.842,23.99 L93.198,23.99 C90.988,23.99 89.199,22.202 89.199,19.992 C89.199,17.782 90.988,15.993 93.198,15.993 L380.843,15.993 C383.053,15.993 384.841,17.782 384.841,19.992 C384.841,22.202 383.052,23.99 380.842,23.99 Z" id="Path"></path>
                <path d="M348.855,239.905 C348.761,239.905 348.667,239.901 348.574,239.893 C346.372,239.737 344.709,237.824 344.873,235.622 C345.216,230.772 346.98,225.595 350.253,219.789 C357.711,206.361 372.049,191.542 388.652,174.385 C422.576,139.317 464.809,95.674 464.809,43.983 C464.809,41.773 466.597,39.985 468.808,39.985 C471.018,39.985 472.806,41.773 472.806,43.983 C472.806,98.907 429.331,143.842 394.4,179.945 C378.187,196.696 364.193,211.163 357.226,223.694 C354.54,228.473 353.103,232.553 352.837,236.193 C352.697,238.296 350.932,239.905 348.855,239.905 Z" id="Path"></path>
                <path d="M366.692,183.927 C365.708,183.927 364.716,183.564 363.943,182.833 C362.334,181.314 362.271,178.784 363.787,177.179 C368.035,172.693 372.517,168.042 377.172,163.231 C409.137,130.162 448.817,89.108 448.817,43.981 C448.817,41.771 450.605,39.983 452.815,39.983 C455.025,39.983 456.813,41.771 456.813,43.981 C456.813,92.341 415.892,134.684 382.999,168.706 C378.298,173.579 373.823,178.206 369.599,182.677 C368.816,183.509 367.753,183.927 366.692,183.927 Z" id="Path"></path>
                <path d="M388.839,47.981 C386.628,47.981 384.84,46.192 384.84,43.982 C384.84,19.73 404.568,0 428.823,0 C431.033,0 432.821,1.788 432.821,3.998 C432.821,6.208 431.033,7.997 428.823,7.997 C408.979,7.997 392.837,24.139 392.837,43.982 C392.837,46.192 391.049,47.981 388.839,47.981 Z" id="Path"></path>
                <path d="M468.808,47.981 C466.597,47.981 464.809,46.192 464.809,43.982 C464.809,24.138 448.667,7.997 428.824,7.997 C426.613,7.997 424.825,6.208 424.825,3.998 C424.825,1.788 426.613,0 428.824,0 C453.08,0 472.806,19.73 472.806,43.982 C472.806,46.192 471.018,47.981 468.808,47.981 Z" id="Path"></path>
                <path d="M404.833,47.981 C402.623,47.981 400.835,46.192 400.835,43.982 C400.835,28.551 413.393,15.993 428.824,15.993 C431.034,15.993 432.822,17.782 432.822,19.992 C432.822,22.202 431.034,23.99 428.824,23.99 C417.797,23.99 408.832,32.96 408.832,43.982 C408.832,46.192 407.043,47.981 404.833,47.981 Z" id="Path"></path>
                <path d="M452.814,47.981 C450.604,47.981 448.816,46.192 448.816,43.982 C448.816,32.96 439.85,23.99 428.824,23.99 C426.613,23.99 424.825,22.202 424.825,19.992 C424.825,17.782 426.613,15.993 428.824,15.993 C444.256,15.993 456.812,28.551 456.812,43.982 C456.812,46.192 455.024,47.981 452.814,47.981 Z" id="Path"></path>
                <path d="M366.692,257.578 C354.611,257.578 344.779,247.785 344.779,235.747 C344.779,233.537 346.567,231.749 348.777,231.749 C350.987,231.749 352.775,233.537 352.775,235.747 C352.775,243.377 359.023,249.581 366.692,249.581 C372.33,249.581 376.921,244.989 376.921,239.347 C376.921,235.247 373.587,231.909 369.487,231.909 C366.668,231.909 364.372,234.205 364.372,237.028 C364.372,239.238 362.583,241.027 360.373,241.027 C358.163,241.027 356.375,239.238 356.375,237.028 C356.375,229.797 362.255,223.912 369.487,223.912 C377.999,223.912 384.918,230.835 384.918,239.347 C384.919,249.398 376.75,257.578 366.692,257.578 Z" id="Path"></path>
                <path d="M124.939,239.905 C122.877,239.905 121.128,238.32 120.956,236.227 C119.781,221.643 101.081,202.318 79.429,179.944 C44.482,143.834 0.992,98.89 0.992,43.982 C0.992,41.772 2.78,39.984 4.99,39.984 C7.2,39.984 8.989,41.772 8.989,43.982 C8.989,95.657 51.23,139.308 85.174,174.384 C108.833,198.831 127.521,218.144 128.93,235.586 C129.105,237.784 127.466,239.713 125.263,239.893 C125.154,239.901 125.045,239.905 124.939,239.905 Z" id="Path"></path>
                <path d="M107.11,183.927 C106.052,183.927 104.994,183.509 104.205,182.677 C99.98,178.206 95.51,173.579 90.883,168.792 C57.911,134.677 16.985,92.338 16.985,43.982 C16.985,41.772 18.774,39.984 20.984,39.984 C23.194,39.984 24.982,41.772 24.982,43.982 C24.982,89.105 64.662,130.155 96.544,163.142 C101.28,168.042 105.767,172.693 110.015,177.18 C111.534,178.785 111.464,181.315 109.859,182.834 C109.086,183.564 108.098,183.927 107.11,183.927 Z" id="Path"></path>
                <path d="M84.959,47.981 C82.749,47.981 80.961,46.192 80.961,43.982 C80.961,42.979 80.898,42.045 80.762,41.108 C79.223,22.436 63.514,7.997 44.974,7.997 C42.764,7.997 40.976,6.208 40.976,3.998 C40.976,1.788 42.764,0 44.974,0 C67.645,0 86.856,17.665 88.707,40.215 C88.863,41.28 88.957,42.589 88.957,43.983 C88.957,46.192 87.169,47.981 84.959,47.981 Z" id="Path"></path>
                <path d="M4.99,47.981 C2.78,47.981 0.992,46.192 0.992,43.982 C0.992,19.73 20.722,0 44.974,0 C47.184,0 48.973,1.788 48.973,3.998 C48.973,6.208 47.184,7.997 44.974,7.997 C25.13,7.997 8.989,24.139 8.989,43.982 C8.989,46.192 7.2,47.981 4.99,47.981 Z" id="Path"></path>
                <path d="M68.965,47.981 C66.755,47.981 64.966,46.192 64.966,43.982 C64.966,43.307 64.896,42.565 64.829,41.889 C63.814,31.69 55.274,23.99 44.974,23.99 C42.764,23.99 40.976,22.202 40.976,19.992 C40.976,17.782 42.764,15.993 44.974,15.993 C59.406,15.993 71.362,26.789 72.787,41.104 C72.877,42.041 72.963,43.056 72.963,43.981 C72.963,46.192 71.175,47.981 68.965,47.981 Z" id="Path"></path>
                <path d="M20.984,47.981 C18.774,47.981 16.985,46.192 16.985,43.982 C16.985,28.551 29.543,15.993 44.974,15.993 C47.184,15.993 48.973,17.782 48.973,19.992 C48.973,22.202 47.184,23.99 44.974,23.99 C33.952,23.99 24.982,32.96 24.982,43.982 C24.982,46.192 23.194,47.981 20.984,47.981 Z" id="Path"></path>
                <path d="M107.11,257.578 C97.059,257.578 88.879,249.398 88.879,239.347 C88.879,230.835 95.802,223.912 104.314,223.912 C111.546,223.912 117.426,229.796 117.426,237.028 C117.426,239.238 115.638,241.027 113.428,241.027 C111.218,241.027 109.429,239.238 109.429,237.028 C109.429,234.205 107.133,231.909 104.314,231.909 C100.214,231.909 96.876,235.247 96.876,239.347 C96.876,244.989 101.468,249.581 107.11,249.581 C114.783,249.581 121.027,243.376 121.027,235.747 C121.027,233.537 122.816,231.749 125.026,231.749 C127.236,231.749 129.024,233.537 129.024,235.747 C129.023,247.785 119.191,257.578 107.11,257.578 Z" id="Path"></path>
                <path d="M284.88,367.855 C284.036,367.855 283.2,367.589 282.482,367.058 C249.277,342.146 248.894,304.739 248.894,303.162 C248.894,300.96 250.674,299.171 252.884,299.163 C252.892,299.163 252.892,299.163 252.892,299.163 C255.095,299.163 256.883,300.952 256.891,303.154 C256.891,303.506 257.36,338.218 287.278,360.655 C289.05,361.982 289.41,364.489 288.082,366.255 C287.293,367.308 286.098,367.855 284.88,367.855 Z" id="Path"></path>
                <path d="M188.921,367.855 C187.703,367.855 186.504,367.308 185.719,366.254 C184.391,364.488 184.751,361.982 186.519,360.654 C216.558,338.132 216.906,303.505 216.906,303.161 C216.906,300.951 218.694,299.162 220.904,299.162 C223.114,299.162 224.903,300.951 224.903,303.161 C224.903,304.738 224.52,342.145 191.314,367.057 C190.597,367.589 189.757,367.855 188.921,367.855 Z" id="Path"></path>
                <path d="M324.865,471.814 C322.654,471.814 320.866,470.026 320.866,467.815 L320.866,375.852 L152.932,375.852 L152.932,467.815 C152.932,470.026 151.143,471.814 148.933,471.814 C146.723,471.814 144.935,470.026 144.935,467.815 L144.935,371.853 C144.935,369.643 146.723,367.855 148.933,367.855 L324.865,367.855 C327.074,367.855 328.863,369.643 328.863,371.853 L328.863,467.815 C328.863,470.026 327.074,471.814 324.865,471.814 Z" id="Path"></path>
                <path d="M340.858,511.798 L132.94,511.798 C130.73,511.798 128.941,510.01 128.941,507.799 L128.941,475.812 C128.941,473.602 130.73,471.814 132.94,471.814 L340.858,471.814 C343.068,471.814 344.857,473.602 344.857,475.812 L344.857,507.799 C344.857,510.01 343.068,511.798 340.858,511.798 Z M136.938,503.801 L336.86,503.801 L336.86,479.811 L136.938,479.811 L136.938,503.801 Z" id="Shape" fill-rule="nonzero"></path>
                <path d="M284.88,455.821 L188.917,455.821 C186.707,455.821 184.919,454.032 184.919,451.822 C184.919,449.62 183.127,447.824 180.92,447.824 C178.71,447.824 176.921,446.035 176.921,443.825 L176.921,411.838 C176.921,409.628 178.709,407.84 180.92,407.84 C183.126,407.84 184.919,406.044 184.919,403.841 C184.919,401.631 186.707,399.843 188.917,399.843 L284.88,399.843 C287.09,399.843 288.878,401.631 288.878,403.841 C288.878,406.044 290.674,407.84 292.876,407.84 C295.087,407.84 296.875,409.628 296.875,411.838 L296.875,443.825 C296.875,446.035 295.087,447.824 292.876,447.824 C290.674,447.824 288.878,449.62 288.878,451.822 C288.878,454.032 287.09,455.821 284.88,455.821 Z M192.233,447.824 L281.569,447.824 C282.771,444.419 285.473,441.717 288.879,440.514 L288.879,415.149 C285.474,413.946 282.772,411.244 281.569,407.839 L192.233,407.839 C191.026,411.243 188.324,413.945 184.92,415.149 L184.92,440.514 C188.324,441.716 191.026,444.419 192.233,447.824 Z" id="Shape" fill-rule="nonzero"></path>
                <path d="M268.886,423.833 L204.911,423.833 C202.701,423.833 200.912,422.045 200.912,419.835 C200.912,417.625 202.701,415.837 204.911,415.837 L268.886,415.837 C271.096,415.837 272.884,417.625 272.884,419.835 C272.884,422.045 271.096,423.833 268.886,423.833 Z" id="Path"></path>
                <path d="M252.892,439.827 L220.905,439.827 C218.695,439.827 216.907,438.038 216.907,435.829 C216.907,433.618 218.695,431.83 220.905,431.83 L252.892,431.83 C255.103,431.83 256.891,433.618 256.891,435.829 C256.891,438.038 255.103,439.827 252.892,439.827 Z" id="Path"></path>
                <path d="M324.865,495.804 L148.933,495.804 C146.723,495.804 144.935,494.016 144.935,491.806 C144.935,489.596 146.723,487.807 148.933,487.807 L324.865,487.807 C327.074,487.807 328.863,489.596 328.863,491.806 C328.863,494.016 327.074,495.804 324.865,495.804 Z" id="Path"></path>
                <path d="M272.806,198.961 C272.166,198.961 271.526,198.809 270.948,198.5 L237.059,180.687 L203.178,198.5 C201.831,199.219 200.203,199.098 198.965,198.199 C197.736,197.305 197.118,195.79 197.376,194.291 L203.818,156.54 L176.376,129.855 C175.287,128.792 174.893,127.204 175.361,125.754 C175.829,124.31 177.079,123.251 178.586,123.033 L216.493,117.496 L233.474,83.154 C234.15,81.791 235.54,80.928 237.059,80.928 L237.063,80.928 C238.585,80.928 239.976,81.795 240.648,83.162 L257.546,117.5 L295.453,123.033 C296.961,123.251 298.21,124.31 298.679,125.754 C299.148,127.203 298.749,128.792 297.663,129.855 L270.229,156.536 L276.742,194.283 C277.008,195.782 276.39,197.301 275.157,198.195 C274.462,198.703 273.634,198.961 272.806,198.961 Z M187.762,129.773 L210.901,152.272 C211.846,153.189 212.276,154.513 212.053,155.809 L206.617,187.656 L235.196,172.631 C236.367,172.014 237.75,172.014 238.921,172.631 L267.48,187.649 L261.991,155.817 C261.764,154.517 262.202,153.189 263.138,152.272 L286.278,129.773 L254.314,125.106 C253.009,124.919 251.885,124.099 251.299,122.916 L237.051,93.962 L222.732,122.923 C222.15,124.102 221.025,124.919 219.726,125.106 L187.762,129.773 Z" id="Shape" fill-rule="nonzero"></path>
            </g>
        </g>
    </g>
</svg>