<?xml version="1.0" encoding="UTF-8"?>
<svg width="258px" height="610px" viewBox="0 0 258 610" version="1.1" xmlns="http://www.w3.org/2000/svg" xmlns:xlink="http://www.w3.org/1999/xlink">
    <!-- Generator: Sketch 52.6 (67491) - http://www.bohemiancoding.com/sketch -->
    <title>standing-up-man-</title>
    <desc>Created with Sketch.</desc>
    <g id="Page-1" stroke="none" stroke-width="1" fill="none" fill-rule="evenodd">
        <g id="standing-up-man-" transform="translate(1.000000, 1.000000)" fill="#773C80">
            <circle id="Oval" stroke="#030101" cx="126.5" cy="50.5" r="50.5"></circle>
            <path d="M144.78121,125.848892 C132.075933,123.255069 118.261914,123.368833 105.782911,126.326702 C21.0094105,136.315197 -6.51680402,234.98287 1.25570292,310.215122 C4.62718337,342.740301 55.6179967,343.081593 52.2125752,310.215122 C49.384152,282.797954 50.5947172,241.421922 65.0875576,212.013882 C65.0875576,247.758587 65.0875576,283.503292 65.0875576,319.236621 C65.0875576,320.499404 65.2120082,321.682551 65.2685767,322.899828 C65.2346356,323.480025 65.0988713,323.969211 65.0988713,324.560785 C65.0988713,409.645015 64.9517933,494.695116 61.4558622,579.711087 C59.9058863,617.503548 118.182718,617.355655 119.72138,579.711087 C122.459294,513.079407 123.149429,446.413598 123.307821,379.736412 C126.068362,379.918435 128.828903,379.918435 131.589444,379.759165 C131.759149,446.436351 132.426657,513.10216 135.141943,579.711087 C136.691919,617.355655 194.968751,617.503548 193.407461,579.711087 C189.91153,494.695116 189.787079,409.645015 189.787079,324.560785 C189.787079,321.921456 189.436355,319.521032 188.904611,317.211619 C188.825416,280.27239 187.422518,243.299031 187.852438,206.382555 C205.207643,235.927112 206.79156,280.989104 203.782117,310.192369 C200.365382,343.036088 251.367509,342.706172 254.73899,310.192369 C262.692516,233.401548 233.842599,132.17418 144.78121,125.848892 Z" id="Path" stroke="#020101"></path>
        </g>
    </g>
</svg>