<?xml version="1.0" encoding="UTF-8"?>
<svg width="509px" height="462px" viewBox="0 0 509 462" version="1.1" xmlns="http://www.w3.org/2000/svg" xmlns:xlink="http://www.w3.org/1999/xlink">
    <!-- Generator: Sketch 52.6 (67491) - http://www.bohemiancoding.com/sketch -->
    <title>running</title>
    <desc>Created with Sketch.</desc>
    <g id="Page-1" stroke="none" stroke-width="1" fill="none" fill-rule="evenodd">
        <g id="running" transform="translate(1.000000, 0.000000)">
            <g id="Group" transform="translate(0.000000, 45.000000)" fill="#F8B631" stroke="#000000">
                <path d="M120.110294,30.0960265 L44.6691176,30.0960265 C36.4390809,30.0960265 29.7794118,23.4758874 29.7794118,15.294702 C29.7794118,7.11351656 36.4390809,0.493377483 44.6691176,0.493377483 L120.110294,0.493377483 C128.340331,0.493377483 135,7.11351656 135,15.294702 C135,23.4758874 128.340331,30.0960265 120.110294,30.0960265 Z" id="Path"></path>
                <path d="M120.110294,148.506623 L44.6691176,148.506623 C36.4390809,148.506623 29.7794118,141.886483 29.7794118,133.705298 C29.7794118,125.524113 36.4390809,118.903974 44.6691176,118.903974 L120.110294,118.903974 C128.340331,118.903974 135,125.524113 135,133.705298 C135,141.886483 128.340331,148.506623 120.110294,148.506623 Z" id="Path"></path>
                <path d="M90.3308824,89.3013245 L14.8897059,89.3013245 C6.65966912,89.3013245 0,82.6811854 0,74.5 C0,66.3188146 6.65966912,59.6986755 14.8897059,59.6986755 L90.3308824,59.6986755 C98.5609191,59.6986755 105.220588,66.3188146 105.220588,74.5 C105.220588,82.6811854 98.5609191,89.3013245 90.3308824,89.3013245 Z" id="Path"></path>
            </g>
            <g id="Group" transform="translate(16.000000, 23.000000)" fill="#773C80">
                <path d="M261.951986,4.98212641 C250.126804,-2.85342664 234.437909,-1.30312415 224.413677,8.68980135 L142.597378,90.2586501 C130.975497,101.845381 130.975497,120.615115 142.597378,132.201847 C154.21926,143.788578 173.045934,143.788578 184.667815,132.201847 L249.240213,67.8247449 L295.447083,101.00893 L358.642983,71.7202754 L261.951986,4.98212641 Z" id="Path" stroke="#040101"></path>
                <path d="M202.100141,194.073549 L8.71616298,386.872646 C-2.90571823,398.459377 -2.90571823,417.229111 8.71616298,428.815842 C20.3370525,440.401585 39.1647182,440.402573 50.7865994,428.815842 L223.135359,256.988343 L202.100141,194.073549 Z" id="Path" stroke="#000000"></path>
            </g>
            <g id="Group" transform="translate(194.000000, 0.000000)" fill="#773C80" stroke="#000000">
                <path d="M283.28481,178.563305 L193.148734,178.563305 L193.148734,119.207082 C193.148734,107.540616 186.082462,96.4983798 174.788709,91.8201202 C163.417696,87.1230644 150.619364,90.0275622 142.415,98.2325708 L23.5631551,216.936114 C11.9554114,228.529373 11.9554114,247.309682 23.5631551,258.902942 L91.6990949,326.953863 L8.70556013,409.843839 C-2.90218354,421.437099 -2.90218354,440.217408 8.70556013,451.810667 C20.3123133,463.402938 39.1170759,463.403927 50.7248196,451.810667 L154.727984,347.937277 C166.335728,336.344017 166.335728,317.563708 154.727984,305.970448 L86.5920443,237.919528 L133.718354,190.852021 L133.718354,208.241416 C133.718354,224.630659 147.023826,237.919528 163.433544,237.919528 L283.28481,237.919528 C299.694528,237.919528 313,224.630659 313,208.241416 C313,191.852174 299.694528,178.563305 283.28481,178.563305 Z" id="Path"></path>
                <ellipse id="Oval" cx="237.721519" cy="45.0118026" rx="44.5727848" ry="44.5171674"></ellipse>
            </g>
        </g>
    </g>
</svg>