<?xml version="1.0" encoding="UTF-8"?>
<svg width="506px" height="512px" viewBox="0 0 506 512" version="1.1" xmlns="http://www.w3.org/2000/svg" xmlns:xlink="http://www.w3.org/1999/xlink">
    <!-- Generator: Sketch 52.6 (67491) - http://www.bohemiancoding.com/sketch -->
    <title>Group 2</title>
    <desc>Created with Sketch.</desc>
    <g id="Page-1" stroke="none" stroke-width="1" fill="none" fill-rule="evenodd">
        <g id="Group-2">
            <polygon id="Path" fill="#F8B631" points="505.576 148.365 149.356 504.577 8 363.227 364.219 7"></polygon>
            <path d="M280.668686,339.439 L313.176686,306.93 L422.025686,198.081 L416.372686,192.428 C400.762686,176.825 400.762686,151.486 416.372686,135.884 L433.333686,118.923 C427.117686,112.707 427.117686,102.524 433.333686,96.308 L444.641686,85 L501.185686,141.537 L280.668686,362.053 C278.349686,359.735 276.880686,356.798 276.311686,353.744 C275.296686,348.763 276.763686,343.343 280.668686,339.439 Z" id="Path" fill="#FF8F00"></path>
            <g id="Group" fill="#773C80">
                <path d="M333.037,423.996 C330.827,423.996 329,422.208 329,419.998 C329,417.788 330.749,416 332.951,416 L333.037,416 C335.238,416 337.035,417.788 337.035,419.998 C337.035,422.208 335.237,423.996 333.037,423.996 Z" id="Path"></path>
                <path d="M135.143,471.737 C134.081,471.737 133.066,471.315 132.316,470.566 L36.172,374.429 C35.422,373.68 35,372.664 35,371.603 C35,370.541 35.422,369.518 36.172,368.776 C38.444,366.511 39.693,363.498 39.701,360.303 C39.701,357.102 38.452,354.087 36.18,351.815 C34.618,350.253 34.618,347.723 36.18,346.162 L347.17,35.171 C347.92,34.421 348.935,34 349.997,34 C351.059,34 352.074,34.422 352.823,35.171 C355.095,37.443 358.102,38.693 361.303,38.693 C361.311,38.693 361.311,38.693 361.311,38.693 C364.513,38.693 367.52,37.443 369.784,35.171 C370.526,34.421 371.55,34 372.611,34 C373.673,34 374.688,34.422 375.438,35.171 L426.321,86.07 C427.883,87.632 427.883,90.162 426.321,91.723 C424.759,93.284 422.229,93.285 420.667,91.723 L372.33,43.378 C369.09,45.533 365.294,46.689 361.311,46.689 C361.311,46.689 361.311,46.689 361.303,46.689 C357.321,46.689 353.518,45.534 350.278,43.371 L44.379,349.269 C46.542,352.518 47.698,356.321 47.698,360.303 C47.69,364.285 46.534,368.081 44.379,371.322 L135.415,462.358 C138.656,460.203 142.451,459.047 146.426,459.04 C146.434,459.04 146.442,459.04 146.442,459.04 C150.424,459.04 154.228,460.203 157.468,462.358 L262.365,357.476 C263.927,355.914 266.457,355.914 268.018,357.476 C269.58,359.038 269.58,361.568 268.018,363.13 L160.576,470.558 C159.826,471.307 158.81,471.729 157.749,471.729 C156.687,471.729 155.672,471.307 154.922,470.558 C152.657,468.285 149.644,467.036 146.442,467.036 L146.434,467.036 C143.233,467.044 140.234,468.293 137.977,470.558 C137.228,471.315 136.212,471.737 135.151,471.737 C135.143,471.737 135.143,471.737 135.143,471.737 Z" id="Path"></path>
                <path d="M145.458462,505.527 C144.396462,505.527 143.381462,505.105 142.632462,504.356 L1.28346223,362.999 C-0.278537775,361.437 -0.278537775,358.907 1.28346223,357.345 L357.496462,1.125 C358.995462,-0.375 361.650462,-0.375 363.149462,1.125 L504.506462,142.482 C506.068462,144.044 506.068462,146.574 504.506462,148.136 L148.286462,504.356 C147.536462,505.105 146.521462,505.527 145.458462,505.527 Z M10.1119622,360.566 L145.806962,496.27 L496.373962,145.704 L360.669962,10 L10.1119622,360.566 Z" id="Shape" fill-rule="nonzero"></path>
                <path d="M147.801462,381.818 C141.390462,381.818 135.362462,379.327 130.832462,374.797 C121.492462,365.435 121.492462,350.215 130.832462,340.867 C139.883462,331.808 155.695462,331.808 164.762462,340.867 C174.110462,350.215 174.110462,365.434 164.762462,374.797 C160.233462,379.327 154.212462,381.818 147.801462,381.818 Z M147.810462,342.07275 C143.531462,342.07275 139.517462,343.73575 136.495462,346.75875 C130.271462,352.98875 130.271462,363.14175 136.495462,369.38075 C142.532462,375.40175 153.082462,375.41675 159.118462,369.38075 C165.349462,363.14175 165.349462,352.98875 159.118462,346.75875 C156.095462,343.73575 152.082462,342.07275 147.810462,342.07275 Z" id="Shape" fill-rule="nonzero"></path>
                <path d="M162.2745,376.2725 C161.2515,376.2725 160.2275,375.8815 159.4475,375.1005 L131.1715,346.8255 C129.6095,345.2635 129.6095,342.7335 131.1715,341.1715 C132.7335,339.6095 135.2635,339.6095 136.8245,341.1715 L165.1005,369.4475 C166.6625,371.0095 166.6625,373.5395 165.1005,375.1005 C164.3205,375.8825 163.2965,376.2725 162.2745,376.2725 Z" id="Path"></path>
                <path d="M231.56854,324.0897 C228.953945,324.0897 226.336793,323.116963 224.34326,321.176466 L180.994134,278.980597 C177.001955,275.094626 177.001955,268.800449 180.994134,264.914478 C184.986312,261.028507 191.452516,261.028507 195.442139,264.914478 L238.791265,307.110347 C242.783443,310.996317 242.783443,317.290495 238.791265,321.176466 C236.795176,323.119451 234.18058,324.0897 231.56854,324.0897 Z" id="Path"></path>
                <path d="M259.078133,286.506922 C250.896979,286.506922 243.191206,283.417053 237.404848,277.802049 L222.936396,263.716028 C211.021201,252.058116 211.021201,233.138265 222.936396,221.500256 C234.532115,210.153322 254.78948,210.173224 266.344306,221.520159 L280.77442,235.58379 C292.669169,247.162091 292.689616,266.064527 280.815313,277.742341 C274.962504,283.417053 267.261843,286.506922 259.078133,286.506922 Z M244.66847,232.902538 C241.936307,232.902538 239.360049,233.932495 237.422743,235.835675 C233.451012,239.704231 233.451012,246.035726 237.44319,249.941599 L251.873304,263.987815 C253.787607,265.853678 256.384312,266.883634 259.116475,266.883634 C261.851194,266.883634 264.445343,265.853678 266.382648,263.9704 C270.313487,260.104332 270.333934,253.790252 266.362202,249.924184 L251.914197,235.838163 C249.976892,233.932495 247.400633,232.902538 244.66847,232.902538 Z" id="Shape" fill-rule="nonzero"></path>
                <path d="M317.08462,229.486085 C308.90091,229.466183 301.215584,226.378802 295.411335,220.743895 L280.960774,206.660362 C275.17186,201.045358 271.979651,193.547077 272.000098,185.563671 C272.000098,177.59768 275.192307,170.099399 280.960774,164.464493 C292.617832,153.159851 312.734628,153.197169 324.3099,164.464493 L338.760461,178.530612 C344.546819,184.145616 347.759475,191.643897 347.759475,199.589985 C347.759475,207.573391 344.56471,215.07416 338.760461,220.726481 C332.968991,226.358899 325.263218,229.486085 317.08462,229.486085 Z M302.664632,175.902538 C299.932469,175.902538 297.35621,176.949909 295.401014,178.835675 C293.504602,180.681635 292.446495,183.186867 292.446495,185.848832 C292.446495,188.508308 293.484155,191.016028 295.421461,192.879403 L309.869465,206.965425 C311.804215,208.8288 314.360027,209.858756 317.094746,209.878659 C319.809018,209.878659 322.382721,208.8288 324.31747,206.945522 C326.254776,205.059757 327.333328,202.554525 327.333328,199.89256 C327.333328,197.250498 326.254776,194.762681 324.31747,192.879403 L309.869465,178.815772 C307.93216,176.932495 305.378904,175.902538 302.664632,175.902538 Z" id="Shape" fill-rule="nonzero"></path>
                <path d="M475.998,216.77 C473.788,216.77 472,214.981 472,212.772 L472,195.998 C472,193.788 473.788,192 475.998,192 C478.208,192 479.996,193.788 479.996,195.998 L479.996,212.772 C479.997,214.982 478.209,216.77 475.998,216.77 Z" id="Path"></path>
                <path d="M475.998,289.751 C473.788,289.751 472,287.964 472,285.753 L472,228.998 C472,226.788 473.788,225 475.998,225 C478.208,225 479.996,226.788 479.996,228.998 L479.996,285.753 C479.997,287.964 478.209,289.751 475.998,289.751 Z" id="Path"></path>
                <path d="M331.998,407.74 C329.788,407.74 328,405.952 328,403.742 L328,338.998 C328,336.788 329.788,335 331.998,335 C334.208,335 335.996,336.788 335.996,338.998 L335.996,403.742 C335.996,405.952 334.208,407.74 331.998,407.74 Z" id="Path"></path>
                <path d="M427.999,391.931 C425.789,391.931 424,390.143 424,387.933 L424,243.999 C424,241.789 425.789,240 427.999,240 C430.209,240 431.997,241.789 431.997,243.999 L431.997,387.933 C431.998,390.143 430.209,391.931 427.999,391.931 Z" id="Path"></path>
                <path d="M434.67175,127.6115 C433.64875,127.6115 432.62575,127.2215 431.84475,126.4405 C424.05175,118.6475 424.05175,105.9655 431.84475,98.1715 C433.40675,96.6095 435.93775,96.6095 437.49875,98.1715 C439.06075,99.7335 439.06075,102.2635 437.49875,103.8255 C432.82075,108.5025 432.82075,116.1085 437.49875,120.7865 C439.06075,122.3485 439.06075,124.8785 437.49875,126.4395 C436.71775,127.2205 435.69575,127.6115 434.67175,127.6115 Z" id="Path"></path>
                <path d="M433.9985,104.3035 C432.9755,104.3035 431.9525,103.9125 431.1715,103.1325 C429.6095,101.5705 429.6095,99.0405 431.1715,97.4785 L442.4795,86.1715 C444.0415,84.6095 446.5715,84.6095 448.1325,86.1715 C449.6945,87.7335 449.6945,90.2635 448.1325,91.8245 L436.8255,103.1325 C436.0445,103.9125 435.0225,104.3035 433.9985,104.3035 Z" id="Path"></path>
                <path d="M417.67675,200.5405 C416.65375,200.5405 415.63075,200.1495 414.84975,199.3695 C397.71675,182.2215 397.71675,154.3195 414.84975,137.1715 C416.41175,135.6095 418.94175,135.6095 420.50275,137.1715 C422.06475,138.7335 422.06475,141.2635 420.50275,142.8245 C406.48575,156.8575 406.48575,179.6825 420.50275,193.7155 C422.06475,195.2775 422.06475,197.8075 420.50275,199.3695 C419.72375,200.1495 418.69975,200.5405 417.67675,200.5405 Z" id="Path"></path>
                <path d="M416.9985,143.9565 C415.9755,143.9565 414.9525,143.5665 414.1715,142.7855 C412.6095,141.2235 412.6095,138.6935 414.1715,137.1325 L431.1485,120.1715 C432.7105,118.6095 435.2415,118.6095 436.8025,120.1715 C438.3645,121.7335 438.3645,124.2635 436.8025,125.8245 L419.8245,142.7855 C419.0455,143.5665 418.0215,143.9565 416.9985,143.9565 Z" id="Path"></path>
                <path d="M281.9985,347.3535 C280.9755,347.3535 279.9515,346.9635 279.1715,346.1825 C277.6095,344.6205 277.6095,342.0905 279.1715,340.5285 L420.5195,199.1715 C422.0815,197.6095 424.6125,197.6095 426.1735,199.1715 C427.7355,200.7335 427.7355,203.2635 426.1735,204.8245 L284.8235,346.1815 C284.0415,346.9635 283.0195,347.3535 281.9985,347.3535 Z" id="Path"></path>
                <path d="M422.6515,206.6495 C421.6295,206.6495 420.6055,206.2595 419.8245,205.4785 L414.1715,199.8255 C412.6095,198.2635 412.6095,195.7335 414.1715,194.1715 C415.7335,192.6095 418.2635,192.6095 419.8245,194.1715 L425.4785,199.8255 C427.0405,201.3875 427.0405,203.9175 425.4785,205.4785 C424.6965,206.2595 423.6745,206.6495 422.6515,206.6495 Z" id="Path"></path>
                <path d="M281.6725,370.6115 C280.6495,370.6115 279.6255,370.2215 278.8455,369.4405 C271.0515,361.6475 271.0515,348.9655 278.8455,341.1715 C280.4075,339.6095 282.9375,339.6095 284.4985,341.1715 C286.0605,342.7335 286.0605,345.2635 284.4985,346.8255 C279.8205,351.5035 279.8205,359.1085 284.4985,363.7865 C286.0605,365.3485 286.0605,367.8785 284.4985,369.4395 C283.7155,370.2215 282.6935,370.6115 281.6725,370.6115 Z" id="Path"></path>
                <path d="M379.998,511.696 C377.788,511.696 376,509.908 376,507.698 L376,330.998 C376,328.788 377.788,327 379.998,327 C382.208,327 383.996,328.788 383.996,330.998 L383.996,507.698 C383.996,509.908 382.208,511.696 379.998,511.696 Z" id="Path"></path>
            </g>
        </g>
    </g>
</svg>