<?xml version="1.0" encoding="UTF-8"?>
<svg width="351px" height="178px" viewBox="0 0 351 178" version="1.1" xmlns="http://www.w3.org/2000/svg" xmlns:xlink="http://www.w3.org/1999/xlink">
    <!-- Generator: Sketch 52.6 (67491) - http://www.bohemiancoding.com/sketch -->
    <title>Weight 2</title>
    <desc>Created with Sketch.</desc>
    <g id="Page-1" stroke="none" stroke-width="1" fill="none" fill-rule="evenodd">
        <g id="Weight-2">
            <g id="Weight">
                <path d="M273.999437,5 C264.068403,5 256,12.1728606 256,21.0003811 L256,156.999619 C256,165.845147 264.068403,173 273.999437,173 C283.949605,173 292,165.845147 292,156.999619 L292,21.0003811 C292.001125,12.1728606 283.95073,5 273.999437,5 Z" id="Path" fill="#FF8F00"></path>
                <g id="Group" transform="translate(4.000000, 67.000000)" fill="#F8B631">
                    <rect id="Rectangle" x="89.976375" y="0.86" width="161.9325" height="39.969"></rect>
                    <rect id="Rectangle" x="0.28125" y="0.86" width="17.728875" height="39.984"></rect>
                    <rect id="Rectangle" x="324.0225" y="0.86" width="17.712" height="39.984"></rect>
                </g>
                <g id="Group" transform="translate(22.000000, 3.000000)" fill="#FF8F00">
                    <path d="M18.00225,25.0081065 C8.05725,25.0081065 0.009,32.2205325 0.009,41.0967456 L0.009,129.582249 C0.009,138.476568 8.05725,145.670888 18.00225,145.670888 C27.93825,145.670888 35.9955,138.476568 35.9955,129.582249 L35.9955,41.0967456 C35.994375,32.2205325 27.93825,25.0081065 18.00225,25.0081065 Z" id="Path"></path>
                    <path d="M287.14725,25.0081065 C277.20225,25.0081065 269.155125,32.2205325 269.155125,41.0967456 L269.155125,129.582249 C269.155125,138.476568 277.20225,145.670888 287.14725,145.670888 C297.084375,145.670888 305.1405,138.476568 305.1405,129.582249 L305.1405,41.0967456 C305.141625,32.2205325 297.0855,25.0081065 287.14725,25.0081065 Z" id="Path"></path>
                    <path d="M53.9865,0.876153846 C44.0415,0.876153846 35.99325,8.08857988 35.99325,16.9647929 L35.99325,153.714201 C35.99325,162.608521 44.0415,169.80284 53.9865,169.80284 C63.9225,169.80284 71.97975,162.608521 71.97975,153.714201 L71.97975,16.9647929 C71.980875,8.08857988 63.9225,0.876153846 53.9865,0.876153846 Z" id="Path"></path>
                </g>
                <g id="Group" transform="translate(22.000000, 3.000000)" fill="#F8B631">
                    <path d="M18.00225,24.861 C8.05725,24.861 0.009,32.031 0.009,40.855 L0.009,56.849 C0.009,48.025 8.05725,40.855 18.00225,40.855 C27.93825,40.855 35.9955,48.025 35.9955,56.849 L35.9955,40.855 C35.994375,32.031 27.93825,24.861 18.00225,24.861 Z" id="Path"></path>
                    <path d="M287.88525,24.861 C277.95825,24.861 269.893125,32.031 269.893125,40.855 L269.893125,56.849 C269.893125,48.025 277.95825,40.855 287.88525,40.855 C297.831375,40.855 305.8785,48.025 305.8785,56.849 L305.8785,40.855 C305.879625,32.031 297.8325,24.861 287.88525,24.861 Z" id="Path"></path>
                    <path d="M53.9865,0.871 C44.0415,0.871 35.99325,8.041 35.99325,16.865 L35.99325,32.859 C35.99325,24.033 44.0415,16.865 53.9865,16.865 C63.9225,16.865 71.97975,24.033 71.97975,32.859 L71.97975,16.865 C71.980875,8.041 63.9225,0.871 53.9865,0.871 Z" id="Path"></path>
                    <path d="M251.899875,0.871 C241.972875,0.871 233.90775,8.041 233.90775,16.865 L233.90775,32.859 C233.90775,24.033 241.972875,16.865 251.899875,16.865 C261.846,16.865 269.893125,24.033 269.893125,32.859 L269.893125,16.865 C269.89425,8.041 261.847125,0.871 251.899875,0.871 Z" id="Path"></path>
                </g>
                <g id="Group" transform="translate(22.000000, 115.000000)" fill="#E4844A">
                    <path d="M53.9865,56.804 C63.9135,56.804 71.97975,49.652 71.97975,40.81 L71.97975,24.818 C71.97975,33.658 63.9135,40.81 53.9865,40.81 C44.0415,40.81 35.99325,33.658 35.99325,24.818 L35.99325,40.81 C35.994375,49.652 44.0415,56.804 53.9865,56.804 Z" id="Path"></path>
                    <path d="M251.899875,56.804 C261.846,56.804 269.893125,49.652 269.893125,40.81 L269.893125,24.818 C269.893125,33.658 261.846,40.81 251.899875,40.81 C241.963875,40.81 233.90775,33.658 233.90775,24.818 L233.90775,40.81 C233.908875,49.652 241.963875,56.804 251.899875,56.804 Z" id="Path"></path>
                    <path d="M18.00225,32.83 C27.92925,32.83 35.9955,25.662 35.9955,16.836 L35.9955,0.842 C35.9955,9.668 27.930375,16.836 18.00225,16.836 C8.05725,16.836 0.009,9.668 0.009,0.842 L0.009,16.836 C0.007875,25.662 8.056125,32.83 18.00225,32.83 Z" id="Path"></path>
                    <path d="M287.88525,32.83 C297.831375,32.83 305.8785,25.662 305.8785,16.836 L305.8785,0.842 C305.8785,9.668 297.831375,16.836 287.88525,16.836 C277.94925,16.836 269.893125,9.668 269.893125,0.842 L269.893125,16.836 C269.89425,25.662 277.94925,32.83 287.88525,32.83 Z" id="Path"></path>
                </g>
                <g id="Group" transform="translate(13.000000, 67.000000)" fill="#F8B631">
                    <rect id="Rectangle" x="0.27" y="0.86" width="8.73225" height="39.984"></rect>
                    <rect id="Rectangle" x="81.2475" y="0.86" width="8.73225" height="39.984"></rect>
                    <rect id="Rectangle" x="233.908875" y="0.86" width="8.733375" height="39.984"></rect>
                    <rect id="Rectangle" x="315.0225" y="0.86" width="8.715375" height="39.984"></rect>
                </g>
                <g id="Group" transform="translate(4.000000, 67.000000)" fill="#FFFFFF">
                    <rect id="Rectangle" x="98.976375" y="0.86" width="143.9325" height="7.998"></rect>
                    <rect id="Rectangle" x="0.28125" y="0.86" width="9" height="7.998"></rect>
                    <rect id="Rectangle" x="332.875125" y="0.86" width="8.996625" height="7.998"></rect>
                </g>
                <g id="Group" fill="#773C80">
                    <path d="M121.636125,97.383096 C119.149875,97.383096 117.0945,95.5920339 117.0945,93.3604972 C117.0945,91.1470621 119.062125,89.3399096 121.539375,89.3399096 L121.636125,89.3399096 C124.113375,89.3399096 126.133875,91.1470621 126.133875,93.3604972 C126.135,95.5910282 124.1145,97.383096 121.636125,97.383096 Z" id="Path"></path>
                    <path d="M157.622625,97.383096 C155.136375,97.383096 153.081,95.5920339 153.081,93.3604972 C153.081,91.1470621 155.048625,89.3399096 157.525875,89.3399096 L157.622625,89.3399096 C160.099875,89.3399096 162.1215,91.1470621 162.1215,93.3604972 C162.1215,95.5910282 160.099875,97.383096 157.622625,97.383096 Z" id="Path"></path>
                    <path d="M193.608,97.383096 C191.12175,97.383096 189.066375,95.5920339 189.066375,93.3604972 C189.066375,91.1470621 191.034,89.3399096 193.51125,89.3399096 L193.608,89.3399096 C196.08525,89.3399096 198.10575,91.1470621 198.10575,93.3604972 C198.10575,95.5910282 196.08525,97.383096 193.608,97.383096 Z" id="Path"></path>
                    <path d="M229.593375,97.383096 C227.107125,97.383096 225.05175,95.5920339 225.05175,93.3604972 C225.05175,91.1470621 227.019375,89.3399096 229.496625,89.3399096 L229.593375,89.3399096 C232.070625,89.3399096 234.09225,91.1470621 234.09225,93.3604972 C234.093375,95.5910282 232.070625,97.383096 229.593375,97.383096 Z" id="Path"></path>
                    <path d="M139.6305,89.3399096 C137.143125,89.3399096 135.08775,87.5488475 135.08775,85.319322 C135.08775,83.1038757 137.055375,81.2987345 139.53375,81.2987345 L139.6305,81.2987345 C142.106625,81.2987345 144.12825,83.1038757 144.12825,85.319322 C144.127125,87.5478418 142.1055,89.3399096 139.6305,89.3399096 Z" id="Path"></path>
                    <path d="M175.61475,89.3399096 C173.129625,89.3399096 171.073125,87.5488475 171.073125,85.319322 C171.073125,83.1038757 173.041875,81.2987345 175.518,81.2987345 L175.61475,81.2987345 C178.093125,81.2987345 180.113625,83.1038757 180.113625,85.319322 C180.1125,87.5478418 178.093125,89.3399096 175.61475,89.3399096 Z" id="Path"></path>
                    <path d="M211.60125,89.3399096 C209.113875,89.3399096 207.0585,87.5488475 207.0585,85.319322 C207.0585,83.1038757 209.026125,81.2987345 211.5045,81.2987345 L211.60125,81.2987345 C214.0785,81.2987345 216.099,83.1038757 216.099,85.319322 C216.097875,87.5478418 214.079625,89.3399096 211.60125,89.3399096 Z" id="Path"></path>
                    <path d="M58.388625,49.1290056 C55.902375,49.1290056 53.88975,47.3399548 53.88975,45.1084181 C53.88975,38.4640904 47.836125,33.0446441 40.395375,33.0446441 C32.954625,33.0446441 26.901,38.4640904 26.901,45.1084181 C26.901,47.3399548 24.888375,49.1290056 22.402125,49.1290056 C19.915875,49.1290056 17.90325,47.3399548 17.90325,45.1084181 C17.90325,34.0191186 27.988875,25.0034689 40.39425,25.0034689 C52.799625,25.0034689 62.8875,34.0191186 62.8875,45.1084181 C62.8875,47.3399548 60.876,49.1290056 58.388625,49.1290056 Z" id="Path"></path>
                    <path d="M40.3965,153.675345 C27.991125,153.675345 17.9055,144.659695 17.9055,133.570395 C17.9055,131.35696 19.917,129.549808 22.404375,129.549808 C24.890625,129.549808 26.90325,131.35696 26.90325,133.570395 C26.90325,140.230814 32.956875,145.634169 40.397625,145.634169 C47.838375,145.634169 53.892,140.230814 53.892,133.570395 C53.892,131.35696 55.904625,129.549808 58.390875,129.549808 C60.877125,129.549808 62.88975,131.35696 62.88975,133.570395 C62.8875,144.659695 52.801875,153.675345 40.3965,153.675345 Z" id="Path"></path>
                    <path d="M22.40325,137.590983 C19.917,137.590983 17.904375,135.801932 17.904375,133.570395 L17.904375,45.1084181 C17.904375,42.8929718 19.915875,41.0878305 22.40325,41.0878305 C24.8895,41.0878305 26.902125,42.8929718 26.902125,45.1084181 L26.902125,133.570395 C26.902125,135.801932 24.8895,137.590983 22.40325,137.590983 Z" id="Path"></path>
                    <path d="M58.388625,137.590983 C55.902375,137.590983 53.88975,135.801932 53.88975,133.570395 L53.88975,45.1084181 C53.88975,42.8929718 55.902375,41.0878305 58.388625,41.0878305 C60.874875,41.0878305 62.8875,42.8929718 62.8875,45.1084181 L62.8875,133.570395 C62.8875,135.801932 60.876,137.590983 58.388625,137.590983 Z" id="Path"></path>
                    <path d="M94.375125,25.0034689 C91.88775,25.0034689 89.87625,23.2124068 89.87625,20.9828814 C89.87625,14.3385537 83.82375,8.91910734 76.381875,8.91910734 C68.941125,8.91910734 62.8875,14.3385537 62.8875,20.9828814 C62.8875,23.2124068 60.876,25.0034689 58.388625,25.0034689 C55.902375,25.0034689 53.88975,23.2124068 53.88975,20.9828814 C53.88975,9.89358192 63.975375,0.877932203 76.38075,0.877932203 C88.786125,0.877932203 98.87175,9.89358192 98.87175,20.9828814 C98.872875,23.2124068 96.861375,25.0034689 94.375125,25.0034689 Z" id="Path"></path>
                    <path d="M76.381875,177.800881 C63.9765,177.800881 53.890875,168.785232 53.890875,157.695932 C53.890875,155.482497 55.9035,153.675345 58.38975,153.675345 C60.876,153.675345 62.888625,155.482497 62.888625,157.695932 C62.888625,164.35635 68.94225,169.759706 76.383,169.759706 C83.824875,169.759706 89.877375,164.35635 89.877375,157.695932 C89.877375,155.482497 91.888875,153.675345 94.37625,153.675345 C96.8625,153.675345 98.874,155.482497 98.874,157.695932 C98.872875,168.786237 88.78725,177.800881 76.381875,177.800881 Z" id="Path"></path>
                    <path d="M58.388625,161.718531 C55.902375,161.718531 53.88975,159.927469 53.88975,157.695932 L53.88975,20.9828814 C53.88975,18.767435 55.902375,16.9622938 58.388625,16.9622938 C60.874875,16.9622938 62.8875,18.767435 62.8875,20.9828814 L62.8875,157.695932 C62.8875,159.927469 60.876,161.718531 58.388625,161.718531 Z" id="Path"></path>
                    <path d="M94.375125,161.718531 C91.88775,161.718531 89.87625,159.927469 89.87625,157.695932 L89.87625,20.9828814 C89.87625,18.767435 91.88775,16.9622938 94.375125,16.9622938 C96.861375,16.9622938 98.872875,18.767435 98.872875,20.9828814 L98.872875,157.695932 C98.872875,159.927469 96.861375,161.718531 94.375125,161.718531 Z" id="Path"></path>
                    <path d="M310.289625,153.675345 C297.885375,153.675345 287.798625,144.659695 287.798625,133.570395 C287.798625,131.34087 289.81125,129.549808 292.2975,129.549808 C294.78375,129.549808 296.79525,131.34087 296.79525,133.570395 C296.79525,140.214723 302.848875,145.634169 310.289625,145.634169 C317.7315,145.634169 323.785125,140.214723 323.785125,133.570395 C323.785125,131.34087 325.796625,129.549808 328.282875,129.549808 C330.769125,129.549808 332.780625,131.34087 332.780625,133.570395 C332.780625,144.659695 322.695,153.675345 310.289625,153.675345 Z" id="Path"></path>
                    <path d="M328.282875,49.1290056 C325.796625,49.1290056 323.785125,47.3238644 323.785125,45.1084181 C323.785125,38.448 317.7315,33.0446441 310.289625,33.0446441 C302.848875,33.0446441 296.79525,38.448 296.79525,45.1084181 C296.79525,47.3238644 294.78375,49.1290056 292.2975,49.1290056 C289.81125,49.1290056 287.798625,47.3238644 287.798625,45.1084181 C287.798625,34.0191186 297.885375,25.0034689 310.289625,25.0034689 C322.695,25.0034689 332.780625,34.0191186 332.780625,45.1084181 C332.780625,47.3238644 330.769125,49.1290056 328.282875,49.1290056 Z" id="Path"></path>
                    <path d="M328.282875,137.590983 C325.796625,137.590983 323.785125,135.785842 323.785125,133.570395 L323.785125,45.1084181 C323.785125,42.8768814 325.796625,41.0878305 328.282875,41.0878305 C330.769125,41.0878305 332.780625,42.8768814 332.780625,45.1084181 L332.780625,133.570395 C332.780625,135.785842 330.769125,137.590983 328.282875,137.590983 Z" id="Path"></path>
                    <path d="M292.2975,137.590983 C289.81125,137.590983 287.798625,135.785842 287.798625,133.570395 L287.798625,45.1084181 C287.798625,42.8768814 289.81125,41.0878305 292.2975,41.0878305 C294.78375,41.0878305 296.79525,42.8768814 296.79525,45.1084181 L296.79525,133.570395 C296.79525,135.785842 294.78375,137.590983 292.2975,137.590983 Z" id="Path"></path>
                    <path d="M274.30425,177.800881 C261.9,177.800881 251.81325,168.785232 251.81325,157.695932 C251.81325,155.466407 253.82475,153.675345 256.312125,153.675345 C258.798375,153.675345 260.809875,155.466407 260.809875,157.695932 C260.809875,164.34026 266.8635,169.759706 274.30425,169.759706 C281.745,169.759706 287.798625,164.34026 287.798625,157.695932 C287.798625,155.466407 289.81125,153.675345 292.2975,153.675345 C294.78375,153.675345 296.79525,155.466407 296.79525,157.695932 C296.79525,168.786237 286.709625,177.800881 274.30425,177.800881 Z" id="Path"></path>
                    <path d="M292.2975,25.0034689 C289.81125,25.0034689 287.798625,23.1963164 287.798625,20.9828814 C287.798625,14.3224633 281.745,8.91910734 274.30425,8.91910734 C266.8635,8.91910734 260.809875,14.3224633 260.809875,20.9828814 C260.809875,23.1963164 258.798375,25.0034689 256.312125,25.0034689 C253.82475,25.0034689 251.81325,23.1963164 251.81325,20.9828814 C251.81325,9.89358192 261.9,0.877932203 274.30425,0.877932203 C286.709625,0.877932203 296.79525,9.89358192 296.79525,20.9828814 C296.79525,23.1963164 294.78375,25.0034689 292.2975,25.0034689 Z" id="Path"></path>
                    <path d="M292.2975,161.718531 C289.81125,161.718531 287.798625,159.911379 287.798625,157.695932 L287.798625,20.9828814 C287.798625,18.7513446 289.81125,16.9622938 292.2975,16.9622938 C294.78375,16.9622938 296.79525,18.7513446 296.79525,20.9828814 L296.79525,157.695932 C296.79525,159.911379 294.78375,161.718531 292.2975,161.718531 Z" id="Path"></path>
                    <path d="M256.312125,161.718531 C253.82475,161.718531 251.81325,159.911379 251.81325,157.695932 L251.81325,20.9828814 C251.81325,18.7513446 253.82475,16.9622938 256.312125,16.9622938 C258.798375,16.9622938 260.809875,18.7513446 260.809875,20.9828814 L260.809875,157.695932 C260.809875,159.911379 258.798375,161.718531 256.312125,161.718531 Z" id="Path"></path>
                    <path d="M247.3155,73.2545424 L103.37175,73.2545424 C100.8855,73.2545424 98.874,71.4654915 98.874,69.2339548 C98.874,67.0205198 100.8855,65.2133672 103.37175,65.2133672 L247.3155,65.2133672 C249.80175,65.2133672 251.81325,67.0205198 251.81325,69.2339548 C251.812125,71.4654915 249.80175,73.2545424 247.3155,73.2545424 Z" id="Path"></path>
                    <path d="M247.3155,113.465446 L103.37175,113.465446 C100.8855,113.465446 98.874,111.676395 98.874,109.444859 C98.874,107.231424 100.8855,105.424271 103.37175,105.424271 L247.3155,105.424271 C249.80175,105.424271 251.81325,107.231424 251.81325,109.444859 C251.812125,111.67539 249.80175,113.465446 247.3155,113.465446 Z" id="Path"></path>
                    <path d="M13.678875,73.2545424 L4.68225,73.2545424 C2.196,73.2545424 0.183375,71.4654915 0.183375,69.2339548 C0.183375,67.0205198 2.196,65.2133672 4.68225,65.2133672 L13.678875,65.2133672 C16.165125,65.2133672 18.17775,67.0205198 18.17775,69.2339548 C18.17775,71.4654915 16.16625,73.2545424 13.678875,73.2545424 Z" id="Path"></path>
                    <path d="M13.678875,113.465446 L4.68225,113.465446 C2.196,113.465446 0.183375,111.676395 0.183375,109.444859 C0.183375,107.231424 2.196,105.424271 4.68225,105.424271 L13.678875,105.424271 C16.165125,105.424271 18.17775,107.231424 18.17775,109.444859 C18.17775,111.67539 16.16625,113.465446 13.678875,113.465446 Z" id="Path"></path>
                    <path d="M4.683375,113.465446 C2.197125,113.465446 0.1845,111.676395 0.1845,109.444859 L0.1845,69.2349605 C0.1845,67.0215254 2.197125,65.2143729 4.683375,65.2143729 C7.169625,65.2143729 9.181125,67.0215254 9.181125,69.2349605 L9.181125,109.444859 C9.181125,111.67539 7.169625,113.465446 4.683375,113.465446 Z" id="Path"></path>
                    <path d="M346.276125,113.465446 L337.2795,113.465446 C334.79325,113.465446 332.780625,111.676395 332.780625,109.444859 C332.780625,107.231424 334.79325,105.424271 337.2795,105.424271 L346.276125,105.424271 C348.76125,105.424271 350.773875,107.231424 350.773875,109.444859 C350.77275,111.67539 348.760125,113.465446 346.276125,113.465446 Z" id="Path"></path>
                    <path d="M346.276125,73.2545424 L337.2795,73.2545424 C334.79325,73.2545424 332.780625,71.4654915 332.780625,69.2339548 C332.780625,67.0205198 334.79325,65.2133672 337.2795,65.2133672 L346.276125,65.2133672 C348.76125,65.2133672 350.773875,67.0205198 350.773875,69.2339548 C350.77275,71.4654915 348.760125,73.2545424 346.276125,73.2545424 Z" id="Path"></path>
                    <path d="M346.276125,113.465446 C343.78875,113.465446 341.77725,111.676395 341.77725,109.444859 L341.77725,69.2349605 C341.77725,67.0215254 343.78875,65.2143729 346.276125,65.2143729 C348.76125,65.2143729 350.773875,67.0215254 350.773875,69.2349605 L350.773875,109.444859 C350.77275,111.67539 348.760125,113.465446 346.276125,113.465446 Z" id="Path"></path>
                    <path d="M76.381875,137.590983 C73.895625,137.590983 71.884125,135.785842 71.884125,133.570395 L71.884125,45.1084181 C71.884125,42.8929718 73.895625,41.0878305 76.381875,41.0878305 C78.868125,41.0878305 80.879625,42.8929718 80.879625,45.1084181 L80.879625,133.570395 C80.879625,135.785842 78.867,137.590983 76.381875,137.590983 Z" id="Path"></path>
                    <path d="M40.3965,121.508633 C37.91025,121.508633 35.897625,119.717571 35.897625,117.488045 L35.897625,61.1927797 C35.897625,58.9773333 37.91025,57.1721921 40.3965,57.1721921 C42.88275,57.1721921 44.89425,58.9773333 44.89425,61.1927797 L44.89425,117.488045 C44.89425,119.717571 42.88275,121.508633 40.3965,121.508633 Z" id="Path"></path>
                    <path d="M274.30425,137.590983 C271.818,137.590983 269.8065,135.801932 269.8065,133.570395 L269.8065,45.1084181 C269.8065,42.8768814 271.818,41.0878305 274.30425,41.0878305 C276.7905,41.0878305 278.803125,42.8768814 278.803125,45.1084181 L278.803125,133.570395 C278.802,135.801932 276.789375,137.590983 274.30425,137.590983 Z" id="Path"></path>
                    <path d="M310.289625,121.508633 C307.803375,121.508633 305.791875,119.70148 305.791875,117.488045 L305.791875,61.1927797 C305.791875,58.9773333 307.803375,57.1721921 310.289625,57.1721921 C312.777,57.1721921 314.7885,58.9773333 314.7885,61.1927797 L314.7885,117.488045 C314.787375,119.70148 312.775875,121.508633 310.289625,121.508633 Z" id="Path"></path>
                </g>
            </g>
        </g>
    </g>
</svg>