<?xml version="1.0" encoding="UTF-8"?>
<svg width="281px" height="280px" viewBox="0 0 281 280" version="1.1" xmlns="http://www.w3.org/2000/svg" xmlns:xlink="http://www.w3.org/1999/xlink">
    <!-- Generator: Sketch 52.6 (67491) - http://www.bohemiancoding.com/sketch -->
    <title>Group 9</title>
    <desc>Created with Sketch.</desc>
    <g id="Page-1" stroke="none" stroke-width="1" fill="none" fill-rule="evenodd">
        <g id="Group-9">
            <g id="Rectangle-2" fill="#FCFCFC" fill-opacity="0" stroke="#FFFFFF">
                <rect id="Rectangle" x="1.04368932" y="0.5" width="279" height="279" rx="8"></rect>
            </g>
            <g id="calendar-2" transform="translate(28.000000, 45.000000)">
                <g id="calendar">
                    <g id="Group" transform="translate(2.244437, 48.484211)" fill="#F8B631">
                        <rect id="Rectangle" x="0.454817867" y="94.345542" width="167.762558" height="36.1307583"></rect>
                        <polygon id="Path" points="168.218289 123.248431 29.6297646 123.248431 0.454817867 94.3437343 0.454817867 0.404485886 168.218289 0.404485886"></polygon>
                    </g>
                    <rect id="Rectangle" fill="#FF8F00" x="2.24443722" y="16.8210526" width="168.332791" height="32.6526316"></rect>
                    <path d="M31.9829845,1.97894737 C29.813858,1.97894737 28.0554652,3.58516348 28.0554652,5.56601381 L28.0554652,27.0870664 C28.0554652,29.0679168 29.8143493,30.6736842 31.9829845,30.6736842 C34.152111,30.6736842 35.9109951,29.0679168 35.9109951,27.0870664 L35.9109951,5.56556514 C35.9119777,3.58471482 34.152111,1.97894737 31.9829845,1.97894737 Z" id="Path" fill="#FDFDFD"></path>
                    <path d="M31.9829845,27.2107429 C29.813858,27.2107429 28.0554652,25.6599136 28.0554652,23.7473684 L28.0554652,27.2107429 C28.0554652,29.1232881 29.8143493,30.6736842 31.9829845,30.6736842 C34.152111,30.6736842 35.9109951,29.1232881 35.9109951,27.2107429 L35.9109955,23.7473684 C35.9119777,25.6599136 34.152111,27.2107429 31.9829845,27.2107429 Z" id="Path" fill="#94C1FF"></path>
                    <g id="Group" transform="translate(63.966461, 1.978947)" fill="#FFFFFF">
                        <path d="M4.06281178,0.441153036 C2.04738324,0.441153036 0.413128613,2.07606802 0.413128613,4.09231093 L0.413128613,25.9978883 C0.413128613,28.0141312 2.04738324,29.6485895 4.06281178,29.6485895 C6.07824032,29.6485895 7.71249494,28.0141312 7.71249494,25.9978883 L7.71249494,4.09185425 C7.71249494,2.07561134 6.07824032,0.441153036 4.06281178,0.441153036 Z" id="Path"></path>
                        <path d="M40.5578174,0.441153036 C38.5423889,0.441153036 36.9081343,2.07606802 36.9081343,4.09231093 L36.9081343,25.9978883 C36.9081343,28.0141312 38.5423889,29.6485895 40.5578174,29.6485895 C42.573246,29.6485895 44.2070441,28.0141312 44.2070441,25.9978883 L44.2070441,4.09185425 C44.2070441,2.07561134 42.573246,0.441153036 40.5578174,0.441153036 Z" id="Path"></path>
                        <path d="M77.0528231,0.441153036 C75.0351121,0.441153036 73.4035964,2.07606802 73.4035964,4.09231093 L73.4035964,25.9978883 C73.4035964,28.0141312 75.0351121,29.6485895 77.0528231,29.6485895 C79.0696211,29.6485895 80.7020498,28.0141312 80.7020498,25.9978883 L80.7020498,4.09185425 C80.7020498,2.07561134 79.0696211,0.441153036 77.0528231,0.441153036 Z" id="Path"></path>
                    </g>
                    <g id="Group" transform="translate(63.966461, 23.747368)" fill="#94C1FF">
                        <path d="M4.06281178,4.15718638 C2.04738324,4.15718638 0.413128613,2.49021424 0.413128613,0.434437152 L0.413128613,4.15718638 C0.413128613,6.21296347 2.04738324,7.87946997 4.06281178,7.87946997 C6.07824032,7.87946997 7.71249494,6.21296347 7.71249494,4.15718638 L7.71249494,0.434437152 C7.71249494,2.49021424 6.07824032,4.15718638 4.06281178,4.15718638 Z" id="Path"></path>
                        <path d="M40.5578174,4.15718638 C38.5423889,4.15718638 36.9081343,2.49021424 36.9081343,0.434437152 L36.9081343,4.15718638 C36.9081343,6.21296347 38.5423889,7.87946997 40.5578174,7.87946997 C42.573246,7.87946997 44.2070441,6.21296347 44.2070441,4.15718638 L44.2070441,0.434437152 C44.2070441,2.49021424 42.573246,4.15718638 40.5578174,4.15718638 Z" id="Path"></path>
                        <path d="M77.0528231,4.15718638 C75.0351121,4.15718638 73.4035964,2.49021424 73.4035964,0.434437152 L73.4035964,4.15718638 C73.4035964,6.21296347 75.0351121,7.87946997 77.0528231,7.87946997 C79.0696211,7.87946997 80.7020498,6.21296347 80.7020498,4.15718638 L80.7020498,0.434437152 C80.7020498,2.49021424 79.0696211,4.15718638 77.0528231,4.15718638 Z" id="Path"></path>
                    </g>
                    <path d="M140.999332,6.02376881 C143.026869,6.02376881 144.66799,7.63989167 144.66799,9.63295937 L144.66799,6.02376881 C144.66799,4.0307011 143.026869,2.41457825 140.999332,2.41457825 C138.974549,2.41457825 137.330674,4.0307011 137.330674,6.02376881 L137.330674,9.63295937 C137.330674,7.63989167 138.974549,6.02376881 140.999332,6.02376881 Z" id="Path" fill="#FFFFFF"></path>
                    <path d="M104.309997,6.02376881 C106.336158,6.02376881 107.978656,7.63989167 107.978656,9.63295937 L107.978656,6.02376881 C107.978656,4.0307011 106.336158,2.41457825 104.309997,2.41457825 C102.283837,2.41457825 100.64088,4.0307011 100.64088,6.02376881 L100.64088,9.63295937 C100.64088,7.63989167 102.283837,6.02376881 104.309997,6.02376881 Z" id="Path" fill="#FFFFFF"></path>
                    <path d="M67.6206627,6.02376881 C69.646823,6.02376881 71.2897797,7.63989167 71.2897797,9.63295937 L71.2897797,6.02376881 C71.2897797,4.0307011 69.646823,2.41457825 67.6206627,2.41457825 C65.5945023,2.41457825 63.9515456,4.0307011 63.9515456,6.02376881 L63.9515456,9.63295937 C63.9520045,7.63989167 65.5949613,6.02376881 67.6206627,6.02376881 Z" id="Path" fill="#FFFFFF"></path>
                    <path d="M30.930869,6.02376881 C32.958865,6.02376881 34.599986,7.63989167 34.599986,9.63295937 L34.599986,6.02376881 C34.599986,4.0307011 32.958865,2.41457825 30.930869,2.41457825 C28.9033319,2.41457825 27.2622108,4.0307011 27.2622108,6.02376881 L27.2622108,9.63295937 C27.2622108,7.63989167 28.9033319,6.02376881 30.930869,6.02376881 Z" id="Path" fill="#FFFFFF"></path>
                    <polygon id="Path" fill="#FFFFFF" points="30.930869 172.037506 30.930869 143.165336 1.57976829 143.165336"></polygon>
                    <rect id="Rectangle" fill="#D7E9FF" x="2.24443722" y="179.094737" width="173.943884" height="6.92631579"></rect>
                    <g id="Group" transform="translate(13.466623, 59.368421)" fill="#FFFFFF">
                        <rect id="Rectangle" x="66.1100093" y="0.397245099" width="14.5911357" height="14.484725"></rect>
                        <rect id="Rectangle" x="87.9935188" y="0.397245099" width="14.5911357" height="14.484725"></rect>
                        <rect id="Rectangle" x="109.881135" y="0.397245099" width="14.591592" height="14.484725"></rect>
                        <rect id="Rectangle" x="0.449898674" y="22.1256914" width="14.591592" height="14.4851779"></rect>
                        <rect id="Rectangle" x="22.3338645" y="22.1256914" width="14.5911357" height="14.4851779"></rect>
                        <rect id="Rectangle" x="44.2214806" y="22.1256914" width="14.591592" height="14.4851779"></rect>
                        <rect id="Rectangle" x="66.1100093" y="22.1256914" width="14.5911357" height="14.4851779"></rect>
                        <rect id="Rectangle" x="87.9935188" y="22.1256914" width="14.5911357" height="14.4851779"></rect>
                        <rect id="Rectangle" x="109.881135" y="22.1256914" width="14.591592" height="14.4851779"></rect>
                        <rect id="Rectangle" x="0.59910442" y="43.8541377" width="14.591592" height="14.4851779"></rect>
                        <rect id="Rectangle" x="0.449898674" y="65.5780545" width="14.591592" height="14.4851779"></rect>
                        <rect id="Rectangle" x="22.3338645" y="65.5780545" width="14.5911357" height="14.4851779"></rect>
                        <rect id="Rectangle" x="44.3720552" y="65.5780545" width="14.591592" height="14.4851779"></rect>
                        <rect id="Rectangle" x="66.2605839" y="65.5780545" width="14.5911357" height="14.4851779"></rect>
                        <rect id="Rectangle" x="88.1486563" y="65.5780545" width="14.591592" height="14.4851779"></rect>
                        <rect id="Rectangle" x="88.1486563" y="87.3065008" width="14.591592" height="14.4851779"></rect>
                        <rect id="Rectangle" x="66.2605839" y="87.3065008" width="14.5911357" height="14.4851779"></rect>
                        <rect id="Rectangle" x="44.2214806" y="87.3065008" width="14.591592" height="14.4851779"></rect>
                        <rect id="Rectangle" x="22.3338645" y="87.3065008" width="14.5911357" height="14.4851779"></rect>
                        <rect id="Rectangle" x="22.4839828" y="43.8541377" width="14.5911357" height="14.4851779"></rect>
                        <rect id="Rectangle" x="44.3720552" y="43.8541377" width="14.591592" height="14.4851779"></rect>
                    </g>
                    <g id="Group" opacity="0.2" transform="translate(166.088354, 16.821053)" fill="#3A3847">
                        <rect id="Rectangle" x="0.377564217" y="0.423589618" width="3.98811556" height="32.1834177"></rect>
                    </g>
                    <g id="Group" transform="translate(78.555303, 102.905263)" fill="#FFFFFF">
                        <rect id="Rectangle" x="0.0992124378" y="0.367454545" width="14.6203472" height="14.3828995"></rect>
                        <rect id="Rectangle" x="22.0311048" y="0.367454545" width="14.6208044" height="14.3828995"></rect>
                    </g>
                    <path d="M203.048769,59.8627822 C203.048769,59.8627822 232.299252,90.6451116 232.299252,130.150897 C232.299252,161.042788 206.962279,186.021053 175.626755,186.021053 C144.291231,186.021053 118.955173,161.042788 118.955173,130.150897 C118.955173,68.8391769 181.111249,34.6315789 181.111249,34.6315789 C181.111249,34.6315789 172.738614,55.1777795 181.111249,63.4674974 C189.520014,71.7215965 203.048769,59.8627822 203.048769,59.8627822 Z" id="Path" fill="#F8B631"></path>
                    <path d="M202.917236,60.3578947 C202.917236,60.3578947 201.088814,61.9423257 198.362718,63.5451698 C205.693406,72.3457675 224.954322,98.502351 224.954322,130.370161 C224.954322,159.927343 201.451282,183.983927 171.699447,185.838717 C172.918702,185.915963 174.131065,186.021053 175.371912,186.021053 C206.848345,186.021053 232.299252,161.140816 232.299252,130.370161 C232.299252,91.0194178 202.917236,60.3578947 202.917236,60.3578947 Z" id="Path" fill="#FF8F00"></path>
                    <path d="M126.21616,130.151348 C126.21616,83.7557997 161.545122,52.8954695 178.741599,40.6191485 C179.695319,37.0901796 180.677196,34.6315789 180.677196,34.6315789 C180.677196,34.6315789 118.955173,68.8391769 118.955173,130.150897 C118.955173,161.042788 144.114302,186.021053 175.231002,186.021053 C176.457667,186.021053 177.657083,185.915549 178.862403,185.837999 C149.450592,183.976352 126.21616,159.825436 126.21616,130.151348 Z" id="Path" fill="#FCFCFC"></path>
                    <path d="M225.56594,130.610526 C225.56594,157.38787 203.46,179.094737 176.187864,179.094737 C148.9171,179.094737 126.810703,157.388319 126.810703,130.610526 C126.810703,103.832734 148.916643,82.1263158 176.187864,82.1263158 C203.459543,82.126765 225.56594,103.833183 225.56594,130.610526 Z" id="Path" fill="#FFFFFF"></path>
                    <g id="Group" opacity="0.5" transform="translate(171.699447, 81.136842)" fill="#FFFFFF">
                        <path d="M46.3514268,49.1017333 C46.3514268,74.7901755 26.0617144,95.7847643 0.342996047,97.6387416 C1.56120751,97.7267683 2.77987937,97.8220177 4.02341269,97.8220177 C31.46724,97.8220177 53.7131809,76.0099093 53.7131809,49.1017333 C53.7131809,22.1935573 31.4677004,0.381448945 4.02341269,0.381448945 C2.77987937,0.381448945 1.56120751,0.476698326 0.342996047,0.564725006 C26.0607936,2.4187023 46.3514268,23.4132911 46.3514268,49.1017333 Z" id="Path"></path>
                    </g>
                    <g id="Group" transform="translate(1.122219, 138.526316)">
                        <rect id="Rectangle" fill="#FFFFFF" x="0.459802173" y="0.338603317" width="33.1827744" height="3.57568681"></rect>
                        <rect id="Rectangle" fill="#FDFDFD" x="29.9567803" y="3.9169739" width="3.68717991" height="28.6077309"></rect>
                    </g>
                    <g id="Group" opacity="0.3" transform="translate(1.122219, 16.821053)" fill="#FFFFFF">
                        <rect id="Rectangle" x="0.497267535" y="0.423589618" width="3.98711803" height="32.1834177"></rect>
                    </g>
                    <rect id="Rectangle" fill="#773C80" x="2.24443722" y="52.4421053" width="3.36665583" height="86.0842105"></rect>
                    <g id="Group" fill="#773C80">
                        <path d="M126.558952,173.441046 L31.5253236,173.441046 C30.5153684,173.441046 29.6978945,172.634945 29.6978945,171.639041 C29.6978945,170.643137 30.5153684,169.837036 31.5253236,169.837036 L126.558495,169.837036 C127.56845,169.837036 128.386381,170.643137 128.386381,171.639041 C128.386381,172.634945 127.568907,173.441046 126.558952,173.441046 Z" id="Path"></path>
                        <path d="M2.28462927,144.607165 C1.27467409,144.607165 0.457200174,143.801065 0.457200174,142.80471 L0.457200174,16.6558082 C0.457200174,15.6594532 1.27467409,14.8533525 2.28462927,14.8533525 C3.29458445,14.8533525 4.11205837,15.6594532 4.11205837,16.6558082 L4.11205837,142.80471 C4.11251557,143.801065 3.29504165,144.607165 2.28462927,144.607165 Z" id="Path"></path>
                        <path d="M20.560749,18.4578129 L2.28462927,18.4578129 C1.27467409,18.4578129 0.457200174,17.6517122 0.457200174,16.6558082 C0.457200174,15.6594532 1.27467409,14.8533525 2.28462927,14.8533525 L20.5602918,14.8533525 C21.570247,14.8533525 22.3877209,15.6594532 22.3877209,16.6558082 C22.3877209,17.6517122 21.5711614,18.4578129 20.560749,18.4578129 Z" id="Path"></path>
                        <path d="M170.420908,18.4578129 L152.144331,18.4578129 C151.134376,18.4578129 150.317359,17.6517122 150.317359,16.6558082 C150.317359,15.6594532 151.134376,14.8533525 152.144331,14.8533525 L170.420908,14.8533525 C171.430863,14.8533525 172.24788,15.6594532 172.24788,16.6558082 C172.24788,17.6517122 171.430863,18.4578129 170.420908,18.4578129 Z" id="Path"></path>
                        <path d="M170.420908,32.874753 C169.410038,32.874753 168.593021,32.0686523 168.593021,31.0722974 L168.593021,16.6558082 C168.593021,15.6594532 169.410038,14.8533525 170.420908,14.8533525 C171.430863,14.8533525 172.24788,15.6594532 172.24788,16.6558082 L172.24788,31.0727482 C172.24788,32.0691031 171.430863,32.874753 170.420908,32.874753 Z" id="Path"></path>
                        <path d="M148.489473,50.8961535 L2.28462927,50.8961535 C1.27467409,50.8961535 0.457200174,50.0900528 0.457200174,49.0936978 C0.457200174,48.0973429 1.27467409,47.2912422 2.28462927,47.2912422 L148.489473,47.2912422 C149.500342,47.2912422 150.317359,48.0973429 150.317359,49.0936978 C150.317359,50.0900528 149.500342,50.8961535 148.489473,50.8961535 Z" id="Path"></path>
                        <path d="M93.6629421,76.126024 L79.0425949,76.126024 C78.0326397,76.126024 77.2151658,75.3199233 77.2151658,74.3235683 L77.2151658,59.9066283 C77.2151658,58.9102734 78.0326397,58.1041727 79.0425949,58.1041727 L93.6629421,58.1041727 C94.6728973,58.1041727 95.4908284,58.9102734 95.4908284,59.9066283 L95.4908284,74.3235683 C95.4908284,75.3199233 94.6733545,76.126024 93.6629421,76.126024 Z M80.870024,72.5215635 L91.8350558,72.5215635 L91.8350558,61.7090839 L80.870024,61.7090839 L80.870024,72.5215635 Z" id="Shape" fill-rule="nonzero"></path>
                        <path d="M115.595292,76.126024 L100.973116,76.126024 C99.9631605,76.126024 99.1452294,75.3199233 99.1452294,74.3235683 L99.1452294,59.9066283 C99.1452294,58.9102734 99.9627033,58.1041727 100.973116,58.1041727 L115.595292,58.1041727 C116.605247,58.1041727 117.422721,58.9102734 117.422721,59.9066283 L117.422721,74.3235683 C117.422264,75.3199233 116.605704,76.126024 115.595292,76.126024 Z M102.800545,72.5215635 L113.767863,72.5215635 L113.767863,61.7090839 L102.800545,61.7090839 L102.800545,72.5215635 Z" id="Shape" fill-rule="nonzero"></path>
                        <path d="M122.904094,76.126024 C121.894138,76.126024 121.076207,75.3199233 121.076207,74.3235683 L121.076207,59.9066283 C121.076207,58.9102734 121.894138,58.1041727 122.904094,58.1041727 L137.524898,58.1041727 C138.534853,58.1041727 139.35187,58.9102734 139.35187,59.9066283 C139.35187,60.9025324 138.534853,61.7086331 137.524898,61.7086331 L124.731523,61.7086331 L124.731523,74.3235683 C124.731066,75.3199233 123.913592,76.126024 122.904094,76.126024 Z" id="Path"></path>
                        <path d="M27.8704654,97.7514341 L13.2505754,97.7514341 C12.2406203,97.7514341 11.4231464,96.9457842 11.4231464,95.9494293 L11.4231464,81.5320384 C11.4231464,80.5361343 12.2406203,79.7300336 13.2505754,79.7300336 L27.8713798,79.7300336 C28.881335,79.7300336 29.6988089,80.5361343 29.6988089,81.5320384 L29.6988089,95.9494293 C29.6978945,96.9457842 28.8804206,97.7514341 27.8704654,97.7514341 Z M15.0780045,94.1474245 L26.0434935,94.1474245 L26.0434935,83.334494 L15.0780045,83.334494 L15.0780045,94.1474245 Z" id="Shape" fill-rule="nonzero"></path>
                        <path d="M49.8014434,97.7514341 L35.1815534,97.7514341 C34.171141,97.7514341 33.3536671,96.9457842 33.3536671,95.9494293 L33.3536671,81.5320384 C33.3536671,80.5361343 34.171141,79.7300336 35.1815534,79.7300336 L49.8019006,79.7300336 C50.8118558,79.7300336 51.6297869,80.5361343 51.6297869,81.5320384 L51.6297869,95.9494293 C51.6288725,96.9457842 50.8113986,97.7514341 49.8014434,97.7514341 Z M37.0089825,94.1474245 L47.9740143,94.1474245 L47.9740143,83.334494 L37.0089825,83.334494 L37.0089825,94.1474245 Z" id="Shape" fill-rule="nonzero"></path>
                        <path d="M71.7324213,97.7514341 L57.1116169,97.7514341 C56.1016618,97.7514341 55.2841879,96.9457842 55.2841879,95.9494293 L55.2841879,81.5320384 C55.2841879,80.5361343 56.1016618,79.7300336 57.1116169,79.7300336 L71.7324213,79.7300336 C72.7423765,79.7300336 73.5598504,80.5361343 73.5598504,81.5320384 L73.5598504,95.9494293 C73.5598504,96.9457842 72.7423765,97.7514341 71.7324213,97.7514341 Z M58.9395032,94.1474245 L69.9049922,94.1474245 L69.9049922,83.334494 L58.9395032,83.334494 L58.9395032,94.1474245 Z" id="Shape" fill-rule="nonzero"></path>
                        <path d="M93.6629421,97.7514341 L79.0425949,97.7514341 C78.0326397,97.7514341 77.2151658,96.9457842 77.2151658,95.9494293 L77.2151658,81.5320384 C77.2151658,80.5361343 78.0326397,79.7300336 79.0425949,79.7300336 L93.6629421,79.7300336 C94.6728973,79.7300336 95.4908284,80.5361343 95.4908284,81.5320384 L95.4908284,95.9494293 C95.4908284,96.9457842 94.6733545,97.7514341 93.6629421,97.7514341 Z M80.870024,94.1474245 L91.8350558,94.1474245 L91.8350558,83.334494 L80.870024,83.334494 L80.870024,94.1474245 Z" id="Shape" fill-rule="nonzero"></path>
                        <path d="M115.595292,97.7514341 L100.973116,97.7514341 C99.9631605,97.7514341 99.1452294,96.9457842 99.1452294,95.9494293 L99.1452294,81.5320384 C99.1452294,80.5361343 99.9627033,79.7300336 100.973116,79.7300336 L115.595292,79.7300336 C116.605247,79.7300336 117.422721,80.5361343 117.422721,81.5320384 L117.422721,95.9494293 C117.422264,96.9457842 116.605704,97.7514341 115.595292,97.7514341 Z M102.800545,94.1474245 L113.767863,94.1474245 L113.767863,83.334494 L102.800545,83.334494 L102.800545,94.1474245 Z" id="Shape" fill-rule="nonzero"></path>
                        <path d="M122.904094,86.9389544 C121.894138,86.9389544 121.076207,86.1328537 121.076207,85.1369496 L121.076207,81.5324892 C121.076207,80.5365851 121.894138,79.7304844 122.904094,79.7304844 C123.914049,79.7304844 124.731066,80.5365851 124.731066,81.5324892 L124.731066,85.1369496 C124.731066,86.1328537 123.913592,86.9389544 122.904094,86.9389544 Z" id="Path"></path>
                        <path d="M27.8704654,119.377295 L13.2505754,119.377295 C12.2406203,119.377295 11.4231464,118.571194 11.4231464,117.57529 L11.4231464,103.157899 C11.4231464,102.161995 12.2406203,101.355894 13.2505754,101.355894 L27.8713798,101.355894 C28.881335,101.355894 29.6988089,102.161995 29.6988089,103.157899 L29.6988089,117.57529 C29.6978945,118.571194 28.8804206,119.377295 27.8704654,119.377295 Z M15.0780045,115.772835 L26.0434935,115.772835 L26.0434935,104.960355 L15.0780045,104.960355 L15.0780045,115.772835 Z" id="Shape" fill-rule="nonzero"></path>
                        <path d="M49.8014434,119.377295 L35.1815534,119.377295 C34.171141,119.377295 33.3536671,118.571194 33.3536671,117.57529 L33.3536671,103.157899 C33.3536671,102.161995 34.171141,101.355894 35.1815534,101.355894 L49.8019006,101.355894 C50.8118558,101.355894 51.6297869,102.161995 51.6297869,103.157899 L51.6297869,117.57529 C51.6288725,118.571194 50.8113986,119.377295 49.8014434,119.377295 Z M37.0089825,115.772835 L47.9740143,115.772835 L47.9740143,104.960355 L37.0089825,104.960355 L37.0089825,115.772835 Z" id="Shape" fill-rule="nonzero"></path>
                        <path d="M71.7324213,119.377295 L57.1116169,119.377295 C56.1016618,119.377295 55.2841879,118.571194 55.2841879,117.57529 L55.2841879,103.157899 C55.2841879,102.161995 56.1016618,101.355894 57.1116169,101.355894 L71.7324213,101.355894 C72.7423765,101.355894 73.5598504,102.161995 73.5598504,103.157899 L73.5598504,117.57529 C73.5598504,118.571194 72.7423765,119.377295 71.7324213,119.377295 Z M58.9395032,115.772835 L69.9049922,115.772835 L69.9049922,104.960355 L58.9395032,104.960355 L58.9395032,115.772835 Z" id="Shape" fill-rule="nonzero"></path>
                        <path d="M93.6629421,119.377295 L79.0425949,119.377295 C78.0326397,119.377295 77.2151658,118.571194 77.2151658,117.57529 L77.2151658,103.157899 C77.2151658,102.161995 78.0326397,101.355894 79.0425949,101.355894 L93.6629421,101.355894 C94.6728973,101.355894 95.4908284,102.161995 95.4908284,103.157899 L95.4908284,117.57529 C95.4908284,118.571194 94.6733545,119.377295 93.6629421,119.377295 Z M80.870024,115.772835 L91.8350558,115.772835 L91.8350558,104.960355 L80.870024,104.960355 L80.870024,115.772835 Z" id="Shape" fill-rule="nonzero"></path>
                        <path d="M100.973116,119.377295 C99.9631605,119.377295 99.1452294,118.571194 99.1452294,117.57529 L99.1452294,103.157899 C99.1452294,102.161995 99.9627033,101.355894 100.973116,101.355894 L115.595292,101.355894 C116.605247,101.355894 117.422721,102.161995 117.422721,103.157899 C117.422721,104.153803 116.605247,104.959904 115.595292,104.959904 L102.800545,104.959904 L102.800545,117.574839 C102.800545,118.571194 101.983528,119.377295 100.973116,119.377295 Z" id="Path"></path>
                        <path d="M71.7324213,141.002705 L57.1116169,141.002705 C56.1016618,141.002705 55.2841879,140.196604 55.2841879,139.2007 L55.2841879,124.783309 C55.2841879,123.787405 56.1016618,122.981305 57.1116169,122.981305 L71.7324213,122.981305 C72.7423765,122.981305 73.5598504,123.787405 73.5598504,124.783309 L73.5598504,139.2007 C73.5598504,140.196604 72.7423765,141.002705 71.7324213,141.002705 Z M58.9395032,137.398695 L69.9049922,137.398695 L69.9049922,126.586216 L58.9395032,126.586216 L58.9395032,137.398695 Z" id="Shape" fill-rule="nonzero"></path>
                        <path d="M93.6629421,141.002705 L79.0425949,141.002705 C78.0326397,141.002705 77.2151658,140.196604 77.2151658,139.2007 L77.2151658,124.783309 C77.2151658,123.787405 78.0326397,122.981305 79.0425949,122.981305 L93.6629421,122.981305 C94.6728973,122.981305 95.4908284,123.787405 95.4908284,124.783309 L95.4908284,139.2007 C95.4908284,140.196604 94.6733545,141.002705 93.6629421,141.002705 Z M80.870024,137.398695 L91.8350558,137.398695 L91.8350558,126.586216 L80.870024,126.586216 L80.870024,137.398695 Z" id="Shape" fill-rule="nonzero"></path>
                        <path d="M111.940433,141.002705 L100.972658,141.002705 C99.9627033,141.002705 99.1447722,140.196604 99.1447722,139.2007 L99.1447722,124.783309 C99.1447722,123.787405 99.9622461,122.981305 100.972658,122.981305 L111.939976,122.981305 C112.949931,122.981305 113.767405,123.787405 113.767405,124.783309 C113.767405,125.779664 112.949931,126.585765 111.939976,126.585765 L102.800088,126.585765 L102.800088,137.398245 L111.939976,137.398245 C112.949931,137.398245 113.767405,138.204345 113.767405,139.200249 C113.767405,140.196153 112.950389,141.002705 111.940433,141.002705 Z" id="Path"></path>
                        <path d="M71.7324213,162.628115 L57.1116169,162.628115 C56.1016618,162.628115 55.2841879,161.822014 55.2841879,160.82611 L55.2841879,146.408719 C55.2841879,145.412365 56.1016618,144.606715 57.1116169,144.606715 L71.7324213,144.606715 C72.7423765,144.606715 73.5598504,145.412365 73.5598504,146.408719 L73.5598504,160.82611 C73.5598504,161.822014 72.7423765,162.628115 71.7324213,162.628115 Z M58.9395032,159.024106 L69.9049922,159.024106 L69.9049922,148.211175 L58.9395032,148.211175 L58.9395032,159.024106 Z" id="Shape" fill-rule="nonzero"></path>
                        <path d="M93.6629421,162.628115 L79.0425949,162.628115 C78.0326397,162.628115 77.2151658,161.822014 77.2151658,160.82611 L77.2151658,146.408719 C77.2151658,145.412365 78.0326397,144.606715 79.0425949,144.606715 L93.6629421,144.606715 C94.6728973,144.606715 95.4908284,145.412365 95.4908284,146.408719 L95.4908284,160.82611 C95.4908284,161.822014 94.6733545,162.628115 93.6629421,162.628115 Z M80.870024,159.024106 L91.8350558,159.024106 L91.8350558,148.211175 L80.870024,148.211175 L80.870024,159.024106 Z" id="Shape" fill-rule="nonzero"></path>
                        <path d="M115.595292,162.628115 L100.973116,162.628115 C99.9631605,162.628115 99.1452294,161.822014 99.1452294,160.82611 L99.1452294,146.408719 C99.1452294,145.412365 99.9627033,144.606715 100.973116,144.606715 C101.983528,144.606715 102.800545,145.412365 102.800545,146.408719 L102.800545,159.023655 L115.595292,159.023655 C116.605247,159.023655 117.422721,159.829305 117.422721,160.825659 C117.422721,161.822014 116.605704,162.628115 115.595292,162.628115 Z" id="Path"></path>
                        <path d="M133.869125,180.649516 L2.28462927,180.649516 C1.27467409,180.649516 0.457200174,179.843415 0.457200174,178.847511 C0.457200174,177.851156 1.27467409,177.045506 2.28462927,177.045506 L133.868211,177.045506 C134.879081,177.045506 135.696097,177.851156 135.696097,178.847511 C135.696554,179.843415 134.879995,180.649516 133.869125,180.649516 Z" id="Path"></path>
                        <path d="M144.834614,187.857986 L2.28462927,187.857986 C1.27467409,187.857986 0.457200174,187.051885 0.457200174,186.055981 C0.457200174,185.059626 1.27467409,184.253525 2.28462927,184.253525 L144.834157,184.253525 C145.844112,184.253525 146.662043,185.059626 146.662043,186.055981 C146.662501,187.051885 145.84457,187.857986 144.834614,187.857986 Z" id="Path"></path>
                        <path d="M31.5253236,173.441046 C31.058065,173.441046 30.5903492,173.265218 30.2332759,172.913113 L0.992581578,144.078782 C0.278434906,143.375022 0.278434906,142.234849 0.992581578,141.530638 C1.70672825,140.826878 2.86298749,140.826878 3.57667696,141.530638 L32.8173713,170.364969 C33.531518,171.06918 33.531518,172.209353 32.8173713,172.913113 C32.4607552,173.265218 31.9934966,173.441046 31.5253236,173.441046 Z" id="Path"></path>
                        <path d="M31.5253236,173.441046 C30.5153684,173.441046 29.6978945,172.634945 29.6978945,171.639041 L29.6978945,142.80471 C29.6978945,141.808806 30.5153684,141.002705 31.5253236,141.002705 C32.535736,141.002705 33.3532099,141.808806 33.3532099,142.80471 L33.3532099,171.639041 C33.3532099,172.634945 32.535736,173.441046 31.5253236,173.441046 Z" id="Path"></path>
                        <path d="M31.5253236,144.607165 L2.28462927,144.607165 C1.27467409,144.607165 0.457200174,143.801065 0.457200174,142.80471 C0.457200174,141.808806 1.27467409,141.002705 2.28462927,141.002705 L31.5253236,141.002705 C32.535736,141.002705 33.3532099,141.808806 33.3532099,142.80471 C33.3532099,143.801065 32.535736,144.607165 31.5253236,144.607165 Z" id="Path"></path>
                        <path d="M2.28462927,180.649516 C1.27467409,180.649516 0.457200174,179.843415 0.457200174,178.847511 L0.457200174,152.867894 C0.457200174,151.87154 1.27467409,151.06589 2.28462927,151.06589 C3.29458445,151.06589 4.11205837,151.87154 4.11205837,152.867894 L4.11205837,178.847511 C4.11251557,179.843415 3.29504165,180.649516 2.28462927,180.649516 Z" id="Path"></path>
                        <path d="M27.8704654,126.585765 L13.2505754,126.585765 C12.2406203,126.585765 11.4231464,125.779664 11.4231464,124.783309 C11.4231464,123.787405 12.2406203,122.981305 13.2505754,122.981305 L27.8713798,122.981305 C28.881335,122.981305 29.6988089,123.787405 29.6988089,124.783309 C29.6978945,125.779664 28.8804206,126.585765 27.8704654,126.585765 Z" id="Path"></path>
                        <path d="M27.8704654,137.398695 C26.8605102,137.398695 26.0430363,136.592595 26.0430363,135.596691 L26.0430363,124.78376 C26.0430363,123.787856 26.8605102,122.981755 27.8704654,122.981755 C28.8804206,122.981755 29.6978945,123.787856 29.6978945,124.78376 L29.6978945,135.596691 C29.6978945,136.592144 28.8804206,137.398695 27.8704654,137.398695 Z" id="Path"></path>
                        <path d="M13.2505754,137.398695 C12.2406203,137.398695 11.4231464,136.592595 11.4231464,135.596691 L11.4231464,124.78376 C11.4231464,123.787856 12.2406203,122.981755 13.2505754,122.981755 C14.2609878,122.981755 15.0784617,123.787856 15.0784617,124.78376 L15.0784617,135.596691 C15.0780045,136.592144 14.2605306,137.398695 13.2505754,137.398695 Z" id="Path"></path>
                        <path d="M35.1815534,137.398695 C34.171141,137.398695 33.3536671,136.592595 33.3536671,135.596691 L33.3536671,124.78376 C33.3536671,123.787856 34.171141,122.981755 35.1815534,122.981755 C36.1915086,122.981755 37.0089825,123.787856 37.0089825,124.78376 L37.0089825,135.596691 C37.0089825,136.592144 36.1915086,137.398695 35.1815534,137.398695 Z" id="Path"></path>
                        <path d="M49.8014434,126.585765 L35.1815534,126.585765 C34.171141,126.585765 33.3536671,125.779664 33.3536671,124.783309 C33.3536671,123.787405 34.171141,122.981305 35.1815534,122.981305 L49.8019006,122.981305 C50.8118558,122.981305 51.6297869,123.787405 51.6297869,124.783309 C51.6288725,125.779664 50.8113986,126.585765 49.8014434,126.585765 Z" id="Path"></path>
                        <path d="M49.8014434,141.002705 C48.7914882,141.002705 47.9735571,140.196604 47.9735571,139.2007 L47.9735571,124.783309 C47.9735571,123.787405 48.791031,122.981305 49.8014434,122.981305 C50.8118558,122.981305 51.6293297,123.787405 51.6293297,124.783309 L51.6293297,139.2007 C51.6288725,140.196604 50.8113986,141.002705 49.8014434,141.002705 Z" id="Path"></path>
                        <path d="M49.8014434,141.002705 L38.8359544,141.002705 C37.8259992,141.002705 37.0085253,140.196604 37.0085253,139.2007 C37.0085253,138.204796 37.8259992,137.398695 38.8359544,137.398695 L49.8014434,137.398695 C50.8113986,137.398695 51.6293297,138.204796 51.6293297,139.2007 C51.6293297,140.196604 50.8113986,141.002705 49.8014434,141.002705 Z" id="Path"></path>
                        <path d="M49.8014434,162.628115 C48.7914882,162.628115 47.9735571,161.822014 47.9735571,160.82611 L47.9735571,146.408719 C47.9735571,145.412365 48.791031,144.606715 49.8014434,144.606715 C50.8118558,144.606715 51.6293297,145.412365 51.6293297,146.408719 L51.6293297,160.82611 C51.6288725,161.822014 50.8113986,162.628115 49.8014434,162.628115 Z" id="Path"></path>
                        <path d="M49.8014434,162.628115 L38.8359544,162.628115 C37.8259992,162.628115 37.0085253,161.822014 37.0085253,160.82611 C37.0085253,159.829755 37.8259992,159.024106 38.8359544,159.024106 L49.8014434,159.024106 C50.8113986,159.024106 51.6293297,159.829755 51.6293297,160.82611 C51.6288725,161.822014 50.8113986,162.628115 49.8014434,162.628115 Z" id="Path"></path>
                        <path d="M49.8014434,148.211175 L38.8359544,148.211175 C37.8259992,148.211175 37.0085253,147.405525 37.0085253,146.40917 C37.0085253,145.412815 37.8259992,144.607165 38.8359544,144.607165 L49.8014434,144.607165 C50.8113986,144.607165 51.6293297,145.412815 51.6293297,146.40917 C51.6293297,147.405525 50.8113986,148.211175 49.8014434,148.211175 Z" id="Path"></path>
                        <path d="M26.0434935,43.6876835 L15.0780045,43.6876835 C14.0680494,43.6876835 13.2501182,42.8815827 13.2501182,41.8856787 C13.2501182,40.8893237 14.0675922,40.083223 15.0780045,40.083223 L26.0434935,40.083223 C27.0534487,40.083223 27.8709226,40.8893237 27.8709226,41.8856787 C27.8704654,42.8815827 27.0534487,43.6876835 26.0434935,43.6876835 Z" id="Path"></path>
                        <path d="M47.9735571,43.6876835 L37.0089825,43.6876835 C35.9990273,43.6876835 35.1815534,42.8815827 35.1815534,41.8856787 C35.1815534,40.8893237 35.9990273,40.083223 37.0089825,40.083223 L47.9740143,40.083223 C48.9844267,40.083223 49.8019006,40.8893237 49.8019006,41.8856787 C49.8014434,42.8815827 48.9844267,43.6876835 47.9735571,43.6876835 Z" id="Path"></path>
                        <path d="M69.9049922,43.6876835 L58.9395032,43.6876835 C57.9295481,43.6876835 57.1116169,42.8815827 57.1116169,41.8856787 C57.1116169,40.8893237 57.9290909,40.083223 58.9395032,40.083223 L69.9049922,40.083223 C70.9149474,40.083223 71.7324213,40.8893237 71.7324213,41.8856787 C71.7324213,42.8815827 70.9149474,43.6876835 69.9049922,43.6876835 Z" id="Path"></path>
                        <path d="M91.835513,43.6876835 L80.8704812,43.6876835 C79.860526,43.6876835 79.0430521,42.8815827 79.0430521,41.8856787 C79.0430521,40.8893237 79.860526,40.083223 80.8704812,40.083223 L91.835513,40.083223 C92.8459254,40.083223 93.6633993,40.8893237 93.6633993,41.8856787 C93.6629421,42.8815827 92.8459254,43.6876835 91.835513,43.6876835 Z" id="Path"></path>
                        <path d="M113.767863,43.6876835 L102.802374,43.6876835 C101.792418,43.6876835 100.974944,42.8815827 100.974944,41.8856787 C100.974944,40.8893237 101.792418,40.083223 102.802374,40.083223 L113.767863,40.083223 C114.777818,40.083223 115.595292,40.8893237 115.595292,41.8856787 C115.595292,42.8815827 114.777818,43.6876835 113.767863,43.6876835 Z" id="Path"></path>
                        <path d="M135.696554,43.6876835 L124.731066,43.6876835 C123.72111,43.6876835 122.904094,42.8815827 122.904094,41.8856787 C122.904094,40.8893237 123.72111,40.083223 124.731066,40.083223 L135.696554,40.083223 C136.70651,40.083223 137.524441,40.8893237 137.524441,41.8856787 C137.524898,42.8815827 136.706967,43.6876835 135.696554,43.6876835 Z" id="Path"></path>
                        <path d="M157.627075,43.6876835 L146.662501,43.6876835 C145.651631,43.6876835 144.834614,42.8815827 144.834614,41.8856787 C144.834614,40.8893237 145.651631,40.083223 146.662501,40.083223 L157.627075,40.083223 C158.637945,40.083223 159.454962,40.8893237 159.454962,41.8856787 C159.454962,42.8815827 158.637945,43.6876835 157.627075,43.6876835 Z" id="Path"></path>
                        <path d="M31.5253236,32.874753 C28.5023161,32.874753 26.0430363,30.4496882 26.0430363,27.4682878 L26.0430363,5.8428777 C26.0430363,2.86147722 28.5023161,0.43641247 31.5253236,0.43641247 C34.5487884,0.43641247 37.0080681,2.86147722 37.0080681,5.8428777 L37.0080681,27.4682878 C37.0089825,30.4496882 34.5492456,32.874753 31.5253236,32.874753 Z M31.5253236,4.0408729 C30.5171972,4.0408729 29.6978945,4.84877698 29.6978945,5.84332854 L29.6978945,27.4687386 C29.6978945,28.4632902 30.5171972,29.2707434 31.5253236,29.2707434 C32.5339072,29.2707434 33.3532099,28.4628393 33.3532099,27.4687386 L33.3532099,5.8428777 C33.3532099,4.84877698 32.5343644,4.0408729 31.5253236,4.0408729 Z" id="Shape" fill-rule="nonzero"></path>
                        <path d="M68.0771059,32.874753 C65.0536412,32.874753 62.5943614,30.4496882 62.5943614,27.4682878 L62.5943614,5.8428777 C62.5943614,2.86147722 65.0536412,0.43641247 68.0771059,0.43641247 C71.1005707,0.43641247 73.5598504,2.86147722 73.5598504,5.8428777 L73.5598504,27.4682878 C73.5598504,30.4496882 71.1005707,32.874753 68.0771059,32.874753 Z M68.0771059,4.0408729 C67.0685223,4.0408729 66.2492196,4.84877698 66.2492196,5.84332854 L66.2492196,27.4687386 C66.2492196,28.4632902 67.0685223,29.2707434 68.0771059,29.2707434 C69.0856895,29.2707434 69.9049922,28.4628393 69.9049922,27.4687386 L69.9049922,5.8428777 C69.9049922,4.84877698 69.0856895,4.0408729 68.0771059,4.0408729 Z" id="Shape" fill-rule="nonzero"></path>
                        <path d="M104.63026,32.874753 C101.606795,32.874753 99.1456866,30.4496882 99.1456866,27.4682878 L99.1456866,5.8428777 C99.1456866,2.86147722 101.606795,0.43641247 104.63026,0.43641247 C107.653267,0.43641247 110.113004,2.86147722 110.113004,5.8428777 L110.113004,27.4682878 C110.113004,30.4496882 107.653267,32.874753 104.63026,32.874753 Z M104.63026,4.0408729 C103.621676,4.0408729 102.801002,4.84877698 102.801002,5.84332854 L102.801002,27.4687386 C102.801002,28.4632902 103.621676,29.2707434 104.63026,29.2707434 C105.638386,29.2707434 106.457689,28.4628393 106.457689,27.4687386 L106.457689,5.8428777 C106.457689,4.84877698 105.638386,4.0408729 104.63026,4.0408729 Z" id="Shape" fill-rule="nonzero"></path>
                        <path d="M141.179756,32.874753 C138.156291,32.874753 135.697012,30.4496882 135.697012,27.4682878 L135.697012,5.8428777 C135.697012,2.86147722 138.156291,0.43641247 141.179756,0.43641247 C144.203221,0.43641247 146.662501,2.86147722 146.662501,5.8428777 L146.662501,27.4682878 C146.662501,30.4496882 144.203221,32.874753 141.179756,32.874753 Z M141.179756,4.0408729 C140.173459,4.0408729 139.35187,4.84877698 139.35187,5.84332854 L139.35187,27.4687386 C139.35187,28.4632902 140.173459,29.2707434 141.179756,29.2707434 C142.186054,29.2707434 143.006728,28.4628393 143.006728,27.4687386 L143.006728,5.8428777 C143.006728,4.84877698 142.185597,4.0408729 141.179756,4.0408729 Z" id="Shape" fill-rule="nonzero"></path>
                        <path d="M57.1111597,18.4578129 L42.4912698,18.4578129 C41.4813146,18.4578129 40.6633835,17.6517122 40.6633835,16.6558082 C40.6633835,15.6594532 41.4808574,14.8533525 42.4912698,14.8533525 L57.1116169,14.8533525 C58.1220293,14.8533525 58.9395032,15.6594532 58.9395032,16.6558082 C58.9395032,17.6517122 58.1220293,18.4578129 57.1111597,18.4578129 Z" id="Path"></path>
                        <path d="M93.6629421,18.4578129 L79.0425949,18.4578129 C78.0326397,18.4578129 77.2151658,17.6517122 77.2151658,16.6558082 C77.2151658,15.6594532 78.0326397,14.8533525 79.0425949,14.8533525 L93.6629421,14.8533525 C94.6728973,14.8533525 95.4908284,15.6594532 95.4908284,16.6558082 C95.4908284,17.6517122 94.6733545,18.4578129 93.6629421,18.4578129 Z" id="Path"></path>
                        <path d="M130.21381,18.4578129 L115.595292,18.4578129 C114.585336,18.4578129 113.767863,17.6517122 113.767863,16.6558082 C113.767863,15.6594532 114.585336,14.8533525 115.595292,14.8533525 L130.21381,14.8533525 C131.223765,14.8533525 132.041696,15.6594532 132.041696,16.6558082 C132.042153,17.6517122 131.223765,18.4578129 130.21381,18.4578129 Z" id="Path"></path>
                        <path d="M175.902281,187.857986 C174.892325,187.857986 174.075309,187.051885 174.075309,186.055981 C174.075309,185.059626 174.892325,184.253525 175.902281,184.253525 C206.135557,184.253525 230.729725,160.002427 230.729725,130.189775 C230.729725,129.193871 231.546742,128.38777 232.556697,128.38777 C233.566653,128.38777 234.384584,129.193871 234.384584,130.189775 C234.384584,161.987923 208.149523,187.857986 175.902281,187.857986 Z" id="Path"></path>
                        <path d="M175.902281,187.857986 C143.65641,187.857986 117.420892,161.987923 117.420892,130.189775 C117.420892,129.193871 118.238366,128.38777 119.249235,128.38777 C120.259191,128.38777 121.076207,129.193871 121.076207,130.189775 C121.076207,160.002427 145.669462,184.253525 175.902738,184.253525 C176.913607,184.253525 177.730624,185.059626 177.730624,186.055981 C177.730624,187.051885 176.91315,187.857986 175.902281,187.857986 Z" id="Path"></path>
                        <path d="M232.557155,131.991779 C231.547199,131.991779 230.730183,131.185679 230.730183,130.189775 C230.730183,96.2411223 208.424758,68.5194628 203.106148,62.3970647 C199.169197,65.3744077 187.978309,72.5337362 180.097092,64.7887674 C173.565073,58.3210264 175.991892,45.7872422 178.030547,38.865506 C164.159094,47.8989736 121.076207,80.0068489 121.076207,130.189775 C121.076207,131.185679 120.259191,131.991779 119.249235,131.991779 C118.238366,131.991779 117.420892,131.185679 117.420892,130.189775 C117.420892,68.5374964 179.864834,33.4504748 180.493485,33.1033285 C181.167855,32.7358945 182.010475,32.8220048 182.592034,33.3233381 C183.174049,33.8282782 183.370645,34.639789 183.081238,35.3471559 C183.002599,35.5423693 175.260829,54.8887866 182.681188,62.2379185 C189.777391,69.2105995 201.977321,58.6690743 202.102594,58.5599712 C202.838229,57.9089592 203.973457,57.9599041 204.651028,58.6744844 C205.865351,59.9521631 234.385041,90.4316067 234.385041,130.189324 C234.384584,131.185679 233.566653,131.991779 232.557155,131.991779 Z" id="Path"></path>
                        <path d="M176.012923,90.542964 C175.002968,90.542964 174.16812,89.7368633 174.16812,88.7405084 C174.16812,87.7446043 174.967306,86.9385036 175.973604,86.9385036 L176.012923,86.9385036 C177.020135,86.9385036 177.840809,87.7446043 177.840809,88.7405084 C177.841267,89.7373141 177.020592,90.542964 176.012923,90.542964 Z" id="Path"></path>
                        <path d="M176.012923,173.441046 C175.002968,173.441046 174.16812,172.634945 174.16812,171.639041 C174.16812,170.643137 174.967306,169.837036 175.973604,169.837036 L176.012923,169.837036 C177.020135,169.837036 177.840809,170.643137 177.840809,171.639041 C177.840809,172.634945 177.020592,173.441046 176.012923,173.441046 Z" id="Path"></path>
                        <path d="M154.996803,96.0973046 C153.986847,96.0973046 153.152,95.2912038 153.152,94.2948489 C153.152,93.298494 153.951186,92.4923933 154.957483,92.4923933 L154.996803,92.4923933 C156.004015,92.4923933 156.824689,93.298494 156.824689,94.2948489 C156.824232,95.2912038 156.004015,96.0973046 154.996803,96.0973046 Z" id="Path"></path>
                        <path d="M197.029958,167.887156 C196.020003,167.887156 195.185155,167.081055 195.185155,166.0847 C195.185155,165.088796 195.984341,164.282695 196.990639,164.282695 L197.029958,164.282695 C198.036255,164.282695 198.857844,165.088796 198.857844,166.0847 C198.858301,167.080604 198.036713,167.887156 197.029958,167.887156 Z" id="Path"></path>
                        <path d="M139.605159,111.267597 C138.595204,111.267597 137.759442,110.461496 137.759442,109.465592 C137.759442,108.469688 138.559542,107.663588 139.56584,107.663588 L139.605159,107.663588 C140.611456,107.663588 141.433045,108.469688 141.433045,109.465592 C141.433045,110.461496 140.611456,111.267597 139.605159,111.267597 Z" id="Path"></path>
                        <path d="M212.415201,152.716412 C211.404331,152.716412 210.569484,151.910312 210.569484,150.914408 C210.569484,149.918504 211.36867,149.112403 212.375882,149.112403 L212.415201,149.112403 C213.421498,149.112403 214.242173,149.918504 214.242173,150.914408 C214.242173,151.910312 213.421956,152.716412 212.415201,152.716412 Z" id="Path"></path>
                        <path d="M133.971995,131.991779 C132.96204,131.991779 132.127193,131.185679 132.127193,130.189775 C132.127193,129.193871 132.926379,128.38777 133.932676,128.38777 L133.971995,128.38777 C134.979207,128.38777 135.799882,129.193871 135.799882,130.189775 C135.799882,131.185679 134.979207,131.991779 133.971995,131.991779 Z" id="Path"></path>
                        <path d="M218.039677,131.991779 C217.029722,131.991779 216.194875,131.185679 216.194875,130.189775 C216.194875,129.193871 216.994061,128.38777 218.000358,128.38777 L218.039677,128.38777 C219.045975,128.38777 219.867564,129.193871 219.867564,130.189775 C219.867564,131.185679 219.046432,131.991779 218.039677,131.991779 Z" id="Path"></path>
                        <path d="M139.598301,152.720019 C138.588346,152.720019 137.752584,151.913918 137.752584,150.918014 C137.752584,149.92211 138.552684,149.11601 139.558982,149.11601 L139.598301,149.11601 C140.604598,149.11601 141.426187,149.92211 141.426187,150.918014 C141.426187,151.913918 140.604598,152.720019 139.598301,152.720019 Z" id="Path"></path>
                        <path d="M212.408343,111.267597 C211.397473,111.267597 210.562626,110.461496 210.562626,109.465592 C210.562626,108.469688 211.361812,107.663588 212.369024,107.663588 L212.408343,107.663588 C213.41464,107.663588 214.235315,108.469688 214.235315,109.465592 C214.235315,110.461496 213.41464,111.267597 212.408343,111.267597 Z" id="Path"></path>
                        <path d="M154.989487,167.893918 C153.979532,167.893918 153.144685,167.087818 153.144685,166.091463 C153.144685,165.095559 153.943871,164.289458 154.950168,164.289458 L154.989487,164.289458 C155.996699,164.289458 156.817374,165.095559 156.817374,166.091463 C156.817374,167.087818 155.996242,167.893918 154.989487,167.893918 Z" id="Path"></path>
                        <path d="M197.0231,96.1009113 C196.013145,96.1009113 195.178297,95.2948106 195.178297,94.2984556 C195.178297,93.3021007 195.977483,92.496 196.983781,92.496 L197.0231,92.496 C198.030312,92.496 198.850986,93.3021007 198.850986,94.2984556 C198.850529,95.2948106 198.030769,96.1009113 197.0231,96.1009113 Z" id="Path"></path>
                        <path d="M175.902281,180.649516 C147.686172,180.649516 124.730608,158.013775 124.730608,130.189775 C124.730608,102.365775 147.686172,79.7300336 175.902281,79.7300336 C204.119304,79.7300336 227.073953,102.365775 227.073953,130.189775 C227.073953,158.013775 204.119761,180.649516 175.902281,180.649516 Z M175.902281,83.334494 C149.702425,83.334494 128.386381,104.354878 128.386381,130.189775 C128.386381,156.024671 149.702425,177.045506 175.902281,177.045506 C202.102137,177.045506 223.419095,156.025122 223.419095,130.189775 C223.419095,104.354427 202.102594,83.334494 175.902281,83.334494 Z" id="Shape" fill-rule="nonzero"></path>
                        <path d="M175.902281,131.991779 C174.892325,131.991779 174.075309,131.185679 174.075309,130.189775 L174.075309,99.5538897 C174.075309,98.5575348 174.892325,97.7514341 175.902281,97.7514341 C176.91315,97.7514341 177.730167,98.5575348 177.730167,99.5538897 L177.730167,130.189775 C177.730624,131.185679 176.91315,131.991779 175.902281,131.991779 Z" id="Path"></path>
                        <path d="M196.006287,151.815185 C195.538571,151.815185 195.071312,151.639357 194.714239,151.287703 L174.61069,131.463847 C173.897001,130.759635 173.897001,129.619463 174.61069,128.915703 C175.324837,128.211492 176.481553,128.211492 177.194785,128.915703 L197.298334,148.739559 C198.012481,149.443319 198.012481,150.583492 197.298334,151.287703 C196.941261,151.639357 196.474002,151.815185 196.006287,151.815185 Z" id="Path"></path>
                        <path d="M111.940433,119.377295 L100.972658,119.377295 C99.9627033,119.377295 99.1447722,118.571194 99.1447722,117.57529 C99.1447722,116.578935 99.9622461,115.772835 100.972658,115.772835 L111.939976,115.772835 C112.949931,115.772835 113.767405,116.578935 113.767405,117.57529 C113.767863,118.571194 112.950389,119.377295 111.940433,119.377295 Z" id="Path"></path>
                        <path d="M137.524898,65.3130935 C136.514028,65.3130935 135.697012,64.5069928 135.697012,63.5106379 L135.697012,59.9066283 C135.697012,58.9102734 136.514028,58.1041727 137.524898,58.1041727 C138.534853,58.1041727 139.35187,58.9102734 139.35187,59.9066283 L139.35187,63.5106379 C139.35187,64.5074436 138.534853,65.3130935 137.524898,65.3130935 Z" id="Path"></path>
                        <path d="M126.558952,76.126024 L122.904094,76.126024 C121.894138,76.126024 121.076207,75.3199233 121.076207,74.3235683 C121.076207,73.3272134 121.894138,72.5211127 122.904094,72.5211127 L126.558952,72.5211127 C127.568907,72.5211127 128.386838,73.3272134 128.386838,74.3235683 C128.386838,75.3199233 127.568907,76.126024 126.558952,76.126024 Z" id="Path"></path>
                        <path d="M115.595292,162.628115 C114.585336,162.628115 113.767863,161.822014 113.767863,160.82611 L113.767863,153.61764 C113.767863,152.621736 114.585336,151.815185 115.595292,151.815185 C116.605247,151.815185 117.422721,152.621736 117.422721,153.61764 L117.422721,160.82611 C117.422264,161.822014 116.605704,162.628115 115.595292,162.628115 Z" id="Path"></path>
                        <path d="M111.940433,148.211175 L100.972658,148.211175 C99.9627033,148.211175 99.1447722,147.405525 99.1447722,146.40917 C99.1447722,145.412815 99.9622461,144.607165 100.972658,144.607165 L111.939976,144.607165 C112.949931,144.607165 113.767405,145.412815 113.767405,146.40917 C113.767405,147.405525 112.950389,148.211175 111.940433,148.211175 Z" id="Path"></path>
                    </g>
                </g>
            </g>
        </g>
    </g>
</svg>