<?xml version="1.0" encoding="UTF-8"?>
<svg width="280px" height="280px" viewBox="0 0 280 280" version="1.1" xmlns="http://www.w3.org/2000/svg" xmlns:xlink="http://www.w3.org/1999/xlink">
    <!-- Generator: Sketch 52.6 (67491) - http://www.bohemiancoding.com/sketch -->
    <title>Group 6</title>
    <desc>Created with Sketch.</desc>
    <g id="Page-1" stroke="none" stroke-width="1" fill="none" fill-rule="evenodd">
        <g id="Group-6">
            <rect id="Rectangle" stroke="#FFFFFF" fill-opacity="0" fill="#FCFCFC" x="0.5" y="0.5" width="279" height="279" rx="8"></rect>
            <g id="truck" transform="translate(18.000000, 46.000000)">
                <rect id="Rectangle" fill="#FF8F00" x="3.8989899" y="0.898989899" width="156.666667" height="148.121212"></rect>
                <rect id="Rectangle" fill="#F8B631" x="3.8989899" y="0.898989899" width="3.7979798" height="148.121212"></rect>
                <rect id="Rectangle" fill="#F8B631" x="156.767677" y="0.898989899" width="3.7979798" height="148.121212"></rect>
                <polygon id="Path" fill="#F8B631" points="160.565657 163.262626 22.9617799 163.262626 11.4949495 150.919192 160.565657 150.919192"></polygon>
                <path d="M193.797651,136.676768 C178.605878,136.676768 167.212048,136.676768 167.212048,136.676768 L159.616162,149.84806 L159.616162,171.799298 L168.187889,171.808081 L168.187889,158.628555 L208.989899,158.628555 C208.989424,158.629104 208.989899,136.676768 193.797651,136.676768 Z" id="Path" fill="#FF8F00"></path>
                <path d="M193.797651,136.676768 C178.605878,136.676768 167.212048,136.676768 167.212048,136.676768 L159.616162,149.84806 L159.616162,171.799298 L168.187889,171.808081 L168.187889,158.628555 L208.989899,158.628555 C208.989424,158.629104 208.989899,136.676768 193.797651,136.676768 Z" id="Path" fill="#F8B631"></path>
                <path d="M191.153922,67.3636364 C226.368736,67.3636364 234.609227,103.607737 236.525253,120.535354 L229.474911,120.535354 C214.146707,120.535354 217.978758,98.3807022 202.650075,98.3807022 C187.321871,98.3807022 168.161616,98.3807022 168.161616,98.3807022 L168.161616,67.3641904 L191.153922,67.3641904 L191.153922,67.3636364 Z" id="Path" fill="#FF8F00"></path>
                <path d="M60.8686869,165.636364 C60.8686869,176.382454 53.0008306,185.10101 43.3032743,185.10101 C33.6057181,185.10101 25.7373737,176.382454 25.7373737,165.636364 C25.7373737,154.890274 33.6057181,146.171717 43.3032743,146.171717 C53.0008306,146.171717 60.8686869,154.890274 60.8686869,165.636364 Z" id="Path" fill="#FF8F00"></path>
                <path d="M30.4852284,165.636364 C30.4852284,155.63336 37.1460099,147.481042 45.6767677,146.390749 C45.0461611,146.306922 44.4302751,146.171717 43.7778253,146.171717 C34.34247,146.171717 26.6868687,154.890274 26.6868687,165.636364 C26.6868687,176.382454 34.34247,185.10101 43.7778253,185.10101 C44.4307499,185.10101 45.0461611,184.965805 45.6767677,184.881437 C37.1460099,183.791685 30.4852284,175.639367 30.4852284,165.636364 Z" id="Path" fill="#F8B631"></path>
                <path d="M58.020202,165.636364 C58.020202,175.639367 51.3587791,183.791685 42.8282828,184.881437 C43.4589051,184.965805 44.0743317,185.10101 44.7272727,185.10101 C54.1628639,185.10101 61.8181818,176.382454 61.8181818,165.636364 C61.8181818,154.890274 54.1628639,146.171717 44.7272727,146.171717 C44.0743317,146.171717 43.4589051,146.306922 42.8282828,146.390749 C51.3587791,147.480501 58.020202,155.63336 58.020202,165.636364 Z" id="Path" fill="#F8B631"></path>
                <path d="M53.2727273,164.686869 C53.2727273,170.709217 49.0146021,175.606061 43.7777778,175.606061 C38.5404786,175.606061 34.2828283,170.709217 34.2828283,164.686869 C34.2828283,158.664521 38.5404786,153.767677 43.7777778,153.767677 C49.0146021,153.767677 53.2727273,158.663975 53.2727273,164.686869 Z" id="Path" fill="#F8B631"></path>
                <path d="M202.343434,165.636364 C202.343434,176.382454 194.475469,185.10101 184.777778,185.10101 C175.080087,185.10101 167.212121,176.382454 167.212121,165.636364 C167.212121,154.890274 175.080087,146.171717 184.777778,146.171717 C194.475469,146.171717 202.343434,154.890274 202.343434,165.636364 Z" id="Path" fill="#FF8F00"></path>
                <path d="M171.010101,165.636364 C171.010101,155.63336 177.671049,147.481042 186.20202,146.390749 C185.571398,146.306922 184.955971,146.171717 184.30303,146.171717 C174.867439,146.171717 167.212121,154.890274 167.212121,165.636364 C167.212121,176.382454 174.867439,185.10101 184.30303,185.10101 C184.955971,185.10101 185.571398,184.965805 186.20202,184.881437 C177.671049,183.791685 171.010101,175.639367 171.010101,165.636364 Z" id="Path" fill="#F8B631"></path>
                <path d="M197.59596,165.636364 C197.59596,175.639367 190.935012,183.791685 182.40404,184.881437 C183.034663,184.965805 183.650564,185.10101 184.30303,185.10101 C193.738622,185.10101 201.393939,176.382454 201.393939,165.636364 C201.393939,154.890274 193.738622,146.171717 184.30303,146.171717 C183.650564,146.171717 183.034663,146.306922 182.40404,146.390749 C190.935012,147.480501 197.59596,155.63336 197.59596,165.636364 Z" id="Path" fill="#F8B631"></path>
                <polygon id="Path" fill="#F8B631" points="244.121212 146.171717 244.121212 158.515152 231.777778 158.515152 231.777778 146.171717 231.858545 146.171717 240.006734 146.171717"></polygon>
                <path d="M168.161616,136.465276 L168.161616,97.7474747 C168.161616,97.7474747 187.41513,97.7474747 202.817941,97.7474747 C218.221234,97.7474747 214.370531,119.450023 229.773342,119.450023 L236.858,119.450023 C237.474747,124.613264 237.474747,128.046381 237.474747,128.131042 L233.624045,132.471551 L233.624045,145.493623 L233.624045,158.515152 L210.519347,158.515152 C210.519347,158.515152 210.519347,136.812061 195.116536,136.812061 C179.713724,136.812061 168.161616,136.812061 168.161616,136.812061 L168.161616,136.465276 Z" id="Path" fill="#F8B631"></path>
                <g id="Group" transform="translate(185.252525, 67.363636)" fill="#FFFFFF">
                    <path d="M8.13669697,30.3496566 L15.0153131,1.01568831 C12.6273333,0.506759019 10.0869596,0.181217893 7.37282828,0.0835555556 L0.275353535,30.3496566 C2.81192929,30.3496566 5.46291919,30.3496566 8.13669697,30.3496566 Z" id="Path"></path>
                    <path d="M12.0671313,30.3496566 L18.7268889,1.96301299 C18.1187374,1.77040115 17.5177071,1.56693795 16.8872424,1.40145455 L10.1016768,30.3496566 C10.7620505,30.3496566 11.4143535,30.3496566 12.0671313,30.3496566 Z" id="Path"></path>
                </g>
                <path d="M118.787879,76.3841121 C118.787879,98.1448097 103.272033,115.787879 84.1313131,115.787879 C64.9925193,115.787879 49.4747475,98.1448097 49.4747475,76.3841121 C49.4747475,54.6228671 64.9920378,36.979798 84.1313131,36.979798 C103.272033,36.9792506 118.787879,54.6228671 118.787879,76.3841121 Z" id="Path" fill="#FDFDFD"></path>
                <g id="Group" fill="#773C80">
                    <path d="M230.620538,161.794435 L207.748887,161.794435 C206.699409,161.794435 205.847245,160.819559 205.843432,159.61527 C205.839619,158.814771 205.646119,140.002783 192.501437,140.002783 L165.8184,140.002783 C164.764633,140.002783 163.912468,139.027907 163.912468,137.823072 L163.912468,68.0892406 C163.912468,66.8844058 164.764633,65.9100754 165.8184,65.9100754 L188.689574,65.9100754 C201.53638,65.9100754 212.119327,70.5664812 220.141491,79.7534145 C236.189632,98.1229217 236.338332,127.854713 236.338332,129.105867 C236.338332,129.68458 236.137206,130.238226 235.779754,130.646922 L232.526469,134.366597 L232.526469,159.614725 C232.526469,160.819559 231.673828,161.794435 230.620538,161.794435 Z M209.580945,157.436104 L228.714607,157.436104 L228.714607,133.464742 C228.714607,132.886029 228.915733,132.332928 229.273184,131.924232 L232.507882,128.225809 C232.403506,124.803664 231.696229,111.971165 226.946414,99.3386551 C219.687289,80.0493101 206.814747,70.2684058 188.689098,70.2684058 L167.723854,70.2684058 L167.723854,135.644452 L192.50096,135.644452 C204.957429,135.643907 208.999967,148.855675 209.580945,157.436104 Z" id="Shape" fill-rule="nonzero"></path>
                    <path d="M238.244263,144.361113 C237.190973,144.361113 236.338332,143.386238 236.338332,142.181948 L236.338332,133.464742 C236.338332,132.260452 237.190973,131.286122 238.244263,131.286122 C239.297553,131.286122 240.150194,132.260452 240.150194,133.464742 L240.150194,142.181948 C240.150194,143.385693 239.297553,144.361113 238.244263,144.361113 Z" id="Path"></path>
                    <path d="M242.056125,148.719443 L234.499601,148.719443 C233.446311,148.719443 232.59367,147.744568 232.59367,146.540278 C232.59367,145.335443 233.446311,144.361113 234.499601,144.361113 L242.056125,144.361113 C243.109892,144.361113 243.962057,145.335443 243.962057,146.540278 C243.962057,147.744568 243.109892,148.719443 242.056125,148.719443 Z" id="Path"></path>
                    <path d="M242.056125,161.794435 C241.002835,161.794435 240.150194,160.819559 240.150194,159.61527 L240.150194,146.540278 C240.150194,145.335443 241.002835,144.361113 242.056125,144.361113 C243.109892,144.361113 243.962057,145.335443 243.962057,146.540278 L243.962057,159.61527 C243.962057,160.819559 243.109892,161.794435 242.056125,161.794435 Z" id="Path"></path>
                    <path d="M242.056125,161.794435 L234.4324,161.794435 C233.37911,161.794435 232.526469,160.819559 232.526469,159.61527 C232.526469,158.41098 233.37911,157.436104 234.4324,157.436104 L242.056125,157.436104 C243.109892,157.436104 243.962057,158.41098 243.962057,159.61527 C243.962057,160.819559 243.109892,161.794435 242.056125,161.794435 Z" id="Path"></path>
                    <path d="M182.971781,187.944417 C172.462708,187.944417 163.912468,178.168417 163.912468,166.152765 C163.912468,154.137113 172.462708,144.361113 182.971781,144.361113 C193.480854,144.361113 202.03157,154.137113 202.03157,166.152765 C202.03157,178.168417 193.480854,187.944417 182.971781,187.944417 Z M182.971781,148.719443 C174.562616,148.719443 167.724331,156.541878 167.724331,166.152765 C167.724331,175.763652 174.563092,183.586087 182.971781,183.586087 C191.381422,183.586087 198.219707,175.763652 198.219707,166.152765 C198.219707,156.541878 191.380946,148.719443 182.971781,148.719443 Z" id="Shape" fill-rule="nonzero"></path>
                    <path d="M182.971781,179.227757 C176.66586,179.227757 171.536193,173.362701 171.536193,166.152765 C171.536193,158.942829 176.66586,153.077774 182.971781,153.077774 C189.277701,153.077774 194.407845,158.942829 194.407845,166.152765 C194.407845,173.362701 189.277701,179.227757 182.971781,179.227757 Z M182.971781,157.436104 C178.769105,157.436104 175.348056,161.343235 175.348056,166.152765 C175.348056,170.962296 178.769105,174.869426 182.971781,174.869426 C187.174457,174.869426 190.595506,170.962296 190.595506,166.152765 C190.595506,161.343235 187.174457,157.436104 182.971781,157.436104 Z" id="Shape" fill-rule="nonzero"></path>
                    <path d="M183.087118,161.794435 C182.033828,161.794435 181.1626,160.819559 181.1626,159.61527 C181.1626,158.41098 181.996653,157.436104 183.046131,157.436104 L183.087118,157.436104 C184.136596,157.436104 184.99305,158.41098 184.99305,159.61527 C184.99305,160.819559 184.136596,161.794435 183.087118,161.794435 Z" id="Path"></path>
                    <path d="M183.087118,174.869426 C182.033828,174.869426 181.1626,173.894551 181.1626,172.690261 C181.1626,171.485971 181.996653,170.511096 183.046131,170.511096 L183.087118,170.511096 C184.136596,170.511096 184.99305,171.485971 184.99305,172.690261 C184.99305,173.894551 184.136596,174.869426 183.087118,174.869426 Z" id="Path"></path>
                    <path d="M178.136177,165.06291 C177.08241,165.06291 176.211659,164.08858 176.211659,162.88429 C176.211659,161.679455 177.045235,160.70458 178.09519,160.70458 L178.136177,160.70458 C179.185655,160.70458 180.042109,161.679455 180.042109,162.88429 C180.042109,164.08858 179.185655,165.06291 178.136177,165.06291 Z" id="Path"></path>
                    <path d="M188.038536,171.600951 C186.984769,171.600951 186.114017,170.626075 186.114017,169.421241 C186.114017,168.216951 186.947594,167.24262 187.997548,167.24262 L188.038536,167.24262 C189.088014,167.24262 189.944467,168.216951 189.944467,169.421241 C189.944467,170.626075 189.088014,171.600951 188.038536,171.600951 Z" id="Path"></path>
                    <path d="M178.136177,171.600951 C177.08241,171.600951 176.211659,170.626075 176.211659,169.421241 C176.211659,168.216951 177.045235,167.24262 178.09519,167.24262 L178.136177,167.24262 C179.185655,167.24262 180.042109,168.216951 180.042109,169.421241 C180.042109,170.626075 179.185655,171.600951 178.136177,171.600951 Z" id="Path"></path>
                    <path d="M188.038536,165.06291 C186.984769,165.06291 186.114017,164.08858 186.114017,162.88429 C186.114017,161.679455 186.947594,160.70458 187.997548,160.70458 L188.038536,160.70458 C189.088014,160.70458 189.944467,161.679455 189.944467,162.88429 C189.944467,164.08858 189.088014,165.06291 188.038536,165.06291 Z" id="Path"></path>
                    <path d="M183.087118,168.33193 C182.033828,168.33193 181.1626,167.3576 181.1626,166.152765 C181.1626,164.94793 181.996653,163.9736 183.046131,163.9736 L183.087118,163.9736 C184.136596,163.9736 184.99305,164.94793 184.99305,166.152765 C184.99305,167.3576 184.136596,168.33193 183.087118,168.33193 Z" id="Path"></path>
                    <path d="M41.9309636,187.944417 C31.4218904,187.944417 22.8711747,178.168417 22.8711747,166.152765 C22.8711747,154.137113 31.4218904,144.361113 41.9309636,144.361113 C52.4395601,144.361113 60.9902758,154.137113 60.9902758,166.152765 C60.9902758,178.168417 52.4395601,187.944417 41.9309636,187.944417 Z M41.9309636,148.719443 C33.5232285,148.719443 26.6830372,156.541878 26.6830372,166.152765 C26.6830372,175.763652 33.5232285,183.586087 41.9309636,183.586087 C50.3382221,183.586087 57.1784134,175.763652 57.1784134,166.152765 C57.1784134,156.541878 50.3382221,148.719443 41.9309636,148.719443 Z" id="Shape" fill-rule="nonzero"></path>
                    <path d="M41.9309636,179.227757 C35.6250431,179.227757 30.4953762,173.362701 30.4953762,166.152765 C30.4953762,158.942829 35.6250431,153.077774 41.9309636,153.077774 C48.2368841,153.077774 53.3665509,158.942829 53.3665509,166.152765 C53.3665509,173.362701 48.2368841,179.227757 41.9309636,179.227757 Z M41.9309636,157.436104 C37.7263811,157.436104 34.3072387,161.343235 34.3072387,166.152765 C34.3072387,170.962296 37.7263811,174.869426 41.9309636,174.869426 C46.135546,174.869426 49.5546885,170.962296 49.5546885,166.152765 C49.5546885,161.343235 46.135546,157.436104 41.9309636,157.436104 Z" id="Shape" fill-rule="nonzero"></path>
                    <path d="M42.0443948,161.794435 C40.9925343,161.794435 40.1198761,160.819559 40.1198761,159.61527 C40.1198761,158.41098 40.953453,157.436104 42.0072199,157.436104 L42.0443948,157.436104 C43.0976852,157.436104 43.9503261,158.41098 43.9503261,159.61527 C43.9503261,160.819559 43.0976852,161.794435 42.0443948,161.794435 Z" id="Path"></path>
                    <path d="M42.0443948,174.869426 C40.9925343,174.869426 40.1198761,173.894551 40.1198761,172.690261 C40.1198761,171.485971 40.953453,170.511096 42.0072199,170.511096 L42.0443948,170.511096 C43.0976852,170.511096 43.9503261,171.485971 43.9503261,172.690261 C43.9503261,173.894551 43.0976852,174.869426 42.0443948,174.869426 Z" id="Path"></path>
                    <path d="M37.0934537,165.06291 C36.0420698,165.06291 35.168935,164.08858 35.168935,162.88429 C35.168935,161.679455 36.0029884,160.70458 37.0562788,160.70458 L37.0934537,160.70458 C38.1472206,160.70458 38.9993849,161.679455 38.9993849,162.88429 C38.9993849,164.08858 38.1472206,165.06291 37.0934537,165.06291 Z" id="Path"></path>
                    <path d="M46.995336,171.600951 C45.9439521,171.600951 45.0708173,170.626075 45.0708173,169.421241 C45.0708173,168.216951 45.9048707,167.24262 46.958161,167.24262 L46.995336,167.24262 C48.0491029,167.24262 48.9012672,168.216951 48.9012672,169.421241 C48.9012672,170.626075 48.0491029,171.600951 46.995336,171.600951 Z" id="Path"></path>
                    <path d="M37.0934537,171.600951 C36.0420698,171.600951 35.168935,170.626075 35.168935,169.421241 C35.168935,168.216951 36.0029884,167.24262 37.0562788,167.24262 L37.0934537,167.24262 C38.1472206,167.24262 38.9993849,168.216951 38.9993849,169.421241 C38.9993849,170.626075 38.1472206,171.600951 37.0934537,171.600951 Z" id="Path"></path>
                    <path d="M46.995336,165.06291 C45.9439521,165.06291 45.0708173,164.08858 45.0708173,162.88429 C45.0708173,161.679455 45.9048707,160.70458 46.958161,160.70458 L46.995336,160.70458 C48.0491029,160.70458 48.9012672,161.679455 48.9012672,162.88429 C48.9012672,164.08858 48.0491029,165.06291 46.995336,165.06291 Z" id="Path"></path>
                    <path d="M42.0443948,168.33193 C40.9925343,168.33193 40.1198761,167.3576 40.1198761,166.152765 C40.1198761,164.94793 40.953453,163.9736 42.0072199,163.9736 L42.0443948,163.9736 C43.0976852,163.9736 43.9503261,164.94793 43.9503261,166.152765 C43.9503261,167.3576 43.0976852,168.33193 42.0443948,168.33193 Z" id="Path"></path>
                    <path d="M226.808676,122.568371 C218.104971,122.568371 214.773523,116.21833 211.832412,110.61702 C209.062878,105.335038 206.669383,100.776174 200.125162,100.776174 L173.442125,100.776174 C172.388358,100.776174 171.536193,99.8018435 171.536193,98.5970087 C171.536193,97.3921739 172.388358,96.4178435 173.442125,96.4178435 L200.125162,96.4178435 C208.828867,96.4178435 212.160314,102.767884 215.101425,108.369739 C217.871436,113.651177 220.264454,118.210041 226.808676,118.210041 C227.861966,118.210041 228.714607,119.184916 228.714607,120.389206 C228.714607,121.594041 227.861966,122.568371 226.808676,122.568371 Z" id="Path"></path>
                    <path d="M181.06585,118.210041 L173.442125,118.210041 C172.388358,118.210041 171.536193,117.23571 171.536193,116.030875 C171.536193,114.826586 172.388358,113.85171 173.442125,113.85171 L181.06585,113.85171 C182.119616,113.85171 182.971781,114.826586 182.971781,116.030875 C182.971781,117.23571 182.119616,118.210041 181.06585,118.210041 Z" id="Path"></path>
                    <path d="M158.194198,153.077774 C157.836747,153.077774 157.475482,152.967154 157.155206,152.728475 C156.273016,152.072928 156.023753,150.719328 156.596628,149.710667 L164.22083,136.295096 C164.797518,135.286435 165.981398,135.005797 166.856439,135.652626 C167.738629,136.307629 167.987892,137.661774 167.41454,138.66989 L159.790815,152.085461 C159.426214,152.728475 158.816164,153.077774 158.194198,153.077774 Z" id="Path"></path>
                    <path d="M158.194198,174.869426 C157.140431,174.869426 156.288267,173.894551 156.288267,172.690261 L156.288267,150.898609 C156.288267,149.693774 157.140431,148.719443 158.194198,148.719443 C159.247489,148.719443 160.100129,149.693774 160.100129,150.898609 L160.100129,172.690261 C160.100129,173.894551 159.247489,174.869426 158.194198,174.869426 Z" id="Path"></path>
                    <path d="M154.382336,166.152765 L62.8962071,166.152765 C61.8429167,166.152765 60.9902758,165.17789 60.9902758,163.9736 C60.9902758,162.76931 61.8429167,161.794435 62.8962071,161.794435 L154.382336,161.794435 C155.435626,161.794435 156.288267,162.76931 156.288267,163.9736 C156.288267,165.17789 155.435626,166.152765 154.382336,166.152765 Z" id="Path"></path>
                    <path d="M154.382336,153.077774 L59.0843446,153.077774 C58.0310543,153.077774 57.1784134,152.102899 57.1784134,150.898609 C57.1784134,149.693774 58.0310543,148.719443 59.0843446,148.719443 L154.382336,148.719443 C155.435626,148.719443 156.288267,149.693774 156.288267,150.898609 C156.288267,152.102899 155.435626,153.077774 154.382336,153.077774 Z" id="Path"></path>
                    <path d="M158.194198,140.002238 C157.140431,140.002238 156.288267,139.027362 156.288267,137.822528 L156.288267,2.7131942 C156.288267,1.50835942 157.140431,0.534028986 158.194198,0.534028986 C159.247489,0.534028986 160.100129,1.50835942 160.100129,2.7131942 L160.100129,137.822528 C160.100129,139.027362 159.247489,140.002238 158.194198,140.002238 Z" id="Path"></path>
                    <path d="M158.194198,4.89235942 L1.90593123,4.89235942 C0.852640901,4.89235942 0,3.91748406 0,2.7131942 C0,1.50835942 0.852640901,0.534028986 1.90593123,0.534028986 L158.194675,0.534028986 C159.247965,0.534028986 160.100606,1.50835942 160.100606,2.7131942 C160.100129,3.91748406 159.247489,4.89235942 158.194198,4.89235942 Z" id="Path"></path>
                    <path d="M1.90593123,153.077774 C0.852640901,153.077774 0,152.102899 0,150.898609 L0,2.7131942 C0,1.50835942 0.852640901,0.534028986 1.90593123,0.534028986 C2.95969815,0.534028986 3.81186245,1.50835942 3.81186245,2.7131942 L3.81186245,150.898609 C3.81186245,152.102899 2.95969815,153.077774 1.90593123,153.077774 Z" id="Path"></path>
                    <path d="M24.7771059,153.077774 L1.90593123,153.077774 C0.852640901,153.077774 0,152.102899 0,150.898609 C0,149.693774 0.852640901,148.719443 1.90593123,148.719443 L24.7775825,148.719443 C25.8308729,148.719443 26.6835138,149.693774 26.6835138,150.898609 C26.6830372,152.102899 25.8308729,153.077774 24.7771059,153.077774 Z" id="Path"></path>
                    <path d="M20.9652435,166.152765 C20.4776797,166.152765 19.9901159,165.939699 19.6174132,165.51411 L11.9936882,156.797449 C11.249236,155.946272 11.249236,154.567061 11.9936882,153.716429 C12.7381405,152.865252 13.9444201,152.865252 14.6888723,153.716429 L22.3125972,162.43309 C23.0570495,163.284267 23.0570495,164.663478 22.3125972,165.51411 C21.9408477,165.939699 21.4528073,166.152765 20.9652435,166.152765 Z" id="Path"></path>
                    <path d="M17.153381,161.794435 L5.71779368,161.794435 C4.66450335,161.794435 3.81186245,160.819559 3.81186245,159.61527 C3.81186245,158.41098 4.66450335,157.436104 5.71779368,157.436104 L17.1538576,157.436104 C18.207148,157.436104 19.0597889,158.41098 19.0597889,159.61527 C19.0597889,160.819559 18.207148,161.794435 17.153381,161.794435 Z" id="Path"></path>
                    <path d="M81.9559959,166.152765 C80.9027056,166.152765 80.0500647,165.17789 80.0500647,163.9736 L80.0500647,159.61527 C80.0500647,158.41098 80.9027056,157.436104 81.9559959,157.436104 C83.0092863,157.436104 83.8619272,158.41098 83.8619272,159.61527 L83.8619272,163.9736 C83.8619272,165.17789 83.0092863,166.152765 81.9559959,166.152765 Z" id="Path"></path>
                    <path d="M104.827647,166.152765 C103.774357,166.152765 102.921716,165.17789 102.921716,163.9736 L102.921716,159.61527 C102.921716,158.41098 103.774357,157.436104 104.827647,157.436104 C105.880938,157.436104 106.733578,158.41098 106.733578,159.61527 L106.733578,163.9736 C106.733578,165.17789 105.880938,166.152765 104.827647,166.152765 Z" id="Path"></path>
                    <path d="M127.698822,166.152765 C126.645532,166.152765 125.792891,165.17789 125.792891,163.9736 L125.792891,159.61527 C125.792891,158.41098 126.645532,157.436104 127.698822,157.436104 C128.752589,157.436104 129.604753,158.41098 129.604753,159.61527 L129.604753,163.9736 C129.604753,165.17789 128.752589,166.152765 127.698822,166.152765 Z" id="Path"></path>
                    <path d="M211.561226,96.4183884 C210.507459,96.4183884 209.655295,95.444058 209.655295,94.2392232 L209.655295,81.1642319 C209.655295,79.9593971 210.507459,78.9850667 211.561226,78.9850667 C212.614516,78.9850667 213.467157,79.9593971 213.467157,81.1642319 L213.467157,94.2392232 C213.467157,95.444058 212.614516,96.4183884 211.561226,96.4183884 Z" id="Path"></path>
                    <path d="M89.5801974,87.7017275 C89.0926336,87.7017275 88.6045932,87.4886609 88.2323671,87.0630725 L72.9849173,69.6297507 C72.240465,68.7785739 72.240465,67.3993623 72.9849173,66.5481855 C73.7293696,65.6970087 74.9356491,65.6970087 75.6801014,66.5481855 L90.9275512,83.9820522 C91.6720034,84.833229 91.6720034,86.2124406 90.9275512,87.0630725 C90.5548484,87.4886609 90.0677612,87.7017275 89.5801974,87.7017275 Z" id="Path"></path>
                    <path d="M74.332271,70.2684058 C73.8447072,70.2684058 73.3571434,70.0553391 72.9844407,69.6297507 C72.2399884,68.7785739 72.2399884,67.3993623 72.9844407,66.5481855 L111.103542,22.9648812 C111.847994,22.1137043 113.054274,22.1137043 113.798249,22.9648812 C114.542702,23.816058 114.542702,25.1952696 113.798249,26.0459014 L75.6796248,69.6297507 C75.3073986,70.0553391 74.8198348,70.2684058 74.332271,70.2684058 Z" id="Path"></path>
                    <path d="M59.1739458,108.310342 C58.7235569,108.310342 58.2712617,108.131606 57.9085676,107.761055 C50.176654,99.9086493 45.7433026,88.6253797 45.7433026,76.8053565 C45.7433026,53.9750725 61.9887569,35.4006725 81.9564725,35.4006725 C84.6626185,35.4006725 87.3578025,35.7434319 89.9691046,36.4158725 C90.9966585,36.6817971 91.6405477,37.847942 91.4098724,39.0206261 C91.1772906,40.1949449 90.145924,40.9273275 89.131715,40.6673971 C86.7939824,40.0652522 84.3795169,39.758458 81.9564725,39.758458 C64.090095,39.758458 49.5551651,56.377113 49.5551651,76.8048116 C49.5551651,87.3791304 53.523353,97.4750029 60.4398006,104.500209 C61.227147,105.300162 61.2976841,106.67447 60.5999388,107.57687 C60.2215169,108.06349 59.6986845,108.310342 59.1739458,108.310342 Z" id="Path"></path>
                    <path d="M81.9559959,118.210041 C79.2384116,118.210041 76.5303593,117.861287 73.9023761,117.180128 C72.8767287,116.916383 72.2328394,115.749693 72.4649446,114.575374 C72.6975263,113.401055 73.7217439,112.659954 74.7469147,112.932417 C77.0979922,113.540557 79.5229429,113.85171 81.9555193,113.85171 C99.8218969,113.85171 114.356827,97.2330551 114.356827,76.8059014 C114.356827,66.2822609 110.422001,56.2185391 103.559409,49.1976928 C102.775876,48.3950145 102.708675,47.0185275 103.41071,46.120487 C104.114174,45.2229913 105.314734,45.1483362 106.101604,45.9504696 C113.77013,53.7963362 118.168213,65.0436406 118.168213,76.8059014 C118.169166,99.6361855 101.924188,118.210041 81.9559959,118.210041 Z" id="Path"></path>
                    <path d="M55.2724822,126.927246 C54.7849184,126.927246 54.2973546,126.71418 53.9251284,126.288591 C53.1806762,125.437414 53.1806762,124.058203 53.9251284,123.207026 L88.2318905,83.9820522 C88.9763428,83.1308754 90.1826223,83.1308754 90.9270746,83.9820522 C91.6715268,84.833229 91.6715268,86.2124406 90.9270746,87.0630725 L56.6198359,126.288591 C56.2480864,126.714725 55.7605226,126.927246 55.2724822,126.927246 Z" id="Path"></path>
                </g>
            </g>
        </g>
    </g>
</svg>