<?xml version="1.0" encoding="UTF-8"?>
<svg width="280px" height="280px" viewBox="0 0 280 280" version="1.1" xmlns="http://www.w3.org/2000/svg" xmlns:xlink="http://www.w3.org/1999/xlink">
    <!-- Generator: Sketch 52.6 (67491) - http://www.bohemiancoding.com/sketch -->
    <title>Group 15</title>
    <desc>Created with Sketch.</desc>
    <g id="Page-1" stroke="none" stroke-width="1" fill="none" fill-rule="evenodd">
        <g id="Group-15">
            <g id="operating-system" transform="translate(37.000000, 46.000000)">
                <path d="M193.936842,15.8315789 L193.936842,116.757895 L9.89473684,116.757895 L9.89473684,15.8315789 L22.809944,15.8315789 L35.7251511,15.8315789 L48.6403582,15.8315789 L61.5555654,15.8315789 L74.4707725,15.8315789 L145.504412,15.8315789 L151.962015,15.8315789 L158.419619,15.8315789 L164.877222,15.8315789 L171.334826,15.8315789 L181.021231,15.8315789 L187.478835,15.8315789 L193.936842,15.8315789 Z M164.877626,61.4110216 L164.877626,41.8769747 L151.962419,41.8769747 L151.962419,35.3656258 L139.047212,35.3656258 L135.81841,41.8769747 L135.81841,61.4110216 L164.877626,61.4110216 Z M153.577224,110.246546 L147.11962,100.479522 L141.308342,100.479522 L143.890414,87.4568245 L127.746406,87.4568245 L130.328478,100.479522 L121.288398,100.479522 L121.288398,103.735197 L113.21599,87.4568245 L105.144389,103.735197 L105.144389,100.479522 L97.072385,100.479522 C99.4291923,97.2873494 99.203927,92.7315219 96.3299785,89.8320258 C93.1657689,86.6744531 88.0637938,86.6744531 84.8999879,89.8320258 C82.0260395,92.7315219 81.8003705,97.2873494 84.1575815,100.479522 L76.0855771,100.479522 L76.0855771,87.4568245 L59.9415682,87.4568245 L59.9415682,100.479522 L56.7127664,100.479522 L50.2551628,110.246546 L153.577224,110.246546 Z M116.445196,61.4110216 L116.445196,41.8769747 L103.529989,41.8769747 L103.529989,35.3656258 L90.6151851,35.3656258 L87.3863833,41.8769747 L87.3863833,61.4110216 L116.445196,61.4110216 Z M68.0135726,61.4110216 L68.0135726,41.8769747 L55.0983655,41.8769747 L55.0983655,35.3656258 L42.1831584,35.3656258 L38.9543566,41.8769747 L38.9543566,61.4110216 L68.0135726,61.4110216 Z" id="Shape" fill="#5D9CEC" fill-rule="nonzero"></path>
                <path d="M193.936842,15.8315789 L193.936842,116.757895 L9.89473684,116.757895 L9.89473684,15.8315789 L22.809944,15.8315789 L35.7251511,15.8315789 L48.6403582,15.8315789 L61.5555654,15.8315789 L74.4707725,15.8315789 L145.504412,15.8315789 L151.962015,15.8315789 L158.419619,15.8315789 L164.877222,15.8315789 L171.334826,15.8315789 L181.021231,15.8315789 L187.478835,15.8315789 L193.936842,15.8315789 Z M164.877626,61.4110216 L164.877626,41.8769747 L151.962419,41.8769747 L151.962419,35.3656258 L139.047212,35.3656258 L135.81841,41.8769747 L135.81841,61.4110216 L164.877626,61.4110216 Z M153.577224,110.246546 L147.11962,100.479522 L141.308342,100.479522 L143.890414,87.4568245 L127.746406,87.4568245 L130.328478,100.479522 L121.288398,100.479522 L121.288398,103.735197 L113.21599,87.4568245 L105.144389,103.735197 L105.144389,100.479522 L97.072385,100.479522 C99.4291923,97.2873494 99.203927,92.7315219 96.3299785,89.8320258 C93.1657689,86.6744531 88.0637938,86.6744531 84.8999879,89.8320258 C82.0260395,92.7315219 81.8003705,97.2873494 84.1575815,100.479522 L76.0855771,100.479522 L76.0855771,87.4568245 L59.9415682,87.4568245 L59.9415682,100.479522 L56.7127664,100.479522 L50.2551628,110.246546 L153.577224,110.246546 Z M116.445196,61.4110216 L116.445196,41.8769747 L103.529989,41.8769747 L103.529989,35.3656258 L90.6151851,35.3656258 L87.3863833,41.8769747 L87.3863833,61.4110216 L116.445196,61.4110216 Z M68.0135726,61.4110216 L68.0135726,41.8769747 L55.0983655,41.8769747 L55.0983655,35.3656258 L42.1831584,35.3656258 L38.9543566,41.8769747 L38.9543566,61.4110216 L68.0135726,61.4110216 Z" id="Shape" fill="#FFFFFF" fill-rule="nonzero"></path>
                <path d="M146.875025,99.9368421 L153.368421,109.831579 L49.4736842,109.831579 L55.9670799,99.9368421 L59.2137777,99.9368421 L59.2137777,103.235088 L75.4472669,103.235088 L75.4472669,99.9368421 L83.5640115,99.9368421 C83.7905253,100.233346 84.0190688,100.52985 84.3105328,100.825529 C87.4922805,104.027277 92.622534,104.027277 95.8038757,100.825529 C96.0957456,100.529438 96.3238832,100.232934 96.550397,99.9368421 L104.667142,99.9368421 L104.667142,103.235088 L120.900631,103.235088 L120.900631,99.9368421 L129.990816,99.9368421 L130.64113,103.235088 L140.381224,103.235088 L141.031538,99.9368421 L146.875025,99.9368421 Z" id="Path" fill="#F8B631"></path>
                <polygon id="Path" fill="#F8B631" points="76.1894737 100.728421 76.1894737 103.894737 59.3684211 103.894737 59.3684211 100.728421 59.3684211 88.0631579 76.1894737 88.0631579"></polygon>
                <polygon id="Path" fill="#F8B631" points="63.3263158 88.0631579 60.3578947 88.0631579 60.3578947 100.728421 60.3578947 103.894737 63.3263158 103.894737 63.3263158 100.728421"></polygon>
                <path d="M96.4969771,90.3684853 C99.4940953,93.1910278 99.7294358,97.6259424 97.2712011,100.733394 L97.2383629,100.733394 C97.0017594,101.018303 96.7664189,101.303212 96.4965561,101.587329 C93.1967371,104.663873 87.8761051,104.663873 84.5767071,101.587329 C84.3068444,101.302816 84.0719249,101.017907 83.8353213,100.733394 L83.8024831,100.733394 C81.3442485,97.6259424 81.579589,93.1910278 84.5767071,90.3684853 C87.8765261,87.2947154 93.1971581,87.2947154 96.4969771,90.3684853 Z" id="Path" fill="#F8B631"></path>
                <path d="M88.8184515,101.592405 C88.5539191,101.307683 88.3236397,101.022565 88.0917096,100.737844 L88.05952,100.737844 C85.6498404,97.6281133 85.8805325,93.1899468 88.8184515,90.3653346 C90.0127677,89.2316035 91.4761559,88.5225755 93.0105263,88.221992 C90.3866622,87.7140139 87.559756,88.4234384 85.5177806,90.3653346 C82.5798616,93.1899468 82.3491696,97.6281133 84.7588491,100.737844 L84.7910387,100.737844 C85.0229688,101.022962 85.2532482,101.30808 85.5177806,101.592405 C87.559756,103.534301 90.3866622,104.244122 93.0105263,103.735747 C91.4761559,103.438733 90.0127677,102.729308 88.8184515,101.592405 Z" id="Path" fill="#F8B631"></path>
                <polygon id="Path" fill="#F8B631" points="145.452632 88.0631579 142.761919 100.728421 142.088505 103.894737 131.995705 103.894737 131.322291 100.728421 128.631579 88.0631579"></polygon>
                <polygon id="Path" fill="#F8B631" points="131.105263 88.0631579 127.642105 88.0631579 130.412025 100.728421 131.105263 103.894737 134.568421 103.894737 133.875183 100.728421"></polygon>
                <polygon id="Path" fill="#F8B631" points="114.28379 88.0631579 122.694737 103.894737 105.873684 103.894737"></polygon>
                <g id="Group" transform="translate(9.894737, 8.905263)" fill="#F8B631">
                    <polygon id="Path" points="104.026211 78.626008 95.9309785 94.929137 99.1692335 94.929137 105.645744 81.8866338"></polygon>
                    <rect id="Rectangle" x="0.403668456" y="0.370581251" width="12.9530203" height="6.52125159"></rect>
                    <rect id="Rectangle" x="13.355879" y="0.370581251" width="12.9530203" height="6.52125159"></rect>
                    <rect id="Rectangle" x="26.3080895" y="0.370581251" width="12.9530203" height="6.52125159"></rect>
                    <rect id="Rectangle" x="39.2603" y="0.370581251" width="12.9530203" height="6.52125159"></rect>
                    <rect id="Rectangle" x="52.2165594" y="0.370581251" width="12.9530203" height="6.52125159"></rect>
                    <rect id="Rectangle" x="65.1687699" y="0.370581251" width="71.2432311" height="6.52125159"></rect>
                    <rect id="Rectangle" x="178.507697" y="0.370581251" width="6.47651015" height="6.52125159"></rect>
                    <rect id="Rectangle" x="172.029568" y="0.370581251" width="6.47651015" height="6.52125159"></rect>
                    <rect id="Rectangle" x="162.316422" y="0.370581251" width="9.71476522" height="6.52125159"></rect>
                    <rect id="Rectangle" x="155.838292" y="0.370581251" width="6.47651015" height="6.52125159"></rect>
                    <rect id="Rectangle" x="149.360163" y="0.370581251" width="6.47651015" height="6.52125159"></rect>
                    <rect id="Rectangle" x="142.886082" y="0.370581251" width="6.47651015" height="6.52125159"></rect>
                    <rect id="Rectangle" x="136.407952" y="0.370581251" width="6.47651015" height="6.52125159"></rect>
                </g>
                <polygon id="Path" fill="#FF8F00" points="152.378947 35.6210526 152.378947 42.5473684 135.557895 42.5473684 138.922105 35.6210526"></polygon>
                <polygon id="Path" fill="#FF8F00" points="164.252632 42.5473684 164.252632 61.3473684 135.557895 61.3473684 135.557895 42.5473684 151.499415 42.5473684"></polygon>
                <g id="Group" transform="translate(39.578947, 35.621053)" fill="#FF8F00">
                    <polygon id="Path" points="16.6167417 0.363835294 16.6167417 6.88109102 0.395887806 6.88109102 3.64005858 0.363835294"></polygon>
                    <polygon id="Path" points="65.2788977 0.363835294 65.2788977 6.88109102 49.0584494 6.88109102 52.3026202 0.363835294"></polygon>
                </g>
                <g id="Group" transform="translate(39.578947, 40.568421)" fill="#FF8F00">
                    <polygon id="Path" points="77.1497553 0.376989474 77.1497553 20.726788 48.3652071 20.726788 48.3652071 0.376989474 64.3564451 0.376989474"></polygon>
                    <polygon id="Path" points="29.1752417 0.376989474 29.1752417 20.726788 0.390293537 20.726788 0.390293537 0.376989474 16.3819314 0.376989474"></polygon>
                </g>
                <g id="Group" transform="translate(38.589474, 34.631579)" fill="#FF8F00">
                    <polygon id="Path" points="6.92643899 0.367033846 3.66237706 0.367033846 0.398315134 6.94158413 0.398315134 26.665235 3.66237706 26.665235 3.66237706 6.94158413"></polygon>
                    <polygon id="Path" points="55.8873679 0.367033846 52.623306 0.367033846 49.3592441 6.94158413 49.3592441 26.665235 52.623306 26.665235 52.623306 6.94158413"></polygon>
                    <polygon id="Path" points="104.848297 0.367033846 101.584235 0.367033846 98.320173 6.94158413 98.320173 26.665235 101.584235 26.665235 101.584235 6.94158413"></polygon>
                </g>
                <g id="Group" transform="translate(0.000000, 125.663158)" fill="#FFFFFF">
                    <path d="M10.0878468,13.1704329 L10.0878468,13.1081481 L10.0878468,0.33498024 L0.403223262,0.33498024 L0.403223262,13.1081481 L0.403223262,13.1704329 C0.403223262,18.4406822 4.76158641,22.7503088 10.0878468,22.7503088 L19.7724704,22.7503088 C14.44621,22.7503088 10.0878468,18.4406822 10.0878468,13.1704329 Z" id="Path"></path>
                    <path d="M203.781126,0.334580979 L203.781126,13.1700336 C203.781126,18.4402829 199.424781,22.7499095 194.096502,22.7499095 L102.092174,22.7499095 L102.092174,16.3010408 C104.771853,16.3010408 106.934083,14.1617987 106.934083,11.5111029 C106.934083,8.86040702 104.771853,6.72116491 102.092174,6.72116491 L102.092174,0.334580979 L203.781126,0.334580979 Z" id="Path"></path>
                </g>
                <path d="M101.915996,131.6 C104.653926,131.6 106.863158,133.809552 106.863158,136.547368 C106.863158,139.285184 104.653926,141.494737 101.915996,141.494737 C99.1780655,141.494737 96.9684211,139.285184 96.9684211,136.547368 C96.9684211,133.809552 99.1780655,131.6 101.915996,131.6 Z" id="Path" fill="#FF8F00"></path>
                <g id="Group" transform="translate(0.000000, 138.526316)" fill="#FF8F00">
                    <path d="M203.781025,0.397558267 L203.781025,6.77782469 C203.781025,12.2207881 199.542623,16.4424782 194.077186,16.4424782 C191.780846,16.4424782 159.693549,16.4424782 122.88375,16.4424782 C109.105706,16.4424782 94.6773419,16.4424782 80.8972756,16.4424782 C44.0874764,16.4424782 12.0001798,16.4424782 9.7038391,16.4424782 C4.23759382,16.4424782 0,12.2207881 0,6.77782469 L0,0.397558267 C0,5.71444695 4.36701069,10.0622118 9.7038391,10.0622118 L101.890311,10.0622118 L194.076782,10.0622118 C199.416037,10.0622118 203.781025,5.71444695 203.781025,0.397558267 Z" id="Path"></path>
                    <path d="M122.883345,16.4424782 L129.352572,45.4364389 L74.4276451,45.4364389 L80.8968712,16.4424782 C94.6773419,16.4424782 109.105301,16.4424782 122.883345,16.4424782 Z" id="Path"></path>
                </g>
                <path d="M3.29580224,146.62756 C1.29387478,144.877239 0,142.349926 0,139.515789 L0,145.811221 C0,151.181812 4.2129335,155.347368 9.64736842,155.347368 C10.0072248,155.347368 11.1233828,155.347368 12.8631579,155.347368 C7.71298943,155.347766 3.70752622,151.591571 3.29580224,146.62756 Z" id="Path" fill="#FFFFFF"></path>
                <path d="M201.523642,146.62756 C201.115135,151.591174 197.108867,155.347368 191.957895,155.347368 C193.698072,155.347368 194.815436,155.347368 195.173684,155.347368 C200.607315,155.347368 204.821053,151.181812 204.821053,145.811221 L204.821053,139.515789 C204.821455,142.350323 203.527982,144.877239 201.523642,146.62756 Z" id="Path" fill="#FFFFFF"></path>
                <path d="M101.915789,141.873628 L101.915789,148.421053 L10.6014656,148.421053 C5.31515047,148.421053 0.989473684,144.045563 0.989473684,138.694771 L0.989473684,138.631534 L0.989473684,125.663158 L101.915789,125.663158 L101.915789,132.147346 C99.2562073,132.147346 97.1097935,134.319281 97.1097935,137.010487 C97.1097935,139.701693 99.2562073,141.873628 101.915789,141.873628 Z" id="Path" fill="#FFFFFF"></path>
                <path d="M203.831579,9.67120257 L203.831579,125.663158 L101.915789,125.663158 L0,125.663158 L0,9.67120257 C0,4.35433864 4.36808538,0 9.70622714,0 L194.124947,0 C199.465516,1.43198356e-15 203.831579,4.35433864 203.831579,9.67120257 Z M194.124947,16.0557924 L194.124947,9.60832403 L187.654129,9.60832403 L181.183311,9.60832403 L171.477084,9.60832403 L165.006266,9.60832403 L158.535448,9.60832403 L152.06463,9.60832403 L145.593812,9.60832403 L74.4148126,9.60832403 L61.4731764,9.60832403 L48.5315402,9.60832403 L35.589904,9.60832403 L22.6478633,9.60832403 L9.70622714,9.60832403 L9.70622714,16.0557924 L9.70622714,115.991955 L194.124947,115.991955 L194.124947,16.0557924 Z" id="Shape" fill="#F8B631" fill-rule="nonzero"></path>
                <path d="M12.8631579,0 L9.64736842,0 C4.34159724,0 0,4.35433864 0,9.67120257 L0,125.663158 L3.21578947,125.663158 L3.21578947,9.67120257 C3.21578947,4.35433864 7.55738672,0 12.8631579,0 Z" id="Path" fill="#F8B631"></path>
                <path d="M195.173684,0 L191.957895,0 C197.265676,0 201.605263,4.35433864 201.605263,9.67120257 L201.605263,125.663158 L204.821053,125.663158 L204.821053,9.67120257 C204.821455,4.35433864 200.481868,0 195.173684,0 Z" id="Path" fill="#F8B631"></path>
                <g id="Group" transform="translate(80.147368, 155.347368)" fill="#F8B631">
                    <path d="M43.644711,3.58609661 L42.9224763,0.33384571 C29.1071527,0.33384571 14.6397498,0.33384571 0.822398619,0.33384571 L0.101786022,3.58609661 C14.5562123,3.58609661 29.1894737,3.58609661 43.644711,3.58609661 Z" id="Path"></path>
                    <path d="M40.3985073,3.58609661 L46.1662468,29.6041038 L49.4096117,29.6041038 L43.6418723,3.58609661 C42.5623727,3.58609661 41.4788179,3.58609661 40.3985073,3.58609661 Z" id="Path"></path>
                </g>
                <g id="Group">
                    <path d="M205.133887,128.599656 L1.61522109,128.599656 C0.722588281,128.599656 0,127.874802 0,126.979371 C0,126.08394 0.722588281,125.359087 1.61522109,125.359087 L205.133483,125.359087 C206.02652,125.359087 206.749108,126.08394 206.749108,126.979371 C206.749108,127.874802 206.02652,128.599656 205.133887,128.599656 Z" id="Path" fill="#773C80"></path>
                    <path d="M103.374554,144.802906 C99.811293,144.802906 96.9136695,141.894578 96.9136695,138.321768 C96.9136695,134.745716 99.811293,131.84063 103.374554,131.84063 C106.93943,131.84063 109.835438,134.745716 109.835438,138.321768 C109.835438,141.894578 106.93943,144.802906 103.374554,144.802906 Z M103.374554,135.080794 C101.593731,135.080794 100.144112,136.533337 100.144112,138.321363 C100.144112,140.106147 101.593731,141.561931 103.374554,141.561931 C105.154973,141.561931 106.604996,140.106147 106.604996,138.321363 C106.604996,136.533337 105.154973,135.080794 103.374554,135.080794 Z" id="Shape" fill="#773C80" fill-rule="nonzero"></path>
                    <path d="M75.9489156,186.930302 C75.8321867,186.930302 75.7154578,186.917742 75.5971133,186.892216 C74.7262914,186.696113 74.1773828,185.83188 74.3700461,184.958733 L80.8309305,155.793613 C81.0248055,154.920466 81.8988586,154.379156 82.7583711,154.562699 C83.629193,154.755966 84.1781016,155.62263 83.9858422,156.495776 L77.5245539,185.660897 C77.3573367,186.414518 76.688468,186.930302 75.9489156,186.930302 Z" id="Path" fill="#773C80"></path>
                    <path d="M130.801404,186.930302 C130.06064,186.930302 129.391771,186.414518 129.224554,185.660897 L122.76367,156.495776 C122.571006,155.62263 123.120319,154.755561 123.991141,154.562699 C124.857923,154.375914 125.725918,154.920466 125.918177,155.793613 L132.379062,184.958733 C132.571725,185.83188 132.022412,186.696113 131.151591,186.892216 C131.034862,186.917742 130.915305,186.930302 130.801404,186.930302 Z" id="Path" fill="#773C80"></path>
                    <path d="M195.442156,118.877949 L11.3065477,118.877949 C10.4139148,118.877949 9.69132656,118.153095 9.69132656,117.257664 L9.69132656,10.3184832 C9.69132656,9.42305218 10.4139148,8.69819873 11.3065477,8.69819873 L195.442156,8.69819873 C196.335193,8.69819873 197.057781,9.42305218 197.057781,10.3184832 L197.057781,117.258069 C197.057781,118.153095 196.335193,118.877949 195.442156,118.877949 Z M12.9217687,115.63738 L193.827339,115.63738 L193.827339,11.9387677 L12.9217687,11.9387677 L12.9217687,115.63738 Z" id="Shape" fill="#773C80" fill-rule="nonzero"></path>
                    <path d="M195.442156,18.4199056 L11.3065477,18.4199056 C10.4139148,18.4199056 9.69132656,17.6954574 9.69132656,16.7996211 C9.69132656,15.9041901 10.4139148,15.1793367 11.3065477,15.1793367 L195.442156,15.1793367 C196.335193,15.1793367 197.057781,15.9041901 197.057781,16.7996211 C197.057781,17.6954574 196.335193,18.4199056 195.442156,18.4199056 Z" id="Path" fill="#773C80"></path>
                    <path d="M24.2283164,18.4199056 C23.3356836,18.4199056 22.6130953,17.6954574 22.6130953,16.7996211 L22.6130953,10.3184832 C22.6130953,9.42305218 23.3356836,8.69819873 24.2283164,8.69819873 C25.1209492,8.69819873 25.8435375,9.42305218 25.8435375,10.3184832 L25.8435375,16.7996211 C25.8435375,17.6954574 25.1213531,18.4199056 24.2283164,18.4199056 Z" id="Path" fill="#773C80"></path>
                    <path d="M37.1504891,18.4199056 C36.2578563,18.4199056 35.535268,17.6954574 35.535268,16.7996211 L35.535268,10.3184832 C35.535268,9.42305218 36.2578563,8.69819873 37.1504891,8.69819873 C38.0431219,8.69819873 38.7657102,9.42305218 38.7657102,10.3184832 L38.7657102,16.7996211 C38.7657102,17.6954574 38.042718,18.4199056 37.1504891,18.4199056 Z" id="Path" fill="#773C80"></path>
                    <path d="M50.0722578,18.4199056 C49.179625,18.4199056 48.4570367,17.6954574 48.4570367,16.7996211 L48.4570367,10.3184832 C48.4570367,9.42305218 49.179625,8.69819873 50.0722578,8.69819873 C50.9648906,8.69819873 51.6874789,9.42305218 51.6874789,10.3184832 L51.6874789,16.7996211 C51.6874789,17.6954574 50.9648906,18.4199056 50.0722578,18.4199056 Z" id="Path" fill="#773C80"></path>
                    <path d="M62.9940266,18.4199056 C62.1009898,18.4199056 61.3788055,17.6954574 61.3788055,16.7996211 L61.3788055,10.3184832 C61.3788055,9.42305218 62.1009898,8.69819873 62.9940266,8.69819873 C63.8866594,8.69819873 64.6092477,9.42305218 64.6092477,10.3184832 L64.6092477,16.7996211 C64.6092477,17.6954574 63.8866594,18.4199056 62.9940266,18.4199056 Z" id="Path" fill="#773C80"></path>
                    <path d="M75.9157953,18.4199056 C75.0227586,18.4199056 74.3005742,17.6954574 74.3005742,16.7996211 L74.3005742,10.3184832 C74.3005742,9.42305218 75.0227586,8.69819873 75.9157953,8.69819873 C76.8084281,8.69819873 77.5310164,9.42305218 77.5310164,10.3184832 L77.5310164,16.7996211 C77.5310164,17.6954574 76.8084281,18.4199056 75.9157953,18.4199056 Z" id="Path" fill="#773C80"></path>
                    <path d="M188.981272,18.4199056 C188.089043,18.4199056 187.366455,17.6954574 187.366455,16.7996211 L187.366455,10.3184832 C187.366455,9.42305218 188.089043,8.69819873 188.981272,8.69819873 C189.874309,8.69819873 190.596897,9.42305218 190.596897,10.3184832 L190.596897,16.7996211 C190.596897,17.6954574 189.874309,18.4199056 188.981272,18.4199056 Z" id="Path" fill="#773C80"></path>
                    <path d="M182.520387,18.4199056 C181.628159,18.4199056 180.90557,17.6954574 180.90557,16.7996211 L180.90557,10.3184832 C180.90557,9.42305218 181.628159,8.69819873 182.520387,8.69819873 C183.413424,8.69819873 184.136012,9.42305218 184.136012,10.3184832 L184.136012,16.7996211 C184.136012,17.6954574 183.413424,18.4199056 182.520387,18.4199056 Z" id="Path" fill="#773C80"></path>
                    <path d="M172.829061,18.4199056 C171.936832,18.4199056 171.214244,17.6954574 171.214244,16.7996211 L171.214244,10.3184832 C171.214244,9.42305218 171.936832,8.69819873 172.829061,8.69819873 C173.722098,8.69819873 174.444686,9.42305218 174.444686,10.3184832 L174.444686,16.7996211 C174.444686,17.6954574 173.722098,18.4199056 172.829061,18.4199056 Z" id="Path" fill="#773C80"></path>
                    <path d="M166.368177,18.4199056 C165.475948,18.4199056 164.753359,17.6954574 164.753359,16.7996211 L164.753359,10.3184832 C164.753359,9.42305218 165.475948,8.69819873 166.368177,8.69819873 C167.261213,8.69819873 167.983802,9.42305218 167.983802,10.3184832 L167.983802,16.7996211 C167.983802,17.6954574 167.261213,18.4199056 166.368177,18.4199056 Z" id="Path" fill="#773C80"></path>
                    <path d="M159.907292,18.4199056 C159.015063,18.4199056 158.292475,17.6954574 158.292475,16.7996211 L158.292475,10.3184832 C158.292475,9.42305218 159.015063,8.69819873 159.907292,8.69819873 C160.800329,8.69819873 161.522917,9.42305218 161.522917,10.3184832 L161.522917,16.7996211 C161.522917,17.6954574 160.800329,18.4199056 159.907292,18.4199056 Z" id="Path" fill="#773C80"></path>
                    <path d="M153.446408,18.4199056 C152.554179,18.4199056 151.831591,17.6954574 151.831591,16.7996211 L151.831591,10.3184832 C151.831591,9.42305218 152.554179,8.69819873 153.446408,8.69819873 C154.339445,8.69819873 155.062033,9.42305218 155.062033,10.3184832 L155.062033,16.7996211 C155.062033,17.6954574 154.339445,18.4199056 153.446408,18.4199056 Z" id="Path" fill="#773C80"></path>
                    <path d="M146.985523,18.4199056 C146.093295,18.4199056 145.370706,17.6954574 145.370706,16.7996211 L145.370706,10.3184832 C145.370706,9.42305218 146.093295,8.69819873 146.985523,8.69819873 C147.87856,8.69819873 148.601148,9.42305218 148.601148,10.3184832 L148.601148,16.7996211 C148.601148,17.6954574 147.87856,18.4199056 146.985523,18.4199056 Z" id="Path" fill="#773C80"></path>
                    <path d="M77.5310164,102.675104 C76.6379797,102.675104 75.9157953,101.95025 75.9157953,101.054819 L75.9157953,89.712828 L62.9940266,89.712828 L62.9940266,101.054819 C62.9940266,101.95025 62.2714383,102.675104 61.3788055,102.675104 C60.4857687,102.675104 59.7635844,101.95025 59.7635844,101.054819 L59.7635844,88.0925436 C59.7635844,87.1971125 60.4857687,86.4722591 61.3788055,86.4722591 L77.5310164,86.4722591 C78.4236492,86.4722591 79.1462375,87.1971125 79.1462375,88.0925436 L79.1462375,101.054819 C79.1462375,101.95025 78.4236492,102.675104 77.5310164,102.675104 Z" id="Path" fill="#773C80"></path>
                    <path d="M122.757207,105.915673 C122.163869,105.915673 121.595977,105.586673 121.31203,105.019837 L114.680698,91.7160005 L108.050173,105.019837 C107.649498,105.820863 106.680527,106.14338 105.882408,105.74469 C105.083885,105.342759 104.761568,104.371156 105.15982,103.57094 L113.236329,87.3676901 C113.785237,86.2696729 115.576966,86.2696729 116.125874,87.3676901 L124.201576,103.57094 C124.59902,104.371561 124.27751,105.342759 123.479795,105.74469 C123.249569,105.858544 123.00359,105.915673 122.757207,105.915673 Z" id="Path" fill="#773C80"></path>
                    <path d="M142.790149,102.675104 C142.68271,102.675104 142.575675,102.665785 142.468236,102.6435 C141.597414,102.466035 141.029522,101.615173 141.202798,100.735138 L143.402067,89.712828 L131.186327,89.712828 L133.385596,100.735138 C133.559276,101.615173 132.99098,102.466035 132.120158,102.6435 C131.236411,102.823802 130.391843,102.247647 130.218163,101.371259 L127.633971,88.4089832 C127.539457,87.9341211 127.662245,87.440216 127.968405,87.064216 C128.277798,86.690647 128.732192,86.4722591 129.218091,86.4722591 L145.370302,86.4722591 C145.856202,86.4722591 146.310596,86.690647 146.61918,87.064216 C146.925341,87.4406211 147.048129,87.9341211 146.953615,88.4089832 L144.37023,101.371259 C144.215534,102.143518 143.540203,102.675104 142.790149,102.675104 Z" id="Path" fill="#773C80"></path>
                    <path d="M97.786107,104.538129 C97.3729109,104.538129 96.9597148,104.379707 96.6442641,104.063267 C96.0133625,103.430388 96.0133625,102.404897 96.6442641,101.772017 C96.8841844,101.53175 97.0683656,101.288241 97.2529508,101.05081 C99.1488867,98.4966034 98.8948297,94.8512672 96.6442641,92.5916207 C94.1218695,90.0913017 90.0145469,90.084819 87.4860938,92.5981034 C85.2415867,94.8516724 84.9875297,98.4970086 86.9024492,101.076336 C87.0680508,101.288241 87.2526359,101.532155 87.4921523,101.772422 C88.1230539,102.405302 88.1230539,103.430793 87.4921523,104.063672 C86.8612508,104.696552 85.8389641,104.696552 85.2080625,104.063672 C84.8671656,103.721707 84.5973563,103.379741 84.331182,103.038181 C81.4460797,99.1521724 81.8310023,93.6868017 85.2080625,90.3003707 C88.9938758,86.541181 95.1457719,86.5440172 98.9214875,90.2938879 C102.30501,93.6863966 102.689933,99.1517672 99.8238141,103.012655 C99.5382523,103.379741 99.268443,103.721707 98.9275461,104.063672 C98.6124992,104.380112 98.1993031,104.538129 97.786107,104.538129 Z" id="Path" fill="#773C80"></path>
                    <path d="M155.125042,112.396811 C155.106059,112.393569 155.081016,112.393569 155.062033,112.396811 L51.6874789,112.396811 C51.0909094,112.396811 50.5436164,112.067811 50.2633055,111.539061 C49.9825906,111.013957 50.0140953,110.374595 50.3436828,109.877854 L56.8045672,100.156147 C57.1042656,99.7035694 57.6091484,99.4345349 58.1487672,99.4345349 L61.3792094,99.4345349 C62.2718422,99.4345349 62.9944305,100.159388 62.9944305,101.054819 L62.9944305,102.675104 L75.9161992,102.675104 L75.9161992,101.054819 C75.9161992,100.159388 76.6383836,99.4345349 77.5314203,99.4345349 L85.6075258,99.4345349 C86.1039266,99.4345349 86.6043664,99.6622418 86.9105273,100.054854 C87.1520633,100.365216 87.3410914,100.608319 87.5555656,100.852233 C89.8711602,103.140242 94.1961883,103.213173 96.6507266,100.776061 C96.7957289,100.608319 96.9851609,100.364811 97.1725734,100.121302 C97.4783305,99.7286901 98.0005812,99.4345349 98.4977898,99.4345349 L106.6054,99.4345349 C107.498437,99.4345349 108.220217,100.159388 108.220217,101.054819 L108.220217,102.675104 L121.141986,102.675104 L121.141986,101.054819 C121.141986,100.159388 121.864574,99.4345349 122.757611,99.4345349 L131.802284,99.4345349 C132.572129,99.4345349 133.234939,99.9790867 133.386404,100.735138 L133.774558,102.675104 L140.815452,102.675104 L141.203605,100.735138 C141.35507,99.9790867 142.01788,99.4345349 142.787726,99.4345349 L148.601956,99.4345349 C149.141575,99.4345349 149.646458,99.7035694 149.945348,100.156147 L156.198625,109.561414 C156.532252,109.858811 156.740667,110.292345 156.740667,110.776526 C156.739859,111.671957 156.018079,112.396811 155.125042,112.396811 Z M54.7046586,109.156242 L152.046065,109.156242 L147.736385,102.675104 L144.108499,102.675104 L143.723577,104.611828 C143.572112,105.371121 142.910109,105.915673 142.140264,105.915673 L132.448937,105.915673 C131.679092,105.915673 131.016282,105.371121 130.864817,104.611828 L130.480702,102.675104 L124.372428,102.675104 L124.372428,104.295388 C124.372428,105.190819 123.650648,105.915673 122.757611,105.915673 L106.6054,105.915673 C105.712363,105.915673 104.989775,105.190819 104.989775,104.295388 L104.989775,102.675104 L99.276925,102.675104 C99.1824109,102.788957 99.0891086,102.896733 98.9913633,103.007345 C95.1837391,106.801785 88.8836094,106.726018 85.2149289,103.080276 C85.0840633,102.934819 84.96895,102.801518 84.8631266,102.675104 L79.1470453,102.675104 L79.1470453,104.295388 C79.1470453,105.190819 78.424457,105.915673 77.5318242,105.915673 L61.3796133,105.915673 C60.4865766,105.915673 59.7643922,105.190819 59.7643922,104.295388 L59.7643922,102.675104 L59.0135305,102.675104 L54.7046586,109.156242 Z" id="Shape" fill="#773C80" fill-rule="nonzero"></path>
                    <path d="M69.4549109,63.7878711 L40.3809312,63.7878711 C39.4882984,63.7878711 38.7657102,63.0634229 38.7657102,62.1675867 L38.7657102,42.7241729 C38.7657102,41.8287418 39.4882984,41.1038884 40.3809312,41.1038884 C41.2735641,41.1038884 41.9961523,41.8287418 41.9961523,42.7241729 L41.9961523,60.5473022 L67.8396898,60.5473022 L67.8396898,44.3444574 L56.5331422,44.3444574 C55.6401055,44.3444574 54.9179211,43.6200091 54.9179211,42.7241729 C54.9179211,41.8287418 55.6401055,41.1038884 56.5331422,41.1038884 L69.4549109,41.1038884 C70.3475437,41.1038884 71.070132,41.8287418 71.070132,42.7241729 L71.070132,62.1675867 C71.070132,63.0634229 70.3475437,63.7878711 69.4549109,63.7878711 Z" id="Path" fill="#773C80"></path>
                    <path d="M56.5331422,44.3444574 L40.3809313,44.3444574 C39.8207133,44.3444574 39.3020977,44.0531384 39.0072461,43.5758453 C38.7123945,43.0977418 38.6853328,42.4997074 38.9361586,41.9997246 L42.1666008,35.5185867 C42.4408531,34.9679574 42.9994555,34.6227505 43.6113734,34.6227505 L56.5331422,34.6227505 C57.425775,34.6227505 58.1483633,35.3476039 58.1483633,36.2430349 L58.1483633,42.7241729 C58.1483633,43.6200091 57.425775,44.3444574 56.5331422,44.3444574 Z M42.9942047,41.1038884 L54.9179211,41.1038884 L54.9179211,37.8633194 L44.6098297,37.8633194 L42.9942047,41.1038884 Z" id="Shape" fill="#773C80" fill-rule="nonzero"></path>
                    <path d="M66.2244687,70.2694142 L43.6113734,70.2694142 C42.7187406,70.2694142 41.9961523,69.544966 41.9961523,68.6491298 C41.9961523,67.7536987 42.7187406,67.0288453 43.6113734,67.0288453 L66.2244687,67.0288453 C67.1171016,67.0288453 67.8396898,67.7536987 67.8396898,68.6491298 C67.8396898,69.5445608 67.1171016,70.2694142 66.2244687,70.2694142 Z" id="Path" fill="#773C80"></path>
                    <path d="M117.91114,63.7878711 L88.8375641,63.7878711 C87.9445273,63.7878711 87.222343,63.0634229 87.222343,62.1675867 L87.222343,42.7241729 C87.222343,41.8287418 87.9445273,41.1038884 88.8375641,41.1038884 C89.7301969,41.1038884 90.4527852,41.8287418 90.4527852,42.7241729 L90.4527852,60.5473022 L116.296323,60.5473022 L116.296323,44.3444574 L104.989371,44.3444574 C104.097142,44.3444574 103.374554,43.6200091 103.374554,42.7241729 C103.374554,41.8287418 104.097142,41.1038884 104.989371,41.1038884 L117.91114,41.1038884 C118.804177,41.1038884 119.526765,41.8287418 119.526765,42.7241729 L119.526765,62.1675867 C119.526765,63.0634229 118.804177,63.7878711 117.91114,63.7878711 Z" id="Path" fill="#773C80"></path>
                    <path d="M104.989371,44.3444574 L88.8375641,44.3444574 C88.2773461,44.3444574 87.7583266,44.0531384 87.463475,43.5758453 C87.1686234,43.0977418 87.1419656,42.4997074 87.3923875,41.9997246 L90.6228297,35.5185867 C90.897082,34.9679574 91.4556844,34.6227505 92.0680062,34.6227505 L104.989371,34.6227505 C105.882408,34.6227505 106.604996,35.3476039 106.604996,36.2430349 L106.604996,42.7241729 C106.604996,43.6200091 105.882408,44.3444574 104.989371,44.3444574 Z M91.4512414,41.1038884 L103.374554,41.1038884 L103.374554,37.8633194 L93.0664625,37.8633194 L91.4512414,41.1038884 Z" id="Shape" fill="#773C80" fill-rule="nonzero"></path>
                    <path d="M114.680698,70.2694142 L92.0680062,70.2694142 C91.1749695,70.2694142 90.4527852,69.544966 90.4527852,68.6491298 C90.4527852,67.7536987 91.1749695,67.0288453 92.0680062,67.0288453 L114.680698,67.0288453 C115.573734,67.0288453 116.296323,67.7536987 116.296323,68.6491298 C116.296323,69.5445608 115.573734,70.2694142 114.680698,70.2694142 Z" id="Path" fill="#773C80"></path>
                    <path d="M129.173486,187.282674 L79.7218,187.282674 C77.7688184,187.282674 76.1894737,186.558226 76.1894737,185.66239 C76.1894737,184.766959 77.7688184,184.042105 79.7218,184.042105 L129.173486,184.042105 C131.126467,184.042105 132.706695,184.766959 132.706695,185.66239 C132.706695,186.557821 131.126467,187.282674 129.173486,187.282674 Z" id="Path" fill="#773C80"></path>
                    <path d="M166.368177,63.7878711 L137.294197,63.7878711 C136.401968,63.7878711 135.67938,63.0634229 135.67938,62.1675867 L135.67938,42.7241729 C135.67938,41.8287418 136.401968,41.1038884 137.294197,41.1038884 C138.187234,41.1038884 138.909822,41.8287418 138.909822,42.7241729 L138.909822,60.5473022 L164.753359,60.5473022 L164.753359,44.3444574 L153.446408,44.3444574 C152.554179,44.3444574 151.831591,43.6200091 151.831591,42.7241729 C151.831591,41.8287418 152.554179,41.1038884 153.446408,41.1038884 L166.368177,41.1038884 C167.261213,41.1038884 167.983802,41.8287418 167.983802,42.7241729 L167.983802,62.1675867 C167.983802,63.0634229 167.261213,63.7878711 166.368177,63.7878711 Z" id="Path" fill="#773C80"></path>
                    <path d="M153.446408,44.3444574 L137.294197,44.3444574 C136.733171,44.3444574 136.215767,44.0531384 135.9193,43.5758453 C135.62566,43.0977418 135.597387,42.4997074 135.849828,41.9997246 L139.08027,35.5185867 C139.354927,34.9679574 139.913125,34.6227505 140.524639,34.6227505 L153.446408,34.6227505 C154.339445,34.6227505 155.062033,35.3476039 155.062033,36.2430349 L155.062033,42.7241729 C155.062033,43.6200091 154.339445,44.3444574 153.446408,44.3444574 Z M139.906662,41.1038884 L151.831187,41.1038884 L151.831187,37.8633194 L141.52148,37.8633194 L139.906662,41.1038884 Z" id="Shape" fill="#773C80" fill-rule="nonzero"></path>
                    <path d="M163.137734,70.2694142 L140.524639,70.2694142 C139.63241,70.2694142 138.909822,69.544966 138.909822,68.6491298 C138.909822,67.7536987 139.63241,67.0288453 140.524639,67.0288453 L163.137734,67.0288453 C164.030771,67.0288453 164.753359,67.7536987 164.753359,68.6491298 C164.753359,69.5445608 164.030771,70.2694142 163.137734,70.2694142 Z" id="Path" fill="#773C80"></path>
                    <path d="M195.442156,152.336724 L11.3065477,152.336724 C5.07265859,152.336724 0,147.247759 0,140.994733 C0,140.985414 0,140.972448 0,140.963129 C0,140.95381 0,140.940845 0,140.931526 L0,11.3711638 C0,5.11773276 5.0730625,0.0291724138 11.3065477,0.0291724138 L195.442156,0.0291724138 C201.676045,0.0291724138 206.749108,5.11813793 206.749108,11.3711638 L206.749108,140.994733 C206.749512,147.247759 201.676045,152.336724 195.442156,152.336724 Z M2.96842105,140.690981 C2.96842105,140.7003 2.96842105,140.713266 2.96842105,140.722585 C2.96842105,145.190826 6.59186402,148.824007 11.0445265,148.824007 L195.180135,148.824007 C199.634817,148.824007 203.256644,145.190826 203.256644,140.722585 L203.256644,11.0990159 C203.256644,6.63361071 199.634817,2.99759347 195.180135,2.99759347 L11.0445265,2.99759347 C6.59186402,2.99759347 2.96842105,6.63401588 2.96842105,11.0990159 L2.96842105,140.659378 C2.96842105,140.668697 2.96842105,140.681257 2.96842105,140.690981 Z" id="Shape" fill="#773C80" fill-rule="nonzero"></path>
                    <path d="M195.442156,157.765181 L11.3065477,157.765181 C4.96723906,157.765181 0,152.78075 0,146.42319 L0,140.005259 C0,139.109828 0.722588281,138.353371 1.61522109,138.353371 C2.50785391,138.353371 3.23044219,139.046621 3.23044219,139.942052 L3.23044219,146.42319 C3.23044219,151.040535 6.70242031,154.524613 11.3065477,154.524613 L195.442156,154.524613 C200.048303,154.524613 203.518666,151.04013 203.518666,146.42319 L203.518666,140.005259 C203.518666,139.109828 204.241254,138.384975 205.133483,138.384975 C206.02652,138.384975 206.749108,139.109828 206.749108,140.005259 L206.749108,146.42319 C206.749512,152.78075 201.783484,157.765181 195.442156,157.765181 Z" id="Path" fill="#773C80"></path>
                    <path d="M17.8639656,15.1793367 C16.9725445,15.1793367 16.2329922,14.4548884 16.2329922,13.5590522 C16.2329922,12.6636211 16.9398281,11.9387677 17.8324609,11.9387677 L17.8639656,11.9387677 C18.7565984,11.9387677 19.4791867,12.6636211 19.4791867,13.5590522 C19.4791867,14.4548884 18.7561945,15.1793367 17.8639656,15.1793367 Z" id="Path" fill="#116FFF"></path>
                </g>
            </g>
            <rect id="Rectangle" stroke="#FFFFFF" fill-opacity="0" fill="#FCFCFC" x="0.5" y="0.5" width="279" height="279" rx="8"></rect>
        </g>
    </g>
</svg>