<?xml version="1.0" encoding="UTF-8"?>
<svg width="280px" height="280px" viewBox="0 0 280 280" version="1.1" xmlns="http://www.w3.org/2000/svg" xmlns:xlink="http://www.w3.org/1999/xlink">
    <!-- Generator: Sketch 52.6 (67491) - http://www.bohemiancoding.com/sketch -->
    <title>Group 17</title>
    <desc>Created with Sketch.</desc>
    <g id="Page-1" stroke="none" stroke-width="1" fill="none" fill-rule="evenodd">
        <g id="Group-17">
            <g id="Group-16">
                <g id="Group-14">
                    <g id="chef" transform="translate(47.000000, 26.000000)">
                        <polygon id="Path" fill="#FF8F00" points="92 158.091643 60 139 60 151.637061 81.3353669 171 90.4790411 161.318934 91.9969497 161.318934 92.0030503 161.318934 93.5209589 161.318934 102.664633 171 124 151.637061 124 139"></polygon>
                        <polygon id="Path" fill="#FF8F00" points="92 158.091643 60 139 60 151.637061 81.3353669 171 90.4790411 161.318934 91.9969497 161.318934 92.0030503 161.318934 93.5209589 161.318934 102.664633 171 124 151.637061 124 139"></polygon>
                        <path d="M164.9996,171.368461 C157.018896,168.23641 137.788646,161.403276 128.999551,155.552692 L122.999668,152 L101.999514,171.368065 L92.999877,161.87892 L89.9997478,161.87892 L81.0001107,171.368065 L59.9999569,152 L54.0000738,155.552692 C45.2695252,161.467777 26.0407762,168.205545 18.0000246,171.368461 C5.9998831,176.113034 0,180.858002 0,193.510855 L0,203 L105.000018,203 L183,203 L183,193.510855 C182.999625,180.858398 176.999366,176.113429 164.9996,171.368461 Z" id="Path" fill="#FF8F00"></path>
                        <path d="M6.90899011,199.837084 C6.90899011,187.184231 12.8179802,182.439658 24.63633,177.69469 C32.5552712,174.531773 51.4927215,167.794401 60.0910099,161.87892 L66,158.326229 L60.0910099,152 L54.1820198,155.552692 C45.5837314,161.467777 26.6462811,168.205545 18.7273399,171.368461 C6.90899011,176.113034 1,180.858002 1,193.510855 L1,203 L6.90899011,203 L6.90899011,199.837084 Z" id="Path" fill="#FFFFFF"></path>
                        <path d="M177.09101,199.837084 C177.09101,187.184231 171.18202,182.439658 159.36367,177.69469 C151.446207,174.531773 132.507279,167.794401 123.90899,161.87892 L118,158.326229 L123.90899,152 L129.81798,155.552692 C138.416269,161.467777 157.355567,168.205545 165.27266,171.368461 C177.09101,176.113034 183,180.858002 183,193.510855 L183,203 L177.09101,203 L177.09101,199.837084 Z" id="Path" fill="#FF8F00"></path>
                        <g id="Group" transform="translate(43.000000, 27.000000)" fill="#F8B631">
                            <polygon id="Path" points="77.1933057 126.471825 59.4564151 143.119048 50.5879698 133.603175 47.6316981 133.603175 38.7632528 143.119048 21.0267321 126.471825 21.0267321 174.840079 62.4126868 174.840079 77.1933057 174.840079"></polygon>
                            <path d="M49.103917,0.378571429 C22.1779547,0.378571429 0.327283019,24.327381 0.327283019,60.6480159 L0.327283019,67.5373016 C0.327283019,67.5373016 2.55576604,87.7686508 17.1344679,83.2027778 C31.7102113,78.6333333 40.5760679,71.0519841 46.1506038,77.143254 C48.1568302,79.3305556 49.1035472,81.6785714 49.1035472,83.9646825 C49.1035472,81.6781746 50.050634,79.3301587 52.0568604,77.143254 C57.6310264,71.0515873 66.496883,78.6333333 81.0726264,83.2027778 C95.6513283,87.7690476 97.8798113,67.5373016 97.8798113,67.5373016 L97.8798113,60.6480159 C97.8805509,24.3269841 76.0298792,0.378571429 49.103917,0.378571429 Z" id="Path"></path>
                        </g>
                        <path d="M48.7303359,94.8156493 L48.7303359,87.9615575 C48.7303359,53.0898211 69.6647828,29.7473769 96,28.1539713 C95.0474148,28.0967256 94.1039525,28 93.1365426,28 C65.4598756,28 43,51.8264668 43,87.9615575 L43,94.8156493 C43,94.8156493 45.1902617,113.683056 58.9940041,110.675088 C50.2675484,108.231682 48.7303359,94.8156493 48.7303359,94.8156493 Z" id="Path" fill="#FFFFFF"></path>
                        <path d="M136.269993,94.8156493 L136.269993,87.9615575 C136.269993,53.0898211 115.336747,29.7473769 89,28.1539713 C89.9555713,28.0967256 90.8989795,28 91.8663339,28 C119.541413,28 142,51.8264668 142,87.9615575 L142,94.8156493 C142,94.8156493 139.810244,113.683056 126.006914,110.675088 C134.733249,108.231682 136.269993,94.8156493 136.269993,94.8156493 Z" id="Path" fill="#FF8F00"></path>
                        <path d="M111.240876,126.982477 C99.6966994,123.805689 92.9996209,117.965056 92.9996209,112 C92.9996209,117.965056 86.3025425,123.805689 74.7583653,126.982477 C69.4552163,128.423771 54.4574909,123.504667 48,121.032673 L53.483977,130.125148 C54.9696472,132.371577 56.5436464,134.520875 58.1510059,136.541737 C68.9995451,150.145934 82.6658916,159 93,159 C103.334108,159 117.000455,150.145532 127.848994,136.541737 C129.455975,134.520875 131.030732,132.371175 132.516023,130.125148 L138,121.032673 C131.541372,123.504667 116.544025,128.423771 111.240876,126.982477 Z" id="Path" fill="#F8B631"></path>
                        <path d="M63.8637705,137.113927 C62.2912674,135.144552 60.7506669,133.049622 59.2968713,130.860819 L55.5004578,124.589327 C52.5698669,123.667417 49.9026583,122.723604 48,122 L53.3663199,130.860819 C54.8201156,133.050013 56.3603451,135.144552 57.9332192,137.113927 C68.5490063,150.371517 81.9221456,159 92.0345388,159 C92.9931017,159 93.9895026,158.899087 95,158.746934 C85.3364694,157.299727 73.4749957,149.116749 63.8637705,137.113927 Z" id="Path" fill="#FFFFFF"></path>
                        <g id="Group" transform="translate(38.000000, 94.000000)">
                            <path d="M82.484346,42.5642331 C84.0680969,40.556411 85.6204567,38.4205828 87.0849965,36.1890491 L90.9090934,29.7951227 C93.8613426,28.8552147 96.548263,27.8929755 98.4649827,27.1552454 L93.0590035,36.1890491 C91.5948374,38.4209816 90.0428512,40.556411 88.4583529,42.5642331 C77.7641107,56.0806442 64.2921384,64.8775767 54.1050104,64.8775767 C53.1393633,64.8775767 52.1355986,64.7746933 51.1180069,64.6195706 C60.8525813,63.1441104 72.8017163,54.8013804 82.484346,42.5642331 Z" id="Path" fill="#FF8F00"></path>
                            <path d="M50.9401246,11.3255521 C53.0900346,13.523589 54.1053841,15.8831288 54.1053841,18.1804601 C54.1053841,24.1070245 47.5035571,29.9099693 36.1235709,33.0662577 C30.8958478,34.4982515 23.9356401,33.7669018 17.5699931,31.3108589 C4.96501038,26.4354601 -5.42952249,14.8929755 3.82970242,0.327791411 C3.82970242,0.327791411 4.21760554,22.0030982 19.8428512,17.414816 C35.4643599,12.8229448 44.9653702,5.2043865 50.9401246,11.3255521 Z" id="Path" fill="#FCDC9C"></path>
                            <path d="M104.410215,0.327791411 C114.568194,16.3313497 100.976637,28.6961043 86.8163045,32.5558282 C81.588955,33.9878221 76.2995709,34.2119325 72.0871972,33.0662577 C60.7072111,29.9099693 54.1053841,24.1070245 54.1053841,18.1804601 C54.1053841,15.8827301 55.1207336,13.5231902 57.2706436,11.3255521 C63.2450242,5.20398773 72.746782,12.8229448 88.3686644,17.414816 C103.992789,22.0034969 104.410215,0.327791411 104.410215,0.327791411 Z" id="Path" fill="#FCDC9C"></path>
                        </g>
                        <path d="M49.5232353,117.159531 C46.1348107,113.730239 43.9900579,109.520775 44.0106733,104.748815 C41.6815062,99.8201921 41.5525662,94 41.5525662,94 C35.5602272,103.282549 37.7784459,111.336583 43.5305216,117.159531 C50.3800869,124.128725 62.1867226,127.865047 71,126.82941 C63.3486824,126.079941 54.9038587,122.632149 49.5232353,117.159531 Z" id="Path" fill="#FBFBFB"></path>
                        <g id="Group" transform="translate(22.000000, 2.000000)" fill="#FF8F00">
                            <path d="M120.8685,91.6146825 C120.8685,91.6146825 120.7395,97.481746 118.40925,102.450794 C118.429875,107.261508 116.284125,111.505159 112.894125,114.962302 C107.511,120.478968 99.06225,123.955159 91.407375,124.710714 C100.224375,125.754762 112.0365,121.988095 118.88925,114.962302 C124.64475,109.092063 126.863625,100.972619 120.8685,91.6146825 Z" id="Path"></path>
                            <path d="M119.966625,6.73968254 L96.178875,6.73968254 C90.936,3.36944444 82.833,0.395634921 70.506,0.395634921 C58.193625,0.395634921 50.113875,3.36349206 44.871,6.73968254 L39.031125,6.73968254 L22.825125,6.73968254 L21.045375,6.73968254 C9.444,6.73968254 0.061875,16.6678571 0.061875,28.9444444 C0.061875,41.2210317 9.444375,51.1492063 21.045375,51.1492063 L21.045375,82.8702381 C21.045375,86.0424603 30.03825,89.2146825 70.506375,89.2146825 C110.9745,89.2146825 119.967375,86.0424603 119.967375,82.8702381 L119.967375,51.1492063 C131.56875,51.1492063 140.9505,41.2210317 140.9505,28.9444444 C140.94975,16.7003968 131.568,6.73968254 119.966625,6.73968254 Z" id="Path"></path>
                        </g>
                        <path d="M49,89 L49,53.0715088 C37.3894333,53.0715088 27.9998749,42.9953411 27.9998749,30.5357544 C27.9998749,18.0761677 37.3898086,8 49,8 L44.7812852,8 L43.0001251,8 C31.3895584,8 22,18.0761677 22,30.5357544 C22,42.9953411 31.3899337,53.0715088 43.0001251,53.0715088 L43.0001251,85.2653862 L49,89 Z" id="Path" fill="#F8B631"></path>
                        <path d="M137,89 L137,53.1291763 C148.610728,53.1291763 158.000042,43.0401165 158.000042,30.5645882 C158.000042,18.0890598 148.610353,8 137,8 L141.218773,8 L142.999958,8 C154.610686,8 164,18.0890598 164,30.5645882 C164,43.0401165 154.610311,53.1291763 142.999958,53.1291763 L142.999958,85.3642446 L137,89 Z" id="Path" fill="#FF8F00"></path>
                        <g id="Group" transform="translate(78.000000, 177.000000)" fill="#F8B631">
                            <path d="M6.44882192,3.35097959 C6.44882192,5.06408163 5.07605479,6.45030612 3.3830137,6.45030612 C1.68958904,6.45030612 0.316821918,5.06408163 0.316821918,3.35097959 C0.316821918,1.6374898 1.68958904,0.251265306 3.3830137,0.251265306 C5.07605479,0.251265306 6.44882192,1.6374898 6.44882192,3.35097959 Z" id="Path"></path>
                            <path d="M27.9113973,3.35097959 C27.9113973,5.06408163 26.5401644,6.45030612 24.8452055,6.45030612 C23.1506301,6.45030612 21.7793973,5.06408163 21.7793973,3.35097959 C21.7793973,1.6374898 23.1506301,0.251265306 24.8452055,0.251265306 C26.5397808,0.251265306 27.9113973,1.6374898 27.9113973,3.35097959 Z" id="Path"></path>
                            <path d="M27.9113973,15.7490612 C27.9113973,17.4621633 26.5401644,18.8483878 24.8452055,18.8483878 C23.1506301,18.8483878 21.7793973,17.4621633 21.7793973,15.7490612 C21.7793973,14.0355714 23.1506301,12.6493469 24.8452055,12.6493469 C26.5397808,12.6493469 27.9113973,14.0355714 27.9113973,15.7490612 Z" id="Path"></path>
                            <path d="M6.44882192,15.7490612 C6.44882192,17.4621633 5.07605479,18.8483878 3.3830137,18.8483878 C1.68958904,18.8483878 0.316821918,17.4621633 0.316821918,15.7490612 C0.316821918,14.0355714 1.68958904,12.6493469 3.3830137,12.6493469 C5.07605479,12.6493469 6.44882192,14.0355714 6.44882192,15.7490612 Z" id="Path"></path>
                        </g>
                        <g id="Group" transform="translate(1.000000, 0.000000)" fill="#773C80">
                            <path d="M184.354817,202.839027 L1.86748491,202.839027 C1.04077666,202.839027 0.371625755,202.13051 0.371625755,201.254279 L0.371625755,191.746584 C0.371625755,178.16858 7.02121932,172.953225 19.2912314,168.075277 C20.6965231,167.524164 22.4375131,166.85926 24.4037988,166.109904 C33.74534,162.553439 47.8618793,157.177904 54.9070503,152.383615 C55.6050181,151.906645 56.5297787,152.123521 56.9736338,152.856621 C57.4208571,153.593289 57.2191388,154.574588 56.5252877,155.045215 C49.1923219,160.040918 34.8845433,165.48782 25.4161328,169.093846 C23.4614487,169.836857 21.7320604,170.495814 20.3402414,171.046928 C8.83818109,175.614824 3.36334406,179.879807 3.36334406,191.746188 L3.36334406,199.669135 L182.858958,199.669135 L182.858958,191.746188 C182.858958,179.87941 177.384121,175.614428 165.879441,171.046135 C164.591288,170.535463 163.004861,169.929238 161.210728,169.244906 C151.643143,165.586148 137.184918,160.052416 129.705622,155.053937 C129.010274,154.586482 128.799948,153.608355 129.241183,152.865344 C129.682419,152.129072 130.605682,151.909023 131.306644,152.373703 C138.504881,157.192574 153.354942,162.869041 162.227553,166.260965 C164.02992,166.951244 165.628322,167.560641 166.925457,168.074484 C179.201457,172.952432 185.850676,178.167787 185.850676,191.745791 L185.850676,201.253486 C185.850676,202.13051 185.181525,202.839027 184.354817,202.839027 Z" id="Path"></path>
                            <path d="M93.1111509,158.468064 C80.7958551,158.468064 64.2500885,146.459346 52.8748974,129.268973 C52.4014769,128.550543 52.5653964,127.563297 53.2416579,127.058969 C53.9179195,126.560588 54.8497907,126.737023 55.325831,127.448713 C66.173336,143.846514 81.7112596,155.298568 93.1107767,155.298568 C104.510294,155.298568 120.047095,143.846514 130.897219,127.448713 C131.37064,126.737023 132.305505,126.560588 132.979895,127.058969 C133.655034,127.563297 133.818579,128.550939 133.345533,129.268973 C121.972213,146.459346 105.427944,158.468064 93.1111509,158.468064 Z" id="Path"></path>
                            <path d="M69.2851871,127.504617 C69.2851871,127.504617 69.2851871,127.504617 69.2836901,127.504617 C58.6757022,127.501445 44.7066157,121.506602 39.6906036,111.469203 C37.5420604,107.170123 36.126664,100.257418 41.5850342,91.7492598 C41.9514205,91.1810977 42.6295533,90.9229863 43.2470584,91.122418 C43.8709256,91.3174883 44.3031791,91.9193516 44.3177746,92.6096309 C44.3308732,93.2658125 44.7500282,108.680729 54.7910342,108.677557 C55.9291147,108.677557 57.1734809,108.482883 58.4911992,108.098689 C63.2590865,106.709012 67.4648571,105.021971 71.1766237,103.538326 C76.5212233,101.396518 80.7415895,99.7063047 84.4282817,99.7063047 C87.0809336,99.7063047 89.2425755,100.599188 91.0382052,102.434514 C94.9266157,106.390238 95.0025875,110.224639 94.3817143,112.741125 C92.9019477,118.739141 86.0349175,123.833965 75.5380805,126.724732 C73.6571227,127.238576 71.5534889,127.504617 69.2851871,127.504617 Z M41.8799396,97.7766152 C40.2542173,102.029703 40.403167,106.121025 42.3342736,109.986748 C46.8218511,118.968705 59.5607928,124.332742 69.2836901,124.335518 C69.2851871,124.335518 69.2851871,124.335518 69.2851871,124.335518 C71.3008732,124.335518 73.1515171,124.106746 74.7862213,123.654357 C83.9260443,121.141439 90.3252676,116.650461 91.4869256,111.942605 C92.0958229,109.472904 91.2470342,107.040076 88.9641368,104.71866 C85.6554326,101.343389 80.2947404,103.271889 72.2357384,106.50165 C68.4629698,108.011859 64.1872153,109.726654 59.2849738,111.156377 C57.7090262,111.614316 56.1985714,111.84626 54.7917827,111.84626 C46.724173,111.849828 43.135159,104.267064 41.8799396,97.7766152 Z" id="Shape" fill-rule="nonzero"></path>
                            <path d="M117.084942,127.504617 C114.817763,127.504617 112.714129,127.238576 110.833171,126.724732 C100.33334,123.840309 93.4648129,118.745484 91.9850463,112.753812 C91.3630503,110.234551 91.4405191,106.396582 95.3360402,102.433324 C97.1283018,100.599584 99.2903179,99.7067012 101.94297,99.7067012 C105.630036,99.7067012 109.851525,101.396518 115.194628,103.537137 C118.907891,105.022367 123.114785,106.709408 127.882672,108.099086 C129.197396,108.483279 130.441763,108.677953 131.58134,108.677953 C141.619352,108.677953 142.040004,93.2658125 142.05198,92.6100273 C142.069569,91.919748 142.501823,91.3178848 143.126813,91.1228145 C143.758165,90.9233828 144.424322,91.1814941 144.786592,91.7512422 C150.237851,100.262572 148.815344,107.176863 146.66231,111.479115 C141.64293,121.506602 127.683948,127.504617 117.084942,127.504617 Z M101.94297,102.875801 C100.076233,102.875801 98.6387565,103.461012 97.4119799,104.715885 C95.1201006,107.04642 94.2698149,109.479645 94.8802093,111.952121 C96.0418672,116.659977 102.442588,121.141836 111.586901,123.654754 C121.096105,126.273137 138.595823,120.832182 144.02126,109.993092 C145.954986,106.130541 146.10693,102.038822 144.488692,97.7861309 C143.23235,104.274994 139.644833,111.847053 131.581714,111.847053 C130.176423,111.847053 128.665968,111.615109 127.088523,111.15717 C122.185907,109.727447 117.90903,108.012256 114.134765,106.502443 C109.079831,104.476012 105.083264,102.875801 101.94297,102.875801 Z" id="Shape" fill-rule="nonzero"></path>
                            <path d="M43.74967,85.5724297 C42.9229618,85.5724297 42.2538109,84.8639121 42.2538109,83.9876816 L42.2538109,52.2939102 C42.2538109,51.4180762 42.9229618,50.7091621 43.74967,50.7091621 C44.5763783,50.7091621 45.2455292,51.4176797 45.2455292,52.2939102 L45.2455292,83.9876816 C45.2459034,84.8639121 44.5763783,85.5724297 43.74967,85.5724297 Z" id="Path"></path>
                            <path d="M142.472632,85.5724297 C141.645924,85.5724297 140.976773,84.8639121 140.976773,83.9876816 L140.976773,52.2939102 C140.976773,51.4180762 141.645924,50.7091621 142.472632,50.7091621 C143.29934,50.7091621 143.968491,51.4176797 143.968491,52.2939102 L143.968491,83.9876816 C143.968491,84.8639121 143.298966,85.5724297 142.472632,85.5724297 Z" id="Path"></path>
                            <path d="M93.1111509,91.9114219 C48.4153883,91.9114219 42.2538109,88.102793 42.2538109,83.9880781 C42.2538109,83.1122441 42.9229618,82.4033301 43.74967,82.4033301 C44.5748813,82.4033301 45.2440322,83.1106582 45.2455292,83.9833203 C45.4629658,84.7877871 48.8094688,88.7419258 93.1107767,88.7419258 C137.482068,88.7419258 140.769066,84.7754961 140.976024,83.9801484 C140.976024,83.1043145 141.648169,82.3985723 142.471883,82.3985723 C143.298592,82.3985723 143.967742,83.1118477 143.967742,83.9876816 C143.968491,88.102793 137.806913,91.9114219 93.1111509,91.9114219 Z" id="Path"></path>
                            <path d="M43.74967,53.8790547 C31.3771147,53.8790547 21.3129054,43.2164004 21.3129054,30.1090234 C21.3129054,17.0016465 31.3774889,6.3385957 43.74967,6.3385957 C44.5763783,6.3385957 45.2455292,7.04711328 45.2455292,7.92334375 C45.2455292,8.79957422 44.5763783,9.5080918 43.74967,9.5080918 C33.0279115,9.5080918 24.3042495,18.7501426 24.3042495,30.1090234 C24.3042495,41.4679043 33.0279115,50.7099551 43.74967,50.7099551 C44.5763783,50.7099551 45.2455292,51.4184727 45.2455292,52.2947031 C45.2455292,53.1709336 44.5763783,53.8790547 43.74967,53.8790547 Z" id="Path"></path>
                            <path d="M142.472632,53.8790547 C141.645924,53.8790547 140.976773,53.1705371 140.976773,52.2943066 C140.976773,51.4180762 141.645924,50.7095586 142.472632,50.7095586 C153.19439,50.7095586 161.918052,41.4675078 161.918052,30.108627 C161.918052,18.7497461 153.19439,9.50769531 142.472632,9.50769531 C141.645924,9.50769531 140.976773,8.79917773 140.976773,7.92294727 C140.976773,7.0467168 141.645924,6.33819922 142.472632,6.33819922 C154.845187,6.33819922 164.909396,17.0008535 164.909396,30.1082305 C164.909396,43.2156074 154.844813,53.8790547 142.472632,53.8790547 Z" id="Path"></path>
                            <path d="M127.514414,19.0161836 C126.924604,19.0161836 126.36361,18.6446777 126.13008,18.0289375 C126.124093,18.0198184 125.451948,16.3434824 123.611783,14.1386328 C120.140656,10.0481035 111.557336,3.16909961 93.1111509,3.16909961 C77.4710584,3.16909961 68.9259115,8.07321484 64.5113119,12.1883262 C61.1895091,15.2491855 60.1060684,17.9948398 60.0955895,18.0225938 C59.7842173,18.8286465 58.9122254,19.2231484 58.1513843,18.8968418 C57.3875493,18.5721211 57.0148008,17.6586211 57.3171911,16.8478105 C57.3684628,16.7086445 58.6319155,13.4043438 62.5420322,9.80188672 C67.3364909,5.33430078 76.5376901,0 93.1111509,0 C112.714129,0 122.03359,7.536375 125.843408,12.0305254 C128.057819,14.6845918 128.867312,16.7475 128.899497,16.8339336 C129.211992,17.6447441 128.844109,18.5689492 128.078402,18.8984277 C127.894274,18.9789141 127.701537,19.0161836 127.514414,19.0161836 Z" id="Path"></path>
                            <path d="M61.6992314,9.5080918 L43.74967,9.5080918 C42.9229618,9.5080918 42.2538109,8.79957422 42.2538109,7.92334375 C42.2538109,7.04711328 42.9229618,6.3385957 43.74967,6.3385957 L61.6992314,6.3385957 C62.5259396,6.3385957 63.1950905,7.04711328 63.1950905,7.92334375 C63.1950905,8.79957422 62.5259396,9.5080918 61.6992314,9.5080918 Z" id="Path"></path>
                            <path d="M142.472632,9.5080918 L124.733396,9.5080918 C123.903694,9.5080918 123.132748,8.79957422 123.132748,7.92334375 C123.132748,7.04711328 123.696736,6.3385957 124.523445,6.3385957 L142.473006,6.3385957 C143.299714,6.3385957 143.968865,7.04711328 143.968865,7.92334375 C143.968865,8.79957422 143.298966,9.5080918 142.472632,9.5080918 Z" id="Path"></path>
                            <path d="M61.6992314,152.129072 C60.8725231,152.129072 60.2033722,151.420555 60.2033722,150.544324 L60.2033722,144.205729 C60.2033722,143.329895 60.8725231,142.621377 61.6992314,142.621377 C62.5259396,142.621377 63.1950905,143.329895 63.1950905,144.205729 L63.1950905,150.544324 C63.1950905,151.420555 62.5259396,152.129072 61.6992314,152.129072 Z" id="Path"></path>
                            <path d="M82.6405111,171.145256 C82.295831,171.145256 81.9492797,171.021553 81.6674728,170.761459 L60.7261932,151.745275 C60.0982093,151.175527 60.0252314,150.179162 60.5641449,149.513465 C61.1004386,148.848164 62.0480282,148.774021 62.6718954,149.343373 L83.6131751,168.359557 C84.241159,168.929305 84.3141368,169.92567 83.7752233,170.590971 C83.4806922,170.960098 83.061163,171.145256 82.6405111,171.145256 Z" id="Path"></path>
                            <path d="M82.6405111,171.145256 C82.2580322,171.145256 81.8748048,170.99023 81.5828934,170.680973 C80.9983219,170.061664 80.9983219,169.058955 81.5828934,168.440043 L90.557674,158.932348 C91.1418712,158.313039 92.088338,158.313039 92.6725352,158.932348 C93.2567324,159.551656 93.2571066,160.554365 92.6725352,161.173277 L83.6977545,170.680973 C83.4058431,170.990627 83.0233642,171.145256 82.6405111,171.145256 Z" id="Path"></path>
                            <path d="M124.52307,152.129072 C123.696362,152.129072 123.027211,151.420555 123.027211,150.544324 L123.027211,144.205729 C123.027211,143.329895 123.696362,142.621377 124.52307,142.621377 C125.349779,142.621377 126.01893,143.329895 126.01893,144.205729 L126.01893,150.544324 C126.01893,151.420555 125.349779,152.129072 124.52307,152.129072 Z" id="Path"></path>
                            <path d="M103.581791,171.145256 C103.161139,171.145256 102.740487,170.959701 102.448575,170.591367 C101.908165,169.926066 101.981143,168.929701 102.609127,168.359953 L123.550406,149.34377 C124.178765,148.774021 125.125231,148.848561 125.65666,149.513861 C126.19707,150.179559 126.124467,151.175924 125.496109,151.745672 L104.554829,170.761855 C104.271151,171.021553 103.926471,171.145256 103.581791,171.145256 Z" id="Path"></path>
                            <path d="M103.581791,171.145256 C103.199312,171.145256 102.816459,170.99023 102.524547,170.680973 L93.5497666,161.173277 C92.9651952,160.553969 92.9651952,159.55126 93.5497666,158.932348 C94.134338,158.313436 95.0808048,158.313039 95.665002,158.932348 L104.639408,168.440043 C105.22398,169.059352 105.22398,170.062061 104.639408,170.680973 C104.347123,170.990627 103.964644,171.145256 103.581791,171.145256 Z" id="Path"></path>
                            <path d="M64.6913239,199.669531 C63.8646157,199.669531 63.1954648,198.961014 63.1954648,198.08518 L63.1954648,156.883316 C63.1954648,156.007482 63.8646157,155.298965 64.6913239,155.298965 C65.5180322,155.298965 66.1868089,156.007482 66.1868089,156.883316 L66.1868089,198.08518 C66.1868089,198.961014 65.5180322,199.669531 64.6913239,199.669531 Z" id="Path"></path>
                            <path d="M121.531352,199.669531 C120.70427,199.669531 120.035493,198.961014 120.035493,198.08518 L120.035493,156.883316 C120.035493,156.007482 120.70427,155.298965 121.531352,155.298965 C122.35806,155.298965 123.026837,156.007482 123.026837,156.883316 L123.026837,198.08518 C123.027211,198.961014 122.35806,199.669531 121.531352,199.669531 Z" id="Path"></path>
                            <path d="M82.6405111,183.822844 C80.166,183.822844 78.1529336,181.690551 78.1529336,179.068996 C78.1529336,176.447441 80.166,174.314752 82.6405111,174.314752 C85.1146479,174.314752 87.1277143,176.447441 87.1277143,179.068996 C87.1277143,181.690551 85.1150221,183.822844 82.6405111,183.822844 Z M82.6405111,177.484248 C81.8152998,177.484248 81.1446519,178.195938 81.1446519,179.068996 C81.1446519,179.941658 81.8152998,180.653744 82.6405111,180.653744 C83.4657223,180.653744 84.1363702,179.941658 84.1363702,179.068996 C84.1367445,178.195938 83.4660966,177.484248 82.6405111,177.484248 Z" id="Shape" fill-rule="nonzero"></path>
                            <path d="M82.6405111,196.500432 C80.166,196.500432 78.1529336,194.368139 78.1529336,191.746584 C78.1529336,189.125029 80.166,186.99234 82.6405111,186.99234 C85.1146479,186.99234 87.1277143,189.125029 87.1277143,191.746584 C87.1277143,194.368139 85.1150221,196.500432 82.6405111,196.500432 Z M82.6405111,190.161439 C81.8152998,190.161439 81.1446519,190.873129 81.1446519,191.746187 C81.1446519,192.61885 81.8152998,193.330936 82.6405111,193.330936 C83.4657223,193.330936 84.1363702,192.61885 84.1363702,191.746187 C84.1367445,190.873129 83.4660966,190.161439 82.6405111,190.161439 Z" id="Shape" fill-rule="nonzero"></path>
                            <path d="M103.581791,183.822844 C101.107654,183.822844 99.0945875,181.690551 99.0945875,179.068996 C99.0945875,177.144064 100.172789,175.426098 101.840801,174.692602 C102.401795,174.441627 102.986366,174.314752 103.581791,174.314752 C106.056302,174.314752 108.069368,176.447441 108.069368,179.068996 C108.069368,181.690551 106.056302,183.822844 103.581791,183.822844 Z M103.581791,177.484248 C103.383441,177.484248 103.19033,177.527465 102.99198,177.614295 C102.448575,177.855357 102.086306,178.437396 102.086306,179.068996 C102.086306,179.941658 102.758076,180.653744 103.581791,180.653744 C104.405879,180.653744 105.07765,179.941658 105.07765,179.068996 C105.07765,178.195938 104.405879,177.484248 103.581791,177.484248 Z" id="Shape" fill-rule="nonzero"></path>
                            <path d="M103.581791,196.500432 C101.107654,196.500432 99.0945875,194.368139 99.0945875,191.746584 C99.0945875,189.125029 101.107654,186.99234 103.581791,186.99234 C106.056302,186.99234 108.069368,189.125029 108.069368,191.746584 C108.069368,194.368139 106.056302,196.500432 103.581791,196.500432 Z M103.581791,190.161439 C102.758076,190.161439 102.086306,190.873129 102.086306,191.746187 C102.086306,192.61885 102.758076,193.330936 103.581791,193.330936 C104.405879,193.330936 105.07765,192.61885 105.07765,191.746187 C105.07765,190.873129 104.405879,190.161439 103.581791,190.161439 Z" id="Shape" fill-rule="nonzero"></path>
                        </g>
                    </g>
                    <rect id="Rectangle" stroke="#FFFFFF" fill-opacity="0" fill="#FCFCFC" x="0.5" y="0.5" width="279" height="279" rx="8"></rect>
                </g>
            </g>
        </g>
    </g>
</svg>